<?xml version="1.0" encoding="utf-8"?>
<!-- Generator: Adobe Illustrator 21.1.0, SVG Export Plug-In . SVG Version: 6.00 Build 0)  -->
<svg version="1.1" id="Ebene_1" xmlns="http://www.w3.org/2000/svg" xmlns:xlink="http://www.w3.org/1999/xlink" x="0px" y="0px"
	 viewBox="0 0 104.8 151.7" style="enable-background:new 0 0 104.8 151.7;" xml:space="preserve">
<style type="text/css">
	.st0{fill-rule:evenodd;clip-rule:evenodd;}
</style>
<g>
	<path class="st0" d="M13.5,74.2c1.3-2.1,2.6-4.2,4-6.2c2.8-4.2,5.7-8.3,8.4-12.6c1.4-2.3,2.4-4.7,3.6-7.2c0.3-0.8,0.7-1,1.5-0.9
		c1.4,0.2,2.8,0.4,4.3,0.6c-0.2,1.1-0.4,2-0.7,3c-1.2,4.6-3.5,8.7-6,12.8c-3,5-6.1,9.9-8.7,15.1c-1.7,3.3-2.6,7-3.7,10.6
		c-0.3,1-0.7,1.5-1.8,1.2c-0.5-0.1-1-0.1-1.6-0.2c1-5.1,2.6-9.9,4.9-14.5c2.3-4.5,4.8-8.9,7.1-13.4c-1.2,1.6-2.4,3.2-3.6,4.8
		c-5,6.8-9.1,14.1-11.6,22.2c-0.4,1.3-1.4,0.4-2.3,0.6c0.6-9.9,4-19,6.5-28.4C9.4,71,5.3,80.2,3.7,90.3c-1,0-2,0-3.1,0
		c0.1-0.8,0.2-1.5,0.4-2.3c1.3-7,3.6-13.6,6.3-20.1c1.2-3.1,2.6-6.1,3.6-9.3c1.2-3.7,2.1-7.4,3.1-11.2c0.2-0.7,0.4-1.1,1.2-1.1
		c1.2,0.1,2.4,0.1,3.6,0.1c0.7,0,1,0.2,1,1c0.1,5.2-0.9,10.2-2.5,15c-1.1,3.4-2.3,6.8-3.5,10.2c-0.2,0.4-0.3,0.9-0.4,1.3
		C13.4,74.2,13.4,74.2,13.5,74.2z"/>
	<path class="st0" d="M11.3,149.5c-0.3,0.2-0.4,0.3-0.4,0.3c-3.1,0.3-3,0.3-3.6-2.7c-1.3-7.3-2.7-14.6-4-21.9
		c-1.4-8-2.4-16-2.2-24.1c0-0.7,0.1-1.4,0.1-2.2c0.8,0,1.5,0,2.2-0.1c0.7-0.1,0.9,0.3,1,0.9c0.5,5.2,1.4,10.4,3,15.4
		c1.7,5.6,3.7,11.2,5.8,16.7c-2.2-10.8-4.3-21.6-3.6-32.9c1,0.1,1.9,0.1,3,0.2c0,3-0.1,5.9,0,8.8c0.2,6.3,1.4,12.4,2.8,18.5
		c1.6,7.3,3.4,14.6,5,21.9c0.1,0.4,0.1,0.8,0.2,1.4c-1,0-1.9,0.1-2.7,0c-0.3,0-0.6-0.4-0.8-0.7c-3.8-10.1-7.6-20.2-11.4-30.3
		c0-0.1-0.1-0.1-0.4-0.1C7.3,129,9.3,139.3,11.3,149.5z"/>
	<path class="st0" d="M91.9,52.7c0.1-1.2,0.1-2.1,0.2-3c0.5-9.3-1-18.3-3-27.3c-1.4-6.2-2.8-12.4-4.2-18.6c-0.2-0.7-0.3-1.5-0.5-2.6
		c2.9,0.2,5.7,0,8.3,0.5c2.5,0.4,3.7,2.7,4.7,4.8c2.3,4.9,3.6,10.1,4.5,15.4c0.9,4.9,1.6,9.9,2.1,14.8c0.4,3.9,0.2,7.8-1,11.6
		c-1,3-2.8,4.3-6,4.3C95.3,52.7,93.6,52.7,91.9,52.7z M88.8,5c2.9,14.4,7.1,28.6,6.6,43.4c3.2,0.3,4-0.2,4.7-3.1
		c0.1-0.2,0.1-0.5,0.1-0.7c0-3.6,0.3-7.2-0.2-10.8c-0.9-6.3-2.2-12.5-3.5-18.7c-0.6-2.6-1.6-5.1-2.7-7.5C92.8,5.2,91.4,4.6,88.8,5z"
		/>
	<path class="st0" d="M87.4,60.6c-0.7,2.3-1.4,4.5-2.2,6.7c-2,5.5-5,10.5-8.1,15.5c-2.1,3.5-4.2,7-6,10.7c-1.2,2.6-1.8,5.5-2.6,8.3
		c-0.1,0.4-0.2,0.8-0.2,1.3c-1.5-0.2-3-0.4-4.5-0.7c0.7-6.9,3.9-12.6,7.8-18.2c-2-0.5-3.9-0.9-5.8-1.3c-0.2,0-0.6,0.4-0.8,0.6
		c-4,5-7,10.4-7.9,16.8c0,0.2-0.1,0.4-0.2,0.7c-1.2-0.3-2.4-0.5-3.6-0.9c-0.2-0.1-0.5-0.7-0.4-1.1c0.8-5.4,3-10.2,6.4-14.4
		c2.2-2.8,4.6-5.4,6.9-8.2c4.2-5.1,7.3-10.8,9-17.2c0.1-0.2,0.2-0.4,0.3-0.8c0.6,0.1,1.1,0.2,1.6,0.3c0.5,0.1,1,0.2,1.7,0.4
		C76.9,67,73.1,73.5,68,79.7c2,0.4,3.7,0.8,5.5,1.1c0.2,0,0.5-0.3,0.7-0.5c4.1-5.8,7.4-12,9.3-18.9c0.3-1,0.7-1.3,1.7-1.1
		C85.8,60.5,86.5,60.5,87.4,60.6z"/>
	<path class="st0" d="M57.6,1.5c0.2-0.2,0.3-0.2,0.3-0.2c3.6-0.3,3.5-0.3,4.5,3.1c2.2,7.6,4.6,15.2,6.6,22.8
		c1.2,4.7,1.8,9.6,2.6,14.4c0.2,1,0.2,2.1,0.6,3c0.3,0.7,0.8,1.5,1.5,1.9c1.7,1.1,3.3,0.5,3.6-1.5c0.2-1.8,0.1-3.7-0.1-5.5
		c-0.8-7.8-2.9-15.4-5-22.9c-1.3-4.6-2.5-9.2-3.8-13.7C68.2,2.4,68.1,2,68,1.4c1.2,0,2.4,0,3.5,0c0.2,0,0.5,0.4,0.6,0.6
		c2.6,10.1,5.3,20.2,7.6,30.4c0.9,4.1,1,8.3,1.3,12.5c0.1,1.2-0.4,2.6-0.9,3.8c-0.7,1.6-2.1,2.3-3.9,2.3c-4.3-0.1-7.4-2.7-7.9-7.5
		c-1.3-12.4-5.2-24-8.8-35.8C58.7,5.7,58.2,3.5,57.6,1.5z"/>
	<path class="st0" d="M81.6,110.4c1.6,0,3.1,0,4.7,0c0.2,1.8,0.2,3.6,0.5,5.3c1.3,6.1,2.7,12.2,4.1,18.2c0.8,3.5,1.8,7.1,2.4,10.6
		c0.6,3.6-1,5.8-4.7,6.3c-5.5,0.7-9.3-1-11-6.9c-2.1-7.3-4.4-14.5-6.4-21.9c-0.9-3.5-1.4-7.1-2-10.7c-0.1-0.5-0.1-1.1-0.1-1.9
		c1.5,0.1,2.9,0.2,4.3,0.4c0.2,0,0.4,0.5,0.4,0.7c0.5,8.6,3.3,16.7,5.7,24.9c0.9,3,1.7,6,2.5,9c0.7,2.3,2.3,3.4,4.6,3.1
		c1.6-0.2,2.5-1,2.2-2.6c-0.4-2.6-1-5.1-1.7-7.6c-1.5-6.1-3.2-12.1-4.7-18.2c-0.6-2.5-0.7-5.1-1-7.6
		C81.6,111.2,81.6,110.8,81.6,110.4z"/>
	<path class="st0" d="M49.6,26.4c1.1,0.1,2.1,0.2,3.1,0.3c0.3,0,0.7,0.3,0.8,0.6c1.4,3.8,2.6,7.6,2.5,11.8c-0.2,5.2-3.1,7.1-7.9,5.3
		c-1.9-0.7-3.4-1.9-4.2-3.8c-1.1-2.7-2.1-5.4-3-8.2c-1.8-5.8-3.5-11.6-5.1-17.5c-0.9-3.3-1.8-6.7-1.5-10.1c0.3-3.4,2.2-4.9,5.6-4.5
		c2.8,0.4,4.6,2,6,4.4c2,3.6,3.1,7.5,4.1,11.5c0.1,0.3,0.2,0.7,0.3,1.1c-1.1,0-2.1,0.1-3.1,0c-0.3,0-0.6-0.6-0.7-0.9
		c-1-3-1.9-6.1-3-9.1c-0.4-1.1-1.2-2.1-2-2.9c-0.5-0.4-1.5-0.8-2-0.5c-0.5,0.2-1,1.2-0.9,1.8c0.4,2.9,0.9,5.9,1.6,8.7
		c2.1,7.6,4.4,15.2,6.6,22.8c0.3,1.2,0.9,2.3,1.5,3.4c0.5,0.8,1.3,1.4,2.3,1.2c1-0.2,1.3-1.1,1.5-2c0.5-2.5,0.1-4.9-0.5-7.4
		C50.9,30.4,50.2,28.5,49.6,26.4z"/>
	<path class="st0" d="M59.6,73c1.6-2.2,3.2-4.3,4.6-6.6c0.8-1.4,1.2-3,1.7-4.6c0.2-0.5,0.2-1.2,0-1.8c-0.2-0.6-0.7-1.3-1.2-1.4
		c-0.4-0.1-1.3,0.2-1.6,0.6c-1,1.3-1.9,2.7-2.8,4.2c-2.6,4.3-5.8,8.1-9.7,11.4c-4.3,3.6-7.7,8-9.4,13.5c-0.4,1.2-0.5,2.5-0.5,3.8
		c0,1,0.3,2,1.4,2.2c1,0.3,1.7-0.5,2.1-1.2c1.5-2.5,2.8-5,4.3-7.5c0.8-1.4,1.8-2.8,2.7-4.3c0.4-0.7,0.9-0.8,1.6-0.4
		c0.7,0.4,1.4,0.7,2.1,1c-1.3,2.2-2.5,4.3-3.7,6.5c-1,1.8-1.9,3.6-2.9,5.4c-0.3,0.6-0.8,1.2-1.2,1.8c-1.7,2.2-3.6,2.7-6,2
		c-2.4-0.8-3.8-2.4-4.1-5.1c-0.3-3.7,0.9-7.1,2.6-10.3c1.9-3.5,4.4-6.5,7.3-9.1c4.4-3.8,8-8.3,11-13.2c0.7-1.1,1.5-2.2,2.3-3.2
		c1.8-2.1,3.6-2.5,6.1-1.5c2,0.8,3.1,2.8,2.9,5.3c-0.2,2.6-1,5-2.3,7.1c-1.2,1.9-2.6,3.7-4,5.5c-0.5,0.7-1.1,0.9-1.9,0.5
		C60.6,73.4,60,73.2,59.6,73z"/>
	<path class="st0" d="M10.4,0.5c1.4,0,2.9-0.4,3.8,0.1c0.8,0.5,1,2.1,1.5,3.2c2.8,6.6,5.6,13.2,8.4,19.9c2.3,5.4,4.5,10.9,5.6,16.8
		c0,0.2,0,0.4,0.1,0.7c-1.5-0.1-3-0.2-4.4-0.4c-0.3,0-0.6-0.6-0.7-0.9c-0.4-1.7-0.8-3.3-1.1-5c-0.1-0.7-0.5-1.1-1.3-1
		c-1.4,0-2.8,0-4.2-0.2c-0.8-0.1-1,0.3-1,1c0,1.6-0.2,3.3-0.2,4.9c0,0.6-0.2,0.9-0.9,0.9c-1.2,0-2.3,0-3.7,0
		c0.1-1.3,0.3-2.5,0.4-3.7c0.6-6,0-12-0.6-18.1C11.5,13.1,11,7.5,10.4,1.8C10.4,1.4,10.4,1,10.4,0.5z M14.9,11c-0.1,0-0.1,0-0.2,0.1
		c0.8,6.3,1.6,12.6,2.4,19c0,0.3,0.4,0.7,0.6,0.7c1.5,0.1,2.9,0,4.7,0C19.9,24,17.4,17.5,14.9,11z"/>
	<path class="st0" d="M46,49.7c1.2,0.3,2.6,0.6,4,1c0.1,3-0.5,5.8-1.4,8.6c-1.4,4.5-4,8.2-6.9,11.9c-3.7,4.7-6.8,9.7-8.4,15.5
		c-0.6,2.4-1.1,4.8-1.6,7.4c-1.1-0.3-2.2-0.6-3.6-1c0.7-3,1.3-5.9,2.1-9c-1.2-0.3-2.5-0.7-3.9-0.9c-0.2,0-0.6,0.4-0.8,0.7
		c-0.9,2.2-1.9,4.5-2.6,6.8c-0.3,0.9-0.6,1.3-1.6,1c-0.6-0.2-1.2-0.2-2.1-0.4c0.9-2.3,1.7-4.6,2.7-6.7C24.8,78.3,28.9,73,33.5,68
		c3.4-3.7,6.9-7.3,9.3-11.7C44,54.2,44.9,52,46,49.7z M44.8,60.3c-0.1-0.1-0.2-0.2-0.4-0.3c-4.9,6.8-11.8,12-16.1,19.3
		c1.3,0.3,2.5,0.7,3.6,1c0.3-0.6,0.5-1,0.8-1.5c2.8-4.2,5.6-8.3,8.4-12.5C42.4,64.4,43.6,62.3,44.8,60.3z"/>
	<path class="st0" d="M56.2,150c-3.9,0-7.6,0-11.3,0c-0.2,0-0.6-0.3-0.7-0.6c-2.8-9.8-5.7-19.5-8.4-29.3c-1.4-5.2-2.2-10.6-2.2-16.1
		c0-0.4,0-0.8,0-1.3c2.8,0.6,5.4,1.3,8,1.9c2.4,0.6,2.4,0.6,2.6,3c0,0.3,0,0.5,0,1c-2.2-0.4-4.4-0.9-6.9-1.3
		c0.4,2.7,0.6,5.2,1.1,7.6c0.6,3,1.4,6,2.1,9c0.2,0.9,0.6,1.4,1.6,1.4c1.3,0,2.6,0.3,3.9,0.3c0.8,0,1.2,0.4,1.4,1.2
		c0.2,0.7,0.4,1.4,0.7,2.3c-2.1-0.2-4-0.3-6.1-0.5c0.5,1.5,0.9,3,1.4,4.4c1.3,4.3,2.7,8.5,3.9,12.8c0.2,0.8,0.6,1,1.3,1
		c1.9,0,3.8,0.1,5.8,0c0.9,0,1.3,0.2,1.5,1.1C55.8,148.5,56,149.2,56.2,150z"/>
	<path class="st0" d="M79.6,104.2c0.4-4.1,1.4-7.8,3-11.3c1.7-3.9,3.8-7.8,5.5-11.7c2.1-4.9,4-9.8,6-14.8c0.1-0.4,0.2-0.8,0.4-1.3
		c-1.6-0.1-3.1-0.1-4.7-0.2c0.3-1.2,0.6-2.3,0.9-3.4c0.1-0.2,0.4-0.5,0.6-0.5c4.1,0,8.2,0,12.5,0c-0.2,1.2-0.4,2.4-0.7,3.5
		c0,0.2-0.5,0.4-0.8,0.4c-1.1,0.1-2.2,0.1-3.3,0.2c-0.4,0-0.9,0.4-1,0.7c-2,7.5-5.2,14.4-8.3,21.4c-2.3,5.2-4.4,10.6-5.1,16.3
		c0,0.3-0.5,0.8-0.7,0.8C82.4,104.4,81.1,104.2,79.6,104.2z"/>
</g>
</svg>
