<?xml version="1.0" encoding="UTF-8"?>
<svg id="Ebene_1" xmlns="http://www.w3.org/2000/svg" xmlns:xlink="http://www.w3.org/1999/xlink" version="1.1" viewBox="0 0 97.81 42.05">
  <!-- Generator: Adobe Illustrator 30.1.0, SVG Export Plug-In . SVG Version: 2.1.1 Build 136)  -->
  <defs>
    <style>
      .st0 {
        fill: #6e3e3f;
      }

      .st1 {
        fill: none;
      }

      .st2 {
        fill: #f3e6e6;
      }

      .st3 {
        fill: #2b2b2c;
      }

      .st4 {
        fill: #dfdfdf;
      }

      .st5 {
        fill: #e0c0c1;
      }

      .st6 {
        fill: #ddc2c3;
      }

      .st7 {
        fill: #963336;
      }

      .st8 {
        fill: #e11f25;
      }

      .st9 {
        fill: #6f4c4c;
      }

      .st10 {
        fill: #fccdcf;
      }

      .st11 {
        fill: #e0c3c4;
      }

      .st12 {
        clip-path: url(#clippath-1);
      }

      .st13 {
        fill: #e21110;
      }

      .st14 {
        fill: #fefefe;
      }

      .st15 {
        fill: #e21e25;
      }

      .st16 {
        fill: #6f4a4b;
      }

      .st17 {
        fill: #2b2a28;
      }

      .st18 {
        fill: #f6bcbf;
      }

      .st19 {
        fill: #726464;
      }

      .st20 {
        clip-path: url(#clippath);
      }

      .st21 {
        fill: #c8c8c6;
      }

      .st22 {
        fill: #fdfdfd;
      }
    </style>
    <clipPath id="clippath">
      <rect class="st1" x="-.16" y="-.38" width="98.09" height="42.48"/>
    </clipPath>
    <clipPath id="clippath-1">
      <polygon class="st1" points="99.46 42.83 -.16 42.82 -.16 -.38 99.38 -.15 99.46 42.83"/>
    </clipPath>
  </defs>
  <g class="st20">
    <g class="st12">
      <g>
        <path class="st15" d="M34.89,28.18l.56.59c-.33,1.34,3,9.57,3.62,9.41.32-.08,5.25-3.41,5.4-3.7-1.35-2.53-2.35-5.06-2.42-8,.12-.51.2-.56.66-.76.34-.15,7.08-.06,7.35.19l.23.57.02,7.62,6.78.02.35.48.32-.35c-.02-4.7.03-9.37.16-13.99,0-.17,2.15-.41,2.15-.29v14.48c.02-.47.11-.27.25.22l.34-.49,6.97-.04.37.49c.24-.2.36-.44.36-.72v-13.74c.04-.37,6.82-.06,7.3.09.33.44.31.99-.08,1.65l-5.43,12.17,17.68.03c.62-1.78,1.18-3.6,1.68-5.48l.56-.2-.07-.83h-8.04c-.42,0-.6-.11-.56-.37-.15-.12-.38-.31-.33-.44.36-1.06,2.35-5.77,2.81-6.29l.67-.22c.32-.62.73-.93,1.25-.91l85-.02.88.39.31-.09c3.11,2.1,6.12,4.31,9.04,6.62.13.32-1.9,6.29-2.15,6.64-.04.06-.14.08-.24.09-.34,1.87-.83,3.74-1.46,5.6l.37.37c2.85-2.08,5.72-4.14,8.59-6.18-.32-.35-.16-.47.24-.2.71-.8,1.43-1.17,2.15-1.1l10.31,7.45.45-.24c-1.34-4.1-2.65-8.19-3.92-12.29.14-.58,7.66-5.86,8.89-6.72.04-.03.15.02.27.1l1.26-.48c8.05.02,16.09.04,24.13.05l.29.48c.18,7.51.23,15.12.16,22.84-76.86.1-153.7.07-230.52-.09v-22.8c.05-.19.14-.47.29-.48,1.25-.06,8.92-.09,9.54.18l.22.52.48.22.12,13.88,14.78-.04c7.29-.65,9.93-7.48,5.41-13.05l.15-.54c-.56-.58-.23-.77.42-1.01.78-.29,3.8-.34,3.7.77,1.71-10.32.64,1.38-.06,1.46"/>
        <path class="st17" d="M230.24-.38c.19,6.49.22,13.66-.04,20.21l-25.68-.06c.04-.51.9-1.13,1.41-1.17.12-.21.17-.42-.02-.61-4.41.06-8.78.02-13.11-.13l-.21-.05c-1.22-3.81-2.5-7.59-3.87-11.34v-.87c-.38.04-.78.19-1.2.46l.13.49c-1.23,3.59-2.47,7.12-3.72,10.59.25.44-.12.69-.58.83h-12.04c-.45-.03-.61.36-.58.8.41.04,1.11.56.97.96-.43.06-.85.11-1.51.11h-84.36c-.59,0-.97.16-1.26.43l-.35-.4,5.47-12.55-17-.02-1.55,5.91,6.85.02c.38.02.92.38,1,.75.09.39-2.15,5.11-2.54,5.79l-.58.11-.44.2c-2.03.13-4.97.1-7.02,0-.06,0-.11-.14-.16-.32l-.48-.28.08-12.16h-7.13s-.35-.49-.35-.49c-.1,4.5-.2,9-.28,13.52-.56-.28-1.24-.39-2.03-.31l-.14-.25c-.08-1.57-.18-3.16-.28-4.77l-.21.48h-7.16s-.05,3.65-.05,3.65c-.15.27-.18.31-.43.47s-5.8.13-6.09-.03c-.34-.19-.38-.29-.35-.71.19-2.52,5.39-5.79,7.92-5.62l7.29-.12c.21-.22-1.36-5.67-1.62-5.83-.43-.26-9.15.15-9.99.34-6.18,1.43-10.01,6.54-11.43,12.51l-.57.08c-.31-.38-4.23-.86-4.12.24-.76.46-1.91-.86-1.69-1.66,4.21-4.8,3.31-10.6-3.64-11.49l-14.61-.03-1.55,5.93,12.98.02c3.8,1.01,2.24,3.39.04,5.12-.84.66-2.26,1.68-3.25,1.57.06.7-.75.74-.96.08l-.49-.26-.09-4.26-6.96-.02-.21,4.29-.5.26c-.46-.09-1.05-.15-1.63-.16l-8.41-.07V-.38h230.4Z"/>
        <polygon class="st14" points="230.24 -.38 230.48 -.38 230.48 42.82 -.16 42.82 -.16 42.58 230.24 42.58 230.2 19.83 230.24 -.38"/>
        <path class="st16" d="M90.07,28.42l-.06-.72h-8.25c-.16,0-.49-.08-.58-.1-.13-.03.16-.28.23-.38-.02.02.42.24.57.24l8.54.02c.01.42.04.83-.09.86l-.35.09Z"/>
        <path class="st15" d="M34.89,28.18c0,.08-.49-.19-.49-.33"/>
        <g>
          <path class="st22" d="M30.82,20.47c.24.21.59.73.86,1.06.91,1.13,1.33,2.49,1.61,3.93.68,3.62-2.11,8.21-6.03,8.8-.7.07-1.59.29-2.27.29l-15.04.03-.06-14.58.14-1.64.05-3.39h7.95s.11,5.03.11,5.03c.19.02.47.09.48.22.05.79.15,6.61-.05,6.89-.12.17-.27.3-.48.34,1.88.21,3.88.19,5.78.03-.04-.38.17-.73.64-1.04,1.31-1.97-3.83-5.29-5.34-6.02l-.06-.51c1.09-.95,6.02-3.06,4.81-5.34-.22-.42-1.11-.87-1.72-.87h-13.58s1.83-6.9,1.83-6.9l14.61.02c2.37,0,4.77.97,6.13,2.93,1.14,1.65,1.2,4.02.52,5.85-.52,1.39-1.43,2.46-2.3,3.6l1.42,1.26Z"/>
          <g>
            <path class="st22" d="M84.56,20.26c-.56.96-.98,1.96-1.49,3.14l-1.66,3.81.24.3c2.87.06,5.74.08,8.62.08.1.39.03.67-.19.81l-1.79,6.16h-18.9s1.17-2.47,1.17-2.47l4.55-10.28c.22-.49.36-1.17.57-1.59-.47-.15-.26-.26.18-.36l2.78-6.15-.53-.02-7.66-.02,1.8-6.87,18.18.03-5.86,13.43Z"/>
            <g>
              <path class="st22" d="M68.24,19.75c.56.07.7.38.12.53v13.59c.04.46-.08.7-.36.73-2.08-.05-5.76-.03-7.68.05l-.23-.04c-.01-4.7-.01-9.43,0-14.19-.34-.25-.29-.46.12-.63-.08-4.38-.03-8.71.15-12.97h7.96s0,7.2,0,7.2l-.07,5.73Z"/>
              <path class="st7" d="M60.32,34.66c-.09,0-.26-.02-.48-.05v-14.34s-1.92-.01-1.92-.01c-.22-.05-.19-.36,0-.48l2.16.16V7.08s.28-.26.28-.26l-.04,27.84Z"/>
              <path class="st0" d="M75.85,19.87l-.18.36c-.22.06-.59.03-.96.03l-6.23-.02v14.37s-.48-.01-.48-.01c.04-.04.24-.53.24-.79v-14.07s7.61.12,7.61.12Z"/>
              <path class="st13" d="M64.16,12.6c-.28-.74-.42-2.09-.19-2.86l.16-1.02.32-.78.81,1.96,2.23.15-1.65,1.38.49,2.37-1.39-1.04c-.16-.12-.69-.18-.78-.16Z"/>
              <path class="st3" d="M64.16,12.6l-1.62,1.09.56-2.22-1.77-1.42,2.3-.14.5-1.2.34,3.1c.02.2-.15.67-.31.78Z"/>
            </g>
            <g>
              <path class="st22" d="M34.89,21.7c0-.43.12-1.05.14-1.47.09-.2.24-.64.3-.9.84-3.53,2.51-6.61,5.27-8.97,2.44-2.07,5.45-3.44,8.71-3.48l8.05-.08,1.83,6.87h-6.8c-3.84,0-7.28,1.93-8.71,5.54l6.08-.03.03-4.2h7.85c.21,6.45.24,12.93.1,19.43l-.3.18-7.64-.02v-8.38s-7.31,0-7.31,0c.22,1.9.31,3.68,1.07,5.27l1.54,3.23-6.35,4.26c-2.12-4.11-3.35-6.2-3.86-10.79"/>
              <path class="st19" d="M57.92,19.78v14.83s-.48,0-.48,0c.04-.05.25-.52.25-.7l-.05-18.9.29.18v4.59Z"/>
              <path class="st15" d="M34.64,22.65"/>
            </g>
          </g>
        </g>
        <path class="st8" d="M19.1,19.92c.25-.02.68.38.96.53,2.17,1.19,4.4,2.59,5.1,5.07.28.98-.71,1.79-1.29,1.97-1.91.15-3.89.18-5.78-.03l.05-7.46.96-.08Z"/>
        <path class="st9" d="M23.86,27.49c-.16.05-.54.21-.72.21h-4.73c-.12,0-.33-.17-.33-.25l5.78.03Z"/>
        <g>
          <path class="st17" d="M187.95,31.09l.11.27-1.69,1.21-.24.2-8.55,6.15c-.17.06-.31.1-.37.05-.28-.26,1.23-4.88,1.66-5.51.68-2.41,1.4-4.82,2.14-7.22-3.29-2.52-6.63-5-10.03-7.43l-.05-.21c-.85-.3-.57-.55.27-.62h12.09c.4-.04.69-.32.86-.84l3.44-10.55.31.09.27.13c.06,8.03.07,16.07.06,24.12l-.28.16Z"/>
          <path class="st18" d="M205.93,18.6c-.44.37-.94.84-1.41,1.17l-4.89,3.5-3.88,2.84c-.22.16,0,.93.09,1.19l4.1,12.72-3.94-2.85-7.54-5.53c-.7-.31-1.28.87-2.09.93.02-.08.24-.49.38-.58l1.2-.89c.3-.62.45-.42.56.18l.5-.29c3.04,2.18,6.07,4.37,9.1,6.55-1.19-3.81-2.37-7.62-3.53-11.43,3.06-2.55,6.25-4.97,9.57-7.26-3.89.07-7.76.01-11.6-.18v-.56c4.57-.17,9.16-.19,13.77-.06l-.4.56Z"/>
          <path class="st6" d="M178.88,33.46c-.22.19-.3.03-.24-.48l2.24-6.66-2.01-1.51-1.79-1.32-3.78-2.72c-.56-.41-1.09-.77-1.62-1.04-.25-.25-.69-.76-.97-.96-.31-.35-.16-.46.23-.17l9.92,7.1c.16.12.47.64.39.85-.71,2.17-1.54,4.84-2.37,6.9Z"/>
          <path class="st11" d="M186.14,32.77c-.06.1-.31.43-.44.53l-1.38,1.01-5.68,4.14-2.16,1.5,2.17-6.97.24.48c-.22,1.64-1.17,3.21-1.45,5.32l8.23-5.97.48-.04Z"/>
          <path class="st2" d="M188.73,5.59c.13.66.04.99-.29.99.26.76.43,1.56.49,2.38l.07,22.02-.48.29-.56-.18.04-23.07c0-.45-.07-1.03-.09-1.34-.38-.08-.38-.38-.39-.63l.68-2.03.54,1.57Z"/>
          <path class="st5" d="M192.8,17.86c.13.11.05.19-.24.24-.45.17-.75-.05-.9-.67-1.26-3.58-2.33-7.19-3.22-10.85,0-.26.2-.73.29-.99l1.13,3.2,2.94,9.06Z"/>
          <path class="st21" d="M187.9,6.68s-.35.32-.4.47l-1,3.23c-.71,2.28-1.48,4.68-2.34,6.76-.07.21-.15.21-.24,0,.11-.45.24-1.01.41-1.52l1.75-5.42c.47-1.46.99-2.8,1.44-4.15l.32.12c.12.04.06.38.07.51Z"/>
          <path class="st4" d="M170.94,18.6l-.23.17-1.25-.91,2.3-.02,11.54.02c.28,0,.66-.65.61-.73h.24c.04.11-.11.94-.42.94l-12.51.04c-.43.08-.54.22-.29.48Z"/>
          <polygon class="st10" points="205.93 18.6 205.96 18.1 192.56 18.1 192.8 17.86 206.98 17.86 205.93 18.6"/>
          <path class="st15" d="M192.56,18.1s.38.23.58.23l12.49.03-6.72,4.91-1.67,1.2-2.23,1.71,1.21,3.64,2.89,9-6.37-4.57-3.18-2.33c-.31-.24-.76-.55-1.04-.65l-.08-24.69c.14.12.4.49.47.71l3.2,9.97c.08.26.35.7.45.83Z"/>
        </g>
      </g>
    </g>
  </g>
</svg>