<?xml version="1.0" encoding="UTF-8"?>
<svg id="Ebene_1" xmlns="http://www.w3.org/2000/svg" xmlns:xlink="http://www.w3.org/1999/xlink" version="1.1" viewBox="0 0 97.81 42.05">
  <!-- Generator: Adobe Illustrator 30.1.0, SVG Export Plug-In . SVG Version: 2.1.1 Build 136)  -->
  <defs>
    <style>
      .st0 {
        fill: none;
      }

      .st1 {
        fill: #f3e6e6;
      }

      .st2 {
        fill: #dfdfdf;
      }

      .st3 {
        fill: #e0c0c1;
      }

      .st4 {
        fill: #ddc2c3;
      }

      .st5 {
        fill: #fccdcf;
      }

      .st6 {
        fill: #e0c3c4;
      }

      .st7 {
        clip-path: url(#clippath-1);
      }

      .st8 {
        fill: #fefefe;
      }

      .st9 {
        fill: #e21e25;
      }

      .st10 {
        fill: #2b2a28;
      }

      .st11 {
        fill: #f6bcbf;
      }

      .st12 {
        clip-path: url(#clippath);
      }

      .st13 {
        fill: #c8c8c6;
      }
    </style>
    <clipPath id="clippath">
      <rect class="st0" x="-.16" y="-.38" width="98.09" height="42.48"/>
    </clipPath>
    <clipPath id="clippath-1">
      <polygon class="st0" points="99.46 42.83 -.16 42.82 -.16 -.38 99.38 -.15 99.46 42.83"/>
    </clipPath>
  </defs>
  <g class="st12">
    <g class="st7">
      <g>
        <polygon class="st8" points="230.24 -.38 230.48 -.38 230.48 42.82 -.16 42.82 -.16 42.58 230.24 42.58 230.2 19.83 230.24 -.38"/>
        <g>
          <path d="M30.82,20.47c.24.21.59.73.86,1.06.91,1.13,1.33,2.49,1.61,3.93.68,3.62-2.11,8.21-6.03,8.8-.7.07-1.59.29-2.27.29l-15.04.03-.06-14.58.14-1.64.05-3.39h7.95l.11,5.03c.19.02.47.09.48.22.05.79.15,6.61-.05,6.89-.12.17-.27.3-.48.34,1.88.21,3.88.19,5.78.03.39-.11.64-1.04.64-1.04,1.31-1.97-3.83-5.29-5.34-6.02l-.06-.51c1.09-.95,6.02-3.06,4.81-5.34-.22-.42-1.11-.87-1.72-.87h-13.58l1.83-6.9,14.61.02c2.37,0,4.77.97,6.13,2.93,1.14,1.65,1.2,4.02.52,5.85-.52,1.39-1.43,2.46-2.3,3.6l1.42,1.26h-.01Z"/>
          <g>
            <path d="M75.86,19.86l2.78-6.15-.53-.02-7.66-.02,1.8-6.87,18.18.03-5.86,13.43s-.01,0-.01,0c-.56.96-.98,1.96-1.49,3.14l-1.66,3.81.24.3c2.87.06,5.74.08,8.62.08l-.19.81-1.79,6.16h-18.9l1.17-2.47,4.55-10.28"/>
            <path d="M68.29,19.75c.04.17.07.49.07.53v13.59c.04.46-.08.7-.36.73-2.08-.05-5.76-.03-7.68.05l-.23-.04v-14.19c.04-.63,0,.07.05-.59-.08-4.38.04-8.75.22-13.01h7.96v7.2l-.03,5.73h0Z"/>
            <g>
              <path d="M35.33,19.33c1.21-3.42,2.51-6.61,5.27-8.97,2.44-2.07,5.45-3.44,8.71-3.48l8.05-.08,1.83,6.87h-6.8c-3.84,0-7.28,1.93-8.71,5.54l6.08-.03.03-4.2h7.85c.21,6.45.24,12.93.1,19.43l-.3.18-7.64-.02v-8.38h-7.31c.22,1.9.31,3.68,1.07,5.27l1.54,3.23-6.35,4.26c-1.05-1.62-2.25-3.87-3.06-6.73-.42-1.48-.66-2.85-.8-4.06v-6.46c.02-.24,0-.5.06-.74"/>
              <path class="st9" d="M34.64,22.65"/>
            </g>
          </g>
        </g>
        <g>
          <path class="st10" d="M187.95,31.09l.11.27-1.69,1.21-.24.2-8.55,6.15c-.17.06-.31.1-.37.05-.28-.26,1.23-4.88,1.66-5.51.68-2.41,1.4-4.82,2.14-7.22-3.29-2.52-6.63-5-10.03-7.43l-.05-.21c-.85-.3-.57-.55.27-.62h12.09c.4-.04.69-.32.86-.84l3.44-10.55.31.09.27.13c.06,8.03.07,16.07.06,24.12l-.28.16Z"/>
          <path class="st11" d="M205.93,18.6c-.44.37-.94.84-1.41,1.17l-4.89,3.5-3.88,2.84c-.22.16,0,.93.09,1.19l4.1,12.72-3.94-2.85-7.54-5.53c-.7-.31-1.28.87-2.09.93.02-.08.24-.49.38-.58l1.2-.89c.3-.62.45-.42.56.18l.5-.29c3.04,2.18,6.07,4.37,9.1,6.55-1.19-3.81-2.37-7.62-3.53-11.43,3.06-2.55,6.25-4.97,9.57-7.26-3.89.07-7.76.01-11.6-.18v-.56c4.57-.17,9.16-.19,13.77-.06l-.4.56h0Z"/>
          <path class="st4" d="M178.88,33.46c-.22.19-.3.03-.24-.48l2.24-6.66-2.01-1.51-1.79-1.32-3.78-2.72c-.56-.41-1.09-.77-1.62-1.04-.25-.25-.69-.76-.97-.96-.31-.35-.16-.46.23-.17l9.92,7.1c.16.12.47.64.39.85-.71,2.17-1.54,4.84-2.37,6.9h0Z"/>
          <path class="st6" d="M186.14,32.77c-.06.1-.31.43-.44.53l-1.38,1.01-5.68,4.14-2.16,1.5,2.17-6.97.24.48c-.22,1.64-1.17,3.21-1.45,5.32l8.23-5.97.48-.04h0Z"/>
          <path class="st1" d="M188.73,5.59c.13.66.04.99-.29.99.26.76.43,1.56.49,2.38l.07,22.02-.48.29-.56-.18.04-23.07c0-.45-.07-1.03-.09-1.34-.38-.08-.38-.38-.39-.63l.68-2.03.54,1.57h-.01Z"/>
          <path class="st3" d="M192.8,17.86c.13.11.05.19-.24.24-.45.17-.75-.05-.9-.67-1.26-3.58-2.33-7.19-3.22-10.85,0-.26.2-.73.29-.99l1.13,3.2,2.94,9.06h0Z"/>
          <path class="st13" d="M187.9,6.68s-.35.32-.4.47l-1,3.23c-.71,2.28-1.48,4.68-2.34,6.76-.07.21-.15.21-.24,0,.11-.45.24-1.01.41-1.52l1.75-5.42c.47-1.46.99-2.8,1.44-4.15l.32.12c.12.04.06.38.07.51h-.01Z"/>
          <path class="st2" d="M170.94,18.6l-.23.17-1.25-.91,2.3-.02,11.54.02c.28,0,.66-.65.61-.73h.24c.04.11-.11.94-.42.94l-12.51.04c-.43.08-.54.22-.29.48h0Z"/>
          <polygon class="st5" points="205.93 18.6 205.96 18.1 192.56 18.1 192.8 17.86 206.98 17.86 205.93 18.6"/>
          <path class="st9" d="M192.56,18.1s.38.23.58.23l12.49.03-6.72,4.91-1.67,1.2-2.23,1.71,1.21,3.64,2.89,9-6.37-4.57-3.18-2.33c-.31-.24-.76-.55-1.04-.65l-.08-24.69c.14.12.4.49.47.71l3.2,9.97c.08.26.35.7.45.83h0Z"/>
        </g>
      </g>
    </g>
  </g>
</svg>