<?xml version="1.0" encoding="UTF-8"?>
<svg id="Ebene_1" xmlns="http://www.w3.org/2000/svg" version="1.1" viewBox="0 0 1024 603.28">
  <!-- Generator: Adobe Illustrator 30.1.0, SVG Export Plug-In . SVG Version: 2.1.1 Build 136)  -->
  <defs>
    <style>
      .st0 {
        fill: #3f3f3f;
      }

      .st1 {
        fill: #444;
      }

      .st2 {
        fill: #595959;
      }

      .st3 {
        fill: #414141;
      }

      .st4 {
        fill: #474747;
      }

      .st5 {
        fill: #545454;
      }

      .st6 {
        fill: #363636;
      }

      .st7 {
        fill: #5b5b5b;
      }

      .st8 {
        fill: #e8364e;
      }

      .st9 {
        fill: #efefef;
      }

      .st10 {
        fill: #ebebeb;
      }

      .st11 {
        fill: #454545;
      }

      .st12 {
        fill: #f4f4f4;
      }

      .st13 {
        fill: #a5a5a5;
      }

      .st14 {
        fill: #5a5a5a;
      }

      .st15 {
        fill: #e8374f;
      }

      .st16 {
        fill: #3e3e3e;
      }

      .st17 {
        fill: #b4b4b4;
      }

      .st18 {
        fill: #4d4d4d;
      }

      .st19 {
        fill: #ccc;
      }

      .st20 {
        fill: #606060;
      }

      .st21 {
        fill: #373737;
      }

      .st22 {
        fill: #575757;
      }

      .st23 {
        fill: #5d5d5d;
      }

      .st24 {
        fill: #4f4f4f;
      }

      .st25 {
        fill: #505050;
      }

      .st26 {
        fill: #646464;
      }

      .st27 {
        fill: #f9f9f9;
      }

      .st28 {
        fill: #565656;
      }

      .st29 {
        fill: #fafafa;
      }

      .st30 {
        fill: #fefafb;
      }

      .st31 {
        fill: #f7f7f7;
      }

      .st32 {
        fill: #f5b2bb;
      }

      .st33 {
        fill: #fefefe;
      }

      .st34 {
        fill: #4a4a4a;
      }

      .st35 {
        fill: #5e5e5e;
      }

      .st36 {
        fill: #f4a0ab;
      }

      .st37 {
        fill: #626262;
      }

      .st38 {
        fill: #8d8d8d;
      }

      .st39 {
        fill: #585858;
      }

      .st40 {
        fill: #fcfcfc;
      }

      .st41 {
        fill: #494949;
      }

      .st42 {
        fill: #9e9e9e;
      }

      .st43 {
        fill: #fefcfc;
      }

      .st44 {
        fill: #a4a4a4;
      }

      .st45 {
        fill: #616161;
      }

      .st46 {
        fill: #333;
      }

      .st47 {
        fill: #adadad;
      }

      .st48 {
        fill: #4b4b4b;
      }

      .st49 {
        fill: #484848;
      }

      .st50 {
        fill: #555;
      }

      .st51 {
        fill: #434343;
      }

      .st52 {
        fill: #ececec;
      }

      .st53 {
        fill: #fdfdfd;
      }
    </style>
  </defs>
  <rect class="st6" x="20.6" y="15.91" width="982.69" height="574.26"/>
  <g>
    <rect class="st33" x="682.12" y="22.72" width="314.84" height="314.98"/>
    <path class="st46" d="M809.31,238.31c1.2-13.39,8.52-23.87,17.01-33.47-1.7-8.05-3.12-15.41-3.78-23.8l-36.32,7.01-18.87-11.08c3.1-5.61,9.36-5.98,14.5-4.06,2.41,1.17,4.82,1.21,7.18.02l33.64-17-33.47-26.27c-3.27-5.47-5.76-11.73-8.65-18.06,5.45-3.9,12.01-.58,14.98,4.68,1.54,2.72,2.96,4.93,6.09,6.1l30.96,11.49c2.8-3.49,5.36-6.61,7.02-10.31,4.41-9.81-9.21-9.14-7.12-14.4,3.09-1.53,7.37-3.41,7.15-6.88-1.44-3.2-5.65-.13-7.79-.79-5.38-1.65-7.75-10.13-4.69-14.33,23.31.14,14.25-11.4,42.15-3.59,3.64,1.02,7.03-1.88,10.02,1.71s.52,6.79,1.1,10.74c1.58,10.74,7.03,21.21,3.95,32.43-1.08,3.93-1.04,8.18-2.69,12.13-9.47,22.64-10.14,48.22-.02,70.62.81,1.8,1.93,2.96,1.29,4.87-.36,1.07-2.06,2.4-3.33,3.89l8.08,51.34c.49,3.11-.86,6.4-4.73,6.42-8.37.04-17.07.41-25.46-.25-2.32-10.9,10.16-10.17,13.9-13.35-11.16-7.57-20.46-15.61-28.44-26.81-10.22,9.68-15.17,22.68-17.42,36.09-.28,1.68-1.66,4.22-3.61,4.24-9.01.12-17.73.38-26.94-.15-2.58-2.46-.46-7.36,2.58-9.12,3.78-2.18,7.75-3.18,12.33-3.73l-1.54-15.63.96-10.72Z"/>
  </g>
  <g>
    <rect class="st33" x="27" y="343.98" width="969.96" height="239.8"/>
    <g>
      <path class="st2" d="M371.47,519.65c-8.28,3.02,2.61-27.13-9.7-23.58-2.54.73-4.94,2.43-4.93,5.67l.04,15.14c0,1.45-.79,2.36-1.43,2.73s-3.21.16-3.21-1.13l.02-40.27c7.43-5.46,3.27,13.42,5.18,15.81,3.67-2.29,6.8-2.83,10.25-1.27,2.11.95,5.07,3.66,5.1,7.09l.11,17.04c0,1.36-.72,2.5-1.44,2.76Z"/>
      <path class="st14" d="M118.16,495.39c0-1.62.93-2.42,1.53-2.57s2.63-.22,2.92.52l.77,19.12c.13,3.32,4.45,4.07,6.85,3.22,8.7-3.09-.07-21.57,6.41-23.51,1.08-.32,2.41,1.16,2.36,2.65-.25,8.61.37,16.74-.38,25.07-2.4-.13-3.25-1.25-4.74-1.94-2.98,1.97-6.17,2.58-10,1.53-2.5-.68-5.61-3.81-5.63-7.65l-.08-16.44Z"/>
      <path class="st4" d="M229.41,442.55l-.53-17.6c-.1-3.27-3.72-4.56-6.15-3.96-3.28.81-4.99,3.1-4.96,6.83l.12,13.05c.01,1.22-.49,2.08-.94,2.54-.7.72-2.58.85-3.83.06-1.16-35.56,1.18-24.01,5.01-25.01,2.49-.65,6.48-2.76,9.89-1.18,7.79,3.59,5.68,14.58,5.73,24.48,0,1.15-.8,1.88-1.34,2.1-.78.31-2.96.1-3.01-1.31Z"/>
      <path class="st20" d="M564.98,502.48c-.05-3.22-2.33-6.07-4.57-6.42-1.9-.3-5.78,1.04-6.66,3.7-2.95,8.95,2.89,21.64-4.14,19.86-.73-.18-1.44-1.31-1.44-2.72l-.03-21.03c0-1.58.77-2.57,1.82-3.4s2.58,1.51,3.99,1.13c2.71-.75,6.11-2.47,9.1-1.35,2.2.82,5.54,3.08,5.72,6.62.35,6.78.29,13.14,0,20.08-.05,1.16-3.52,1.17-3.54.02l-.25-16.47Z"/>
      <path class="st39" d="M551.38,443.48c-1.43-7.5,2.33-22.87-5.84-22.55-2.74.11-6.32,1.69-6.38,5.06l-.31,16.87c-.03,1.45-2.18,1.27-3.24.96-.79-.23-1.47-1.46-1.46-2.94l.08-20.91c0-1.36,1.07-2.07,1.64-2.64,1.09-1.09,2.46,1.27,3.6,1.1,3.04-.46,5.58-2.53,8.94-1.53,9.07,2.71,6.59,11.74,6.49,26.13,0,1.18-3.36,1.27-3.51.45Z"/>
      <path class="st28" d="M383.38,443.82c-6.74,1.93-1.38-10.63-4.05-20.22-.78-2.79-4.46-3.09-6.28-2.41-2.4.9-4.86,2.86-4.92,5.96l-.29,15.8c-.02,1.31-2.48,1.29-3.67.52,0-8.06-.66-16.99.26-25.26.31-2.75,3.47.6,4.6.31,2.42-.63,6.63-2.83,9.97-1.22,8.33,4.02,5.25,14.05,5.87,23.58.1,1.48-.71,2.73-1.48,2.95Z"/>
      <path class="st49" d="M535.98,494.18c0-1.62,1.81-1.55,2.35-1.35,2.92,1.09,1.36,22.12,1.19,26.29-1.52,1.25-3.37-.43-4.57-1.22-3.2,1.72-6.97,3.02-10.75,1.29-2.45-1.12-4.98-4.64-5.01-8.38l-.12-14.98c-.01-1.47.69-2.65,1.65-2.96,6.28-2.06,1.35,11,3.78,20.58.76,3.01,5.18,3.07,7.46,1.94,2.07-1.02,4.01-3.3,4.01-6.46v-14.75Z"/>
      <path class="st7" d="M326.09,504.45c-.7,4.81,1.33,8.42,4.58,10.4,6.31,3.85,10.24-3.23,13.59-1.85.89.37,1.36,2.59.21,3.58-6.01,5.21-16.31,4.61-20.57-2.08s-3.35-13.64,1.58-18.66,13.01-5.19,18.74-.22c1.02.88.99,2.35.37,3.18-2.58,3.42-5.99-4.76-12.26-2.29-3.08,1.21-5.61,3.74-6.23,7.95Z"/>
      <path class="st39" d="M109.46,496.75c-2.33,4.57,2.02,22.96-2.96,23.06-4.67.1-.84-13.54-2.89-22.52-.26-1.12-2.95-1.43-2.69-2.96.24-1.41,1.76-1.66,2.6-2.88,2.12-3.06-1.65-10.98,3.77-13.75,2.01-1.03,5.61-1.61,6.53,1.01s-2.4,2.42-3.61,3.53c-2.1,1.93-2.18,7.51-.27,9.45,1.18,1.2,3.41.82,3.18,2.71-.16,1.3-1.93,1.87-3.65,2.36Z"/>
      <path class="st51" d="M306.87,520.03c-3.22-.18-8.42-2.09-7.76-6.14.87-5.31,5.71,4.59,10.64,1.51,1.15-.72,2.57-2.58,1.73-4.5-1.79-4.11-9.52-2.67-11.71-7.32-1.46-3.09-1.22-6.71,1.18-8.85s5.25-3.2,8.24-2.56c2.51.54,5.7,2.34,6.49,5.88.15.69-1.58,1.49-2.23,1.47-2.15-.09-3.41-4.13-6.79-3.49-2.49.47-2.9,2.43-2.92,4.4-.04,4.91,13.34,1.99,12.49,11.97-.42,4.86-3.97,7.93-9.36,7.63Z"/>
      <path class="st24" d="M471.47,440.5c-1.76,3.45-5.46,4.59-8.95,4.32-2.96-.23-6.91-2.06-7.47-5.93-.17-1.2,1.76-2.16,2.39-1.83,2.02,1.07,3.1,4.94,7.75,3.57,1.3-.38,2.7-2.18,2.57-4.1-.37-5.29-12.4-2.86-12.75-11.22-.19-4.74,2.98-8.28,8.1-8.6,3.74-.24,9.11,2.73,8.23,6.55-1.03,4.44-4.71-3.73-9.36-2.03-1.82.66-2.4,2.35-2.13,4.02.68,4.17,7.5,2.36,10.83,6.63,1.96,2.51,2.12,5.99.78,8.63Z"/>
      <path class="st39" d="M497.32,443.64c-7.15.7-13.36.39-20.49.09l13.47-21.58c-3.19-2.6-9.9-.1-12.27-1.7-7.32-4.95,17.46-3.86,19.34-2.63l-13.07,22.28c4.37,1.37,8.35.38,12.61.7,1.13.08,1.79,2.71.4,2.84Z"/>
      <path class="st34" d="M323.49,439.87c2.17-.04,3.33,3.43,1.99,3.65-6.4,1.04-12.62.35-19.54.28l.11-39.39c.48-.84,3.85-.85,3.86.41l.42,34.66c4.41.95,8.4.48,13.16.4Z"/>
      <path class="st14" d="M191.05,439.32c.02,1.43,3.83,1.7,2.75,3.7-.82,1.52-3.35,1.03-5.04.57-1.39-.38-2.69-2.57-2.69-4.83l-.09-33.87c0-1.3.87-2.34,1.56-2.71.76-.41,3.01.76,3.03,2.1l.48,35.04Z"/>
      <path class="st2" d="M248.79,510.38c0,3.46.86,5.56,3.62,7.34-1.7,2.62-3.35,2.27-5.25,1.27-1.12-.59-2.96-2.16-2.97-4.26l-.1-34.76c0-1.47,1.59-2.19,2.39-2.2.86-.01,2.37.71,2.37,2.19l-.07,30.41Z"/>
      <path class="st4" d="M276.96,517.28c0,2.21-3.46,3.2-3.51,2.07l-.89-21.82c-1.4-1.26-3.32-1.61-3.91-3.6,8.98-3.74.53-10.31,6.47-12.87,3.09.57.97,6.13,2,10.02.28,1.06,2.45,1.14,3.42,2.27,1.8,2.1-1.81,2.84-3.34,3.89-.75,6.23-.25,13.17-.24,20.05Z"/>
      <path class="st21" d="M568.86,442.43c-.01,1.8-1.67,1.51-2.35,1.51-3.37-.04-.35-18.25-1.95-22.27-1.74-.59-3.59-.9-4.09-3.17,7.93-3.81,2.68-6.15,5.07-11.55.32-.73,1.64-1.45,2.47-.61,3.14,3.17-2.99,8.86,5.17,12.63-1.28,1.71-2.68,1.95-4.18,3.21l-.14,20.25Z"/>
      <path class="st24" d="M477.27,513.18l3.4,4.57c1.09,1.46-2.9,2.29-3.86,1.8-1.14-.57-3.63-1.84-3.64-3.85l-.17-36.89c0-1.27,3.78-1.36,3.84-.49l.43,34.86Z"/>
      <path class="st45" d="M589.54,421.35c-9.02,2.55-4.6,4.79-5.73,19.52-.09,1.24-.39,2.06-.93,2.51-.85.71-2.41.91-3.82.11.11-8.16-.69-17.04.34-25.32.33-2.62,3.46.47,4.59.43,1.92-.07,4.61-2.62,7.09-1.7,1.12.42.95,1.51.94,2.41,0,1.06-.88,1.58-2.48,2.03Z"/>
      <path class="st11" d="M152.26,500.93c-.94,6.89,1.2,17.6-1.87,18.71-1.75.64-2.86-.78-2.85-2.76.06-8.15-.45-15.82.44-24.37,9.02,3.45,8.4-2.28,11.99-.04,5.83,3.64-6.98,3.08-7.71,8.46Z"/>
      <path class="st16" d="M172.65,424.94c-1.65,5.97.05,11.88-.78,17.94-.21,1.53-3.63,1.56-3.66.14-.17-8.84-.56-17.06.24-25.44,1.14-1.12,3.16.32,3.96,1.07,1.23.83,7.05-4.35,8.45-.26,1.04,3.04-7.18,2.84-8.21,6.55Z"/>
      <path class="st39" d="M277.29,425.64c-1.09,5.98.13,11.49-.52,17.32-.16,1.4-3.6,1.45-3.64.09-.09-2.88-1.58-29.51,2.19-25.86.41.4,1.27.97,2.01,1.52,1.35.58,7.02-4.37,8.47-.34,1.15,3.19-7.66,2.57-8.51,7.27Z"/>
      <path class="st26" d="M291.91,515.39c.01,1.91-.41,3.25-.94,3.85-.64.72-3.81.97-3.84-.35-.04-1.59-1.78-33.61,2.91-26.47.43.65,1.74,1.21,1.74,2.56l.14,20.4Z"/>
      <path class="st41" d="M262.91,516.37c.01,2.32-1.06,3.46-2.42,3.43s-2.47-1.12-2.46-2.93l.09-21.94c0-1.52,1.46-2.22,2.37-2.22s2.28.74,2.29,2.25l.12,21.41Z"/>
      <path class="st0" d="M204.18,440.36c0,1.66-.04,3.07-.71,3.42-.75.39-3.24.5-3.25-.86l-.14-23.1c0-1.25.84-2.48,1.54-2.67,1.28-.37,2.66,1.06,2.65,2.69l-.09,20.53Z"/>
      <path class="st6" d="M464.1,517.26c.01,1.45-1.18,2.15-1.65,2.39-.69.35-2.26-.59-2.26-1.89l-.04-22.81c0-1.13.89-1.91,1.42-2.12s2.33-.1,2.33.91l.18,23.52Z"/>
      <path class="st38" d="M634,402.86c.57,12.23.57,24.23,0,36-2.16-2.35-2.83-2.17-2,.54l-2,1.46c-.45.27-.81.47-.88.39-1.32-1.41-.61-33.82-.12-38.39,1.65-.92,4.48-1.88,5,0Z"/>
      <path class="st19" d="M630,440.86c2.95.65,3.84.67,2.67.05l1.33-2.05v-36l1.37,36.53c.55.88,3.4,1.56,2.7,3.62-.81,2.37-4.23,2.19-6.23,1.66-1.52-.4-3.66-2.59-3.67-5l-.24-34.88c0-1.07.46-1.8,1.08-1.94v36.94c.01.71.62,1.18,1,1.06Z"/>
      <circle class="st24" cx="260.35" cy="483.1" r="2.94"/>
      <circle class="st22" cx="462.26" cy="483.02" r="2.91"/>
      <circle class="st37" cx="134.5" cy="483.16" r="2.95"/>
      <circle class="st49" cx="202.24" cy="407.9" r="2.89"/>
      <path class="st47" d="M125,480.86q-2.28,2.7,0,0c2.8,2,1.92,4.06.53,5.12-1.59,1.22-4.13,1.49-5.06-.11s-.95-4.19.44-5.52c1-.97,3.25-.88,4.09.51Z"/>
      <path class="st42" d="M288.02,485.77c.71-1.59.47-1.94-.94-.92-1.42-1.27-1.44-3.04-.62-4.06.94-1.18,2.62-1.18,3.94-.83,1.45.39,1.79,2.04,1.7,3.9-.07,1.4-.6,2.49-1.61,2.96-.91.41-2.21.06-2.46-1.05Z"/>
      <path class="st51" d="M288.02,485.77c-.49-.47-.78-.72-.94-.92-.1-.9-.22-1.98.38-2.96.53-.87,1.56-1.54,2.58-.58.84.8,1.32,1.61.93,2.98-.27.94-1.67,1.69-2.94,1.47Z"/>
      <g>
        <path class="st25" d="M123.76,422.89c3.33,3.59,5.73,6.91,5.26,11.52-1.22,12.01-14.64,9.8-24.52,9.12l-.03-39.08c8.4-1.1,21.35-2.71,23.49,7.04.98,4.45-.56,7.69-4.21,11.41Z"/>
        <path class="st40" d="M120.2,439.14c-3.55,1.07-7.04,1.33-10.72.28-.72-4.45-.73-8.68-.02-13.13,5.49-1.63,15.24-.45,15.32,6.03.04,2.94-1.48,5.89-4.59,6.82Z"/>
        <path class="st52" d="M122.76,418.2c-3.33,4.16-9.29,4.43-13.51,2.76-.22-4.35-.66-7.99.15-11.98,1.5-1.72,9.96-2.2,12.72,1.3,1.39,1.76,2.89,5.12.64,7.93Z"/>
      </g>
      <g>
        <path class="st1" d="M447.1,498.55c3.85,3.54,5.84,7.49,4.96,12.79-1.56,9.38-15.56,9.2-23.91,8.02l-.14-40.24c10.2-.43,19.9-2.09,23.51,7.78,1.55,4.24-1.58,8.23-4.42,11.67Z"/>
        <path class="st10" d="M443.86,514.51c-3.8.85-7.54.68-11.28-.06-.7-4.54-.69-8.63-.04-13.06,5.84-1.53,15.26-.8,15.54,6.09.1,2.63-1.11,6.33-4.22,7.03Z"/>
        <path class="st52" d="M445.25,494.63c-3.13,2.88-8.37,2.8-12.05,1.69-1.71-3.44-1.34-8.26-.62-12.41,3.29-1.79,8.78-1.26,12.3,1.12,2.77,1.87,3.13,7.07.38,9.61Z"/>
      </g>
      <g>
        <path class="st3" d="M591.4,531.34c-5.33,1.12-14.2-2.95-12.24-5.81s7.67,4.56,15.02.42c3.03-1.71,3.59-5.95,2.57-9.3-4.91,2.3-9.88,3.07-14.52.47-4.37-2.44-6.88-7.63-6.31-13.29.5-4.9,3.44-8.67,7.08-10.46,4.69-2.3,9.3-1.62,13.59,1.31.85-1.01,1.78-1.28,2.18-1.64.6-.54,2.82-.23,2.87,1.14.32,8.82.38,17.61,0,26.42-.26,6.03-4.65,9.56-10.26,10.74Z"/>
        <path class="st9" d="M598.18,505.39c.06,6.68-4.64,10.14-10.55,9.35-5.19-.7-8.67-6.35-6.94-12.07,1.32-4.36,5.47-7.21,9.65-6.65,4.78.63,7.78,3.53,7.83,9.37Z"/>
      </g>
      <g>
        <path class="st18" d="M184.2,517.55c-1.73,3.16,1.56,13.27-2.51,13.32-1.42.02-2.56-1.29-2.55-3l.21-33.65c0-.94,1.67-1.55,2.2-1.43.73.16,1.9.78,2.94,1.93,4.85-3.45,10.81-3.89,15.75-.04,6.45,5.03,7.36,14.12,2.17,20.84-4.25,5.51-12.13,5.59-18.19,2.03Z"/>
        <path class="st53" d="M184.3,511.7c-.95-3.18-.97-7.57-.13-10.7,1.21-4.5,7.19-5.7,10.47-4.49,4.59,1.69,6.78,5.2,6.48,10.34-.25,4.22-2.7,7.43-6.31,8.67-3.34,1.14-9.31.23-10.51-3.81Z"/>
      </g>
      <g>
        <path class="st5" d="M417.09,443.65c-10.71-1.91-10.12,3.63-19.05-.36-3.54-1.58-6.36-5.55-6.88-10.48-.59-5.59,1.29-10.74,5.47-13.71,4.6-3.27,10.11-2.78,15.82-.19,1.79-5.76-1.2-14.93,2.11-16.74.66-.36,2.55.55,2.55,1.78v39.7Z"/>
        <path class="st40" d="M413.22,430.33c0,5.28-1.23,8.26-5.49,9.87-3.77,1.43-8.05.28-10.46-3.65-2.26-3.68-2.62-7.11-.67-10.47s4.93-5.63,9.05-5.15c5.22.6,7.56,3.93,7.56,9.39Z"/>
      </g>
      <g>
        <path class="st11" d="M505.91,518.2c-4.85,1.59-10.86,3.08-15.23-.36-3.98-3.13-6.41-8.08-5.61-13.95.64-4.73,3.61-8.89,7-10.5,4.8-2.28,9.16-1.56,14.3,1.08,1.22-5.44.02-10.19.67-15.53.18-1.53,3.88-1.64,3.88-.07.05,13.46.47,26.56-.18,39.67-.14,2.88-3.8-.67-4.83-.33Z"/>
        <path class="st12" d="M506.58,510.77c-.94,4.27-6.21,5.72-9.97,5.12s-6.59-4.14-7.21-8.43c-.72-4.93,1.68-9.21,5.97-10.92,3.71-1.47,9.71.09,11.12,4.64.87,2.81.74,6.69.1,9.59Z"/>
      </g>
      <g>
        <path class="st14" d="M389.17,515.3c7.87,2.7,9.35-3.11,12.23-2.27.73.21,2.11,1.51,1.25,2.64-3.72,4.93-11.16,5.58-16.64,2.81-5.05-2.55-7.51-8.88-6.45-15.12,1.23-7.33,7.75-12.5,14.85-11.26s12.28,7.94,10.21,15.25l-19.88.81c-.49,4.35,1.91,6.27,4.44,7.14Z"/>
        <path class="st31" d="M400.38,503.28c-4.84,1.1-10.17.79-15.3.32-1.23-3.9,2.79-7.33,6.47-7.54s8.59,2.19,8.83,7.22Z"/>
      </g>
      <g>
        <path class="st50" d="M620.79,443.32c-1.25,1.44-3.97.2-5.16-1.19-4,2.74-8.36,3.44-12.93,1.57-4.1-1.68-7.04-5.45-8-10.66-1.02-5.5,1.5-11.44,5.83-14.14,5.02-3.14,10.77-2.88,15.46.81l1.97-2.29c4.9-5.7,2.37,22.77,2.83,25.9Z"/>
        <path class="st27" d="M617.15,432.01c-.25,5.32-4.26,9.06-9.66,8.81-4.64-.21-8.28-4.83-8.29-9.92,0-5.86,4.07-10.34,9.2-9.93,6.32.51,9.05,4.65,8.75,11.03Z"/>
      </g>
      <g>
        <path class="st35" d="M432.99,439.76c6.42,3.91,9.81-2.87,13.36-1.73.58.19,1.13,1.65.37,2.56-4.14,4.96-11.53,5.55-16.97,2.22-5.08-3.11-7.09-9.4-5.7-15.99,1.48-7.07,7.97-11.17,15.24-9.83,6.31,1.16,11.13,7.98,10.24,14.85l-20.79.29c-.83,3.36,2.1,6.32,4.25,7.62Z"/>
        <path class="st27" d="M444.33,428.47c-5.38.03-10.09.41-15.21-.24-.74-4.52,3.63-7.58,8.17-7.31,3.24.19,7.73,3.46,7.04,7.55Z"/>
      </g>
      <g>
        <path class="st48" d="M650.57,439.93c6.09,3.51,10.05-2.64,12.65-1.98.75.19,2.34,1.61,1.42,2.59-4.2,4.45-10.54,5.31-15.96,3.06s-8.28-8.41-7.6-14.62c.85-7.75,7.04-13,14.43-12.13,6.92.82,12.56,7.28,11.22,14.87l-20.46.56c-.94,3.65,2.07,6.37,4.29,7.65Z"/>
        <path class="st29" d="M662.1,427.81c-5.27,1.35-10.35.61-15.85.55-.42-4.48,3.2-6.79,6.62-7.35,4.13-.68,8.18,1.3,9.23,6.8Z"/>
      </g>
      <g>
        <path class="st18" d="M144.75,439.83c6.56,3.42,9.59-2.06,12.5-1.94.75.03,2.35,1.56,1.54,2.5-4.37,5.05-11.87,5.64-17.14,2.34s-7.74-9.91-5.84-16.05c2.13-6.89,8.05-10.97,14.65-9.76s12,7.28,10.34,14.83l-20.02.37c-1.18,3.42,1.79,6.56,3.96,7.69Z"/>
        <path class="st27" d="M156.42,427.7c-5.42,1.63-10.58.76-15.95.63-.25-4.51,3.03-6.81,6.38-7.31,4.11-.61,8.37,1.15,9.56,6.67Z"/>
      </g>
      <g>
        <path class="st23" d="M237.24,503.14c1.81,8.75-3.7,15.66-10.91,16.73-8.21,1.22-15.18-4.72-15.56-12.95-.34-7.43,4.16-13.51,10.85-14.8s14.02,3.27,15.62,11.02Z"/>
        <path class="st40" d="M224.37,515.93c-5.88.33-8.86-4.95-9.21-9.67s3.53-9.89,8.79-10,8.98,4.56,9.17,9.18-2.73,10.15-8.74,10.49Z"/>
      </g>
      <g>
        <path class="st11" d="M334.99,442.75c-7.04-4.01-6.68-13.06-4.02-19.83,5.07-7.61,11.89-7.37,19.5-4.41,1.04-.64,2.76-1.49,3.88-1,2.04.89,1.33,23.47.31,26.77-1.05,1.02-2.65.52-4.78-1.51-4.91,1.82-10.39,3.79-14.9-.02Z"/>
        <path class="st17" d="M334.99,442.75c4.41,2.51,10.54,1.27,14.83-.86.74-.15,2.04,1.05,2.23,1.53,4.03,10,3.25-26.35,2.38-24.88-.41-1.65-3.78.52-4.4,1.55-8.95-5.74-12.53-2.7-19.05,2.83,2.84-7.24,11.58-9.17,18.75-4.88,1.41-1.07,5.61-2.08,5.96.01.65,8.59.4,17.01.11,25.51-.06,1.85-3.95,1.74-6.41-.35-4.42,3.01-11.3,3.85-14.39-.47Z"/>
        <path class="st12" d="M351.01,430.36c-.25,3.43.03,6.06-1.97,7.97-1.69,1.62-4.02,2.83-7.16,2.55-5.44-.49-9.02-5.57-8.75-10.48.29-5.31,4.09-9.72,9.66-9.49s8.66,3.54,8.23,9.45Z"/>
      </g>
      <g>
        <path class="st41" d="M507.07,432.98c-1.2,2.6,1.67,4.1,2.89,5.81,4.19,2.52,8.86,2.17,13.99-1.05,5.01,6.02-9.12,8.64-13.98,6.04-1.75-1.29-3.26-2.54-4.89-3.9-6.5-8.21-2.51-21.86,8.4-23.25,8.38-1.07,16.72,7.18,13.62,15.47-6.73-.13-13.41.17-20.03.88Z"/>
        <path class="st13" d="M507.07,432.98c5.9-2.78,12.97-.14,19.7-1.26,1.76-6.6-2.48-12.34-8.96-14.19-5.04-1.44-11.55,1.43-14.02,7.19-2.15,5.02-.67,10.51,1.29,15.16-4.71-3.95-5.04-10.17-2.17-16.22,3.07-6.49,10.25-9.55,17.31-6.7,5.35,2.16,10.01,9,7.66,15.5l-20.81.52Z"/>
        <path class="st13" d="M509.97,443.78c5.62-.23,11.08,1.9,15.01-3.96,0-4.2-10.23,5.72-15.02-1.03,11.31,4.22,11.87-4.42,15.14-1.46.76.69,1.76,3.15.6,4.22-4.51,4.17-11.16,5.59-15.73,2.24Z"/>
        <path class="st27" d="M523.13,427.82c-5.3,1.34-10.33.64-16.02.53-.18-4.25,3.39-6.99,6.59-7.42,4.29-.58,8.3,1.41,9.43,6.89Z"/>
      </g>
      <path class="st34" d="M634,438.86c.28,2.09,2.54,2.34,3.21,4.18-1.55,2.05-7.21.64-7.21-2.18v-35.89c0-1.38,2.02-2.65,2.72-1.95,1.34,12.2-1.27,24.37,1.28,35.85Z"/>
      <path class="st4" d="M125,480.86c.16,2.56.05,3.92-1.36,4.85-1.02.68-2.29-.69-2.6-1.47-.36-.9.04-2.22.9-2.95.82-.68,1.94-.43,3.05-.44Z"/>
      <g>
        <path class="st1" d="M245.42,432.17c-.82,3.62,2.04,6.62,4.16,7.77,6.45,3.48,10.35-2.56,12.67-2.02.78.19,2.39,1.67,1.4,2.69-4.26,4.38-11.33,5.34-16.44,2.52-5.4-2.98-8.24-9.55-6.74-15.87,1.67-7.05,8.09-11.62,14.95-10.26s11.64,7.43,10.41,14.76l-20.41.42Z"/>
        <path class="st44" d="M257,421.86c-1.15,1.66-3.28,2.39-6.39,2.19-3.96,1.51-1.6,2.06,7.06,1.65-1.31-1.14-1.59-2.17-.67-3.84,3.37,1.2,5.57,4.62,4.07,6.8-5.38.36-10.9.3-15.73.1-1.69-3.57.83-6.27,3.86-7.7s5.94-1.9,7.8.8Z"/>
        <path class="st27" d="M257,421.86c1.88,2.43,3.69,3.32,2.92,6.03l-14.43-.35c1.41-6.57,6.88-5.92,11.51-5.68Z"/>
      </g>
    </g>
  </g>
  <g>
    <rect class="st33" x="27.01" y="22.71" width="648.89" height="314.97"/>
    <g>
      <path class="st8" d="M260.3,187.35l-40.98.85-.03,27.52c13.43,1.31,28.86-1.39,41.2,1.75.65,5.19.83,10.2-.3,16.31l-60.16.16.05-108.88,59.95.18c1.47,6.06,1.19,11.42.14,17.42l-40.83.59-.14,25.47c1.12,1.6,3.93,1.92,5.86,1.93l34.84.21c1.63,5.21,1.29,10.1.41,16.5Z"/>
      <path class="st15" d="M440.44,216.08c2.93.04,5.39.5,7.36,1.93.13,5.3.51,10.07-.33,15.8l-56.39.26-.11-108.61c9.21-.19,19.04-3.43,19.04,4.48l.1,85.74,30.33.4Z"/>
      <rect class="st8" x="469.12" y="124.92" width="19.87" height="109.13"/>
      <g>
        <path class="st8" d="M343.46,233.94l-21.64-30.85c-4.38-.47-8.39-.4-13.33.02l-.85,30.53c-6.45.56-12.69.87-18.8-.17l.22-108.19c12.95-.6,24.56-.56,36.48-.05,19.09.82,34.2,9.79,39.13,28.97,4.89,19.03-4.2,36.89-22.61,45.23l24.61,33.86c-7.88,1.59-15.01.46-23.21.63Z"/>
        <path class="st30" d="M345.53,159.97c1.7,10.21-2.98,19.59-12.81,22.66-7.77,2.43-16.23,2.7-24.62,1.35l.1-40.59c14.04-1.31,34.38-1.08,37.33,16.58Z"/>
      </g>
      <g>
        <path class="st8" d="M174.29,203.43c.33,16.09-10.33,29.08-26.57,30.2-14.94,1.03-29.9.24-45.49.23l-.11-104.94c0-2.45,1.55-4.02,3.88-4l36.28.31c15.81.14,29,10.56,29.89,26.53.6,10.78-2.65,20.14-13.18,26.17,10.07,6.05,15.06,13.97,15.3,25.48Z"/>
        <path class="st43" d="M139.36,169.9c-6.55.53-12.74,2.14-18.12-.9l.34-25.5c11-1.05,29.43-2.65,30.67,11.9.66,7.79-4.32,13.81-12.89,14.5Z"/>
        <g>
          <path class="st36" d="M155.21,203.31c-1.6,16.71-20.46,13.33-33.75,13.49-.95-9.6-.4-18.59-.29-28.79,7.8.21,15.21-1.04,22.26.33,7.69,1.5,12.43,8.21,11.78,14.96Z"/>
          <path class="st33" d="M141.67,215.02c-7.36.2-13.39,2.14-19.65.08l.21-25.94c11.27-.68,30.65-2.53,31.61,12.38.43,6.64-4.72,13.28-12.18,13.48Z"/>
        </g>
      </g>
      <g>
        <path class="st8" d="M546.09,174.88c-2.31-3.76-4.69-7.48-7.12-11.16l-1.94.68-.12,65.92-1.06,3.53c-5.9.07-11.84.88-18.56-.5l-.19-104.4c0-2.47,1.63-3.97,3.88-3.98l12.95-.08c4.31-.03,5.9,2.17,7.73,5.38l39.65,69.77.99-74.61c5.62-.11,18.74-2.97,18.73,3.42l-.12,104.76c-7.68.79-14.33.62-21.62.13l-33.18-58.85Z"/>
        <path class="st32" d="M546.09,174.88c-3.56-1.27-4.86-10.06-8.17-10.63l.04,66.43c0,1.32-1.2,3.17-2.11,3.18l.31-74c1.64-2.75,10,15.15,9.93,15.03Z"/>
      </g>
    </g>
  </g>
</svg>