<?xml version="1.0" encoding="UTF-8"?>
<svg id="Ebene_1" xmlns="http://www.w3.org/2000/svg" version="1.1" viewBox="0 0 1700.79 425.2">
  <!-- Generator: Adobe Illustrator 30.1.0, SVG Export Plug-In . SVG Version: 2.1.1 Build 136)  -->
  <defs>
    <style>
      .st0 {
        fill: #e85018;
      }

      .st1 {
        fill: #e85016;
      }

      .st2 {
        fill: #e74c11;
      }

      .st3 {
        fill: #e74b0f;
      }

      .st4 {
        fill: #e8541c;
      }
    </style>
  </defs>
  <path class="st2" d="M1283.04,154.2c-1.21.47-2.27,1.14-4.21,1.14l-56.33-.06v180.84l-73.36-.72c29.37-5.89,52.01-15.11,54.39-49.93,1.21-17.57-4.97-34.27-21.93-41.85-2.3-1.03-4.39-1.89-6.64-4,15.45-6.66,23.11-21.29,22.93-37.81-.14-12.97-4.98-24.42-15.31-32.92-10.26-7.41-22.82-13.04-36.42-13.12l-95.83-.58.02,179.86c-4.32,1.89-8.82,1.22-13.65.51l-22.79-71.09-19.02-58.08-16.73-51.16h-72.19l-57.66,180.88-59.91-.16-.1-110.3h58.5v-48.7l-58.53-.17.38-23.56,72.2-.14.05-69.27h422.17l-.06,70.38h.01Z"/>
  <g>
    <path class="st3" d="M175.36,240.04c17.5,5.99,28.22,20.98,28.45,39.66.19,14.77-3.57,28.68-13.85,39.37l-9.39,6.92c-13.1,7.11-27.17,10.61-42.4,10.7l-90.36.57.05-184.08,85.35.06c4.11,0,7.88,2.16,12.12.59l18.49,4.51c14.35,3.5,25.5,13.58,31.26,27.23,2.15,5.54,2.45,11.28,2.13,17.37,1.36,15.5-6.41,29.79-21.83,37.09h0ZM138.9,212.24c.95-15.63-19.46-9.19-31.21-10.17l-.25,21.51c9.26-.56,17.86.65,26.72-.52,4.52-.61,4.5-6.65,4.74-10.81h0ZM140.71,285.92c.84-6.54,2.13-11.86-1.16-16.81-1.53-2.31-5.59-3.23-8.41-3.25l-23.76-.15v23.8l21.7.05c4.24,0,8.61-.79,11.63-3.65h.01Z"/>
    <path class="st3" d="M580.5,245.69c0,52.86-42.85,95.71-95.71,95.71s-95.71-42.85-95.71-95.71,42.85-95.71,95.71-95.71,95.71,42.85,95.71,95.71ZM521.5,245.74c0-20.25-16.42-36.67-36.67-36.67s-36.67,16.42-36.67,36.67,16.42,36.67,36.67,36.67,36.67-16.42,36.67-36.67Z"/>
    <path class="st3" d="M362.86,290.12l19.94,39.02c1.29,2.51,3.67,4.45,3.61,7.9l-71.16.14-21.74-58.25c-3.15-.54-5.55-.19-9.5-.27l-.32,58.37-61.55.15v-184.1l75.66.2c4.45,0,8.6,2.1,13.23.52l21.69,4.61c9.35,1.99,17.71,6.68,24.89,13.01,12.57,11.06,16.42,27.01,16.41,43.4-.01,14.25-2.09,27.77-10.78,39.36-3.46,4.61-6.97,8.71-13.23,11.44l12.88,24.49-.02.02ZM309.57,224.81c.48-4.93.44-9.48-.07-13.91-1.48-12.8-15.51-8.19-25.65-9.05v32.42l15.2.14c5.82.05,9.93-3.42,10.54-9.6h-.01Z"/>
  </g>
  <path class="st3" d="M1606.62,240.81l12.37,25.84,20.2,41.37,13.79,28.91-72.6.33-29.37-66.52c-1.43-3.26-2.95-5.04-7.95-3.81l-.25,70.1-61.6.15.05-183.97h61.55l.14,67.68c2.79.75,5.52,1.11,7.65-.46l31.2-67.31,64.01-.06c2.01,0,3.72.14,4.47,2.13l-19.82,38.87-23.85,46.73Z"/>
  <polygon class="st3" points="688.78 337.08 627.02 337.2 627.06 206.17 584.96 206.18 584.98 153.09 730.84 153.16 730.92 206.04 688.74 206.2 688.78 337.08"/>
  <path class="st3" d="M1283.04,154.2c7.13-2.79,14.48-.28,21.61-.19,16.98.26,39.2,5.36,52.23,16.27,26.37,22.07,23.82,79.31-6.12,95.27l12.31,24.21,19.71,38.68c1.51,2.97,3.86,5.21,4.41,8.71h-71.62l-21.5-58.37c-3.92-.37-6.88.4-10.81-.58v-43.94l18.36-.06c1.75,0,5.63-1.27,6.35-3.13,3.1-8.06,5.02-28.83-6.66-29.08l-18.04-.4-.22-47.41h-.01Z"/>
  <g>
    <rect class="st3" x="1396.79" y="221.32" width="57.38" height="116.92"/>
    <circle class="st3" cx="1425.58" cy="180.94" r="30.95"/>
  </g>
  <path class="st3" d="M735.28,121.44l-37.61.12-.3-30.25c-.02-2.08-.07-5.77,1.52-7.32h36.23l.16,37.44Z"/>
  <polygon class="st3" points="809.98 121.4 773.19 121.78 773.19 83.79 809.81 84.03 809.98 121.4"/>
  <path class="st3" d="M659.92,83.85c-.94,4.03.31,37.63-.65,37.63l-35.46.27v-37.95l36.12.05h0Z"/>
  <rect class="st3" x="549.09" y="83.83" width="35.72" height="37.9"/>
  <g>
    <polygon class="st2" points="970.12 335.89 911.93 335.97 918.06 309.02 964.47 308.99 970.12 335.89"/>
    <path class="st4" d="M954.09,262.23l-25.55.17,12.97-56.85c3.46,6.36,2.2,12.52,4.3,18.47l8.27,38.21h.01Z"/>
  </g>
  <g>
    <path class="st1" d="M1136.8,265.98c8.03.05,7.97,16.13,5.1,20.22-5.09,7.29-23.9,3.53-34.01,4.32v-24.73l28.9.19Z"/>
    <path class="st0" d="M1138.65,204.11c2.11,2.15,2.57,14.78.12,17.23-1.53,1.53-3.97,3.32-7.17,3.31l-23.86-.07.31-23.53c10.03,2.78,25.38-2.25,30.61,3.06h-.01Z"/>
  </g>
</svg>