<?xml version="1.0" encoding="UTF-8"?>
<svg id="Ebene_1" xmlns="http://www.w3.org/2000/svg" version="1.1" viewBox="0 0 1700.79 1700.79">
  <!-- Generator: Adobe Illustrator 30.1.0, SVG Export Plug-In . SVG Version: 2.1.1 Build 136)  -->
  <defs>
    <style>
      .st0 {
        fill: #e85018;
      }

      .st1 {
        fill: #e85016;
      }

      .st2 {
        fill: #e74c11;
      }

      .st3 {
        fill: #e74b0f;
      }

      .st4 {
        fill: #e8541c;
      }
    </style>
  </defs>
  <path class="st2" d="M1192.71,774.96c-.98.38-1.84.92-3.41.92l-45.59-.05v146.35s-59.37-.58-59.37-.58c23.77-4.77,42.09-12.23,44.02-40.41.98-14.22-4.02-27.73-17.75-33.87-1.86-.83-3.55-1.53-5.37-3.24,12.5-5.39,18.7-17.23,18.56-30.6-.11-10.5-4.03-19.76-12.39-26.64-8.3-6-18.47-10.55-29.47-10.62l-77.55-.47.02,145.56c-3.5,1.53-7.14.99-11.05.41l-18.44-57.53-15.39-47-13.54-41.4h-58.42s-46.66,146.38-46.66,146.38l-48.48-.13-.08-89.26h47.34s0-39.41,0-39.41l-47.37-.14.31-19.07,58.43-.11.04-56.06h341.65s-.05,56.96-.05,56.96Z"/>
  <g>
    <path class="st3" d="M296.29,844.43c14.16,4.85,22.84,16.98,23.02,32.1.15,11.95-2.89,23.21-11.21,31.86l-7.6,5.6c-10.6,5.75-21.99,8.59-34.31,8.66l-73.13.46.04-148.97,69.07.05c3.33,0,6.38,1.75,9.81.48l14.96,3.65c11.61,2.83,20.64,10.99,25.3,22.04,1.74,4.48,1.98,9.13,1.72,14.06,1.1,12.54-5.19,24.11-17.67,30.02ZM266.78,821.93c.77-12.65-15.75-7.44-25.26-8.23l-.2,17.41c7.49-.45,14.45.53,21.62-.42,3.66-.49,3.64-5.38,3.84-8.75ZM268.25,881.56c.68-5.29,1.72-9.6-.94-13.6-1.24-1.87-4.52-2.61-6.81-2.63l-19.23-.12v19.26s17.56.04,17.56.04c3.43,0,6.97-.64,9.41-2.95Z"/>
    <path class="st3" d="M624.16,849c0,42.78-34.68,77.46-77.46,77.46s-77.46-34.68-77.46-77.46,34.68-77.46,77.46-77.46c42.78,0,77.46,34.68,77.46,77.46ZM576.41,849.04c0-16.39-13.29-29.68-29.68-29.68s-29.68,13.29-29.68,29.68,13.29,29.68,29.68,29.68,29.68-13.29,29.68-29.68Z"/>
    <path class="st3" d="M448.03,884.96l16.14,31.58c1.04,2.03,2.97,3.6,2.92,6.39l-57.59.11-17.59-47.14c-2.55-.44-4.49-.15-7.69-.22l-.26,47.24-49.81.12v-148.99s61.23.16,61.23.16c3.6,0,6.96,1.7,10.71.42l17.55,3.73c7.57,1.61,14.33,5.41,20.14,10.53,10.17,8.95,13.29,21.86,13.28,35.12-.01,11.53-1.69,22.47-8.72,31.85-2.8,3.73-5.64,7.05-10.71,9.26l10.42,19.82ZM404.9,832.1c.39-3.99.36-7.67-.06-11.26-1.2-10.36-12.55-6.63-20.76-7.32v26.24s12.3.11,12.3.11c4.71.04,8.04-2.77,8.53-7.77Z"/>
  </g>
  <path class="st3" d="M1454.58,845.05l10.01,20.91,16.35,33.48,11.16,23.4-58.75.27-23.77-53.83c-1.16-2.64-2.39-4.08-6.43-3.08l-.2,56.73-49.85.12.04-148.88h49.81s.11,54.77.11,54.77c2.26.61,4.47.9,6.19-.37l25.25-54.47,51.8-.05c1.63,0,3.01.11,3.62,1.72l-16.04,31.46-19.3,37.82Z"/>
  <polygon class="st3" points="711.79 922.96 661.81 923.06 661.84 817.02 627.77 817.03 627.79 774.06 745.83 774.12 745.89 816.91 711.76 817.04 711.79 922.96"/>
  <path class="st3" d="M1192.71,774.96c5.77-2.26,11.72-.23,17.49-.15,13.74.21,31.72,4.34,42.27,13.17,21.34,17.86,19.28,64.18-4.95,77.1l9.96,19.59,15.95,31.3c1.22,2.4,3.12,4.22,3.57,7.05h-57.96s-17.4-47.24-17.4-47.24c-3.17-.3-5.57.32-8.75-.47v-35.56s14.86-.05,14.86-.05c1.42,0,4.56-1.03,5.14-2.53,2.51-6.52,4.06-23.33-5.39-23.53l-14.6-.32-.18-38.37Z"/>
  <g>
    <rect class="st3" x="1284.77" y="829.28" width="46.44" height="94.62"/>
    <circle class="st3" cx="1308.07" cy="796.6" r="25.05"/>
  </g>
  <path class="st3" d="M749.42,748.45l-30.44.1-.24-24.48c-.02-1.68-.06-4.67,1.23-5.92h29.32s.13,30.3.13,30.3Z"/>
  <polygon class="st3" points="809.87 748.42 780.1 748.72 780.1 717.98 809.74 718.17 809.87 748.42"/>
  <path class="st3" d="M688.43,718.03c-.76,3.26.25,30.45-.53,30.45l-28.7.22v-30.71s29.23.04,29.23.04Z"/>
  <rect class="st3" x="598.74" y="718.01" width="28.91" height="30.67"/>
  <g>
    <polygon class="st2" points="939.47 922 892.38 922.06 897.34 900.25 934.9 900.23 939.47 922"/>
    <path class="st4" d="M926.5,862.39l-20.68.14,10.5-46.01c2.8,5.15,1.78,10.13,3.48,14.95l6.69,30.92Z"/>
  </g>
  <g>
    <path class="st1" d="M1074.36,865.42c6.5.04,6.45,13.05,4.13,16.36-4.12,5.9-19.34,2.86-27.52,3.5v-20.01s23.39.15,23.39.15Z"/>
    <path class="st0" d="M1075.86,815.35c1.71,1.74,2.08,11.96.1,13.94-1.24,1.24-3.21,2.69-5.8,2.68l-19.31-.06.25-19.04c8.12,2.25,20.54-1.82,24.77,2.48Z"/>
  </g>
</svg>