<?xml version="1.0" encoding="UTF-8"?>
<svg id="Ebene_1" xmlns="http://www.w3.org/2000/svg" version="1.1" viewBox="0 0 982.15 834.68">
  <!-- Generator: Adobe Illustrator 30.1.0, SVG Export Plug-In . SVG Version: 2.1.1 Build 136)  -->
  <defs>
    <style>
      .st0 {
        fill: #b71e3f;
      }
    </style>
  </defs>
  <path class="st0" d="M745.44,247.08c-56.32,0-76.08,47.52-76.08,92.47s19.75,92.45,76.08,92.45c50.44,0,70.98-47.49,70.98-92.45s-20.54-92.47-70.98-92.47Z"/>
  <path class="st0" d="M520.73,247.08c-58.41,0-76.07,43.3-76.07,92.47,0,44.96,19.76,92.45,76.07,92.45,50.42,0,71.03-47.49,71.03-92.45s-20.6-92.47-71.03-92.47Z"/>
  <path class="st0" d="M292.65,247.08c-56.34,0-76.06,47.52-76.06,92.47s19.73,92.45,76.06,92.45c50.41,0,71.02-47.49,71.02-92.45s-20.61-92.47-71.02-92.47Z"/>
  <path class="st0" d="M745.44,454.28c-34.9,0-65.14-18.09-77.32-47.47h-.87v41.17h-24.36V190.45h26.48v81.85h.86c11.32-31.1,42.83-47.46,75.22-47.46,19,0,35.05,4.52,48.41,12.29C726.59,96.88,583.29,0,417.33,0,186.84,0,0,186.85,0,417.33s186.84,417.35,417.33,417.35,417.35-186.87,417.35-417.35c0-8.35-.33-16.59-.8-24.8-13.61,36.14-42.78,61.75-88.44,61.75ZM294.4,454.28c-34.88,0-65.14-18.09-77.34-47.47h-.84v41.17h-24.37V190.45h26.48v81.85h.86c11.33-31.1,42.84-47.46,75.21-47.46,65.99,0,97.48,53.36,97.48,114.72s-31.49,114.73-97.48,114.73ZM519.94,454.28c-32.38,0-63.89-16.39-75.23-47.47h-.86l-.13,86.14-26.35-.02V231.13h24.38v41.17h.85c12.19-29.42,42.45-47.46,77.34-47.46,65.97,0,97.48,53.36,97.48,114.72s-31.51,114.73-97.48,114.73Z"/>
  <rect class="st0" x="889.6" y="246.95" width="45.04" height="45"/>
  <rect class="st0" x="889.6" y="402.89" width="45.04" height="45.02"/>
</svg>