<?xml version="1.0" encoding="UTF-8"?>
<svg id="Ebene_1" xmlns="http://www.w3.org/2000/svg" version="1.1" viewBox="0 0 247 40">
  <!-- Generator: Adobe Illustrator 30.1.0, SVG Export Plug-In . SVG Version: 2.1.1 Build 136)  -->
  <defs>
    <style>
      .st0 {
        fill-rule: evenodd;
      }
    </style>
  </defs>
  <g id="desktop_x2F_global_x2F_co-logo">
    <path id="Shape" class="st0" d="M176.31,11.71c8.44,0,12.21,6.68,11.84,14.41h-21.75c-.11,6.36,3.25,12.15,9.9,12.15,5.08,0,8.7-3.05,9.64-8.04h1.99c-1.05,6.31-5.24,9.78-11.63,9.78-7.7,0-11.83-5.95-11.9-13.21v-.46c-.1-7.41,3.77-14.62,11.9-14.62ZM26.95,0h.63C43.39,0,52.8,4.05,54.62,16.34h-17.62c-.2-2.3-1.28-3.71-3.16-4.66-1.55-.81-3.9-1.15-6.05-1.15-7.54,0-10.16,4.19-10.16,9.11,0,5.67,3.36,9.32,10.02,9.32,4.71,0,8.21-1.35,9.35-6.14h17.62c-1.75,15.32-15.47,17.08-27.04,17.08h-1.23c-14.88-.26-26.35-5.13-26.35-20.05S11.78.13,26.95,0h0ZM92.21,0C111.18,0,119.46,6.34,119.46,19.91s-8.27,19.98-27.24,19.98-27.25-6.34-27.25-19.98S73.24,0,92.21,0ZM205.28,12.18v2c-2.09-.26-5.03.27-7.44,2.63-1.99,2.05-2.83,3.74-3.04,7.78v14.78h-1.99V12.34h1.99v5.99h.16c1.05-3.52,5.45-6.36,10.32-6.15ZM147.96,1.82c8.91,0,11.79,4.89,11.79,9.73,0,4.05-2.94,7.47-7.28,7.99l.1.11c1-.16,8.44,1.63,8.44,9.2,0,6.84-5.24,10.52-13.05,10.52h-14.99V1.82h14.99ZM209.84,1.82v37.54h-1.99V1.82h1.99ZM60.84,1.82v37.54h-1.99V1.82h1.99ZM218.65,12.34v27.03h-1.99V12.34h1.99ZM236.72,11.71c9.13,0,9.57,7.07,9.59,10.56v17.1s-1.99,0-1.99,0v-17.48c-.04-2.92-.64-8.44-7.65-8.44-6.03,0-9.69,4.68-9.69,11.31v14.62h-1.99V12.34h1.99v5.78h.11c1.36-4.05,5.45-6.42,9.64-6.42ZM147.96,20.86h-12.68v16.51h12.68c6.6,0,10.74-2.94,10.74-8.52,0-6.41-5.82-7.99-10.74-7.99ZM92.21,10.94c-6.73,0-9.62,3.17-9.62,8.98s2.89,9.05,9.62,9.05,9.62-3.11,9.62-9.05-2.82-8.98-9.62-8.98ZM176.31,13.45c-5.97,0-9.48,5.57-9.9,10.94h19.75c-.11-5.68-3.67-10.94-9.85-10.94ZM147.96,3.82h-12.68v15.04h12.68c6.24,0,9.48-3.16,9.48-7.73,0-5.41-4.51-7.31-9.48-7.31ZM218.65,1.82v5.42h-1.99V1.82h1.99Z"/>
  </g>
</svg>