<?xml version="1.0" encoding="UTF-8"?>
<svg id="Ebene_1" xmlns="http://www.w3.org/2000/svg" version="1.1" viewBox="0 0 454 358">
  <!-- Generator: Adobe Illustrator 30.1.0, SVG Export Plug-In . SVG Version: 2.1.1 Build 136)  -->
  <defs>
    <style>
      .st0 {
        fill: #002e4b;
      }

      .st1 {
        fill: #31ed5a;
      }

      .st2 {
        fill: #002d4b;
      }

      .st3 {
        fill: #31eb59;
      }

      .st4 {
        fill: #32ef5a;
      }
    </style>
  </defs>
  <rect class="st4" width="454" height="358"/>
  <path class="st2" d="M80.49,272.62l-4.48-27.74-9,27.31c-3.48,1.03-7.52.78-11.31.17l-9.19-28.47-4.11,28.42c-4.02.85-7.9.56-12.25.19l6.57-48.48,14.61-.23,10.2,31.62,9.63-31.36c5.04-.53,9.62-.46,14.97-.02l6.43,48.53c-4.42.34-7.75.32-12.08.06Z"/>
  <path class="st2" d="M326.61,272.55l-4.41-28.11-8.98,27.73c-3.65,1-7.78.98-11.42.02l-9.16-28.45-4.11,28.78c-4.15.41-7.98.46-12.21-.07l6.55-48.42c5.33-.46,9.87-.44,14.9-.02l10.05,31.37,9.5-31.3c4.91-.56,9.51-.46,14.92-.06l6.64,48.28c-3.81.88-7.6.52-12.28.26Z"/>
  <path class="st2" d="M242.81,202.88c-3.91,1.28-8.01.69-12.08.32l-19.58-27.76-.52,27.69c-3.63.82-7.35.31-11.73.33l-.13-48.72c4.27-.44,8.29-.45,12.6.02l19.01,28.43.51-28.47c3.75-.43,7.55-.37,11.75-.02l.18,48.18Z"/>
  <path class="st0" d="M346.81,133.88c-3.93,1.35-8.07.52-12.31.45l-.45-18.44h-19.11s-.29,18.22-.29,18.22c-3.88.76-7.86.49-12.31.17v-48.6c4.31-.37,8.05-.34,12.16-.02l.43,18.57,18.81.23.79-18.78c4.02-.34,7.87-.36,12.1.01l.18,48.18Z"/>
  <path class="st0" d="M153.05,85.69c4.49-.42,8.2-.35,12.38.06l.06,46.85c-9.02,2.3-18.06,3.46-27.07,1.97-8.14-1.35-14.11-7.55-14.1-15.81l.05-33.08c4.29-.36,7.99-.36,12.18,0l.37,31.31c.05,3.88,2.61,7.13,6.38,7.58,3.25.39,6.3.34,9.63-.61l.1-38.27Z"/>
  <path class="st2" d="M126.95,224.19c4.25-.91,7.9-.38,12.52-.22l-.02,47.15c-14.41,3.07-38.38,6.96-41.08-12.74l-.07-34.32c4.29-.51,8.15-.5,12.35,0l.28,30.96c.03,3.79,2.42,7.32,6.16,7.89,3.47.52,6.81.45,9.9-.75l-.04-37.97Z"/>
  <path class="st2" d="M256.24,224.19c4.26-.81,8.17-.55,12.48-.13l-.02,46.96c-14.15,3.3-39.34,7.06-41.17-13.42l.03-33.65c4.57-.27,8.17-.44,12.4.04l.16,30.93c.02,3.74,2.25,7.27,5.96,7.94s6.94.41,10.12-.66l.04-38.01Z"/>
  <path class="st2" d="M168.1,160.17c-4.48.92-3.32,3.81-9.33-.84-2.47,3.08-1.07,7.12-2.72,10.43-.97,1.95-4.04,1.07-6.32,2.82,1.18,2.2,4.08,1.08,6.18,1.94,1.04.42,1.12,4.09.11,4.54l-6.25,2.79c1.02,1.77,2.22,2.77,2.69,4.76l-10.22,3.9-2.08,7.42c-9.12-11.45-7.34-28.44,3.09-38.32,11.17-10.58,28.4-10.83,39.91-.46,10.79,9.72,12.84,27.1,3.61,38.82-1.75-2.35-.33-5.8-2.25-7.29-2.75-2.13-6.59-1.92-9.64-3.8l2.11-4.97c.38-.88-2.2-1.55-3.09-1.71-2.54-.47-2.68-1.9-2.74-3.72-.07-2.13,1.43-2.58,4.21-2.37,2.37.2,2.37-2.23.22-2.46-8.21-.86-2.19-12.57-7.49-11.49Z"/>
  <path class="st2" d="M113.61,115.01l-17.8.3c-.92,2.39-.94,5.42-.04,8.1l20.09.1c.61,3.66.64,7.31-.02,11.01l-32.76-.03v-48.98s31.95.02,31.95.02c.89,3.46.6,7.07.19,10.79l-19.44.34c-.74,2.05-1.27,5.87.2,7.53l17.35.46c.75,3.13.51,5.99.27,10.37Z"/>
  <path class="st2" d="M386.61,115.01l-17.8.3c-.92,2.38-.94,5.43-.04,8.09l19.88.13c.6,3.68.63,7.24-.02,10.97h-32.54s0-48.99,0-48.99l31.94.02c.9,3.46.6,7.07.2,10.79l-19.44.33c-.74,2.07-1.26,5.84.2,7.54l17.35.44c.75,3.13.51,5.99.27,10.38Z"/>
  <path class="st2" d="M383.22,184.26l-17.25.53c-1.7,1.08-1.67,6.3-.02,7.46l19.62.3c.76,3.64.67,7.21.06,10.96l-32.83-.1v-48.83s32.04-.12,32.04-.12c.71,3.46.48,6.8.19,10.88l-19.81.39c-.47,2.96-.43,5.35.15,7.92l17.9.21c.47,3.23.44,6.46-.05,10.39Z"/>
  <path class="st2" d="M217.84,253.62l-17.77.3c-.93,2.72-.9,5.3.04,7.77l19.8.23c.59,3.84.52,7.12-.02,10.79l-32.6-.04-.02-48.76,31.94-.14c1,3.5.61,7.08.26,10.83l-19.43.31c-.89,2.8-.88,5.33-.05,8.07l17.93.05c.13,3.5.2,6.46-.1,10.6Z"/>
  <path class="st2" d="M331.47,193.16l.43-12.48c3.83-.4,7.6-.22,11.89-.12l.04,20.34c-7.57,3.7-16.25,4.29-24.44,2.57-11.4-2.4-17.55-11.95-18-23.11-.56-13.8,8.25-25.54,22.67-26.43,5.73-.35,12.89-.22,17.33,3.48,1.57,3.3.43,8.57.24,12.37-5.6-3.92-12.3-6.2-19.08-3.97-5.94,1.96-8.55,8.07-8.28,14.1.19,4.26,1.74,8.09,4.66,10.6,3.13,2.69,7.43,3.77,12.53,2.65Z"/>
  <path class="st2" d="M423.68,131.15c-8.07,6.08-18.52,4.75-26.97,1.11-.84-4.34-.68-8.13-.08-12.39,5.93,4.83,19.56,7.19,19.79.63.2-5.8-10.77-4.24-16.66-9.5-7-6.26-6.11-18.92,2.26-23.76,7.47-4.31,16.56-3.09,23.56.73.3,4.35.45,7.78-.12,11.94-4.23-3.44-16.97-7.79-17.99-1.28-.93,5.93,11.06,4.57,17.01,10.11s6.31,17.05-.79,22.4Z"/>
  <path class="st2" d="M174.7,270.01c-8.2,5.5-18.17,4.06-26.43.6-.91-4.27-.67-8.05-.15-12.36,5.2,4.12,18.82,7.53,19.91,1.2s-11.01-4.55-17.06-10.52-5.55-17.97,2.05-22.89,16.98-3.64,24.28.35c.38,4.36.44,7.8-.08,12.03-5.39-4.58-18.04-7.34-18.12-.92-.07,5.57,11.16,4.1,17.05,9.62s6.26,17.72-1.46,22.9Z"/>
  <path class="st2" d="M57.45,200.71c-8.21,5.61-18.46,4.28-26.62.55-.66-4.35-.48-8.09-.09-12.29,5.98,4.82,19.93,7.38,19.99.54.06-5.49-10.4-4.13-16.41-9.14-7.05-5.88-6.6-18.49,1.39-23.62,7.41-4.76,16.8-3.52,24.15.31.57,4.29.66,7.69-.01,12.22-5.06-4.56-18.35-7.63-18.08-.82.21,5.36,10.74,3.89,16.76,9.25s6.55,17.77-1.1,22.99Z"/>
  <path class="st2" d="M244.37,131.76c-8.31,5.38-18.38,4.07-26.26.35-.58-4.46-.63-7.89.05-12.16,5.24,4.32,19.45,7.4,19.77.54.38-8.18-22.31-1.51-21.18-21.96.24-4.38,2.49-9.17,7.32-11.64,7.19-3.68,15.91-2.79,22.86,1.01.47,4.34.59,7.84-.1,12.05-4.33-3.64-16.82-7.7-17.83-1.33-.94,5.96,10.66,4.59,16.68,9.88,6.46,5.68,6.6,18.13-1.33,23.26Z"/>
  <path class="st2" d="M274.33,122.23c6.84,3.75,13.98,1.14,20.02-2.84.08,3.32,1.66,9.07-.28,12.08-4.08,4.05-11.44,3.99-17.02,3.55-13.08-1.02-21.72-11.3-21.9-24.07-.13-8.85,2.83-17.42,10.55-22.27,8.31-5.23,18.84-5.33,27.72-1.31.6,4.43.57,8.33-.03,13.01-5.62-3.89-12.68-6.34-19.07-2.95-4.6,2.44-6.27,7.6-6.33,12.11s1.45,10.01,6.34,12.7Z"/>
  <path class="st0" d="M198.16,134.33c-4.37.4-7.83.26-12.02.07l-.18-37.6-14.37-.45c-.58-3.59-.62-7.09.02-10.81l41.01-.05c.66,3.72.62,7.33.02,10.96l-14.36.45-.12,37.44Z"/>
  <rect class="st0" x="114.24" y="154.48" width="12.53" height="49.05"/>
  <g>
    <path class="st2" d="M83.06,189.43l-.41,13.71c-4.01.63-8.26.71-12.39-.04l.06-48.05c7.64-1.18,15.08-1.9,22.42-.68,9.11,1.52,14.54,8.65,14.37,17.63-.14,7.25-3.57,13.28-10.46,15.81-4.15,1.52-8.51,1.94-13.58,1.63Z"/>
    <path class="st1" d="M92.79,176.38c-2.46,2.77-6.33,2.65-9.86,2.04.24-3.87-1.15-8.37.36-12.52.81-2.22,7.08-.77,9,.95,2.19,1.97,3.38,6.29.5,9.53Z"/>
  </g>
  <g>
    <path class="st2" d="M58.27,133.96c-8.7,1.85-17.47,1.26-25.98-.06l.02-47.94c7.88-1.29,15.77-1.85,23.48-.79,13.6,1.87,21.28,12.62,20.59,25.89-.57,10.95-6.25,20.39-18.11,22.9Z"/>
    <path class="st4" d="M59.86,120.26c-3.88,4.42-9.73,4.25-15,3.5l-.08-27c5.22-1.36,11.81-.96,15.7,3.76,4.36,5.29,4.1,14.35-.62,19.74Z"/>
  </g>
  <g>
    <path class="st2" d="M284.45,194.52l-19.35-.22-3.76,9c-4.17.27-8.18.67-12.84-.26l18.64-48.23c4.87-.76,9.44-.19,14.97-.29l19.01,48.71c-4.58.51-8.9.41-13.46.09-1.36-2.73-1.98-5.07-3.21-8.8Z"/>
    <path class="st3" d="M280.42,183.66c-4.35.73-7.47.25-11.61.25l5.74-16.12,5.87,15.87Z"/>
  </g>
</svg>