<svg xmlns="http://www.w3.org/2000/svg" width="276" height="276" viewBox="0 0 276 276"><defs><style>.a{fill:#fff266;}.b{fill:#387a87;}</style></defs><path class="a" d="M203.964,0V204.346H0V276H276V0Z"/><g transform="translate(19 62)"><path class="b" d="M91.313,16.963A8.79,8.79,0,0,1,85.3,15.111a7.1,7.1,0,0,1-2.125-5.57V0h6.236V9.355a4.472,4.472,0,0,0,.325,2.048,1.615,1.615,0,0,0,1.574.721c1.657,0,1.781-1.078,1.781-2.723V0h6.284V9.563C99.378,14.4,96.589,16.963,91.313,16.963Zm16.551-.325h-5.532V0h8.017l2.2,6.655L114.827,0H122.7V16.636h-6.213V7.8l-3.329,8.842h-2.11L107.864,7.8v8.842Zm-35.423,0H66.228V0h7.361C78.443,0,80.9,1.887,80.9,5.608V5.7a4.5,4.5,0,0,1-2.462,4.306l3.445,6.63H75.395l-2.6-5.282h-.352v5.282Zm0-12.031V7.469h.7C74.344,7.469,74.9,7,74.9,6V5.91c0-.9-.528-1.3-1.712-1.3h-.75ZM37.064,16.638H31.508V0h6.963L42.1,7.725V0h5.533V16.636H41.706L37.064,7.563v9.075Zm23.023,0H53.8V4.747H49.748V0H64.142V4.747H60.087v11.89Zm-30.923,0H16.294V0H28.813V4.724H22.506V6.143h4.97v4.281h-4.97v1.489h6.657v4.722Zm-15.191,0H0V16.01L5.908,4.491H.961V0h13.48V.628L8.534,12.077h5.439v4.559Z" transform="translate(118.197 182.946)"/><path class="b" d="M234.649,17.22a9.652,9.652,0,0,1-5.6-1.361,5.1,5.1,0,0,1-2.045-4.363h5.884c.056.942.647,1.419,1.759,1.419.868,0,1.29-.289,1.29-.885s-.515-.86-1.9-1.023c-5.012-.538-6.7-1.912-6.7-5.446a4.988,4.988,0,0,1,1.858-3.993,9.819,9.819,0,0,1,10.253-.242,5.443,5.443,0,0,1,1.978,4.189h-5.767a1.2,1.2,0,0,0-1.29-1.211c-.725,0-1.125.281-1.125.792,0,.588.526.868,1.876,1,4.2.4,6.8,1.419,6.8,5.26a5.405,5.405,0,0,1-1.823,4.118A8.088,8.088,0,0,1,234.649,17.22Zm-37.3,0a9.336,9.336,0,0,1-6.632-2.333,8.348,8.348,0,0,1-2.394-6.207V8.493a8.039,8.039,0,0,1,2.684-6.219A9.726,9.726,0,0,1,197.491,0a9.993,9.993,0,0,1,6.57,2.132,7.824,7.824,0,0,1,2.667,6.2v.186a8.373,8.373,0,0,1-2.552,6.35A9.826,9.826,0,0,1,197.35,17.22Zm.14-12.4c-1.708,0-2.649,1.3-2.649,3.654v.185a4.729,4.729,0,0,0,.694,2.8,2.311,2.311,0,0,0,1.977.919,2.354,2.354,0,0,0,1.964-.954,4.64,4.64,0,0,0,.733-2.769V8.471C200.21,6.114,199.244,4.817,197.491,4.817ZM64.166,17.22a8.79,8.79,0,0,1-6.011-1.853A7.106,7.106,0,0,1,56.03,9.8V.256h6.237V9.61a4.472,4.472,0,0,0,.325,2.048,1.615,1.615,0,0,0,1.574.721c1.657,0,1.781-1.078,1.781-2.722V.256H72.23V9.82C72.23,14.661,69.442,17.22,64.166,17.22Zm-37.745,0a9.336,9.336,0,0,1-6.632-2.333A8.348,8.348,0,0,1,17.4,8.68V8.493A8.038,8.038,0,0,1,20.08,2.275,9.728,9.728,0,0,1,26.563,0a9.993,9.993,0,0,1,6.57,2.132A7.824,7.824,0,0,1,35.8,8.33v.186a8.372,8.372,0,0,1-2.553,6.35A9.828,9.828,0,0,1,26.421,17.22Zm.141-12.4c-1.709,0-2.65,1.3-2.65,3.654v.185a4.727,4.727,0,0,0,.694,2.8,2.312,2.312,0,0,0,1.978.919,2.354,2.354,0,0,0,1.964-.954,4.64,4.64,0,0,0,.733-2.769V8.471C29.281,6.114,28.316,4.817,26.563,4.817ZM214.417,16.895h-5.556V.256h6.962l3.633,7.726V.256h5.533V16.893h-5.931l-4.642-9.075v9.075Zm-95.018,0h-5.557V.256h6.963l3.633,7.726V.256h5.532V16.893h-5.931L119.4,7.819v9.075Zm-38.682,0H75.184V.256H83.2l2.2,6.656L87.68.256h7.878V16.893H89.345V8.051l-3.329,8.843h-2.11L80.717,8.051v8.843Zm-36.526,0h-6.26V.256h6.26V5.934L48.083.256h6.423L49.045,7.819l5.766,9.073-7.15,0-3.469-5.981v5.981Zm107.326,0H145.7L150.861.256H158.9l5.134,16.637h-6.658l-.562-2.21H152.08l-.562,2.21Zm2.953-11.66h0l-1.36,5.306h2.672l-1.312-5.306Zm31.65,11.659h-6.307V.256h6.307V16.893Zm-12.519,0h-6.283V5h-4.056V.256h14.395V5H173.6v11.89Zm-31.181,0h-6.283V5h-4.055V.256h14.395V5h-4.056v11.89Zm-30.922,0H98.628V.256h12.519V4.98h-6.306V6.4h4.97v4.282h-4.97v1.49H111.5v4.722Zm-104.535,0H0V.256H6.939c3.039,0,5.359.675,6.9,2.007,1.554,1.347,2.342,3.4,2.342,6.091v.163a8.014,8.014,0,0,1-2.383,6.248C12.227,16.178,9.928,16.894,6.963,16.894ZM6.259,4.98v7.191h.492c2.119,0,2.907-.953,2.907-3.514V8.471a4.043,4.043,0,0,0-.721-2.8A2.867,2.867,0,0,0,6.7,4.98Z" transform="translate(0.04 159.419)"/><path class="b" d="M2.3,136.623h0v-2.6l5.124-1.412L2.3,131.2v-2.25L9.948,131.4v2.717L2.3,136.622Zm7.648-14.873H2.3v-5.393H4.161v2.993h1.08v-2.378h1.7v2.378H8.087v-3.163H9.948v5.562Zm0-12.994H2.3v-3.1a3.818,3.818,0,0,1,.627-2.371,2.219,2.219,0,0,1,1.854-.8h.043a2.02,2.02,0,0,1,2,1.285l3.124-1.731v2.526l-2.621,1.412v.382H9.948v2.4Zm-5.06-3.949c-.532,0-.769.3-.769.976v.573H5.765v-.562c0-.664-.273-.987-.834-.987ZM7.5,95.4h0V93.117c.6-.053.877-.389.877-1.061,0-.533-.23-.839-.632-.839s-.53.233-.652,1.083c-.244,2.164-.888,2.93-2.461,2.93-1.459,0-2.439-1.22-2.439-3.037,0-1.932.8-2.933,2.439-3.057v2.229a.747.747,0,0,0-.738.828c0,.472.208.753.556.753.383,0,.539-.258.642-1.061a4.62,4.62,0,0,1,.636-2.2,1.974,1.974,0,0,1,1.76-.77c1.555,0,2.6,1.263,2.6,3.143,0,2.165-.871,3.29-2.587,3.343ZM6.171,81.969H6.086a3.769,3.769,0,0,1-2.838-1.176,4.185,4.185,0,0,1-1.066-2.88A4.252,4.252,0,0,1,3.2,75a3.686,3.686,0,0,1,2.827-1.163h.085a3.9,3.9,0,0,1,2.884,1.124,4.192,4.192,0,0,1,1.1,3A3.715,3.715,0,0,1,6.171,81.969Zm-.1-5.627c-1.252,0-2,.587-2,1.571,0,.964.748,1.539,2,1.539h.086c1.266,0,2.021-.583,2.021-1.56,0-.957-.775-1.551-2.021-1.551ZM.952,80.09a.972.972,0,0,1,0-1.943.972.972,0,0,1,0,1.943Zm0-2.409a.972.972,0,0,1,0-1.943.972.972,0,0,1,0,1.943Zm9-11.233H2.3V64.039H5.124V61.809H2.3V59.4H9.948v2.41H7.006v2.229H9.948v2.408Zm0-14.841H2.3v-2.7l4.044-2.155H2.3V44.643H9.948v2.3L5.369,49.483H9.948v2.123ZM6.792,36.881H2.3v-2.4H6.7c.941,0,1.486-.175,1.486-1.072s-.549-1.062-1.5-1.062H2.3v-2.42H6.771c2.169,0,3.316,1.2,3.316,3.482a3.646,3.646,0,0,1-.829,2.568A3.222,3.222,0,0,1,6.792,36.881ZM9.948,22.189H2.3v-2.7l4.044-2.156H2.3V15.224H9.948v2.3L5.369,20.065H9.948v2.122ZM6.171,7.825H6.086a3.79,3.79,0,0,1-2.83-1.153A4.144,4.144,0,0,1,2.182,3.791c0-2.148,1.08-3.5,2.888-3.61V2.559a1.072,1.072,0,0,0-.984,1.22c0,.964.764,1.54,2.043,1.54h.086c1.348,0,2.032-.539,2.032-1.6,0-1.1-.61-1.331-.974-1.37v1.3H5.68V0h.984c1.655,0,3.423,1,3.423,3.791a4.09,4.09,0,0,1-1.1,3A3.912,3.912,0,0,1,6.171,7.825Z" transform="translate(230.811 6.183)"/><path class="b" d="M.118,142.515h0v-2.6L5.242,138.5.118,137.09v-2.25l7.647,2.452v2.718L.119,142.515Zm7.647-14.873H.118v-5.393H1.979v2.993h1.08v-2.379h1.7v2.379H5.9v-3.164H7.765v5.562Zm0-12.994H.118v-3.1a3.818,3.818,0,0,1,.627-2.371,2.22,2.22,0,0,1,1.855-.8h.042a2.02,2.02,0,0,1,2,1.285l3.123-1.731v2.526l-2.62,1.412v.383h2.62v2.4ZM2.706,110.7c-.533,0-.77.3-.77.976v.573H3.584v-.563c0-.664-.273-.987-.835-.987Zm-.727-9.311H.118V95.134H1.979v1.921H7.765v2.421H1.979v1.91ZM7.765,87.819H.118v-3.1a3.818,3.818,0,0,1,.627-2.372,2.22,2.22,0,0,1,1.855-.8h.042a2.02,2.02,0,0,1,2,1.285L7.765,81.1v2.526l-2.62,1.412v.382h2.62v2.4ZM2.706,83.87c-.533,0-.77.3-.77.977v.573H3.584v-.563c0-.664-.273-.987-.835-.987Zm5.059-10H.118V68.476H1.979V71.47h1.08V69.092h1.7V71.47H5.9V68.306H7.765v5.562Zm0-13.027H.118V58.412H7.765v2.43Zm0-10.266H.118V46.988c0-1.67.71-2.59,2-2.59h.043a1.566,1.566,0,0,1,1.647,1.316A1.688,1.688,0,0,1,5.594,44.2h.042c1.412,0,2.129.947,2.129,2.813v3.566ZM5.327,46.563c-.533,0-.781.3-.781.956v.711H6.172v-.764c0-.6-.27-.9-.8-.9Zm-2.941.106c-.474,0-.685.259-.685.839v.722H3.1V47.5c0-.588-.2-.828-.674-.828ZM4.61,36.881H.118v-2.4h4.4C5.456,34.483,6,34.307,6,33.41s-.549-1.062-1.5-1.062H.118v-2.42H4.589c2.169,0,3.316,1.2,3.316,3.482a3.645,3.645,0,0,1-.829,2.568A3.224,3.224,0,0,1,4.61,36.881ZM7.765,22.189H.118v-2.7l4.043-2.156H.118V15.224H7.765v2.3L3.188,20.065H7.765v2.123ZM3.99,7.825H3.9A3.79,3.79,0,0,1,1.074,6.671,4.146,4.146,0,0,1,0,3.79C0,1.643,1.08.293,2.888.18V2.559A1.073,1.073,0,0,0,1.9,3.78c0,.964.764,1.539,2.043,1.539h.085c1.348,0,2.032-.539,2.032-1.6,0-1.1-.61-1.331-.974-1.37v1.3H3.5V0h.985C6.137,0,7.9,1,7.9,3.79a4.092,4.092,0,0,1-1.1,3A3.911,3.911,0,0,1,3.99,7.825Z" transform="translate(217.543 0.291)"/><path class="b" d="M7.765,74.74H.118V69.485H1.989v2.845H3.412V70.036H5.2v2.293H7.765v2.409Zm0-12.623H.118v-2.41H5.894v-2.76H7.765v5.169ZM4.61,49.833H.118v-2.4h4.4c.942,0,1.487-.175,1.487-1.072S5.451,45.3,4.5,45.3H.118V42.88H4.589c2.169,0,3.316,1.2,3.316,3.482a3.645,3.645,0,0,1-.829,2.568A3.224,3.224,0,0,1,4.61,49.833Zm-.62-14.3H3.9A3.747,3.747,0,0,1,0,31.605,3.943,3.943,0,0,1,.73,29.1,3.121,3.121,0,0,1,3.016,28V30.48a1.061,1.061,0,0,0-1.1,1.114c0,.891.721,1.4,1.978,1.4h.086c1.276,0,1.979-.513,1.979-1.444A1.153,1.153,0,0,0,4.835,30.3V27.9a3.106,3.106,0,0,1,2.289,1.095A3.908,3.908,0,0,1,7.9,31.5a4.069,4.069,0,0,1-1.079,3.044A3.917,3.917,0,0,1,3.99,35.533ZM7.765,20.617H.118v-2.41H2.941V15.978H.118v-2.41H7.765v2.41H4.824v2.229H7.765v2.409ZM1.979,6.253H.118V0H1.979V1.922H7.765V4.343H1.979v1.91Z" transform="translate(202.094 67.472)"/></g></svg>