<?xml version="1.0" encoding="UTF-8"?>
<svg id="Ebene_1" xmlns="http://www.w3.org/2000/svg" version="1.1" viewBox="0 0 283.46 113.39">
  <!-- Generator: Adobe Illustrator 30.1.0, SVG Export Plug-In . SVG Version: 2.1.1 Build 136)  -->
  <defs>
    <style>
      .st0 {
        fill: none;
        stroke: #1d1d1b;
        stroke-miterlimit: 10;
      }

      .st1 {
        fill: #1d1d1b;
      }
    </style>
  </defs>
  <path class="st0" d="M1.09,57.81h38.61c24.02-22.16,60.6-36.31,101.57-36.31s77.56,14.15,101.57,36.33h39.47l-15.58,36.24h-40.2c-4.68-6.27-10.29-11.51-14.49-14.68-18.21-13.69-44.02-21.55-70.77-21.55s-52.56,7.86-70.77,21.55c-4.19,3.15-9.73,8.41-14.41,14.68H16.74L1.09,57.82h0Z"/>
  <path class="st0" d="M-.02,55.06h38.65c25.48-23.1,62.83-36.31,102.64-36.31s77.15,13.23,102.64,36.33h39.5"/>
  <path class="st0" d="M75.36,79.27c17.5-11.93,41.27-18.71,65.91-18.71s48.4,6.78,65.91,18.71"/>
  <g>
    <path class="st1" d="M49.27,59.56c.83.97,1.45,1.71,1.88,2.23.12.13.06.31-.14.53-.64.55-1.52,1.31-2.61,2.29-.16.16-.16.34,0,.52l3.27,3.83c.18.22.35.26.49.14.32-.26,1.04-.89,2.13-1.89.19-.17.38-.17.56,0,.56.53,1.37,1.48,2.44,2.84.13.14.12.28-.02.41-.53.43-1.27,1.07-2.2,1.89-.14.14-.14.31,0,.5.41.53,1.26,1.55,2.58,3.04,1.83,2.13,2.78,3.23,2.84,3.32.16.18.16.37-.04.56-.9.93-1.8,1.73-2.7,2.35-.19.14-.37.12-.53-.06l-14.45-16.87c-.18-.22-.17-.43.06-.62.65-.57,1.68-1.46,3.1-2.66l2.8-2.36c.2-.18.41-.18.56,0h-.01.01Z"/>
    <path class="st1" d="M71.03,71.4c.13.18.1.37-.14.57-2.02,1.64-3.95,3.01-5.78,4.13-.18.11-.36.02-.57-.26l-13.13-18.09c-.12-.17-.11-.31.06-.44,1.15-.87,3.07-2.23,5.7-4.1.25-.18.43-.17.57,0,.18.25.48.66.91,1.25.5.74.83,1.21.97,1.39.14.19.13.35-.04.47-.61.44-1.46,1.07-2.61,1.89-.22.17-.28.34-.16.5.05.07.44.64,1.17,1.66.61.87,1.08,1.52,1.41,1.95.13.17.29.2.49.11.35-.18,1.05-.68,2.12-1.51.19-.14.36-.13.52.05.22.28.59.79,1.1,1.57.61.9.97,1.43,1.08,1.58.16.22.16.38-.01.5l-2.05,1.5c-.16.12-.16.29-.02.55.38.71,1.26,1.92,2.6,3.68.14.19.36.22.66.04.6-.43,1.43-1.04,2.5-1.82.25-.18.44-.17.59.04.91,1.25,1.59,2.18,2.05,2.79h.01Z"/>
    <path class="st1" d="M77.36,61.53c.87,1.44,1.2,2.79.97,4.06s-.98,2.3-2.31,3.1c-1.14.68-2.38.83-3.74.42-1.44-.44-2.6-1.45-3.5-3-.16-.26-.41-.68-.74-1.28-.19-.35-.2-.57-.05-.67.16-.1.61-.38,1.34-.87s1.17-.78,1.34-.87c.16-.1.37.06.62.49l.73,1.2c.72,1.19,1.38,1.57,2.01,1.2.49-.3.52-.86.06-1.69l-.78-1.4c-.24-.42-1.03-.79-2.38-1.13-2.3-.57-3.58-.9-3.83-1-1.46-.49-2.46-1.15-2.95-1.99l-1.26-2.07c-.9-1.48-1.27-2.89-1.11-4.18.16-1.41.93-2.55,2.32-3.45,1.14-.72,2.32-.87,3.52-.46,1.11.38,2.06,1.23,2.84,2.53l1.46,2.43c.14.25.14.43-.02.56-.44.34-1.31.86-2.64,1.59-.2.13-.38.06-.53-.18-.25-.36-.62-1.03-1.14-1.99-.19-.35-.46-.65-.79-.91-.34-.25-.62-.31-.84-.17-.62.37-.61,1.1.04,2.18l.77,1.27c.31.5,1.17.96,2.59,1.38,1.33.37,2.65.75,3.99,1.14,1.51.56,2.5,1.26,3.01,2.1l1.03,1.69h-.01,0Z"/>
    <path class="st1" d="M81.17,43.48c.12.25.02.43-.26.57-.12.05-.37.17-.78.35-.37.18-.67.32-.91.44-.35.17-.47.38-.35.65l8.15,16.59c.13.28.12.47-.06.57-.57.37-1.53.84-2.91,1.38-.24.1-.42,0-.55-.28l-8.11-16.61c-.12-.25-.28-.31-.48-.2l-1.88.91c-.28.12-.47.06-.59-.17.1.19-.1-.16-.56-1.03-.31-.57-.52-1.03-.61-1.39-.16-.48-.11-.78.13-.9,2.1-1.04,4.7-2.31,7.85-3.82.24-.12.44-.02.61.28.55,1.05.98,1.92,1.31,2.64h.01v.02Z"/>
    <path class="st1" d="M98.14,52.26c.6,1.57.67,2.96.24,4.17-.44,1.21-1.39,2.1-2.83,2.64-1.25.48-2.49.38-3.75-.26-1.34-.71-2.3-1.89-2.9-3.58-.11-.29-.28-.75-.5-1.4-.13-.37-.11-.61.07-.67s.66-.28,1.46-.62c.8-.35,1.29-.56,1.46-.62s.35.13.53.6l.49,1.31c.49,1.28,1.08,1.8,1.76,1.53.55-.2.66-.75.37-1.64l-.52-1.52c-.16-.46-.87-.96-2.16-1.55-2.16-.97-3.37-1.53-3.59-1.66-1.35-.75-2.2-1.58-2.54-2.49l-.87-2.28c-.62-1.62-.73-3.07-.34-4.31.41-1.37,1.38-2.35,2.91-2.97,1.26-.49,2.44-.44,3.55.18,1.03.59,1.81,1.58,2.35,3l1.02,2.65c.11.28.06.44-.13.53-.49.25-1.44.61-2.86,1.09-.24.1-.38,0-.49-.28-.17-.41-.43-1.13-.77-2.16-.13-.37-.32-.73-.62-1.04-.29-.31-.56-.42-.8-.32-.68.26-.8.97-.35,2.16l.53,1.39c.2.56.97,1.15,2.3,1.82,1.23.61,2.48,1.22,3.71,1.83,1.38.82,2.24,1.69,2.59,2.6l.71,1.84v.04l-.02-.03Z"/>
    <path class="st1" d="M112.11,53.75c.05.11-.01.18-.19.24-.26.06-.73.19-1.41.38-.68.17-1.29.32-1.81.47-.17.04-.53-.49-1.11-1.62-.43-.84-.78-1.58-1.05-2.2-.05-.13-.17-.16-.35-.12l-1.07.3c-.13.04-.19.12-.19.26.14,1.17.29,2.52.42,4.06-.02.18-.1.3-.18.32l-3.35.92c-.29.07-.44,0-.44-.24-.42-3.93-.84-7.87-1.27-11.81-.79-7.6-1.07-11.44-.84-11.53.96-.32,1.95-.6,2.94-.8.22-.04,1.89,3.41,5.02,10.38,1.64,3.67,3.26,7.33,4.88,11h.02-.02ZM105.27,47.41c-.84-2.02-1.31-3.03-1.39-3-.1.02-.07.5.05,1.44.1.61.18,1.22.28,1.86,0,.06.1.07.3.05.19-.02.37-.06.53-.13.18-.06.26-.14.24-.2h0v-.02Z"/>
    <path class="st1" d="M124.47,51.52c.04.11-.04.18-.22.2-.26.04-.74.13-1.44.25-.72.11-1.33.19-1.84.29-.17.02-.48-.55-.95-1.73-.34-.9-.62-1.65-.82-2.3-.04-.13-.16-.18-.34-.14l-1.08.18c-.13.02-.2.11-.22.25.02,1.17.04,2.53,0,4.09-.04.18-.12.29-.2.3l-3.41.59c-.3.05-.44-.04-.42-.28-.02-3.94-.06-7.92-.1-11.9-.02-7.63.07-11.49.31-11.55.98-.24,1.99-.41,3-.52.22-.01,1.55,3.58,3.98,10.82,1.26,3.81,2.52,7.62,3.76,11.44h-.01v.02ZM118.29,44.54c-.65-2.1-1-3.14-1.08-3.13-.1.01-.13.49-.1,1.44.02.61.06,1.23.1,1.87,0,.06.1.1.29.07s.37-.02.55-.07c.18-.05.28-.12.26-.18,0,0-.01,0-.01,0Z"/>
    <path class="st1" d="M133.81,50.17c0,.35-.22.55-.68.59.12,0-1.11.12-3.7.37-1.57.17-2.66.25-3.3.22-.29-.01-.44-.24-.48-.65-.92-9.64-1.57-16.9-1.96-21.77-.05-.53.11-.78.44-.75.41.02,1.41-.06,3.04-.26.25-.04.38.04.44.25,0,.17,0,.35.01.55.13.83.36,3.4.68,7.72.36,4.68.65,7.94.87,9.76.05.43.29.65.71.62l2.92-.25c.46-.04.68.12.72.46.07.66.17,1.73.28,3.15h.03Z"/>
    <path class="st1" d="M149.56,50.26c.11.32.05.49-.16.5l-3.87-.12c-.16,0-.26-.14-.32-.42-.22-.89-.68-2.96-1.39-6.23-.06-.31-.12-.47-.16-.49-.01,0-.04.16-.07.48-.12,1.37-.19,3.41-.22,6.16,0,.29-.12.43-.32.42l-2.77-.1c-.25,0-.36-.19-.35-.56l.68-22.23c0-.28.11-.41.3-.38.75,0,1.76.04,3.04.1.18.02.28.16.28.42-.2,3.45-.3,5.48-.3,6.09,0,.13.02.19.07.2.05-.01.11-.11.16-.26.32-1.19.89-3.19,1.71-5.99.07-.28.2-.41.37-.38.43.04,1.04.05,1.83.05.93.02,1.43.04,1.46.05.26,0,.38.14.37.42,0,.05,0,.12-.04.17-.42.8-1.23,2.53-2.42,5.18-1.21,2.73-1.81,4.14-1.76,4.25.95,3.25,2.24,7.46,3.87,12.65v.02h.01Z"/>
    <path class="st1" d="M160.34,51.39c.05.43-.07.64-.35.62-.36,0-1.45-.14-3.27-.41-.2-.02-.3-.3-.28-.8.05-1.29.17-2.74.35-4.31.32-2.85,0-4.35-1-4.47-.13-.05-.24-.06-.34-.04-.14.04-.22.25-.28.6-.34,2.97-.65,5.6-.92,7.85-.05.49-.19.74-.41.73-1.03,0-1.99-.1-2.9-.28-.22-.04-.3-.34-.25-.86l2.49-21.87c.04-.34.24-.49.57-.46,1.04.12,2.44.28,4.23.46,1.17.13,2.13.49,2.89,1.08.82.65,1.19,1.43,1.08,2.34l-.66,5.6c-.11.92-.47,1.69-1.09,2.3-.43.43-.89.71-1.38.82-.16.04-.24.1-.25.14,0,.04.06.1.2.17.34.16.68.43,1.04.84.79.87,1.02,2.8.67,5.8-.22,1.91-.29,3.3-.19,4.16h.01l.03-.02ZM158.29,33.6c.14-1.25-.19-1.89-1.03-1.93-.19.01-.34.02-.43,0-.17-.01-.28.13-.31.46l-.57,4.98c-.06.53.04.82.3.87.1.02.2.04.34.04.42.05.72-.13.91-.53.3-.59.56-1.87.78-3.88h.01-.01Z"/>
    <path class="st1" d="M169.29,53.31c-.04.22-.22.31-.52.28-2.59-.36-4.91-.83-6.96-1.4-.19-.05-.28-.26-.2-.6l4.23-21.94c.04-.2.16-.29.36-.25,1.43.26,3.73.72,6.89,1.37.3.05.42.19.37.43-.05.3-.16.8-.3,1.52-.18.89-.3,1.43-.35,1.66-.05.24-.17.34-.37.3-.74-.14-1.8-.35-3.16-.61-.28-.05-.43.02-.47.24-.01.1-.16.75-.42,1.99-.22,1.05-.37,1.83-.46,2.36-.04.2.05.35.26.43.37.13,1.22.3,2.54.52.24.05.35.18.32.42-.05.34-.18.96-.38,1.88-.25,1.07-.37,1.69-.42,1.87-.05.26-.18.37-.37.34l-2.49-.48c-.18-.04-.32.07-.42.35-.25.77-.55,2.23-.91,4.41-.05.25.1.42.42.52.72.14,1.74.34,3.05.59.3.05.42.2.37.46-.3,1.52-.5,2.65-.62,3.4v-.05Z"/>
    <path class="st1" d="M185.84,34.52l-4.78,17.04c-.3,1.07-.78,1.93-1.45,2.62-1.17,1.19-2.68,1.51-4.57.98-2.12-.59-3.35-1.48-3.7-2.68-.25-.78-.12-2.12.42-4.01l4.6-16.58c.04-.16.11-.28.2-.36.1-.1.19-.12.3-.1l2.91.8c.31.1.43.26.35.55-.17.62-.96,3.48-2.37,8.58-1.43,5.09-2.13,7.57-2.1,7.44-.41,1.43-.22,2.26.52,2.46.65.18,1.19-.44,1.57-1.88l4.4-15.88c.07-.37.25-.52.5-.46,1.8.49,2.8.79,3.03.87s.29.29.19.61h-.02,0Z"/>
    <path class="st1" d="M190.3,59.57c-.06.18-.19.31-.36.42-.18.1-.34.12-.5.05-3.3-1.33-5.89-2.31-7.8-2.98-.25-.1-.3-.35-.16-.79.1-.24.19-.61.34-1.13.13-.46.25-.83.36-1.11.1-.24.22-.46.41-.67.32-.38.49-.59.49-.61l8.21-11.53c.13-.19.2-.38.22-.59.02-.22-.05-.35-.2-.42-1.08-.34-1.99-.68-2.74-1.03-.49-.24-.66-.59-.48-1.07.13-.34.31-.77.55-1.29.29-.61.47-.98.52-1.15.16-.36.41-.48.73-.34.6.25,1.84.72,3.75,1.4,1.93.68,3.15,1.1,3.69,1.26.47.13.64.43.5.9-.19.67-.44,1.28-.74,1.81l-.91,1.28-8.47,12.05c-.3.48-.35.77-.17.86.46.24,1.56.62,3.32,1.19.38.13.52.41.38.82-.2.66-.52,1.56-.95,2.7h.01-.01Z"/>
    <path class="st1" d="M201.45,61.92c-.59,1.22-1.57,1.76-2.95,1.64-1.07-.1-2.65-.64-4.78-1.65l-2.44-1.17c-.17-.07-.19-.25-.06-.5l9.86-20.54c.11-.2.19-.29.3-.24l4.77,2.29c1.02.48,1.71,1.28,2.1,2.42.37,1.11.31,2.18-.19,3.2l-1.34,2.73c-.5,1.02-.96,1.7-1.38,2.07-.55.49-1.34.79-2.36.9.43.55.72,1.23.86,2.06.16.92.06,1.75-.28,2.47l-2.1,4.36v-.02h0ZM199.09,57.46l.71-1.53c.46-.98.12-1.75-1.03-2.3-.12-.05-.22,0-.31.19l-2.22,4.62c-.11.22-.06.37.12.47l.35.17c.89.43,1.68-.12,2.37-1.62h.01ZM204,46.89c.3-.57.44-1.02.44-1.31,0-.44-.26-.79-.78-1.04-.29-.16-.48-.25-.59-.29-.11-.02-.2.02-.28.18-.41.87-1.14,2.44-2.24,4.74-.11.22-.11.36.01.42.32.19.73.29,1.21.25.48-.02.83-.25,1.04-.62l1.19-2.32h.01Z"/>
    <path class="st1" d="M208.06,69.12c-.12.19-.31.24-.59.1-2.31-1.21-4.35-2.42-6.1-3.64-.17-.12-.17-.32,0-.62l11.31-19.28c.11-.18.25-.22.43-.12,1.26.72,3.27,1.91,6.04,3.58.26.16.34.32.22.52-.16.26-.42.72-.78,1.34-.47.77-.77,1.25-.89,1.45s-.28.26-.44.16c-.65-.37-1.57-.92-2.78-1.64-.25-.14-.42-.12-.52.06-.05.07-.41.66-1.05,1.74-.56.91-.96,1.59-1.22,2.07-.11.18-.07.35.11.49.31.25,1.05.68,2.23,1.34.2.12.26.29.17.49-.16.31-.49.86-1,1.64-.59.92-.92,1.46-1.03,1.62-.13.24-.29.3-.47.19l-2.19-1.28c-.17-.1-.34-.02-.5.19-.48.64-1.26,1.92-2.32,3.86-.13.2-.05.42.22.62.64.37,1.52.9,2.67,1.57.26.16.32.34.19.55-.78,1.34-1.37,2.34-1.73,3h.01Z"/>
    <path class="st1" d="M216.92,74.94c-.17.41-.36.52-.61.37-.31-.17-1.21-.82-2.67-1.92-.17-.12-.12-.41.14-.84.67-1.11,1.46-2.32,2.37-3.61,1.66-2.35,2.07-3.82,1.27-4.39-.1-.11-.18-.17-.28-.19-.14-.02-.31.11-.52.41-1.73,2.46-3.25,4.6-4.57,6.43-.29.41-.52.56-.71.46-.9-.49-1.7-1.04-2.41-1.62-.17-.14-.11-.44.19-.87l12.68-18c.19-.29.44-.32.72-.13.86.6,2.01,1.4,3.5,2.43.96.67,1.62,1.45,2.01,2.32.42.96.35,1.82-.18,2.58l-3.27,4.59c-.53.77-1.22,1.26-2.05,1.5-.59.17-1.11.19-1.59.06-.16-.04-.25-.04-.29,0-.02.02,0,.12.11.25.22.3.41.72.5,1.23.28,1.14-.46,2.95-2.19,5.42-1.1,1.57-1.83,2.76-2.16,3.55h.02ZM223.65,58.34c.73-1.03.74-1.75.02-2.19-.18-.07-.3-.14-.37-.19-.14-.11-.3-.01-.49.25l-2.89,4.1c-.31.44-.36.74-.16.91.06.06.16.13.28.19.34.24.68.24,1.05-.02.53-.36,1.39-1.38,2.54-3.04h.02Z"/>
    <path class="st1" d="M225.89,82.16c-.34.38-.57.52-.72.41l-.6-.52c-.13-.12-.14-.29-.04-.52s.22-.56.36-.98c-.83.47-1.92.13-3.27-1.04-1.46-1.26-2.18-2.53-2.13-3.79.04-1.11.73-2.43,2.05-3.94l7.62-8.78c1.55-1.77,2.89-2.73,4-2.86,1-.12,2.16.38,3.48,1.53,1.58,1.37,2.31,2.68,2.18,3.99-.06.95-.68,2.11-1.84,3.5-1.07,1.33-1.86,2.28-2.38,2.86-.2.25-.42.29-.6.13-.5-.42-1.28-1.09-2.31-2.02-.17-.14-.17-.34,0-.56.71-.87,1.4-1.74,2.1-2.6.9-1.23,1.11-2.04.71-2.42-.53-.46-1.28-.11-2.26,1.03l-7.85,9.12c-.19.24-.36.57-.49,1.02-.17.53-.13.91.1,1.1.57.49,1.53-.04,2.86-1.61l.95-1.1c.16-.18.18-.32.05-.41l-.52-.44c-.13-.12-.14-.24-.02-.36l1.81-2.11c.18-.22.38-.24.6-.05.75.65,1.8,1.56,3.13,2.73.2.18.22.41,0,.65l-6.95,8.08h-.03Z"/>
  </g>
</svg>