<?xml version="1.0" encoding="UTF-8"?>
<svg id="Ebene_1" xmlns="http://www.w3.org/2000/svg" version="1.1" viewBox="0 0 283.46 283.46">
  <!-- Generator: Adobe Illustrator 30.1.0, SVG Export Plug-In . SVG Version: 2.1.1 Build 136)  -->
  <defs>
    <style>
      .st0 {
        fill: none;
        stroke: #1d1d1b;
        stroke-miterlimit: 10;
      }

      .st1 {
        fill: #1d1d1b;
      }
    </style>
  </defs>
  <path class="st0" d="M10.23,136.65h36.12c22.47-20.73,56.69-33.97,95.02-33.97s72.56,13.24,95.02,33.99h36.93l-14.58,33.9h-37.61c-4.38-5.87-9.63-10.77-13.56-13.73-17.04-12.81-41.18-20.16-66.21-20.16s-49.17,7.35-66.21,20.16c-3.92,2.95-9.1,7.87-13.48,13.73H24.88l-14.65-33.91Z"/>
  <path class="st0" d="M9.2,134.08h36.16c23.84-21.61,58.78-33.97,96.02-33.97s72.18,12.38,96.02,33.99h36.95"/>
  <path class="st0" d="M79.72,156.73c16.37-11.16,38.61-17.5,61.66-17.5s45.28,6.34,61.66,17.5"/>
  <g>
    <path class="st1" d="M55.31,138.29c.78.91,1.36,1.6,1.76,2.09.11.12.06.29-.13.5-.6.51-1.42,1.23-2.44,2.14-.15.15-.15.32,0,.49l3.06,3.58c.17.21.33.24.46.13.3-.24.97-.83,1.99-1.77.18-.16.36-.16.52,0,.52.5,1.28,1.38,2.28,2.66.12.13.11.26-.02.38-.5.4-1.19,1-2.06,1.77-.13.13-.13.29,0,.47.38.5,1.18,1.45,2.41,2.84,1.71,1.99,2.6,3.02,2.66,3.11.15.17.15.35-.04.52-.84.87-1.68,1.62-2.53,2.2-.18.13-.35.11-.5-.06l-13.52-15.78c-.17-.21-.16-.4.06-.58.61-.53,1.57-1.37,2.9-2.49l2.62-2.21c.19-.17.38-.17.52,0h-.01Z"/>
    <path class="st1" d="M75.67,149.37c.12.17.09.35-.13.53-1.89,1.53-3.7,2.82-5.41,3.86-.17.1-.34.02-.53-.24l-12.28-16.92c-.11-.16-.1-.29.06-.41,1.08-.81,2.87-2.09,5.33-3.84.23-.17.4-.16.53,0,.17.23.45.62.85,1.17.47.69.78,1.13.91,1.3.13.18.12.33-.04.44-.57.41-1.37,1-2.44,1.77-.21.16-.26.32-.15.47.05.07.41.6,1.09,1.55.57.81,1.01,1.42,1.32,1.82.12.16.27.19.46.1.33-.17.98-.64,1.98-1.41.18-.13.34-.12.49.05.21.26.55.74,1.03,1.47.57.84.91,1.34,1.01,1.48.15.21.15.36-.01.47l-1.92,1.4c-.15.11-.15.27-.02.51.36.66,1.18,1.8,2.43,3.44.13.18.34.21.62.04.56-.4,1.34-.97,2.34-1.7.23-.17.41-.16.55.04.85,1.17,1.49,2.04,1.92,2.61Z"/>
    <path class="st1" d="M81.59,140.13c.81,1.35,1.12,2.61.91,3.8s-.92,2.15-2.16,2.9c-1.07.64-2.23.78-3.5.39-1.35-.41-2.43-1.36-3.27-2.81-.15-.24-.38-.64-.69-1.2-.18-.33-.19-.53-.05-.63.15-.09.57-.36,1.25-.81.68-.45,1.09-.73,1.25-.81.15-.09.35.06.58.46l.68,1.12c.67,1.11,1.29,1.47,1.88,1.12.46-.28.49-.8.06-1.58l-.73-1.31c-.22-.39-.96-.74-2.23-1.06-2.15-.53-3.35-.84-3.58-.94-1.37-.46-2.3-1.08-2.76-1.86l-1.18-1.94c-.84-1.38-1.19-2.7-1.04-3.91.15-1.32.87-2.39,2.17-3.23,1.07-.67,2.17-.81,3.29-.43,1.04.36,1.93,1.15,2.66,2.37l1.37,2.27c.13.23.13.4-.02.52-.41.32-1.23.8-2.47,1.49-.19.12-.36.06-.5-.17-.23-.34-.58-.96-1.07-1.86-.18-.33-.43-.61-.74-.85-.32-.23-.58-.29-.79-.16-.58.35-.57,1.03.04,2.04l.72,1.19c.29.47,1.09.9,2.42,1.29,1.24.35,2.48.7,3.73,1.07,1.41.52,2.34,1.18,2.82,1.96l.96,1.58h-.01Z"/>
    <path class="st1" d="M85.15,123.25c.11.23.02.4-.24.53-.11.05-.35.16-.73.33-.35.17-.63.3-.85.41-.33.16-.44.36-.33.61l7.62,15.52c.12.26.11.44-.06.53-.53.35-1.43.79-2.72,1.29-.22.09-.39,0-.51-.26l-7.59-15.54c-.11-.23-.26-.29-.45-.19l-1.76.85c-.26.11-.44.06-.55-.16.09.18-.09-.15-.52-.96-.29-.53-.49-.96-.57-1.3-.15-.45-.1-.73.12-.84,1.96-.97,4.4-2.16,7.34-3.57.22-.11.41-.02.57.26.51.98.92,1.8,1.23,2.47h.01Z"/>
    <path class="st1" d="M101.03,131.46c.56,1.47.63,2.77.22,3.9-.41,1.13-1.3,1.96-2.65,2.47-1.17.45-2.33.36-3.51-.24-1.25-.66-2.15-1.77-2.71-3.35-.1-.27-.26-.7-.47-1.31-.12-.35-.1-.57.07-.63.17-.06.62-.26,1.37-.58.75-.33,1.21-.52,1.37-.58s.33.12.5.56l.46,1.23c.46,1.2,1.01,1.68,1.65,1.43.51-.19.62-.7.35-1.53l-.49-1.42c-.15-.43-.81-.9-2.02-1.45-2.02-.91-3.15-1.43-3.36-1.55-1.26-.7-2.06-1.48-2.38-2.33l-.81-2.13c-.58-1.52-.68-2.87-.32-4.03.38-1.28,1.29-2.2,2.72-2.78,1.18-.46,2.28-.41,3.32.17.96.55,1.69,1.48,2.2,2.81l.95,2.48c.1.26.06.41-.12.5-.46.23-1.35.57-2.68,1.02-.22.09-.36,0-.46-.26-.16-.38-.4-1.06-.72-2.02-.12-.35-.3-.68-.58-.97-.27-.29-.52-.39-.75-.3-.64.24-.75.91-.33,2.02l.5,1.3c.19.52.91,1.08,2.15,1.7,1.15.57,2.32,1.14,3.47,1.71,1.29.77,2.1,1.58,2.42,2.43l.66,1.72v.04Z"/>
    <path class="st1" d="M114.1,132.85c.05.1-.01.17-.18.22-.24.06-.68.18-1.32.36-.64.16-1.21.3-1.69.44-.16.04-.5-.46-1.04-1.52-.4-.79-.73-1.48-.98-2.06-.05-.12-.16-.15-.33-.11l-1,.28c-.12.04-.18.11-.18.24.13,1.09.27,2.36.39,3.8-.02.17-.09.28-.17.3l-3.13.86c-.27.07-.41,0-.41-.22-.39-3.68-.79-7.36-1.19-11.05-.74-7.11-1-10.7-.79-10.79.9-.3,1.82-.56,2.75-.75.21-.04,1.77,3.19,4.7,9.71,1.53,3.43,3.05,6.86,4.57,10.29h.02ZM107.7,126.92c-.79-1.89-1.23-2.83-1.3-2.81-.09.02-.07.47.05,1.35.09.57.17,1.14.26,1.74,0,.06.09.07.28.05.18-.02.35-.06.5-.12.17-.06.24-.13.22-.19h0Z"/>
    <path class="st1" d="M125.66,130.77c.04.1-.04.17-.21.19-.24.04-.69.12-1.35.23-.67.1-1.24.18-1.72.27-.16.02-.45-.51-.89-1.62-.32-.84-.58-1.54-.77-2.15-.04-.12-.15-.17-.32-.13l-1.01.17c-.12.02-.19.1-.21.23.02,1.09.04,2.37,0,3.83-.04.17-.11.27-.19.28l-3.19.55c-.28.05-.41-.04-.39-.26-.02-3.69-.06-7.41-.09-11.13-.02-7.14.07-10.75.29-10.81.92-.22,1.86-.38,2.81-.49.21-.01,1.45,3.35,3.72,10.12,1.18,3.56,2.36,7.13,3.52,10.7h-.01ZM119.88,124.24c-.61-1.96-.94-2.94-1.01-2.93-.09.01-.12.46-.09,1.35.02.57.06,1.15.09,1.75,0,.06.09.09.27.07s.35-.02.51-.07c.17-.05.26-.11.24-.17h-.01Z"/>
    <path class="st1" d="M134.4,129.5c0,.33-.21.51-.64.55.11,0-1.04.11-3.46.35-1.47.16-2.49.23-3.09.21-.27-.01-.41-.22-.45-.61-.86-9.02-1.47-15.81-1.83-20.37-.05-.5.1-.73.41-.7.38.02,1.32-.06,2.84-.24.23-.04.36.04.41.23,0,.16,0,.33.01.51.12.78.34,3.18.64,7.22.34,4.38.61,7.43.81,9.13.05.4.27.61.66.58l2.73-.23c.43-.04.64.11.67.43.07.62.16,1.62.26,2.95h.02Z"/>
    <path class="st1" d="M149.13,129.59c.1.3.05.46-.15.47l-3.62-.11c-.15,0-.24-.13-.3-.39-.21-.83-.64-2.77-1.3-5.83-.06-.29-.11-.44-.15-.46-.01,0-.04.15-.07.45-.11,1.28-.18,3.19-.21,5.76,0,.27-.11.4-.3.39l-2.59-.09c-.23,0-.34-.18-.33-.52l.64-20.8c0-.26.1-.38.28-.36.7,0,1.65.04,2.84.09.17.02.26.15.26.39-.19,3.23-.28,5.13-.28,5.7,0,.12.02.18.07.19.05-.01.1-.1.15-.24.3-1.11.83-2.98,1.6-5.6.07-.26.19-.38.35-.36.4.04.97.05,1.71.05.87.02,1.34.04,1.37.05.24,0,.36.13.35.39,0,.05,0,.11-.04.16-.39.75-1.15,2.37-2.26,4.85-1.13,2.55-1.69,3.87-1.65,3.98.89,3.04,2.1,6.98,3.62,11.83v.02Z"/>
    <path class="st1" d="M159.22,130.65c.05.4-.07.6-.33.58-.34,0-1.36-.13-3.06-.38-.19-.02-.28-.28-.26-.75.05-1.21.16-2.56.33-4.03.3-2.67,0-4.07-.94-4.18-.12-.05-.22-.06-.32-.04-.13.04-.21.23-.26.56-.32,2.78-.61,5.24-.86,7.34-.05.46-.18.69-.38.68-.96,0-1.86-.09-2.71-.26-.21-.04-.28-.32-.23-.8l2.33-20.46c.04-.32.22-.46.53-.43.97.11,2.28.26,3.96.43,1.09.12,1.99.46,2.7,1.01.77.61,1.11,1.34,1.01,2.19l-.62,5.24c-.1.86-.44,1.58-1.02,2.15-.4.4-.83.66-1.29.77-.15.04-.22.09-.23.13,0,.04.06.09.19.16.32.15.64.4.97.79.74.81.95,2.62.63,5.43-.21,1.79-.27,3.09-.18,3.89h.01ZM157.3,114c.13-1.17-.18-1.77-.96-1.81-.18.01-.32.02-.4,0-.16-.01-.26.12-.29.43l-.53,4.66c-.06.5.04.77.28.81.09.02.19.04.32.04.39.05.67-.12.85-.5.28-.55.52-1.75.73-3.63h.01Z"/>
    <path class="st1" d="M167.59,132.44c-.04.21-.21.29-.49.26-2.42-.34-4.59-.78-6.51-1.31-.18-.05-.26-.24-.19-.56l3.96-20.53c.04-.19.15-.27.34-.23,1.34.24,3.49.67,6.45,1.28.28.05.39.18.35.4-.05.28-.15.75-.28,1.42-.17.83-.28,1.34-.33,1.55-.05.22-.16.32-.35.28-.69-.13-1.68-.33-2.96-.57-.26-.05-.4.02-.44.22-.01.09-.15.7-.39,1.86-.21.98-.35,1.71-.43,2.21-.04.19.05.33.24.4.35.12,1.14.28,2.38.49.22.05.33.17.3.39-.05.32-.17.9-.36,1.76-.23,1-.35,1.58-.39,1.75-.05.24-.17.35-.35.32l-2.33-.45c-.17-.04-.3.07-.39.33-.23.72-.51,2.09-.85,4.13-.05.23.09.39.39.49.67.13,1.63.32,2.85.55.28.05.39.19.35.43-.28,1.42-.47,2.48-.58,3.18v-.02Z"/>
    <path class="st1" d="M183.07,114.86l-4.47,15.94c-.28,1-.73,1.81-1.36,2.45-1.09,1.11-2.51,1.41-4.28.92-1.98-.55-3.13-1.38-3.46-2.51-.23-.73-.11-1.98.39-3.75l4.3-15.51c.04-.15.1-.26.19-.34.09-.09.18-.11.28-.09l2.72.75c.29.09.4.24.33.51-.16.58-.9,3.26-2.22,8.03-1.34,4.76-1.99,7.08-1.96,6.96-.38,1.34-.21,2.11.49,2.3.61.17,1.11-.41,1.47-1.76l4.12-14.86c.07-.35.23-.49.47-.43,1.68.46,2.62.74,2.83.81s.27.27.18.57h-.02Z"/>
    <path class="st1" d="M187.25,138.3c-.06.17-.18.29-.34.39-.17.09-.32.11-.47.05-3.09-1.24-5.51-2.16-7.3-2.79-.23-.09-.28-.33-.15-.74.09-.22.18-.57.32-1.06.12-.43.23-.78.34-1.04.09-.22.21-.43.38-.63.3-.36.46-.55.46-.57l7.68-10.79c.12-.18.19-.36.21-.55.02-.21-.05-.33-.19-.39-1.01-.32-1.86-.64-2.56-.96-.46-.22-.62-.55-.45-1,.12-.32.29-.72.51-1.21.27-.57.44-.92.49-1.08.15-.34.38-.45.68-.32.56.23,1.72.67,3.51,1.31,1.81.64,2.95,1.03,3.45,1.18.44.12.6.4.47.84-.18.63-.41,1.2-.69,1.69l-.85,1.2-7.92,11.27c-.28.45-.33.72-.16.8.43.22,1.46.58,3.11,1.11.36.12.49.38.36.77-.19.62-.49,1.46-.89,2.53h.01Z"/>
    <path class="st1" d="M197.68,140.5c-.55,1.14-1.47,1.65-2.76,1.53-1-.09-2.48-.6-4.47-1.54l-2.28-1.09c-.16-.07-.18-.23-.06-.47l9.22-19.22c.1-.19.18-.27.28-.22l4.46,2.14c.95.45,1.6,1.2,1.96,2.26.35,1.04.29,2.04-.18,2.99l-1.25,2.55c-.47.95-.9,1.59-1.29,1.94-.51.46-1.25.74-2.21.84.4.51.67,1.15.8,1.93.15.86.06,1.64-.26,2.31l-1.96,4.08v-.02ZM195.47,136.32l.66-1.43c.43-.92.11-1.64-.96-2.15-.11-.05-.21,0-.29.18l-2.08,4.32c-.1.21-.06.35.11.44l.33.16c.83.4,1.57-.11,2.22-1.52h.01ZM200.06,126.44c.28-.53.41-.95.41-1.23,0-.41-.24-.74-.73-.97-.27-.15-.45-.23-.55-.27-.1-.02-.19.02-.26.17-.38.81-1.07,2.28-2.1,4.43-.1.21-.1.34.01.39.3.18.68.27,1.13.23.45-.02.78-.23.97-.58l1.11-2.17h0Z"/>
    <path class="st1" d="M203.86,147.23c-.11.18-.29.22-.55.09-2.16-1.13-4.07-2.26-5.71-3.41-.16-.11-.16-.3,0-.58l10.58-18.04c.1-.17.23-.21.4-.11,1.18.67,3.06,1.79,5.65,3.35.24.15.32.3.21.49-.15.24-.39.67-.73,1.25-.44.72-.72,1.17-.83,1.36-.11.19-.26.24-.41.15-.61-.35-1.47-.86-2.6-1.53-.23-.13-.39-.11-.49.06-.05.07-.38.62-.98,1.63-.52.85-.9,1.49-1.14,1.94-.1.17-.07.33.1.46.29.23.98.64,2.09,1.25.19.11.24.27.16.46-.15.29-.46.8-.94,1.53-.55.86-.86,1.37-.96,1.52-.12.22-.27.28-.44.18l-2.05-1.2c-.16-.09-.32-.02-.47.18-.45.6-1.18,1.8-2.17,3.61-.12.19-.05.39.21.58.6.35,1.42.84,2.5,1.47.24.15.3.32.18.51-.73,1.25-1.28,2.19-1.62,2.81h.01Z"/>
    <path class="st1" d="M212.15,152.68c-.16.38-.34.49-.57.35-.29-.16-1.13-.77-2.5-1.8-.16-.11-.11-.38.13-.79.63-1.04,1.37-2.17,2.22-3.38,1.55-2.2,1.94-3.57,1.19-4.11-.09-.1-.17-.16-.26-.18-.13-.02-.29.1-.49.38-1.62,2.3-3.04,4.3-4.28,6.02-.27.38-.49.52-.66.43-.84-.46-1.59-.97-2.25-1.52-.16-.13-.1-.41.18-.81l11.86-16.84c.18-.27.41-.3.67-.12.8.56,1.88,1.31,3.27,2.27.9.63,1.52,1.36,1.88,2.17.39.9.33,1.7-.17,2.41l-3.06,4.29c-.5.72-1.14,1.18-1.92,1.4-.55.16-1.04.18-1.49.06-.15-.04-.23-.04-.27,0-.02.02,0,.11.1.23.21.28.38.67.47,1.15.26,1.07-.43,2.76-2.05,5.07-1.03,1.47-1.71,2.58-2.02,3.32h0ZM218.45,137.15c.68-.96.69-1.64.02-2.05-.17-.07-.28-.13-.35-.18-.13-.1-.28-.01-.46.23l-2.7,3.84c-.29.41-.34.69-.15.85.06.06.15.12.26.18.32.22.64.22.98-.02.5-.34,1.3-1.29,2.38-2.84h.01Z"/>
    <path class="st1" d="M220.54,159.43c-.32.36-.53.49-.67.38l-.56-.49c-.12-.11-.13-.27-.04-.49s.21-.52.34-.92c-.78.44-1.8.12-3.06-.97-1.37-1.18-2.04-2.37-1.99-3.55.04-1.04.68-2.27,1.92-3.69l7.13-8.21c1.45-1.66,2.7-2.55,3.74-2.68.94-.11,2.02.36,3.26,1.43,1.48,1.28,2.16,2.51,2.04,3.73-.06.89-.64,1.97-1.72,3.27-1,1.24-1.74,2.13-2.23,2.68-.19.23-.39.27-.56.12-.47-.39-1.2-1.02-2.16-1.89-.16-.13-.16-.32,0-.52.66-.81,1.31-1.63,1.96-2.43.84-1.15,1.04-1.91.66-2.26-.5-.43-1.2-.1-2.11.96l-7.34,8.53c-.18.22-.34.53-.46.95-.16.5-.12.85.09,1.03.53.46,1.43-.04,2.68-1.51l.89-1.03c.15-.17.17-.3.05-.38l-.49-.41c-.12-.11-.13-.22-.02-.34l1.69-1.97c.17-.21.36-.22.56-.05.7.61,1.68,1.46,2.93,2.55.19.17.21.38,0,.61l-6.5,7.56h0Z"/>
  </g>
</svg>