<?xml version="1.0" encoding="UTF-8"?>
<svg id="Ebene_1" xmlns="http://www.w3.org/2000/svg" version="1.1" viewBox="0 0 283.46 283.46">
  <!-- Generator: Adobe Illustrator 30.1.0, SVG Export Plug-In . SVG Version: 2.1.1 Build 136)  -->
  <defs>
    <style>
      .st0 {
        fill: #fff;
        fill-rule: evenodd;
      }

      .st1 {
        fill: #01b4fe;
      }
    </style>
  </defs>
  <rect class="st1" width="283.46" height="283.46"/>
  <path class="st0" d="M213.2,196.12h-27.4c-4.28,0-7.37-1-9.28-2.99-1.9-1.99-2.85-5.12-2.85-9.4v-96.39h20.83v90.13h9.99v-90.13h20.98v96.39c0,4.27-.98,7.4-2.92,9.4-1.95,1.99-5.07,2.99-9.35,2.99ZM141.66,121.88l-4.24,37.99h8.63l-4.39-37.99ZM149.7,196.12l-1.72-16.52h-12.63l-1.72,16.52h-20.38v-.28l16.79-108.49h23.4l16.79,108.49v.28s-20.52,0-20.52,0ZM88.81,196.12v-36.31l-9.99,3.13v33.17h-20.83v-108.78h20.83v55.81l9.99-3.13v-52.68h20.98v108.78s-20.98,0-20.98,0Z"/>
</svg>