<?xml version="1.0" encoding="UTF-8"?>
<svg id="Ebene_1" xmlns="http://www.w3.org/2000/svg" version="1.1" viewBox="0 0 283.46 141.73">
  <!-- Generator: Adobe Illustrator 30.1.0, SVG Export Plug-In . SVG Version: 2.1.1 Build 136)  -->
  <defs>
    <style>
      .st0 {
        fill: #fff;
        fill-rule: evenodd;
      }
    </style>
  </defs>
  <path class="st0" d="M213.2,125.26h-27.4c-4.28,0-7.37-1-9.28-2.99-1.9-1.99-2.85-5.12-2.85-9.4V16.48h20.83v90.13h9.99V16.48h20.98v96.39c0,4.27-.98,7.4-2.92,9.4-1.95,1.99-5.07,2.99-9.35,2.99h0ZM141.66,51.02l-4.24,37.99h8.63s-4.39-37.99-4.39-37.99ZM149.7,125.26l-1.72-16.52h-12.63l-1.72,16.52h-20.38v-.28l16.79-108.49h23.4l16.79,108.49v.28h-20.53ZM88.81,125.26v-36.31l-9.99,3.13v33.17h-20.83V16.47h20.83v55.81l9.99-3.13V16.47h20.98v108.78h-20.98Z"/>
</svg>