<?xml version="1.0" encoding="UTF-8"?>
<svg id="Ebene_1" xmlns="http://www.w3.org/2000/svg" version="1.1" viewBox="0 0 345.53 40">
  <!-- Generator: Adobe Illustrator 30.1.0, SVG Export Plug-In . SVG Version: 2.1.1 Build 136)  -->
  <defs>
    <style>
      .st0 {
        isolation: isolate;
      }

      .st1 {
        fill: #39f;
      }
    </style>
  </defs>
  <g class="st0">
    <g class="st0">
      <path class="st1" d="M6.9,35.04V1.88h4.39v13.62h17.23V1.88h4.39v33.16h-4.39v-15.63H11.29v15.63h-4.39Z"/>
      <path class="st1" d="M55.37,32.08c-1.51,1.28-2.96,2.19-4.35,2.71-1.39.53-2.89.79-4.49.79-2.64,0-4.67-.64-6.08-1.93-1.42-1.29-2.13-2.94-2.13-4.94,0-1.18.27-2.25.8-3.22s1.24-1.75,2.1-2.34c.87-.59,1.84-1.03,2.93-1.33.8-.21,2.01-.41,3.62-.61,3.29-.39,5.71-.86,7.26-1.4.02-.56.02-.91.02-1.06,0-1.66-.38-2.83-1.15-3.51-1.04-.92-2.59-1.38-4.64-1.38-1.92,0-3.33.34-4.24,1.01-.91.67-1.59,1.86-2.02,3.56l-3.98-.54c.36-1.7.96-3.08,1.79-4.13.83-1.05,2.03-1.85,3.6-2.42,1.57-.57,3.38-.85,5.45-.85s3.72.24,5,.72c1.28.48,2.22,1.09,2.83,1.82.6.73,1.02,1.65,1.27,2.77.14.69.2,1.95.2,3.75v5.43c0,3.78.09,6.18.26,7.18s.52,1.96,1.03,2.88h-4.25c-.42-.84-.69-1.83-.81-2.96ZM55.03,22.99c-1.48.6-3.69,1.12-6.65,1.54-1.67.24-2.86.51-3.55.81-.69.3-1.23.74-1.61,1.32-.38.58-.57,1.23-.57,1.93,0,1.09.41,1.99,1.23,2.71.82.72,2.02,1.08,3.61,1.08s2.96-.34,4.18-1.03c1.22-.69,2.12-1.62,2.69-2.82.44-.92.66-2.28.66-4.07v-1.49Z"/>
      <path class="st1" d="M81.2,35.04v-3.53c-1.87,2.71-4.41,4.07-7.62,4.07-1.42,0-2.74-.27-3.97-.81-1.23-.54-2.14-1.22-2.74-2.05-.6-.82-1.01-1.83-1.26-3.02-.17-.8-.25-2.07-.25-3.8v-14.88h4.07v13.32c0,2.13.08,3.56.25,4.3.26,1.07.8,1.91,1.63,2.52.83.61,1.85.92,3.08.92s2.37-.31,3.44-.94c1.07-.63,1.83-1.48,2.27-2.56s.67-2.64.67-4.69v-12.87h4.07v24.02h-3.64Z"/>
      <path class="st1" d="M89.59,27.87l4.03-.63c.23,1.61.86,2.85,1.89,3.71,1.03.86,2.48,1.29,4.33,1.29s3.26-.38,4.16-1.14c.9-.76,1.36-1.66,1.36-2.68,0-.92-.4-1.64-1.2-2.17-.56-.36-1.94-.82-4.16-1.38-2.99-.75-5.05-1.41-6.21-1.96-1.15-.55-2.03-1.31-2.62-2.28-.6-.97-.89-2.05-.89-3.22,0-1.07.24-2.06.73-2.97.49-.91,1.16-1.67,2-2.27.63-.47,1.5-.86,2.59-1.19s2.27-.49,3.52-.49c1.88,0,3.54.27,4.96.81s2.48,1.28,3.16,2.21c.68.93,1.15,2.17,1.4,3.72l-3.98.54c-.18-1.24-.71-2.2-1.57-2.9-.87-.69-2.09-1.04-3.68-1.04-1.87,0-3.2.31-4,.93-.8.62-1.2,1.34-1.2,2.17,0,.53.17,1,.5,1.42.33.44.85.8,1.56,1.09.41.15,1.61.5,3.6,1.04,2.88.77,4.89,1.4,6.03,1.89,1.14.49,2.03,1.2,2.68,2.14.65.94.97,2.1.97,3.48s-.4,2.63-1.19,3.83c-.79,1.2-1.93,2.13-3.43,2.78-1.49.66-3.18.98-5.07.98-3.12,0-5.5-.65-7.14-1.95-1.64-1.3-2.68-3.22-3.13-5.77Z"/>
      <path class="st1" d="M142.92,32.08c-1.51,1.28-2.96,2.19-4.35,2.71-1.39.53-2.89.79-4.49.79-2.64,0-4.67-.64-6.08-1.93-1.42-1.29-2.13-2.94-2.13-4.94,0-1.18.27-2.25.8-3.22s1.24-1.75,2.1-2.34c.87-.59,1.84-1.03,2.93-1.33.8-.21,2.01-.41,3.62-.61,3.29-.39,5.71-.86,7.26-1.4.02-.56.02-.91.02-1.06,0-1.66-.38-2.83-1.15-3.51-1.04-.92-2.59-1.38-4.64-1.38-1.92,0-3.33.34-4.24,1.01-.91.67-1.59,1.86-2.02,3.56l-3.98-.54c.36-1.7.96-3.08,1.79-4.13.83-1.05,2.03-1.85,3.6-2.42,1.57-.57,3.38-.85,5.45-.85s3.72.24,5,.72c1.28.48,2.22,1.09,2.83,1.82.6.73,1.02,1.65,1.27,2.77.14.69.2,1.95.2,3.75v5.43c0,3.78.09,6.18.26,7.18s.52,1.96,1.03,2.88h-4.25c-.42-.84-.69-1.83-.81-2.96ZM142.58,22.99c-1.48.6-3.69,1.12-6.65,1.54-1.67.24-2.86.51-3.55.81-.69.3-1.23.74-1.61,1.32-.38.58-.57,1.23-.57,1.93,0,1.09.41,1.99,1.23,2.71.82.72,2.02,1.08,3.61,1.08s2.96-.34,4.18-1.03c1.22-.69,2.12-1.62,2.69-2.82.44-.92.66-2.28.66-4.07v-1.49Z"/>
      <path class="st1" d="M153.01,35.04V11.02h3.64v3.37c.75-1.18,1.76-2.12,3.01-2.84,1.25-.72,2.68-1.07,4.27-1.07,1.78,0,3.24.37,4.38,1.11,1.14.74,1.94,1.77,2.41,3.1,1.9-2.8,4.37-4.21,7.42-4.21,2.38,0,4.21.66,5.5,1.98,1.28,1.32,1.92,3.35,1.92,6.09v16.49h-4.05v-15.13c0-1.63-.13-2.8-.4-3.52-.26-.72-.74-1.29-1.44-1.73s-1.51-.66-2.44-.66c-1.69,0-3.09.56-4.21,1.69s-1.67,2.92-1.67,5.39v13.96h-4.07v-15.61c0-1.81-.33-3.17-1-4.07-.66-.91-1.75-1.36-3.26-1.36-1.15,0-2.21.3-3.18.91-.97.6-1.68,1.49-2.11,2.65-.44,1.16-.66,2.83-.66,5.02v12.46h-4.07Z"/>
      <path class="st1" d="M210.77,35.04L201.97,1.88h4.5l5.04,21.74c.54,2.28,1.01,4.54,1.4,6.79.84-3.54,1.34-5.59,1.49-6.13l6.31-22.39h5.29l4.75,16.78c1.19,4.16,2.05,8.07,2.58,11.74.42-2.1.97-4.5,1.65-7.21l5.2-21.31h4.41l-9.09,33.16h-4.23l-6.99-25.26c-.59-2.11-.94-3.41-1.04-3.89-.35,1.52-.67,2.82-.97,3.89l-7.03,25.26h-4.48Z"/>
      <path class="st1" d="M262.13,32.08c-1.51,1.28-2.96,2.19-4.35,2.71-1.39.53-2.89.79-4.49.79-2.64,0-4.67-.64-6.08-1.93-1.42-1.29-2.13-2.94-2.13-4.94,0-1.18.27-2.25.8-3.22s1.24-1.75,2.1-2.34,1.84-1.03,2.93-1.33c.8-.21,2-.41,3.62-.61,3.29-.39,5.71-.86,7.26-1.4.01-.56.02-.91.02-1.06,0-1.66-.38-2.83-1.15-3.51-1.04-.92-2.59-1.38-4.64-1.38-1.92,0-3.33.34-4.24,1.01-.91.67-1.59,1.86-2.02,3.56l-3.98-.54c.36-1.7.96-3.08,1.79-4.13s2.03-1.85,3.6-2.42,3.38-.85,5.45-.85,3.72.24,5,.72c1.28.48,2.22,1.09,2.83,1.82.6.73,1.03,1.65,1.27,2.77.14.69.2,1.95.2,3.75v5.43c0,3.78.09,6.18.26,7.18.17,1,.52,1.96,1.03,2.88h-4.25c-.42-.84-.69-1.83-.81-2.96ZM261.79,22.99c-1.48.6-3.69,1.12-6.65,1.54-1.67.24-2.86.51-3.55.81-.69.3-1.23.74-1.61,1.32-.38.58-.57,1.23-.57,1.93,0,1.09.41,1.99,1.23,2.71.82.72,2.02,1.08,3.61,1.08s2.96-.34,4.18-1.03c1.22-.69,2.12-1.62,2.69-2.82.44-.92.66-2.28.66-4.07v-1.49Z"/>
      <path class="st1" d="M272.13,35.04V1.88h4.07v33.16h-4.07Z"/>
      <path class="st1" d="M298.1,35.04v-3.03c-1.52,2.38-3.76,3.57-6.72,3.57-1.92,0-3.67-.53-5.28-1.58-1.61-1.06-2.85-2.53-3.73-4.42s-1.32-4.07-1.32-6.53.4-4.57,1.2-6.52c.8-1.95,2-3.45,3.6-4.49,1.6-1.04,3.38-1.56,5.36-1.56,1.45,0,2.74.31,3.87.92,1.13.61,2.05,1.41,2.76,2.39V1.88h4.05v33.16h-3.78ZM285.23,23.05c0,3.08.65,5.38,1.95,6.9,1.3,1.52,2.83,2.28,4.59,2.28s3.29-.73,4.54-2.18c1.24-1.46,1.87-3.67,1.87-6.66,0-3.29-.63-5.7-1.9-7.24-1.27-1.54-2.83-2.31-4.68-2.31s-3.32.74-4.54,2.22-1.82,3.81-1.82,6.99Z"/>
      <path class="st1" d="M306.65,27.87l4.03-.63c.23,1.61.86,2.85,1.89,3.71,1.03.86,2.48,1.29,4.33,1.29s3.26-.38,4.16-1.14c.9-.76,1.36-1.66,1.36-2.68,0-.92-.4-1.64-1.2-2.17-.56-.36-1.95-.82-4.16-1.38-2.99-.75-5.06-1.41-6.21-1.96-1.15-.55-2.03-1.31-2.62-2.28-.6-.97-.89-2.05-.89-3.22,0-1.07.25-2.06.74-2.97.49-.91,1.16-1.67,2-2.27.63-.47,1.5-.86,2.59-1.19,1.09-.32,2.27-.49,3.52-.49,1.88,0,3.54.27,4.96.81s2.48,1.28,3.16,2.21c.68.93,1.15,2.17,1.4,3.72l-3.98.54c-.18-1.24-.71-2.2-1.57-2.9-.87-.69-2.09-1.04-3.67-1.04-1.87,0-3.21.31-4,.93-.8.62-1.2,1.34-1.2,2.17,0,.53.17,1,.5,1.42.33.44.85.8,1.56,1.09.41.15,1.61.5,3.6,1.04,2.88.77,4.89,1.4,6.03,1.89,1.14.49,2.03,1.2,2.68,2.14.65.94.97,2.1.97,3.48s-.4,2.63-1.19,3.83c-.79,1.2-1.93,2.13-3.43,2.78-1.49.66-3.18.98-5.07.98-3.12,0-5.5-.65-7.14-1.95-1.64-1.3-2.68-3.22-3.13-5.77Z"/>
      <path class="st1" d="M347.88,27.3l4.21.52c-.66,2.46-1.89,4.37-3.69,5.72-1.79,1.36-4.09,2.04-6.88,2.04-3.51,0-6.3-1.08-8.36-3.25-2.06-2.16-3.09-5.2-3.09-9.1s1.04-7.18,3.12-9.41,4.78-3.35,8.1-3.35,5.84,1.09,7.87,3.28c2.04,2.19,3.05,5.26,3.05,9.23,0,.24,0,.6-.02,1.08h-17.91c.15,2.64.9,4.66,2.24,6.06,1.34,1.4,3.01,2.1,5.02,2.1,1.49,0,2.77-.39,3.82-1.18s1.89-2.04,2.51-3.75ZM334.51,20.72h13.41c-.18-2.02-.69-3.54-1.54-4.55-1.3-1.57-2.98-2.35-5.04-2.35-1.87,0-3.44.63-4.72,1.88-1.27,1.25-1.98,2.93-2.12,5.02Z"/>
      <path class="st1" d="M373.64,27.3l4.21.52c-.66,2.46-1.89,4.37-3.69,5.72-1.79,1.36-4.09,2.04-6.88,2.04-3.51,0-6.3-1.08-8.36-3.25-2.06-2.16-3.09-5.2-3.09-9.1s1.04-7.18,3.12-9.41,4.78-3.35,8.1-3.35,5.84,1.09,7.87,3.28c2.04,2.19,3.05,5.26,3.05,9.23,0,.24,0,.6-.02,1.08h-17.91c.15,2.64.9,4.66,2.24,6.06,1.34,1.4,3.01,2.1,5.02,2.1,1.49,0,2.77-.39,3.82-1.18s1.89-2.04,2.51-3.75ZM360.27,20.72h13.41c-.18-2.02-.69-3.54-1.54-4.55-1.3-1.57-2.98-2.35-5.04-2.35-1.87,0-3.44.63-4.72,1.88-1.27,1.25-1.98,2.93-2.12,5.02Z"/>
    </g>
  </g>
</svg>