<?xml version="1.0" encoding="UTF-8"?>
<svg id="Ebene_1" xmlns="http://www.w3.org/2000/svg" version="1.1" viewBox="0 0 151 65">
  <!-- Generator: Adobe Illustrator 30.1.0, SVG Export Plug-In . SVG Version: 2.1.1 Build 136)  -->
  <defs>
    <style>
      .st0 {
        fill: #000073;
      }
    </style>
  </defs>
  <path class="st0" d="M128.73,45.78v11.57l-5.94-11.57h-7.04v18.45h5.5v-12.07l5.46,8.91-1.95,3.17h9.47v-18.45h-5.5ZM53.12,31.64l3.6.78c4.1.89,5.52,2.69,5.52,5.44,0,3.95-3.47,6.48-8.32,6.48-3.11,0-7.97-.98-8.29-7.05l4.87.79,2.04,1.28c1.47.32,3.97.06,4.01-1.29.01-.42-.3-.65-.94-.79l-3.6-.78c-3.83-.83-5.52-2.58-5.52-5.44,0-3.73,2.85-6.26,7.65-6.26,3.18,0,5.68.89,7.76,2.2l-2.63,4.61c-1.41-.99-3.27-1.65-5.13-1.65-1.3,0-1.97.33-1.96.87,0,.45.33.69.94.82h0ZM141.3,11.22l3.6.78c4.1.89,5.52,2.69,5.52,5.44,0,3.95-3.47,6.48-8.32,6.48-3.12,0-7.97-.98-8.29-7.05l4.87.79,2.04,1.28c1.47.32,3.97.06,4.01-1.3.01-.42-.3-.65-.94-.79l-3.6-.78c-3.83-.83-5.52-2.58-5.52-5.44,0-3.73,2.85-6.26,7.65-6.26,3.18,0,5.68.89,7.76,2.2l-2.63,4.61c-1.41-.99-3.27-1.65-5.13-1.65-1.3,0-1.97.33-1.96.87,0,.45.33.69.94.82h0ZM93.07,11.4c-.38-1.44-1.44-2.47-3.07-2.54-2.07-.08-3.78,1.61-3.9,4.79-.13,3.29,1.33,5.33,3.51,5.41,1.86.07,3.1-.98,3.48-2.39l5.65,1.1c-.94,3.93-4.47,6.14-9.08,6.02l-9.35-8.73c-.4-8.34,4.6-11.05,9.77-10.82,4.59.21,7.78,2.5,8.61,6.38l-5.61.77ZM.02,16.97l7.12,1.11,1.57,1.56c1.56.47,2.93-.13,2.91-1.55V3.19s6.6,1.65,6.6,1.65v12.85l-7.47,6.57C5.11,24.56.17,22.65.02,16.97H.02ZM70,10.36c0-.54.66-.87,1.95-.87,1.86,0,3.71.66,5.12,1.64l2.63-4.6c-2.07-1.3-4.57-2.19-7.73-2.19-4.79,0-7.63,2.52-7.63,6.24,0,2.85,1.69,4.6,5.5,5.42l3.59.78c.63.14.93.37.93.79,0,.57-.76,1.12-2.62,1.12-2.07,0-4.03-.66-5.44-1.86l-2.61,4.6c1.96,1.53,4.8,2.41,7.95,2.41,4.79,0,8.38-2.52,8.38-6.46,0-2.74-1.42-4.53-5.5-5.42l-3.59-.78c-.61-.13-.93-.37-.94-.82h0ZM119.46,23.35h14.21v-4.18h-9.8l1.76-3.17h7.5v-4.18h-9.26l1.52-2.75h8.06s0-4.17,0-4.17h-13.99v18.45ZM59.56,64.23h14.32v-4.17h-8.46l-1.77-3.18h9.57v-4.17h-8.04l-1.52-2.75h9.9v-4.18h-13.99v18.45ZM41,18.95h4.75c3.06,0,4.48-1.76,4.48-5.05,0-3.07-1.42-4.61-4.48-4.61h-2.1l-2.66,9.66ZM47.07,4.9c5.57,0,8.96,3.19,8.96,9,0,6.26-3.39,9.44-8.96,9.44h-9.07V4.9h9.07ZM106.67,39.31l8.73-8.19-7.01,12.66h10.14v-18.9l-11.86,6.32-9.15-6.32v18.9h5.76v-10.55l3.38,2.36v3.72ZM14.11,39.31l8.73-8.19-7.01,12.66h10.14v-18.9l-11.86,6.32-9.15-6.32v18.9h5.76v-10.55l3.39,2.36v3.72ZM38.88,36.71c0,2.03-1.02,3.02-2.73,3.02s-2.61-.99-2.61-2.85v-11.53h-6.02v11.31c0,4.83,3.41,7.69,8.64,7.69s8.75-2.85,8.75-7.8v-11.2h-6.02v11.37ZM89.96,36.71c0,2.03-1.02,3.02-2.73,3.02s-2.61-.99-2.61-2.85v-11.53h-6.02v11.31c0,4.83,3.41,7.69,8.64,7.69s8.75-2.85,8.75-7.8v-11.2h-6.02v11.37ZM63.32,43.79h14.31v-4.17h-8.52v-3.18h7.86v-4.17h-7.86v-2.75h8.19v-4.17h-13.98v18.45ZM108.33,64.23h5.79v-18.45h-5.79v18.45ZM99.57,59.51v-13.73h-5.79v18.45h13.44v-4.72h-7.65ZM84.88,49.96h-4.58l1.83,3.3h2.75c1.09,0,1.75-.66,1.75-1.65s-.66-1.65-1.75-1.65h0ZM85.97,45.78c3.94,0,6.45,2.09,6.45,5.71,0,2.48-1.36,4.29-3.74,5.22l4.4,7.52h-6.56l-3.81-6.81h-1.87v6.81h-5.79v-18.45h10.93ZM45.84,56.55v3.84h5.17c1.2,0,1.91-.85,1.91-1.98s-.71-1.87-1.91-1.87h-5.17ZM50.74,52.92c1.09,0,1.75-.77,1.75-1.7s-.66-1.59-1.75-1.59h-3.07l-1.83,3.29h4.9ZM58.61,58.96c0,3.21-2.29,5.27-6.01,5.27h-11.89v-18.45h11.35c3.72,0,5.9,1.76,5.9,4.72,0,1.97-1.09,3.42-3.02,4.13,2.37.57,3.68,2.01,3.68,4.33h0ZM105.48,16.21h6.56v7.14h5.79V4.9h-5.79v6.81h-6.56v-6.81h-5.79v18.45h5.79v-7.14ZM57.13,23.35h5.79V4.9h-5.79v18.45ZM29.54.01h4.59v2.45l-4.59,1.17V.01ZM22.63.01h4.59v2.45l-4.59,1.16V.01ZM25.53,4.9v11.53c0,1.87.87,2.86,2.51,2.86s2.62-.99,2.62-3.02V4.9h5.79v11.2c0,4.94-3.39,7.8-8.41,7.8s-8.31-2.86-8.31-7.69V4.9h5.79Z"/>
</svg>