<?xml version="1.0" encoding="UTF-8"?>
<svg id="Ebene_1" xmlns="http://www.w3.org/2000/svg" version="1.1" viewBox="0 0 1757.48 283.46">
  <!-- Generator: Adobe Illustrator 30.1.0, SVG Export Plug-In . SVG Version: 2.1.1 Build 136)  -->
  <path d="M24.49,204.72v-127.07c1.13-1.1,2.56-1.57,4.46-1.56l18.76.06c2.06.91,3.04,2.95,3.04,5.26v52.42s60.07-50.82,60.07-50.82c2.84-2.4,5.88-6.28,9.79-6.52,9.91-.6,19.82-.55,29.65.01,2.42.74.67,4.96-.81,6.17l-60.69,49.82,16.73,17.66,15.76,16.45,16.49,17.19,15.43,15.97c1.23,1.27,2.25,2.79,1.54,4.25-.55,1.14-1.77,2.88-3.61,2.89-7.43.02-14.77.32-22.13-.12-7.1-.42-10.24-6-13.67-9.63l-9.82-10.37-10.49-11.21-10.49-11.2c-5.35-5.72-10.42-11.18-15.35-16.3l-18.39,13.43v39.51c0,3.42-2.51,6.02-5.99,5.99l-16.43-.13c-1.65-.01-2.69-1.64-3.85-2.14Z"/>
  <path d="M1732.99,186.03v18.69c-1.2.37-2.12,2.21-3.93,2.21l-106.96.02c-1.62,0-4.55-1.26-4.55-3.11l-.07-124.59c0-1.9,1.32-3.09,3.01-3.1l19.52-.04c1.7.17,3,1.18,3,3.13l-.03,105.31,86.84-.02c1.41.5,2.27,1.02,3.18,1.5Z"/>
  <path d="M1372.74,202.99l-17.53-30.63c-.38-.66-.42-1.24-.89-1.68s-.95.34-1.73.34l-45.59.07.02,29.9c0,2.27-1,4.32-3.05,5.25l-20.24-.02c-1.7,0-2.99-1.2-2.99-3.1v-123.87c0-1.89,1.25-3.11,3.06-3.11l75.56.04c12.04,1.73,22.89,6.07,31.82,13.94,8.63,7.89,13.68,17.97,14.53,29.76,1.35,18.7-9.15,36.08-26.44,44.32l23.31,37.17c.69,1.1.53,2.44.08,3.32-.37.72-1.35,1.54-2.65,1.54l-21.78.02c-2.27,0-4.2-1.03-5.48-3.26ZM1374.95,108.81c-5.33-7.66-14.29-10.61-23.31-10.69l-44.65-.36v50.26s50.46-.56,50.46-.56c9.18-.1,16.37-6.67,19.58-13.39,4.07-8.5,3.4-17.4-2.07-25.26Z"/>
  <path d="M1093.74,206.94h-15.55c-1.81,0-4.19-.51-5.5-2l-44.42-50.57-36.57-44.79c-1.47,2.66.08,5.63.16,8.47l.52,17.61.33,68.81c-.8,1.76-4.32,2.49-5.87,2.49l-15.17-.04c-1.31,0-4.39-1.16-4.39-3.08l-.02-124.46c0-1.16,1.21-3.27,2.24-3.22,7.3.37,14.34-.7,21.5.43,2.95.47,4.98,4.29,6.88,6.42l43.35,48.75,33.1,40.64c.77-5.53-.24-9.96-.44-14.71l-.55-13.21-.42-64.52c0-.91.89-3.53,1.81-3.59,7.24-.49,14.14-.12,21.53-.18,1.02,0,2.23,1.95,2.23,3.19l-.02,124.46c0,1.93-3.07,3.1-4.71,3.1Z"/>
  <path d="M369.82,206.87l-16.1.09c-2.87.02-5.17-1.38-7.05-3.52l-44.03-50.19-35.53-43.64c-1.18,4.14.07,8.54.21,12.85l.53,16.92.45,63.02c.02,2.71-2.27,4.3-4.71,4.43-5.57.3-10.68.11-16.42.09-1.33,0-4.39-1.2-4.4-3.09l-.06-124.59c0-1.9,1.31-3.1,3.01-3.1l18-.02c3.96,0,5.85,2.71,8.18,5.33l43.68,49.16,34.19,41.99c.92-3.9-.24-7.51-.39-11.23l-.56-13.93-.43-68.26c-.01-1.75,1.5-3.07,3.06-3.06l20.28.08c1.04,0,2.22,1.87,2.22,3.16l.02,122.97c0,2.37-1.66,4.51-4.17,4.52Z"/>
  <path d="M523.05,197.42c-31.09,18.96-77.22,14.64-101.4-12.39-9.97-11.15-15.42-24.6-16.25-39.31-1.17-20.63,6.45-39.43,22.1-53.01,17.44-15.13,40.47-20.23,63.29-17.7,38.31,4.25,67.74,34.44,63.33,74.44-2.22,20.09-13.55,37.29-31.06,47.96ZM527.94,147.27c1.65-11.68-2.11-25.08-9.72-33.93-9.24-10.73-21.96-16.29-36.1-16.53-12.19-.2-23.31,2.2-33.47,9.73-12.26,9.09-18.15,23.85-16.9,39.15,1.89,23.05,20.12,38.9,42.54,40.49,4.17,1.23,7.98.45,12.26-.03,22.13-2.53,38.23-16.56,41.39-38.89Z"/>
  <path d="M918.46,150.17l-73.47-.03v34.41s85.44-.03,85.44-.03c1.77.05,3.1,1.27,3.08,2.99l-.17,16.44c-.02,1.65-2.65,3.01-4.46,3.01l-105.39-.05c-2.71,0-4.7-1.96-4.7-4.69l-.04-121.46c0-1.65,1.29-4.55,3.11-4.55l105.53-.07c2.32,0,3.9,1.59,3.85,3.76-.1,5.05.25,9.86-.14,14.9-.15,1.9-2.66,2.77-4.43,3.05l-81.67-.03v30.67s76.42-.02,76.42-.02c2.15.89,3.09,2.96,3.1,5.22l.03,10.53c-.04,3.43-2.5,6.05-6.08,5.96Z"/>
  <path d="M1461.67,202.24c-1.23,2.56-2.56,4.52-5.64,4.61-6.6.19-13.22.18-19.9,0-1.27-.03-2.43-.81-2.79-1.49-.46-.86-.78-2.51-.26-3.58l10.3-21.11,12.73-26.16,12.24-25.21,12.5-25.64,13.62-27.53,32.32.02,59.78,124.1c.66,1.37,1.16,2.79.82,3.83-.31.96-1.7,2.58-3.22,2.61l-19.24.38c-1.37-.78-4.26-.99-5-2.58l-10.95-23.7h-77s-10.32,21.43-10.32,21.43ZM1538.53,158.98l-28.25-62.33-27.95,62.51,56.21-.18Z"/>
  <path d="M684.06,164.17c16.16,27.45,57.4,28.55,77.41,9.59l8.87-8.41c2.19-2.08,15.18,8.69,17.28,10.51,4.43,3.82-6.89,13.09-9.91,15.68-30.09,25.76-84.72,23.3-111.26-8.45-24.09-28.81-18.67-73.48,13.44-95.1,17.14-11.54,36.37-15.11,56.88-12.98,18.88,1.96,36.09,10.76,48.62,24.59,1.95,2.15,4.28,5.66,1.87,8.04-3.49,3.45-8.08,5.83-11.98,8.88-1.52,1.19-3.1,1.44-4.51,1.27-2.2-.27-2.69-1.69-4.12-3.25-8.68-9.53-20.3-16.13-33.35-17.39-11.66-1.13-22.21.23-32.38,5.78-22.2,12.11-29.7,39.47-16.88,61.25Z"/>
  <path d="M1202.74,202.36c0,6.56-11.62,4.46-20.25,4.59-2.3.03-4.37-.71-5.99-2.5v-106.62s-48.73.02-48.73.02c-1.81,0-2.94-1.31-3.08-2.99l.05-15.73c0-1.7,1.2-2.98,3.11-2.98h123.54c1.91,0,3.1,1.28,3.11,2.98l.05,15.73c-.14,1.68-1.26,2.99-3.08,2.99l-48.73-.02v104.53Z"/>
  <path d="M206.73,202.35c0,6.55-12.35,4.62-20.94,4.55-2.06-.02-3.86-.86-5.3-2.48l.02-125.04c0-1.27,1.18-3.17,2.23-3.17h20.24c2.9,0,3.8,2.66,3.8,5.26l-.04,120.88Z"/>
</svg>