<?xml version="1.0" encoding="utf-8"?>
<!-- Generator: Adobe Illustrator 23.1.0, SVG Export Plug-In . SVG Version: 6.00 Build 0)  -->
<svg version="1.1" id="Livello_1" xmlns="http://www.w3.org/2000/svg" xmlns:xlink="http://www.w3.org/1999/xlink" x="0px" y="0px"
	 viewBox="0 0 137.9 51.9" style="enable-background:new 0 0 137.9 51.9;" xml:space="preserve">
<style type="text/css">
	.st0{clip-path:url(#SVGID_1_);}
	.st1{fill:#E63346;}
	.st2{clip-path:url(#SVGID_1_);fill:#FFFFFF;}
	.st3{clip-path:url(#SVGID_2_);}
	.st4{fill:#FFFFFF;}
	.st5{clip-path:url(#SVGID_2_);fill:none;stroke:#E63346;stroke-width:3.6545;}
	.st6{clip-path:url(#SVGID_3_);}
</style>
<g>
	<defs>
		<rect id="SVGID_16_" x="80" y="-6" width="63.9" height="63.9"/>
	</defs>
	<clipPath id="SVGID_1_">
		<use xlink:href="#SVGID_16_"  style="overflow:visible;"/>
	</clipPath>
	<g class="st0">
		<path class="st1" d="M111.9,51.8c14.3,0,25.9-11.6,25.9-25.9c0-14.3-11.6-25.9-25.9-25.9S86,11.6,86,25.9
			C86,40.2,97.6,51.8,111.9,51.8"/>
	</g>
	<path class="st2" d="M112.9,28.5c3.7,0,4.6,2.6,4.6,4.1c0,1.9-0.9,4.1-4.6,4.1H108v-8.2H112.9z M108,22.8v-7.9h4.6
		c3.9,0,4.6,2.4,4.6,3.9c0,1.7-0.9,4-4.6,4H108z M100.3,42.7h14c9.2,0,11-5.9,11-9.4c0-5-4-7.5-6.1-7.6c2.7-0.6,5.8-3.3,5.8-7.4
		c0-3.5-1.7-9-10.8-9h-13.8V42.7z"/>
</g>
<g>
	<defs>
		<rect id="SVGID_15_" x="38.2" y="-6" width="63.9" height="63.9"/>
	</defs>
	<clipPath id="SVGID_2_">
		<use xlink:href="#SVGID_15_"  style="overflow:visible;"/>
	</clipPath>
	<g class="st3">
		<path class="st4" d="M70.1,50.1c13.3,0,24.1-10.8,24.1-24.1S83.4,1.9,70.1,1.9S46.1,12.7,46.1,26S56.8,50.1,70.1,50.1"/>
	</g>
	<path class="st5" d="M70.1,50.1c13.3,0,24.1-10.8,24.1-24.1S83.4,1.9,70.1,1.9S46.1,12.7,46.1,26S56.8,50.1,70.1,50.1z"/>
</g>
<polygon class="st1" points="66.2,43.3 74,43.3 74,16.5 81.6,16.5 81.6,9.8 58.7,9.8 58.7,16.5 66.2,16.5 "/>
<g>
	<defs>
		<rect id="SVGID_11_" x="-6.1" y="-6" width="63.9" height="63.9"/>
	</defs>
	<clipPath id="SVGID_3_">
		<use xlink:href="#SVGID_11_"  style="overflow:visible;"/>
	</clipPath>
	<g class="st6">
		<path class="st1" d="M25.8,51.9c14.3,0,25.9-11.6,25.9-25.9c0-14.3-11.6-25.9-25.9-25.9S-0.1,11.7-0.1,26
			C-0.1,40.3,11.5,51.9,25.8,51.9"/>
	</g>
</g>
<polygon class="st4" points="32.7,43.3 42,43.3 28.8,26.6 42,9.9 32.7,9.9 21.9,24.1 21.9,9.9 14.2,9.9 14.2,43.3 21.9,43.3 
	21.9,29.2 "/>
</svg>
