<?xml version="1.0" encoding="UTF-8"?>
<svg id="Ebene_1" xmlns="http://www.w3.org/2000/svg" version="1.1" viewBox="0 0 155.91 56.69">
  <!-- Generator: Adobe Illustrator 30.1.0, SVG Export Plug-In . SVG Version: 2.1.1 Build 136)  -->
  <defs>
    <style>
      .st0 {
        fill: none;
      }

      .st1 {
        fill: #0e0e0e;
      }
    </style>
  </defs>
  <path class="st1" d="M134.37,48.62"/>
  <g>
    <path class="st1" d="M83.36,45.46l-16.99.34c-.3,0-1.44-1.01-1.18-1.11l2.03-.8c1.11-.43,2.98-2.26,2.99-3.55l.23-24.36c0-1.02-2.06-2.29-3.31-2.87l-2.36-1.1c-.48-.22,1.88-1.45,2.48-1.43l15.32.33c4.69.1,10.44,2.64,13.14,5.15,1.2,1.12,1.82,5.18,1.03,6.32-.9,1.3-2.75,2.78-4.58,4.27,2.25,1.28,4.94,3.37,5.9,5.32,1.14,2.33,1.01,6.71-.78,8.63-3.58,3.84-8.18,4.74-13.93,4.86ZM85.87,26.02c2.5-4.06.27-9.47-3.05-11.33-.59-.33-2.67-.51-3.14-.12s-.77,2.16-.62,2.8l2.13,8.75c.28,1.13,4.05.92,4.68-.11ZM85.84,41.52c2.26-3.88,1.51-10.18-4.75-11.1v9.8c0,.69.92,2.09,1.36,2.59s3.02-.68,3.39-1.3Z"/>
    <path class="st1" d="M31.88,39.91c.68,1.21,1.41,3.8,2.12,5.69l-11.17.16,1.12-4.16-4.62-7.65c-2.27,4.64-.97,7.3,1.58,11.67l-16.22-.11c.88-1.8,1.53-2.25,3.8-3.32,1.19-7.25,1.33-18.83-.03-26.15-.18-.98-2.49-2.85-2.28-4.13l13.44-.51c.3-.01,1.71.79,1.67,1.06-.52,3.47-3.92,3.43-3.56,7.69l.64,7.64,5.21-5.89,6.07-7.08c-2.56-1.02-3.5-1.47-3.92-2.71,3.71-1.31,7.66-1.05,11.04.76-2.07,1.42-4.5,2.67-5.37,3.74l-7.43,9.26,7.93,14.01Z"/>
    <path class="st1" d="M146.43,45.9l-21.56-.89c-1.23-.05-1.59-3.47-.99-4.57,2.2-4.06,4.33-8.05,6.13-11.98l6.36-13.93-9.33-1.21-2.2,5.12-.65,1.5c-.21.49-2.61.1-2.61-.44-.02-2.02.38-6.28.77-8.33,4.73.06,7.87.35,11.64.16l15.13-.77c.92-.05,3.35,1.8,2.87,2.6l-13.73,22.74c-1.27,2.1-1.93,3.78-3.36,7.32l10.72.14c1.62.02,2.81-3.87,3.26-5.28l.77-2.43c.19-.6,1.5-.47,2.9-.46l.29,10.02c-2.07.38-4.08.8-6.4.7Z"/>
    <path class="st1" d="M101.85,45.92l.84-2.14c1.83-.75,3.24-1.95,3.18-3.05l-.61-12.37c-.05-1.11-3.13-2.1-4.47-2.28l-.15-1.7c-.04-.46,1.83-.45,2.35-.45l11.21.07c2.42,9.53-3.78,16.87,4.53,20.41-5.74,1.02-11.05,1.45-16.87,1.51Z"/>
    <path class="st1" d="M51.95,46.44c-.02-5.24-.68-13.58-5.33-18.06l8.9-2.01,4.1,15.91c.39,1.51,1.65,3.19,2.85,4.7l-7.37,1.96-3.15-2.5Z"/>
    <path class="st1" d="M51.95,46.44c0,2.29-2.82,4.2-5,4.14-9.72-.26-8.28-11.25-9.67-17.27l5.84-.6-4.25-2.07,4.92-1.27,2.75,13.21c.52,2.48,2.97,4.14,5.42,3.86Z"/>
    <circle class="st1" cx="109.78" cy="13.9" r="4.84"/>
    <path class="st1" d="M38.86,30.64l4.25,2.07-5.84.6-3.48-1.16c2.33-.75,3.45-1.1,5.07-1.52Z"/>
    <path class="st0" d="M85.87,26.02c-.63,1.03-4.4,1.24-4.68.11l-2.13-8.75c-.16-.65.14-2.41.62-2.8s2.56-.21,3.14.12c3.33,1.85,5.56,7.27,3.05,11.33Z"/>
    <path class="st0" d="M85.84,41.52c-.36.62-2.95,1.79-3.39,1.3s-1.35-1.9-1.36-2.59v-9.8c6.25.92,7,7.22,4.74,11.1Z"/>
  </g>
</svg>