<?xml version="1.0" encoding="UTF-8"?>
<svg id="Logo_Lichtblick_Kino" xmlns="http://www.w3.org/2000/svg" version="1.1" viewBox="0 0 176 91">
  <!-- Generator: Adobe Illustrator 30.1.0, SVG Export Plug-In . SVG Version: 2.1.1 Build 136)  -->
  <defs>
    <style>
      .st0 {
        fill: #0a5;
      }
    </style>
  </defs>
  <path class="st0" d="M22.73,41.11l-20.51,4.08v-14.83l20.51,4.08v6.67ZM7.9,16.65l10.49-10.49,11.62,17.39-4.72,4.72L7.9,16.65ZM49.03,74.01h27.62v15.99H30v-52.23h19.03v36.24ZM36.17,21L32.09.49h14.83l-4.08,20.51h-6.67ZM49.01,23.55l11.62-17.39,10.49,10.49-17.38,11.62-4.72-4.72ZM56.28,41.11v-6.67l20.51-4.08v14.84l-20.51-4.08ZM167.93,45.72v-12.54h5.18v-3.41h-14.51v3.41h5.18v12.54h4.16ZM143.57,45.72v-6.43h6.48v6.43h4.16v-15.95h-4.16v6.13h-6.48v-6.13h-4.15v15.95s4.15,0,4.15,0ZM130.84,45.28c1.1-.48,1.96-1.2,2.58-2.16.61-.96.92-2.16.92-3.6h-3.92c0,.68-.14,1.27-.41,1.75-.27.49-.67.85-1.19,1.1-.52.25-1.15.37-1.89.37-.87,0-1.58-.17-2.12-.52-.55-.35-.96-.86-1.22-1.53-.27-.67-.4-1.48-.4-2.43v-1.04c0-.94.13-1.75.4-2.41.26-.67.67-1.18,1.23-1.53.56-.35,1.27-.53,2.14-.53.7,0,1.29.13,1.78.4.49.26.87.64,1.14,1.13.27.49.41,1.07.41,1.75h4.06c0-1.44-.31-2.64-.94-3.61-.63-.97-1.5-1.69-2.61-2.18-1.11-.49-2.39-.73-3.83-.73-2.59,0-4.57.68-5.96,2.06-1.39,1.37-2.08,3.43-2.08,6.19,0,1.87.31,3.42.93,4.65s1.53,2.13,2.73,2.73c1.2.6,2.66.9,4.38.9,1.49,0,2.78-.24,3.89-.72M113.78,29.77h-4.15v15.95h4.15v-15.95ZM105.26,45.72v-3.41h-8.11v-12.54h-4.15v15.95h12.26ZM159.05,67.86v-15.95h4.16v7.08l6.31-7.08h5.16l-5.95,6.53,6.06,9.43h-4.92l-4.02-6.6-2.65,2.44v4.16h-4.16ZM146.59,68.14c-1.72,0-3.18-.3-4.38-.89-1.2-.6-2.11-1.51-2.73-2.73-.62-1.22-.93-2.77-.93-4.64,0-2.76.69-4.82,2.08-6.19,1.38-1.37,3.37-2.06,5.96-2.06,1.44,0,2.72.24,3.83.73,1.11.49,1.98,1.22,2.61,2.18.63.97.94,2.17.94,3.61h-4.06c0-.68-.14-1.27-.41-1.75-.27-.49-.65-.86-1.14-1.12-.49-.26-1.08-.39-1.77-.39-.87,0-1.58.18-2.14.53-.56.35-.97.87-1.23,1.53-.26.67-.4,1.47-.4,2.41v1.04c0,.94.13,1.75.4,2.43.26.67.67,1.18,1.22,1.53.55.35,1.26.52,2.12.52.74,0,1.37-.12,1.89-.37.52-.25.91-.62,1.18-1.1.27-.49.41-1.07.41-1.75h3.92c0,1.44-.3,2.64-.92,3.6-.61.96-1.47,1.68-2.58,2.16-1.11.48-2.4.72-3.89.72M129.26,51.91h4.16v15.95h-4.16v-15.95ZM112.64,67.86v-15.95h4.16v12.54h8.1v3.41h-12.26ZM97.15,58.25h4.16c.34,0,.63-.07.87-.21.24-.14.43-.33.56-.58.13-.25.2-.54.2-.88,0-.5-.15-.88-.44-1.16-.29-.28-.67-.42-1.11-.42h-4.23v3.25ZM97.15,64.66h4.53c.49,0,.89-.15,1.19-.44.3-.29.45-.74.45-1.35,0-.33-.07-.62-.2-.87-.13-.26-.33-.45-.58-.59-.26-.14-.57-.21-.94-.21h-4.46v3.46ZM93,67.86v-15.95h9.75c.82,0,1.56.16,2.23.49.67.33,1.19.78,1.59,1.37.39.59.59,1.28.59,2.07,0,.7-.12,1.29-.36,1.79-.24.5-.56.9-.95,1.21-.39.31-.84.54-1.34.69v.09c.57.12,1.09.35,1.56.66.47.32.83.75,1.1,1.29.27.54.41,1.2.41,1.97,0,.91-.22,1.69-.65,2.33-.43.64-1.01,1.14-1.72,1.47-.71.34-1.51.51-2.39.51h-9.82ZM149.42,86.73c-.51-.2-.94-.5-1.28-.88-.34-.39-.6-.86-.77-1.42-.17-.56-.26-1.18-.26-1.88v-1.02c0-.71.09-1.35.26-1.9.17-.56.43-1.03.77-1.42.34-.39.77-.68,1.28-.88.51-.2,1.1-.3,1.79-.3s1.25.1,1.77.3c.51.2.94.49,1.29.88.35.39.6.86.78,1.42.17.56.26,1.19.26,1.9v1.02c0,.7-.09,1.32-.26,1.88-.17.56-.43,1.03-.78,1.42-.35.39-.78.68-1.29.88-.51.2-1.1.3-1.77.3-.68,0-1.28-.1-1.79-.3M155.7,89.36c1.24-.61,2.2-1.53,2.87-2.75.67-1.22,1-2.75,1-4.6s-.33-3.37-1-4.59c-.67-1.21-1.62-2.13-2.87-2.74-1.25-.61-2.74-.92-4.49-.92s-3.25.31-4.49.92c-1.25.61-2.2,1.53-2.87,2.74-.67,1.22-1,2.74-1,4.59s.33,3.38,1,4.6c.66,1.22,1.62,2.14,2.87,2.75s2.74.92,4.49.92,3.25-.31,4.49-.92M126.86,90v-9.2l.11-.02c.11.17.25.39.43.65.18.26.37.52.57.77l6.15,7.8h3.67v-15.95h-3.85v9.19l-.12.02c-.08-.14-.2-.33-.37-.57-.17-.24-.34-.48-.52-.71-.18-.23-.32-.41-.43-.54l-5.81-7.41h-3.69v15.95h3.85ZM117.21,74.05h-4.16v15.95h4.16v-15.95ZM97.15,90v-4.16l2.65-2.44,4.02,6.59h4.92l-6.06-9.43,5.94-6.53h-5.16l-6.32,7.08v-7.08h-4.15v15.95h4.15Z"/>
</svg>