<?xml version="1.0" encoding="UTF-8"?>
<svg id="site-logo" xmlns="http://www.w3.org/2000/svg" xmlns:serif="http://www.serif.com/" version="1.1" viewBox="0 0 419.53 419.53">
  <!-- Generator: Adobe Illustrator 30.1.0, SVG Export Plug-In . SVG Version: 2.1.1 Build 136)  -->
  <defs>
    <style>
      .st0 {
        fill: #f16261;
      }
    </style>
  </defs>
  <g id="Layer-1" serif:id="Layer 1">
    <path class="st0" d="M55.37,221.7c-.43-.24-.9-.36-1.44-.36s-1.02.12-1.47.36c-.42.24-.74.58-.97,1.02-.24.46-.35,1.01-.35,1.64,0,.56.12,1.09.35,1.55.24.46.57.82,1,1.08.86.53,2.04.53,2.87,0,.42-.26.74-.62,1-1.09.24-.46.36-.99.36-1.57,0-.62-.12-1.17-.36-1.62-.25-.44-.57-.78-.99-1.01"/>
    <rect class="st0" x="51.47" y="229.69" width="4.87" height="35.31"/>
    <path class="st0" d="M366.92,248.23c-.49-.68-1.02-1.36-1.59-2.02l-2.85-3.23c-.6-.67-.98-1.21-1.17-1.67-.18-.45-.27-1.06-.27-1.86v-4.35c0-.49.07-.86.21-1.12.1-.19.36-.53.98-.53.51,0,.79.28.94.5.17.27.25.62.25,1.08v5.69h4.93v-5.05c.03-1.1-.11-2.06-.4-2.85-.28-.77-.7-1.43-1.23-1.98-.53-.53-1.16-.92-1.88-1.17-.73-.26-1.61-.39-2.58-.39s-1.92.15-2.7.45c-.77.29-1.42.71-1.94,1.26-.52.54-.93,1.22-1.22,2.02-.28.82-.43,1.76-.43,2.82v3.79c0,1.1.11,2.02.32,2.74.21.72.52,1.38.91,1.95.4.58.89,1.21,1.44,1.88l2.68,3.06c.56.6,1.02,1.21,1.41,1.83.42.67.62,1.62.62,2.91v5.29c0,.59-.08,1.02-.25,1.32-.15.24-.44.53-1.01.53s-.82-.29-.96-.54c-.16-.27-.24-.63-.24-1.07v-7.47h-5.02v7.04c0,1.38.26,2.56.78,3.49.51.93,1.23,1.62,2.18,2.09.96.48,2.04.71,3.3.71.95,0,1.83-.13,2.59-.4.76-.27,1.4-.65,1.95-1.19.54-.52.96-1.19,1.25-1.98.3-.82.46-1.8.46-2.88v-5.1c0-1.28-.13-2.39-.4-3.29-.26-.9-.62-1.66-1.08-2.32"/>
    <path class="st0" d="M271.87,230.09c-1.55-.92-3.47-1.38-5.72-1.38-2.12,0-4.04.39-5.69,1.18-1.67.78-3.1,1.83-4.26,3.11-.63.71-1.13,1.39-1.54,2.08l-.76,1.29v-17.27h-15.25v45.71h15.25v-20.74c0-1.7.41-2.92,1.21-3.63.8-.7,1.71-1.06,2.72-1.06s1.83.32,2.49.94c.68.63,1,1.66,1,3.13v21.36h15.25v-23.3c0-2.89-.41-5.32-1.21-7.22-.8-1.87-1.98-3.28-3.5-4.19"/>
    <path class="st0" d="M346.53,260.42c-.22-.22-.33-.53-.33-.92v-29.8h-5.22v31.37c0,1.49.31,2.59.91,3.29.59.68,1.46,1.03,2.57,1.03,1.21,0,2.14-.48,2.83-1.48.33-.47.59-1.01.8-1.61l.8-2.3v4.99h4.87v-35.3h-5.23v29.64c0,.3-.05.55-.15.77-.12.23-.26.39-.44.49-.47.28-1.03.18-1.39-.17"/>
    <path class="st0" d="M333.12,259.3c0,.27-.03.51-.1.72-.07.26-.21.48-.4.62-.21.14-.42.21-.68.21-.54,0-.95-.3-1.1-.81-.12-.4-.18-.99-.18-1.75v-9.9c0-1.01.09-1.75.27-2.27.2-.57.64-1.02,1.33-1.35l.87-.41v14.95ZM338.35,259.75v-24.16c0-1.08-.15-1.99-.45-2.78-.3-.78-.71-1.43-1.23-1.92-.54-.5-1.19-.9-1.94-1.18-.75-.27-1.62-.41-2.57-.41-1.04,0-1.99.15-2.81.44-.81.28-1.52.71-2.09,1.26-.58.57-1.01,1.28-1.31,2.18-.3.91-.46,1.99-.48,3.2v3.47h5.26v-4.62c0-.41.07-.74.21-1.01.19-.33.52-.51.95-.51.6,0,.88.28,1.01.51.15.25.21.57.21.98v6.22l-2.94.81c-1.18.33-2.17.8-2.95,1.38-.74.58-1.28,1.35-1.58,2.3-.33,1-.49,2.33-.49,3.96v9.24c0,2.13.33,3.75.99,4.79.62,1.01,1.56,1.49,2.89,1.49.88,0,1.63-.25,2.3-.75.67-.52,1.15-1.16,1.47-1.94l.65-1.62.15,2c.02.28.04.59.07.93.04.33.08.65.12.99h5.03c-.11-.78-.21-1.61-.3-2.47-.12-1.1-.17-2.01-.17-2.77"/>
    <path class="st0" d="M314.5,218.98h-5.52v46.01h5.52v-21.45h2.74v21.45h5.43v-46.01h-5.43v19.57h-2.74v-19.57Z"/>
    <rect class="st0" x="300.14" y="243.98" width="5.99" height="5"/>
    <path class="st0" d="M298.41,255.59c-.76-.53-1.14-1.51-1.14-2.89v-14.04h6.1v-8.92h-6.1v-11.03l-15.25,4.35v6.69h-3.81v8.92h3.81v15.72c0,2.09.35,3.86,1.03,5.25.68,1.39,1.62,2.52,2.8,3.35,1.19.83,2.59,1.46,4.17,1.84,1.6.38,3.33.57,5.11.57,2.05,0,3.87-.18,5.41-.54,1.42-.34,2.64-.74,3.62-1.22v-7.74c-.35.09-.72.18-1.11.26-.66.12-1.29.19-1.95.19-1.08,0-1.98-.26-2.7-.76"/>
    <path class="st0" d="M57.03,168.48h-5.62v45.9h13.7v-5.05h-8.08v-40.85Z"/>
    <path class="st0" d="M143.86,214.77c1.24,0,2.18-.49,2.88-1.49.33-.46.59-.98.81-1.6l.79-2.2v4.9h4.95v-35.21h-5.31v29.56c0,.3-.05.55-.15.76-.12.22-.26.38-.43.49-.49.29-1.06.19-1.42-.16-.23-.23-.34-.54-.34-.92v-29.73h-5.32v31.29c0,1.48.31,2.58.92,3.28.61.7,1.46,1.04,2.61,1.04"/>
    <path class="st0" d="M130.53,209.9c0,.86.12,1.6.37,2.23.24.6.57,1.09.99,1.45.44.36.92.63,1.49.8,1.15.35,2.67.32,3.69.08.43-.11.78-.22,1.06-.35v-4.21c-.55.14-1.28.07-1.74-.24-.36-.24-.55-.65-.55-1.23v-25h2.28v-4.27h-2.28v-7.91l-5.28,1.61v6.29h-2.05v4.27h2.02s0,26.47,0,26.47Z"/>
    <path class="st0" d="M111.95,185.83c.1.01.19.03.29.04v-6.83c-.53.03-1.04.22-1.55.6-.57.42-1.05,1.01-1.45,1.77-.24.44-.42.93-.55,1.45l-.8,3.24v-6.93h-4.95v35.21h5.31v-25.72c0-1.04.3-1.8.9-2.25.55-.42,1.21-.64,1.97-.64.28,0,.56.02.83.06"/>
    <path class="st0" d="M121.75,208.7c0,.25-.03.48-.1.71-.08.29-.22.49-.42.63-.19.14-.42.21-.68.21-.55,0-.95-.28-1.11-.8-.13-.39-.18-.95-.18-1.75v-9.87c0-1.02.09-1.77.27-2.27.2-.57.65-1.03,1.35-1.35l.87-.39s0,14.89,0,14.89ZM121.53,183.67c.15.25.22.57.22.99v6.21l-2.98.79c-1.21.34-2.22.8-2.99,1.38-.77.57-1.3,1.32-1.62,2.29-.33.99-.49,2.32-.49,3.95v9.22c0,2.13.33,3.75.99,4.78.63,1,1.6,1.49,2.94,1.49.91,0,1.67-.25,2.33-.74.68-.52,1.17-1.15,1.5-1.94l.67-1.61.11,1.75c.02.34.06.73.1,1.18.03.33.07.65.11.98h5.11c-.11-.78-.21-1.6-.3-2.46-.11-1.04-.17-1.97-.17-2.77v-24.11c0-1.05-.15-1.99-.45-2.77-.3-.77-.72-1.42-1.26-1.92-.54-.5-1.2-.9-1.96-1.17-.77-.27-1.65-.41-2.62-.41-1.05,0-2.02.15-2.85.43-.82.28-1.53.71-2.12,1.26-.58.56-1.02,1.29-1.32,2.17-.31.92-.48,2-.49,3.2v3.46h5.34v-4.61c0-.43.08-.77.22-1.02.1-.18.36-.5.95-.5s.89.27,1.01.5"/>
    <path class="st0" d="M211.34,189.22c.82-1.62,2.11-2.45,3.82-2.45s3,.82,3.82,2.45c.77,1.55,1.16,3.99,1.16,7.46s-.39,5.98-1.15,7.54c-.8,1.66-2.09,2.5-3.84,2.5s-3.03-.85-3.84-2.5c-.76-1.56-1.15-4.1-1.15-7.54s.38-5.91,1.16-7.46M196.96,207.16c1.88,2.73,4.44,4.8,7.61,6.13,3.19,1.34,6.75,2.03,10.59,2.03s7.47-.68,10.65-2.03c3.15-1.33,5.7-3.39,7.58-6.13,1.87-2.73,2.82-6.25,2.82-10.48s-.96-7.64-2.85-10.36c-1.89-2.73-4.45-4.78-7.62-6.12-3.19-1.34-6.74-2.03-10.57-2.03s-7.37.69-10.56,2.04c-3.16,1.34-5.73,3.4-7.63,6.13-1.89,2.72-2.85,6.19-2.85,10.33s.95,7.76,2.83,10.48"/>
    <path class="st0" d="M279.25,215.32c3.07,0,5.64-.83,7.64-2.47,1.65-1.36,2.96-2.98,3.88-4.8l.77-1.53v7.76h14.46v-35.07h-15.04v20.9c0,1.02-.19,1.88-.58,2.54-.4.67-.89,1.18-1.49,1.5-.58.32-1.2.48-1.83.48-.94,0-1.76-.33-2.41-.99-.67-.67-1.01-1.76-1.01-3.28v-21.17h-15.04v25.06c0,3.61.94,6.38,2.78,8.25,1.85,1.85,4.49,2.79,7.86,2.79"/>
    <path class="st0" d="M330.16,189.75c.62.59.92,1.56.92,2.95v21.59h15.11v-20.97c0-1.62.37-2.76,1.14-3.45.74-.67,1.58-1.01,2.51-1.01s1.69.31,2.28.9c.62.59.92,1.56.92,2.95v21.59h15.11v-23.31c0-2.9-.41-5.32-1.23-7.22-.81-1.88-1.99-3.28-3.53-4.19-1.56-.92-3.48-1.4-5.73-1.4-2.51,0-4.69.57-6.48,1.69-1.81,1.13-3.24,2.59-4.24,4.35-.25.43-.47.86-.65,1.27l-.47,1.09-.3-1.14c-.52-1.96-1.37-3.53-2.54-4.68-1.74-1.71-4.16-2.58-7.17-2.58-2.4,0-4.52.54-6.31,1.62-1.8,1.08-3.24,2.49-4.27,4.19-.27.44-.51.87-.69,1.28l-.78,1.69v-7.75h-14.63v35.07h15.09v-20.97c0-1.63.37-2.76,1.14-3.45.73-.67,1.58-1.01,2.5-1.01s1.67.31,2.28.9"/>
    <path class="st0" d="M83.15,209.67c-.36-.25-.54-.66-.54-1.23v-25h2.28v-4.27h-2.28v-7.91l-5.28,1.61v6.29h-2.05v4.27h2.02v26.47c0,.85.12,1.6.37,2.22.24.62.57,1.1.99,1.45.43.37.93.64,1.49.81,1.14.34,2.6.33,3.69.07.42-.09.77-.21,1.06-.34v-4.2c-.59.15-1.27.07-1.74-.24"/>
    <path class="st0" d="M164.83,185.83c.1.01.19.03.29.04v-6.83c-.53.03-1.04.22-1.54.6-.57.42-1.05,1-1.46,1.77-.22.44-.41.94-.54,1.45l-.8,3.24v-6.93h-4.95v35.21h5.31v-25.72c0-1.04.3-1.8.89-2.25.55-.42,1.21-.64,1.96-.64.29,0,.57.02.83.06"/>
    <path class="st0" d="M172.1,214.28h15.28v-26.15h6.49v-8.92h-6.84v-.41c.04-1.34.49-2.35,1.37-3.01.86-.66,2.04-1,3.52-1,.46,0,.88.03,1.23.08.17.02.35.04.53.08v-7.93c-.65-.17-1.42-.31-2.29-.43-1.01-.13-2.02-.19-3.01-.19-3.07,0-5.87.43-8.3,1.27-2.4.83-4.31,2.18-5.7,4-1.37,1.81-2.07,4.25-2.07,7.24v.3s-.41,0-.41,0h-3.82v8.92h4.03v26.15h0Z"/>
    <rect class="st0" x="67.57" y="179.16" width="5.31" height="35.21"/>
    <path class="st0" d="M68.65,176.84c.93.53,2.24.54,3.16,0,.45-.26.81-.63,1.08-1.09.26-.46.39-.99.39-1.56,0-.61-.13-1.15-.39-1.6-.26-.44-.62-.79-1.06-1.02-.47-.24-.99-.36-1.59-.36s-1.14.12-1.6.36c-.46.23-.81.58-1.06,1.02-.25.46-.38,1.01-.38,1.62,0,.56.13,1.08.38,1.53.25.45.61.82,1.07,1.08"/>
    <path class="st0" d="M92.5,184.65c0-.36.1-.68.27-.94.15-.21.44-.45.96-.45s.79.25.94.45c.18.25.27.56.27.93v8.59h-2.44s0-8.59,0-8.59ZM90.17,214h0c.96.53,2.15.8,3.53.8s2.58-.26,3.55-.78c.97-.51,1.71-1.27,2.23-2.23.53-.98.8-2.17.8-3.55v-8.06h-5.34v8.65c0,.34-.08.64-.24.92-.19.34-.55.53-1,.53-.54,0-.82-.28-.96-.53-.17-.31-.24-.6-.24-.93v-11.52h7.78v-11.87c0-1.42-.27-2.65-.81-3.65-.53-.99-1.29-1.75-2.25-2.26-.97-.52-2.17-.78-3.56-.78s-2.51.26-3.5.77c-.98.5-1.71,1.24-2.25,2.24-.53,1-.8,2.25-.8,3.72v22.77c0,1.36.27,2.54.81,3.51.54.98,1.29,1.74,2.24,2.25"/>
    <path class="st0" d="M107.71,254.68c-1.04.85-2.46,1.28-4.22,1.28l-3.7.07v-10.39l3.9-.07c1.65,0,2.99.4,4.02,1.17,1.06.81,1.6,2.1,1.6,3.85,0,1.84-.54,3.22-1.6,4.09M99.8,227.89l3.96-.07c1.45,0,2.66.31,3.6.94.99.67,1.5,1.78,1.5,3.32,0,1.63-.49,2.87-1.44,3.66-.94.77-2.18,1.16-3.7,1.16l-3.91.07v-9.08ZM123.41,245.73c-1.27-1.66-2.97-2.92-5.03-3.75-.74-.3-1.53-.55-2.32-.74l-1.33-.33,1.7-.58c1.52-.52,2.88-1.27,4.01-2.23,1.13-.95,2.01-2.13,2.63-3.51.62-1.39.93-2.99.93-4.75,0-3.64-1.35-6.36-4.03-8.09-2.72-1.77-6.79-2.66-12.09-2.66h-22.75v45.71h21.15c3.8,0,7.18-.39,10.07-1.15,2.82-.76,5.05-2.06,6.62-3.88,1.56-1.81,2.35-4.35,2.35-7.57,0-2.64-.64-4.82-1.91-6.47"/>
    <path class="st0" d="M212.16,254.86c-.76-1.5-1.13-4.09-1.13-7.91,0-3.6.4-6.04,1.2-7.45.85-1.48,2.11-2.24,3.78-2.24,1.42,0,2.51.56,3.24,1.64.66.96,1.01,2.3,1.08,3.98h15.81c-.25-2.83-1.17-5.32-2.74-7.38-1.66-2.17-3.99-3.86-6.93-5.02-2.96-1.18-6.56-1.78-10.68-1.78-3.91,0-7.49.66-10.64,1.96-3.12,1.3-5.63,3.33-7.46,6.02-1.84,2.7-2.77,6.23-2.77,10.49s.9,7.76,2.66,10.51c1.76,2.74,4.23,4.8,7.33,6.13,3.13,1.33,6.74,2.01,10.72,2.01,3,0,5.78-.34,8.26-1,2.48-.67,4.65-1.66,6.46-2.93,1.8-1.26,3.24-2.83,4.28-4.68.97-1.74,1.55-3.72,1.73-5.92h-15.95c-.11,1.86-.53,3.29-1.25,4.28h0c-.82,1.1-1.92,1.66-3.25,1.66-1.67,0-2.92-.79-3.72-2.36"/>
    <path class="st0" d="M263.82,192.31c.59.11,1.14.24,1.65.41v-13.4c-.1-.02-.2-.03-.31-.04-.35-.04-.77-.07-1.24-.07-1.49,0-3.02.37-4.56,1.1-1.53.73-2.89,1.94-4.04,3.6-.59.85-1.09,1.89-1.48,3.06l-.79,2.34v-9.51h-14.4v34.48h15.24v-15.81c0-2.4.76-4.09,2.25-5.04,1.42-.91,3.07-1.37,4.91-1.37.96,0,1.9.08,2.78.25"/>
    <path class="st0" d="M150.88,229.15c-1.41,0-2.86.37-4.33,1.09-1.46.72-2.76,1.93-3.85,3.6-.57.86-1.05,1.89-1.42,3.06l-.79,2.49v-9.66h-13.7v35.07h14.5v-15.81c0-2.37.72-4.07,2.15-5.02,1.37-.92,2.95-1.39,4.69-1.39.91,0,1.81.09,2.66.25.51.1.97.22,1.4.35.11-.69.24-1.3.37-1.85v-12.04c-.16-.02-.33-.05-.51-.07-.33-.04-.72-.06-1.17-.06"/>
    <path class="st0" d="M178.18,243.23h-9.45l.03-.43c.1-1.69.49-3.05,1.15-4.04h0c.83-1.23,2.07-1.85,3.7-1.85,1.54,0,2.7.56,3.46,1.65.73,1.04,1.1,2.48,1.11,4.27v.41ZM184.31,230.85c-2.99-1.43-6.59-2.15-10.73-2.15s-7.51.73-10.53,2.17c-3,1.43-5.38,3.55-7.06,6.28-1.69,2.74-2.55,6.15-2.55,10.13s.86,7.54,2.55,10.26c1.68,2.73,4.06,4.82,7.07,6.21,3.03,1.39,6.6,2.1,10.61,2.1,3.74,0,7.09-.54,9.95-1.61,2.85-1.07,5.15-2.61,6.85-4.57,1.61-1.85,2.6-4.07,2.96-6.6h-15.29c-.13,1.31-.55,2.35-1.23,3.1-.77.83-1.86,1.25-3.24,1.25-1.99,0-3.35-.78-4.01-2.32-.59-1.34-.91-2.98-.95-4.86v-.42s24.9,0,24.9,0v-2.67c0-3.96-.82-7.34-2.42-10.06-1.61-2.71-3.92-4.82-6.89-6.23"/>
    <path class="st0" d="M79.69,231.04c-.22-.6-.57-1.07-1.04-1.38-.47-.32-1.01-.48-1.66-.48s-1.19.14-1.68.39c-1,.47-2.36,1.56-3.07,4.13l-.02-.12-.13-.77-.12-.77c-.13-.82-.39-1.47-.77-1.94-.48-.6-1.19-.91-2.13-.91-.21,0-.41.02-.6.06h0c-.64.1-3.33.67-4.33,4.88v-4.54h-4.74v35.41h5.01v-30.04c0-.5.14-.87.42-1.12.36-.31,1.21-.33,1.22-.33.39,0,.7.13.91.4.18.24.27.56.27.95v30.14h5.01v-30.04c0-.51.13-.87.4-1.11.35-.33,1.23-.34,1.24-.34.35,0,.64.12.88.36.22.24.33.57.33.98v30.14h4.98v-31.56c0-.95-.12-1.75-.36-2.39"/>
  </g>
</svg>