<?xml version="1.0" encoding="utf-8"?>
<!-- Generator: Adobe Illustrator 26.0.3, SVG Export Plug-In . SVG Version: 6.00 Build 0)  -->
<svg version="1.1" id="Ebene_1" xmlns="http://www.w3.org/2000/svg" xmlns:xlink="http://www.w3.org/1999/xlink" x="0px" y="0px"
	 viewBox="0 0 1001.4 354.2" style="enable-background:new 0 0 1001.4 354.2;" xml:space="preserve">
<style type="text/css">
	.st0{fill:#323A66;}
	.st1{fill:#80A2C8;}
</style>
<g>
	<path class="st0" d="M220.4,44c0-24.3,19.8-44,44.1-44c24.3,0,44,19.7,44,44c0,24.3-19.7,44-44,44C240.2,87.9,220.4,68.2,220.4,44z
		 M299.8,44c0-19.5-15.9-35.3-35.3-35.3c-19.5,0-35.3,15.9-35.3,35.3c0,19.5,15.9,35.3,35.3,35.3C283.9,79.3,299.8,63.4,299.8,44z"
		/>
	<path class="st0" d="M328.8,59.7c0,5.4,2.6,11.2,7.2,15.1c3.1,2.6,7.2,4.4,12,4.4c11.9,0,17.9-7.6,17.9-15.6
		c0-8.6-5.3-13-17.1-16.1l-7.2-1.9c-12.8-3.5-19.3-10-19.3-22.7c0-11.8,10.4-22.9,26.1-22.9c17,0,24.9,14,24.9,25.2h-8.8
		c0-4.3-1.6-8.6-4.4-11.8c-2.8-2.9-6.8-4.8-11.8-4.8c-10.6,0-17.2,7-17.2,14.3c0,7.7,2.6,11.4,12.7,14.3l7.1,2
		c16.7,4.8,23.8,12,23.8,24.4c0,12.2-9.7,24.3-26.7,24.3c-15.9,0-28.5-12.6-28.5-28.2H328.8z"/>
	<path class="st0" d="M446.1,9.4h-46.8v30.3h42.5v8.6h-42.5v30.3h46.8v8.6h-55.5V0.7h55.5V9.4z"/>
	<path class="st0" d="M468.4,59.7c0,5.4,2.6,11.2,7.2,15.1c3.1,2.6,7.2,4.4,12,4.4c11.9,0,17.9-7.6,17.9-15.6
		c0-8.6-5.3-13-17.1-16.1l-7.2-1.9c-12.8-3.5-19.3-10-19.3-22.7C461.9,11.2,472.4,0,488,0c17.1,0,24.9,14,24.9,25.2h-8.8
		c0-4.3-1.6-8.6-4.4-11.8c-2.8-2.9-6.8-4.8-11.8-4.8c-10.6,0-17.2,7-17.2,14.3c0,7.7,2.6,11.4,12.7,14.3l7.1,2
		c16.7,4.8,23.8,12,23.8,24.4c0,12.2-9.7,24.3-26.7,24.3c-15.9,0-28.5-12.6-28.5-28.2H468.4z"/>
</g>
<g>
	<path class="st0" d="M280.4,128h-46.8v30.3h42.5v8.6h-42.5v30.3h46.8v8.6h-55.5v-86.5h55.5V128z"/>
	<path class="st0" d="M368,205.8h-8.6l-51.8-72.2v72.2H299v-86.5h8.6l51.8,72.3v-72.3h8.6V205.8z"/>
	<path class="st0" d="M461.4,162.6c0,26.8-21.1,43.2-43.1,43.2h-29.1v-86.5h29.1C440.1,119.3,461.4,135.8,461.4,162.6z M452.7,162.6
		c0-19.1-15.5-34.6-34.5-34.6h-20.4v69.2h20.4C437.2,197.1,452.7,181.6,452.7,162.6z"/>
	<path class="st0" d="M533.5,128h-46.8v30.3h42.5v8.6h-42.5v30.3h46.8v8.6H478v-86.5h55.5V128z"/>
	<path class="st0" d="M601.5,197.1v8.6H552v-86.5h8.6v77.8H601.5z"/>
	<path class="st0" d="M617.9,178.3c0,5.4,2.6,11.2,7.2,15.1c3.1,2.6,7.2,4.4,12,4.4c11.9,0,17.9-7.6,17.9-15.6
		c0-8.6-5.3-13-17.1-16.1l-7.2-1.9c-12.8-3.5-19.3-10-19.3-22.7c0-11.8,10.4-22.9,26.1-22.9c17.1,0,24.9,14,24.9,25.2h-8.8
		c0-4.3-1.6-8.6-4.4-11.8c-2.8-2.9-6.8-4.8-11.8-4.8c-10.6,0-17.2,7-17.2,14.3c0,7.7,2.6,11.4,12.7,14.3l7.1,2
		c16.7,4.8,23.8,12,23.8,24.4c0,12.2-9.7,24.3-26.7,24.3c-15.9,0-28.5-12.6-28.5-28.2H617.9z"/>
	<path class="st0" d="M683.5,178.3c0,5.4,2.6,11.2,7.2,15.1c3.1,2.6,7.2,4.4,12,4.4c11.9,0,17.9-7.6,17.9-15.6
		c0-8.6-5.3-13-17.1-16.1l-7.2-1.9c-12.8-3.5-19.3-10-19.3-22.7c0-11.8,10.4-22.9,26.1-22.9c17,0,24.9,14,24.9,25.2h-8.8
		c0-4.3-1.6-8.6-4.4-11.8c-2.8-2.9-6.8-4.8-11.8-4.8c-10.6,0-17.2,7-17.2,14.3c0,7.7,2.6,11.4,12.7,14.3l7.1,2
		c16.7,4.8,23.8,12,23.8,24.4c0,12.2-9.7,24.3-26.7,24.3c-15.9,0-28.5-12.6-28.5-28.2H683.5z"/>
	<path class="st0" d="M740.8,162.6c0-24.3,19.8-44,44.1-44c24.3,0,44,19.7,44,44c0,24.3-19.7,44-44,44
		C760.6,206.5,740.8,186.8,740.8,162.6z M820.2,162.6c0-19.5-15.9-35.3-35.3-35.3c-19.5,0-35.3,15.9-35.3,35.3
		c0,19.5,15.9,35.3,35.3,35.3C804.3,197.9,820.2,182,820.2,162.6z"/>
	<path class="st0" d="M911.2,205.8h-8.6v-38.9h-48.4v38.9h-8.6v-86.5h8.6v38.9h48.4v-38.9h8.6V205.8z"/>
	<path class="st0" d="M1001.4,205.8h-8.6L941,133.6v72.2h-8.6v-86.5h8.6l51.8,72.3v-72.3h8.6V205.8z"/>
</g>
<g>
	<path class="st0" d="M280.4,246.6h-46.8v30.3h42.5v8.6h-42.5v30.3h46.8v8.6h-55.5V238h55.5V246.6z"/>
	<path class="st0" d="M368,324.5h-8.6l-51.8-72.2v72.2H299V238h8.6l51.8,72.3V238h8.6V324.5z"/>
	<path class="st0" d="M441.9,246.6h-26.7v77.8h-8.6v-77.8h-26.5v-0.5H380V238h62V246.6z"/>
	<path class="st0" d="M513.1,324.5h-9.6L486,290.1h-23.5v34.3h-8.6V238H486c15,0,26.1,13,26.1,26.1c0,10.4-6.8,20.7-17.3,24.5
		L513.1,324.5z M462.5,281.5H486c9.6,0,17.4-7.9,17.4-17.4c0-9.6-7.8-17.4-17.4-17.4h-23.5V281.5z"/>
	<path class="st0" d="M585.6,294.9c0,16.7-13.6,30.3-30.3,30.3c-16.7,0-30.3-13.6-30.3-30.3V238h8.6v56.9c0,11.9,9.7,21.6,21.6,21.6
		c11.9,0,21.6-9.7,21.6-21.6V238h8.6V294.9z"/>
	<path class="st0" d="M691.4,324.5h-8.6v-65.6l-29.9,65.6h-9l-30.3-65.8v65.8h-8.6V238h8.6l34.7,76.5l34.5-76.5h8.6V324.5z"/>
</g>
<polygon class="st0" points="205,0.6 196.4,0.6 161.9,41.7 127.2,0.6 118.5,0.6 118.5,87.1 127.2,87.1 127.2,13.1 157.5,48.9
	166.5,48.9 196.4,13.4 196.4,87.1 205,87.1 205,0.6 "/>
<polygon class="st0" points="205,118.9 196.4,118.9 161.9,159.9 127.2,118.9 118.5,118.9 118.5,205.4 127.2,205.4 127.2,131.4
	157.5,167.1 166.5,167.1 196.4,131.6 196.4,205.4 205,205.4 205,118.9 "/>
<polygon class="st1" points="86.5,315.2 49.5,281.9 86.5,249 86.3,237.4 43.1,276.1 0.2,237.4 0,249 73.7,315.2 0,315.2 0,323.7
	86.6,323.7 86.6,315.8 86.8,315.5 86.6,315.2 86.6,315.2 86.5,315.2 "/>
<polygon class="st1" points="86.6,87.2 86.6,78.7 86.6,9.1 86.6,0.6 78.1,0.6 8.5,0.6 0,0.6 0,9.1 0,87.2 8.5,87.2 8.5,9.1
	78.1,9.1 78.1,78.7 43.3,78.7 43.3,87.2 78.1,87.2 86.6,87.2 "/>
<polygon class="st1" points="86.6,205.4 86.6,196.9 86.6,127.4 86.6,118.9 78.1,118.9 8.5,118.9 0,118.9 0,127.4 0,205.4 8.5,205.4
	8.5,127.4 78.1,127.4 78.1,196.9 43.3,196.9 43.3,205.4 78.1,205.4 86.6,205.4 "/>
<polygon class="st0" points="205.1,316 131.3,316 204.2,247.1 204,246.8 204.2,246.8 204.2,238.3 121.4,238.3 121.4,246.8
	192.2,246.8 118.9,316 118.5,316 118.5,324.5 205.1,324.5 205.1,316 "/>
</svg>
