<?xml version="1.0" encoding="UTF-8"?>
<svg id="Ebene_1" xmlns="http://www.w3.org/2000/svg" version="1.1" viewBox="0 0 287 101">
  <!-- Generator: Adobe Illustrator 30.1.0, SVG Export Plug-In . SVG Version: 2.1.1 Build 136)  -->
  <g>
    <path d="M287,98v.55c-6.64.53-13.64.52-20.56.25l-20.76-30.79-9.78,9.61.15,21.47-16.45-.33.03-69.04,16.26-.11.39,26.72,26.43-26.85,21.33.42-26.51,26.58,29.49,41.5Z"/>
    <path d="M208.56,79.93c-4.55,12.62-15.72,20.35-28.49,20.2-7.68-.09-14.06-2.38-18.98-8.32l-.62,6.58c-4.89.55-10.49.61-15.86-.13V1.04s16.37-.06,16.37-.06l.08,34.58c8.65-6.91,17.62-9.21,28.15-6.49,20.86,5.38,26.1,32.16,19.36,50.86ZM192.43,73.87c2.32-7.09,2.03-14.82-.93-21.18s-8.65-9.65-14.93-9.43-11.69,4.03-14.08,10.4c-2.57,6.85-2.44,14.6.36,21.31,2.77,6.63,8.78,10.31,15.58,9.96,6.03-.31,11.74-4.11,14.01-11.06Z"/>
  </g>
  <g>
    <path d="M103.8,61.01l30.21-.04v37.48c-5.17.33-10.32.39-15.56.31l-.99-5.14c-5.03,4.24-10.65,6.31-17.44,6.55-12.1.43-22.56-5.75-27.56-16.99s-5.09-23.89-.61-35.24,15.21-18.26,27.33-19.71c14.05-1.68,27.68,4.17,33.64,17.25l-14.7,7.48c-3.26-6.39-8.4-9.71-14.72-9.7s-12.49,3.59-15.24,10.08-2.8,14.27-.4,20.98c2.51,7.04,8.9,10.88,16.21,10.64,6.59-.21,12.57-3.2,14.22-10.16l-14.37-.3-.03-13.48Z"/>
    <path d="M31.56,43.54c-19.75,3.76-11.24,37.65-13.18,55.28l-16.4.19.06-69.42,16.01.07.84,7.66c8.39-8.43,20.13-12.01,31.16-7.26,7.6,3.27,12.16,11.39,12.19,19.96l.17,48.94-16.36.04-.15-44.01c-.01-3.2-2.25-7.56-4.19-9.17-2.67-2.21-6.59-2.95-10.14-2.28Z"/>
  </g>
</svg>