<?xml version="1.0" encoding="UTF-8"?>
<svg id="Ebene_1" xmlns="http://www.w3.org/2000/svg" version="1.1" viewBox="0 0 801.9 141.76">
  <!-- Generator: Adobe Illustrator 30.1.0, SVG Export Plug-In . SVG Version: 2.1.1 Build 136)  -->
  <defs>
    <style>
      .st0 {
        fill: #fff;
      }
    </style>
  </defs>
  <path d="M801.94,95.19l-38.03-.02V21.96s-24,.06-24,.06v93.07s62.02.02,62.02.02M63.09,76.77c1.9-.94,3.99-2.17,5.69-3.42,11.35-8.34,12.83-28.18,5-39.79-1.38-2.05-3.62-4-5.5-5.61-4.82-4.12-9.68-3.81-14.23-5.93l-43.97-.09c-.63,1.58-.92,3-.92,4.83l.02,84.66.55,3.65h23.35s.01-35.02.01-35.02l16.81-.29c2.93-.05,10.06-1.43,13.2-3ZM143.49,75.67c1.99.01,3.88-.32,5.73-.9l-.15-19.6-31.03-.06.05-12.93,39.89-.03v-20.22s-63.42.03-63.42.03v93.13s64.44-.02,64.44-.02l-.03-19.88-40.85-.03-.07-18.48c0-1.92,2.11-1.14,3.06-1.13l22.38.12ZM221.86,115.04V42.21s25.24-.09,25.24-.09l-.06-20.18h-74.06s-.03,20.2-.03,20.2l25.21.07v72.85s23.69-.03,23.69-.03ZM309.54,75.66c2,0,3.87-.3,5.73-.88l-.15-19.6-31.03-.06.05-12.93,39.67-.03-.05-20.22-63.15.03v93.13s64.23,0,64.23,0l.02-19.89-40.68-.04-.08-18.55c0-1.23,2.15-1.8,3.06-1.02l22.38.06ZM399.67,81.82l-4.99-8c1.69-1.03,3.48-1.84,4.61-2.92,6.07-5.76,7.58-7.31,10.15-16.42,1.85-6.56-.04-16.3-4.52-21.94-3.97-5.01-8.15-7.51-14.26-9.2-1.43-.12-2.76-.66-4.04-1.31l-42.9-.06v93.09s22.86.05,22.86.05l.06-37.91,4.6.02,7.28,11.66,3.61,5.82,7.73,12.45,2.77,4.39c.72,1.14,1.68,2.79,2.73,3.58l24.81-.19-20.5-33.1ZM502.74,75.65l29.42-.06-.04-20.4-31.06-.09.04-12.89,39.65-.07v-20.21s-63.16.02-63.16.02v93.14s64.38,0,64.38,0l.02-19.91h-39.49c-.58-.4-1.42-1.58-1.42-2.19l-.03-15.54c0-.76.65-1.8,1.71-1.81ZM631.45,38.29c-6.1-7.76-14.39-12.62-24.01-14.84-1.91.35-4-1.32-5.77-1.32l-38.71-.14v93.07s37.84-.11,37.84-.11c1.69,0,3.63-1.14,5.35-.84l4.85-1.52c8.13-2.54,14.91-6.91,20.38-13.76,12.45-15.59,12.75-44.38.06-60.52ZM681.24,75.62h28.86s.05-20.43.05-20.43l-31.16-.09.03-12.89,39.76-.07v-20.21s-63.12.02-63.12.02v93.14s64.17,0,64.17,0l.02-19.89-39.34-.04c-.94-.22-1.58-2.23-1.58-3.21l.05-15.22c.08-.5,1.62-1.08,2.25-1.12Z"/>
  <g>
    <g>
      <path d="M681.24,75.62c-.62.03-2.17.62-2.25,1.12l-.05,15.22c0,.98.64,2.99,1.58,3.21l39.34.04-.02,19.89h-64.17s0-93.14,0-93.14l63.1-.02v20.21s-39.74.07-39.74.07l-.03,12.89,31.16.09-.05,20.42h-28.86Z"/>
      <g>
        <path d="M631.45,38.29c12.69,16.15,12.39,44.94-.06,60.52-5.47,6.85-12.26,11.22-20.38,13.76l-4.85,1.52c-1.72-.3-3.66.84-5.35.84l-37.84.11V21.99s38.72.14,38.72.14c1.77,0,3.86,1.67,5.77,1.32,9.62,2.22,17.91,7.08,24.01,14.84ZM616.41,61.52c-1.17-8.7-7.39-16.24-16.08-18.19-6.2-1.4-7.02-1.33-13.84-1.04l-.02,49.16c0,1.3.23,2.38.5,3.7,5.91.44,15.38-1.25,20.42-4.51,9.43-6.1,10.4-18.88,9.02-29.11Z"/>
        <path d="M502.74,75.65c-1.07,0-1.71,1.05-1.71,1.81l.03,15.54c0,.61.84,1.79,1.42,2.2h39.49s-.02,19.9-.02,19.9h-64.38s0-93.14,0-93.14l63.15-.02v20.21s-39.64.07-39.64.07l-.04,12.89,31.06.09.04,20.4-29.42.06Z"/>
        <path class="st0" d="M616.41,61.52c1.38,10.23.41,23.01-9.02,29.11-5.05,3.26-14.51,4.95-20.42,4.51-.27-1.32-.5-2.4-.5-3.7l.02-49.16c6.82-.29,7.64-.36,13.84,1.04,8.69,1.96,14.9,9.49,16.08,18.19Z"/>
      </g>
    </g>
    <g>
      <path d="M309.54,75.66l-22.38-.06c-.91-.78-3.07-.21-3.06,1.02l.08,18.55,40.68.04-.02,19.89h-64.22s0-93.13,0-93.13l63.15-.03.05,20.22-39.67.03-.05,12.93,31.03.06.15,19.6c-1.86.58-3.73.89-5.73.88Z"/>
      <path d="M63.09,76.77c-3.14,1.56-10.27,2.95-13.2,3l-16.81.29v35.03s-23.36,0-23.36,0l-.55-3.65-.02-84.66c0-1.84.3-3.26.92-4.83l43.97.09c4.55,2.12,9.42,1.81,14.23,5.93,1.89,1.61,4.12,3.56,5.5,5.61,7.83,11.61,6.35,31.45-5,39.79-1.7,1.25-3.79,2.47-5.69,3.42ZM56.05,52.48c.54-4.47-1.33-8.76-5.33-10.12-4.67-1.58-12.38-1.19-17.63-.97v18.78c5.61.01,10.85.37,16.2-.23,3.51-.4,6.35-4.01,6.76-7.45Z"/>
      <g>
        <path d="M143.49,75.67l-22.38-.12c-.95,0-3.07-.78-3.06,1.13l.07,18.48,40.85.03.03,19.88-64.45.02V21.96s63.42-.03,63.42-.03v20.22s-39.88.03-39.88.03l-.05,12.93,31.03.06.15,19.6c-1.85.57-3.74.91-5.73.9Z"/>
        <polygon points="221.86 115.04 198.18 115.06 198.16 42.21 172.95 42.14 172.98 21.94 247.04 21.95 247.09 42.13 221.86 42.21 221.86 115.04"/>
      </g>
      <g>
        <path d="M399.67,81.82l20.5,33.1-24.81.19c-1.05-.79-2.01-2.44-2.73-3.58l-2.77-4.39-7.73-12.45-3.61-5.82-7.28-11.66-4.6-.02-.06,37.91-22.87-.05V21.96s42.9.06,42.9.06c1.28.66,2.61,1.19,4.04,1.31,6.11,1.69,10.29,4.19,14.26,9.2,4.47,5.64,6.37,15.38,4.52,21.94-2.57,9.11-4.07,10.66-10.15,16.42-1.13,1.07-2.92,1.89-4.61,2.92l4.99,8ZM388.03,48.09c-.17-2.69-.43-4.77-2.7-6.13l-3.29-1.97-15.41.02v16.97c5.19-.02,10.3.37,14.99-.34s6.69-4.25,6.42-8.56Z"/>
        <path class="st0" d="M388.03,48.09c.28,4.31-1.86,7.87-6.42,8.56s-9.8.32-14.98.34v-16.97s15.4-.02,15.4-.02l3.29,1.97c2.27,1.36,2.53,3.44,2.7,6.13Z"/>
      </g>
      <path class="st0" d="M56.05,52.48c-.42,3.45-3.26,7.06-6.76,7.45-5.35.61-10.59.25-16.2.23v-18.78c5.26-.21,12.97-.61,17.64.97,4,1.36,5.87,5.65,5.33,10.12Z"/>
    </g>
  </g>
</svg>