<?xml version="1.0" encoding="utf-8"?>
<!-- Generator: Adobe Illustrator 28.0.0, SVG Export Plug-In . SVG Version: 6.00 Build 0)  -->
<svg version="1.1" id="publix-logo" xmlns="http://www.w3.org/2000/svg" xmlns:xlink="http://www.w3.org/1999/xlink" x="0px"
	 y="0px" viewBox="0 0 734.7 329.1" style="enable-background:new 0 0 734.7 329.1;" xml:space="preserve">
<style type="text/css">
	.st0{fill:#FFFFFF;}
</style>
<path id="background" class="st0" d="M0,0h734.7v329.1H0V0z"/>
<path id="wordmark" d="M25.2,234.6V38.5h82.7c36.4,0,63,21.6,63,59.4s-26.6,59.4-63,59.4H53.2v77.3L25.2,234.6L25.2,234.6z
	 M53.2,132.1h50.4c25.2,0,39.2-11.8,39.2-34.2s-14-34.2-39.2-34.2H53.2V132.1z M187.1,187V94.6h26.6v86.8c0,22.4,9.2,33.6,28.3,33.6
	h2.2c17.9,0,35.3-16.8,35.3-44.8V94.6h26.6v140.1h-26.6V208c-5.3,15.4-20.5,29.4-44.8,29.4C203.4,237.4,187.1,216.4,187.1,187
	L187.1,187z M362,215v19.6h-26.6V38.5H362v75.6c7-12.6,23.8-22.4,43.4-22.4c35,0,63,26.6,63,72.8s-25.2,72.8-60.2,72.8
	C388.6,237.4,369,227.6,362,215L362,215z M403.7,215c21.3,0,38.1-16.8,38.1-50.4s-16.8-50.4-38.1-50.4h-2.2
	c-19.9,0-39.5,16.8-39.5,50.4s19.6,50.4,39.5,50.4L403.7,215L403.7,215z M489.2,234.6V38.5h26.6v196.1H489.2L489.2,234.6z
	 M543.5,69.3V38.5h29.4v30.8H543.5z M544.9,234.6V94.6h26.6v140.1H544.9z M584.1,234.6L636,164l-50.4-69.5h31.1l35,48.2L687,94.5
	h30.3l-50.4,68.9l51.8,71.2h-31.1l-36.4-50.2l-36.7,50.1L584.1,234.6L584.1,234.6z M680.1,301.8L680.1,301.8
	c-11.9,0-17.5-11.2-22.4-21.1c-4.4-8.8-8.6-17.2-16.1-17.2h0c-7.5,0-11.7,8.3-16.2,17.1c-5,9.8-10.7,20.9-22.4,20.9h-0.1
	c-11.8,0-17.4-11.2-22.3-21.1c-4.4-8.8-8.6-17.2-16.1-17.2h0c-7.5,0-11.7,8.3-16.2,17.1c-5,9.8-10.7,20.9-22.4,20.9h-0.1
	c-11.8,0-17.4-11.2-22.3-21.1c-4.4-8.8-8.6-17.2-16.1-17.2h0c-7.5,0-11.7,8.3-16.2,17.1c-5,9.8-10.7,20.9-22.4,20.9h-0.1
	c-11.8,0-17.4-11.2-22.3-21.1c-4.4-8.8-8.6-17.2-16.1-17.2h0c-7.5,0-11.7,8.3-16.2,17.1c-5,9.8-10.7,20.9-22.4,20.9h-0.1
	c-11.8,0-17.4-11.2-22.3-21.1c-4.4-8.8-8.6-17.2-16.1-17.2c-7.5-0.1-11.7,8.3-16.2,17.1c-5,9.8-10.7,20.9-22.4,20.9h-0.1
	c-11.8,0-17.4-11.2-22.3-21.1c-4.4-8.8-8.6-17.2-16.1-17.2h0c-7.5,0-11.7,8.3-16.2,17.1c-5,9.8-10.7,20.9-22.4,20.9h-0.1
	c-11.8,0-17.4-11.2-22.3-21.1c-4.4-8.8-8.6-17.2-16.1-17.2h0c-7.5,0-11.7,8.3-16.2,17.1c-5,9.8-10.7,21-22.5,20.9
	c-11.8,0-17.4-11.2-22.3-21.1c-4.4-8.8-8.6-17.2-16.1-17.2h0c-7.5,0-11.7,8.3-16.2,17.1c-5,9.8-10.7,20.9-22.4,20.9h-0.1
	c-11.8,0-17.4-11.2-22.3-21.1c-4.4-8.8-8.6-17.2-16.1-17.2l0-7c11.8,0.1,17.4,11.2,22.3,21.1c4.4,8.8,8.6,17.2,16.1,17.2h0
	c7.5,0,11.7-8.3,16.2-17.1c5-9.8,10.7-20.9,22.4-20.9h0.1c11.8,0.1,17.4,11.2,22.3,21.1c4.4,8.8,8.6,17.2,16.1,17.2h0
	c7.5,0,11.7-8.3,16.2-17.1c5-9.8,10.7-20.9,22.4-20.9h0.1c11.8,0.1,17.4,11.2,22.3,21.1c4.4,8.8,8.6,17.2,16.1,17.2h0
	c7.5,0,11.7-8.3,16.2-17.1c5-9.8,10.7-20.9,22.4-20.9h0.1c11.8,0.1,17.4,11.2,22.3,21.1c4.4,8.8,8.6,17.2,16.1,17.2h0
	c7.5,0,11.7-8.3,16.2-17.1c5-9.8,10.7-20.9,22.4-20.9h0.1c11.8,0.1,17.4,11.2,22.3,21.1c4.4,8.8,8.6,17.2,16.1,17.2h0
	c7.5,0,11.7-8.3,16.2-17.1c5-9.8,10.7-20.9,22.4-20.9h0.1c11.8,0.1,17.4,11.2,22.3,21.1c4.4,8.8,8.6,17.2,16.1,17.2h0
	c7.5,0,11.7-8.3,16.2-17.1c5-9.8,10.7-20.9,22.4-20.9h0.1c11.8,0.1,17.4,11.2,22.3,21.1c4.4,8.8,8.6,17.2,16.1,17.2h0
	c7.5,0,11.7-8.3,16.2-17.1c5-9.8,10.7-20.9,22.4-20.9h0.1c11.8,0,17.4,11.2,22.3,21.1c4.4,8.8,8.6,17.2,16.1,17.2h0
	c7.5,0,11.7-8.3,16.2-17.1c5-9.8,10.7-20.9,22.4-20.9h0.1c11.8,0,17.4,11.2,22.3,21.1c4.4,8.8,8.6,17.2,16.1,17.2h0
	c7.5,0,11.7-8.3,16.2-17.1c5-9.8,10.7-20.9,22.4-20.9h0.1l0,7h0c-7.5,0-11.7,8.3-16.2,17.1C697.5,290.7,691.8,301.8,680.1,301.8
	L680.1,301.8z"/>
</svg>
