<?xml version="1.0" encoding="UTF-8"?>
<svg id="publix-logo" xmlns="http://www.w3.org/2000/svg" version="1.1" viewBox="0 0 734.7 329.1">
  <!-- Generator: Adobe Illustrator 30.1.0, SVG Export Plug-In . SVG Version: 2.1.1 Build 136)  -->
  <path id="wordmark" d="M25.2,234.6V38.5h82.7c36.4,0,63,21.6,63,59.4s-26.6,59.4-63,59.4h-54.7v77.3h-28ZM53.2,132.1h50.4c25.2,0,39.2-11.8,39.2-34.2s-14-34.2-39.2-34.2h-50.4v68.4ZM187.1,187v-92.4h26.6v86.8c0,22.4,9.2,33.6,28.3,33.6h2.2c17.9,0,35.3-16.8,35.3-44.8v-75.6h26.6v140.1h-26.6v-26.7c-5.3,15.4-20.5,29.4-44.8,29.4-31.3,0-47.6-21-47.6-50.4h0ZM362,215v19.6h-26.6V38.5h26.6v75.6c7-12.6,23.8-22.4,43.4-22.4,35,0,63,26.6,63,72.8s-25.2,72.8-60.2,72.8c-19.6.1-39.2-9.7-46.2-22.3h0ZM403.7,215c21.3,0,38.1-16.8,38.1-50.4s-16.8-50.4-38.1-50.4h-2.2c-19.9,0-39.5,16.8-39.5,50.4s19.6,50.4,39.5,50.4h2.2ZM489.2,234.6V38.5h26.6v196.1h-26.6ZM543.5,69.3v-30.8h29.4v30.8h-29.4ZM544.9,234.6V94.6h26.6v140.1h-26.6v-.1ZM584.1,234.6l51.9-70.6-50.4-69.5h31.1l35,48.2,35.3-48.2h30.3l-50.4,68.9,51.8,71.2h-31.1l-36.4-50.2-36.7,50.1-30.4.1h0ZM680.1,301.8h0c-11.9,0-17.5-11.2-22.4-21.1-4.4-8.8-8.6-17.2-16.1-17.2h0c-7.5,0-11.7,8.3-16.2,17.1-5,9.8-10.7,20.9-22.4,20.9h-.1c-11.8,0-17.4-11.2-22.3-21.1-4.4-8.8-8.6-17.2-16.1-17.2h0c-7.5,0-11.7,8.3-16.2,17.1-5,9.8-10.7,20.9-22.4,20.9h-.1c-11.8,0-17.4-11.2-22.3-21.1-4.4-8.8-8.6-17.2-16.1-17.2h0c-7.5,0-11.7,8.3-16.2,17.1-5,9.8-10.7,20.9-22.4,20.9h-.1c-11.8,0-17.4-11.2-22.3-21.1-4.4-8.8-8.6-17.2-16.1-17.2h0c-7.5,0-11.7,8.3-16.2,17.1-5,9.8-10.7,20.9-22.4,20.9h-.1c-11.8,0-17.4-11.2-22.3-21.1-4.4-8.8-8.6-17.2-16.1-17.2-7.5-.1-11.7,8.3-16.2,17.1-5,9.8-10.7,20.9-22.4,20.9h-.1c-11.8,0-17.4-11.2-22.3-21.1-4.4-8.8-8.6-17.2-16.1-17.2h0c-7.5,0-11.7,8.3-16.2,17.1-5,9.8-10.7,20.9-22.4,20.9h-.1c-11.8,0-17.4-11.2-22.3-21.1-4.4-8.8-8.6-17.2-16.1-17.2h0c-7.5,0-11.7,8.3-16.2,17.1-5,9.8-10.7,21-22.5,20.9-11.8,0-17.4-11.2-22.3-21.1-4.4-8.8-8.6-17.2-16.1-17.2h0c-7.5,0-11.7,8.3-16.2,17.1-5,9.8-10.7,20.9-22.4,20.9h-.1c-11.8,0-17.4-11.2-22.3-21.1-4.4-8.8-8.6-17.2-16.1-17.2v-7c11.8.1,17.4,11.2,22.3,21.1,4.4,8.8,8.6,17.2,16.1,17.2h0c7.5,0,11.7-8.3,16.2-17.1,5-9.8,10.7-20.9,22.4-20.9h.1c11.8.1,17.4,11.2,22.3,21.1,4.4,8.8,8.6,17.2,16.1,17.2h0c7.5,0,11.7-8.3,16.2-17.1,5-9.8,10.7-20.9,22.4-20.9h.1c11.8.1,17.4,11.2,22.3,21.1,4.4,8.8,8.6,17.2,16.1,17.2h0c7.5,0,11.7-8.3,16.2-17.1,5-9.8,10.7-20.9,22.4-20.9h.1c11.8.1,17.4,11.2,22.3,21.1,4.4,8.8,8.6,17.2,16.1,17.2h0c7.5,0,11.7-8.3,16.2-17.1,5-9.8,10.7-20.9,22.4-20.9h.1c11.8.1,17.4,11.2,22.3,21.1,4.4,8.8,8.6,17.2,16.1,17.2h0c7.5,0,11.7-8.3,16.2-17.1,5-9.8,10.7-20.9,22.4-20.9h.1c11.8.1,17.4,11.2,22.3,21.1,4.4,8.8,8.6,17.2,16.1,17.2h0c7.5,0,11.7-8.3,16.2-17.1,5-9.8,10.7-20.9,22.4-20.9h.1c11.8.1,17.4,11.2,22.3,21.1,4.4,8.8,8.6,17.2,16.1,17.2h0c7.5,0,11.7-8.3,16.2-17.1,5-9.8,10.7-20.9,22.4-20.9h.1c11.8,0,17.4,11.2,22.3,21.1,4.4,8.8,8.6,17.2,16.1,17.2h0c7.5,0,11.7-8.3,16.2-17.1,5-9.8,10.7-20.9,22.4-20.9h.1c11.8,0,17.4,11.2,22.3,21.1,4.4,8.8,8.6,17.2,16.1,17.2h0c7.5,0,11.7-8.3,16.2-17.1,5-9.8,10.7-20.9,22.4-20.9h.1v7h0c-7.5,0-11.7,8.3-16.2,17.1-5,9.8-10.7,20.9-22.4,20.9h0Z"/>
</svg>