<?xml version="1.0" encoding="UTF-8"?>
<svg id="Ebene_1" xmlns="http://www.w3.org/2000/svg" version="1.1" viewBox="0 0 748 254">
  <!-- Generator: Adobe Illustrator 30.1.0, SVG Export Plug-In . SVG Version: 2.1.1 Build 136)  -->
  <defs>
    <style>
      .st0 {
        fill: none;
        stroke: #000;
        stroke-linecap: round;
        stroke-linejoin: round;
        stroke-width: 2px;
      }
    </style>
  </defs>
  <path d="M747.72-.04h.48v254.16h-.48v-34.83s.24-1.23.24-1.23v-60.14c0-.62-.13-2.27-.59-2.01l-.41.23s-.13.39-.12.43l.12.5c.13.52-1.92-.59-1.9.11l.03.92c-.84.08-1.91-.19-2.88-.19h-18.38c.58,0-2.04.49-2.03.07l.02-.72c0-.3-.76-.42-1.19-.39l-2.47.23c-1.06.1-2.2.09-3.27-.02l-2.21-.22c-1.09-.11-.39,1.43-1.13,1.31-.4-.07-1.2-.28-1.54-.28l-40.03.03c-1.73,0-3.11.41-4.87,0-.59-.14-1.52-.02-2.35.06l.02,13.3c0,.66.55,1.97.05,2.47l-2.26,2.22c-.65.64-3.77-.54-3.79.05l-.03.93s-.4.14-.5.16l-3.56-.09c-1.34-.03-2.49-.26-3.87-.11-1.05.12-4.76.83-4.33-.95-.61-.12-1.45,0-2.47.17l-.12-.51c-.05-.21,0-.67-.15-.67l-.64-.02c-.17,0-.51-.21-.48-.35l.13-.59c.1-.49.33-1.62-.09-1.79s-1-.23-.99-.47c.01-.29.07-.78.25-.83l.89-.26c.14-.04.1-.55.1-.74l-.13-15.68c-.03-3.11-.16-6.1-.01-9.17l.21-4.25c.84.14,1.51.11,1.68-.6.07-.28.57-.65.82-.59.37.1.9.37.97.16.06-.17.24-.67.34-.91.19-.43,1.44.03,1.93.03,4.4.04,8.67.12,13.03-.07,1.81-.08,3.6-.24,5.41-.06,3.93.4,5.76-.74,5.85.54.02.25.38.61.62.61l28.44-.13,37.03-.08c1.48,0,2.7.31,4.2.04,1.06-.19,2.54-.09,3.55-.03l.28,1c.1.37,1.51-.11,1.58.27l.1.59c.03.18.36.47.53.54,1.03.41.46-3.94.46-3.91l-.11-5.78.24-1.52.05-11.66c0-.35-.16-.87-.29-1.12l-.85.05c-.29,1.07.7,2.81-.24,2.97l-.82.14c-.1.02.14.45.14.55l.04.99c-2.46-.07.03.9-1.84,1.76-.9.41-1.35,1.58-2.13,2.09-3.4,2.2-1.33,2.69-2.42,2.46l-.44-.09-.98-.2-.04.5c-.01.16,0,.39-.03.46l-.16.51-1.97-.26c-.18-.02-.65,0-.8.04s-.22.36-.28.56c-.52,1.53-2.49-.33-2.74.49l-.23.76c-.25.85-2.28-.25-3.78.08l-.33,1.11c-.06.19-.76.08-.98.05-3.23-.51-2.83.23-6.54-.25-.14.1-.45.32-.4.28.15.53.22.98-.06.96-2.33-.22-5.18-.2-7.62-.15l-3.31.07c-1.36.03-2.57.06-3.92-.09-2.19-.25-4.87.46-4.99.05l-.28-.97c-2.58.03-3.62-.33-6.31.13-.22.04-.68-.15-.73-.35l-.19-.71c-.04-.14-.56-.22-.71-.19l-2.46.38-.45-.48c-.08-.39-.16-.83-.35-.81l-.99.09-2.03.16.31-.88c.04-.12-.34-.41-.49-.39l-2.32.32-.44-1.45-1.89.26c-.16-.99-1.35-2.79-2.49-1.92l-.34-.43c-.03-.3-.26-.81-.5-.81l-4.29.06c-.17.61-.29,1.23-.59,1.19l-1.19-.16-.97-.11c-.21-.02-.1.69-.11,1.18-.7.3-2.93-.56-3.09-.11l-.38,1.11-2.31-.22c-.15-.01-.5-.03-.48.06l.15.52c.04.14.04.46.01.6s-.53.27-.69.25l-2.35-.3c-.25-.03-.91-.05-.93.16l-.08,1.1-1.94-.2c-.32-.03-.91-.12-1.12.02s-.23.68-.34,1.14l-2.77-.32c-.16-.02-.86.08-.85.24l.05.88c-1.33.56-2.87-.68-3.1.17-.04.14-.11.67-.22.76-.75.59-2.49-.53-2.58.04l-.15.85c-.44.42-1.62.05-2.27.09l-2.04.12-.23-1.24-1.59.29-.02-15.91c0-.37-.24-1.15-.23-1.26.47-.12,1.2-.2,1.15-.47l-.15-.73c-.1-.47,1.88.47,2.76.04.21-.1.25-.8.41-.98.42-.5,2.66.51,3.94.03l-.12-.73c-.02-.12.37-.38.51-.36l2.45.27c.17-2.5,1.83-.45,3.98-1.08.12-.4.14-1.13.39-1.11l.96.08,1.9.15c-.08-.53-.15-.99-.08-1.23s.68-.12,1.04-.1l2.41.17c.09,0,.39-.35.41-.44l.17-.68c.04-.14.42-.11.69-.06,2.1.37,2.7-.3,2.45-.43-1.01-.5-1.64-.44-2.82-.25-1.34.22-2.61.06-3.93.01l-1.95-.07c-2.48-.08-4.91-.1-7.36.03-.73.04-1.32.08-2.04,0-2.16-.25-5.18.46-5.19.03l-.03-.85c0-.11-.33-.21-.45-.22l-1.25-.08c0-.71.11-1.56-.25-1.7-.42-.16-.97-.22-.97-.46s.02-.67.15-.82.85-.09.94-.27c.32-.63-.04-2.07-.07-2.9-.04-1.13.17-2.25.29-3.43l-.44-.49c-1.76.34-.27-.73-.76-4.04-.04-.28-.08-.77-.09-1.01,0-.16.5-.11.76-.23.59-.26,1.02-1.15,1.58-1.75.39-.42,1.63.12,2.27.12l36.29-.12h26.23s36.29.11,36.29.11l1.9-.26c.05,1.36.9,1.9,2.03,2.07l-.2,1.69c-.02.16.4.47.5.58s.6-.49.6-.82v-13.11c-.34-.06-.68-.12-.9-.13-.11.45-.09,1.03-.1,1.56v.75c-.01.09-.46-.18-.55-.19-.16-.02-.59.15-.55.31l.19.85c-.57-.07-1.34-.26-1.89-.26l-13.46.03c-.67,0-1.65.27-2.16.17-.03-.54.08-1.12-.14-1.13l-1.06-.05-.7-.04c-.08,0,.21-.38.21-.46l.02-1.44c0-.61-1.22.21-1.22-.07v-.59c0-4.32.43-6.97.22-11.18-.97-.59-1.7-1.21-2.24-2.23-3.61.07-2.62.36-6.7.06-2.01-.15-4.31-.09-6.39-.13-.83-.01-.44,1.44-1.05,1.27l-.94-.27c-.09-.03-.24.16-.37.29l-1.21,1.24-.03,5.52.24.97-.02,4.93c-.73.02-1.25.05-1.18.3.13.44.25,1.04.04,1.03l-.85-.05c-.28-.02-.36.6-.49,1.15l-1.58-.25h-12.47c-.91.01-2.08.52-2.81,0-.06-.25-.03-1.02-.24-.99l-.96.12c-.22.03-.94.14-.94-.09s.06-.54.15-1.16l-1.26-.11.17-4.64c.09-2.4.11-4.86.11-7.25-.69-.06-1.1-.37-1.45-.84-.35-.69-2.44.48-2.58-.07l-.27-1.04c-2.21-.04-4.64-.12-6.9.07s-4.16.15-6.32-.13c-.59-.08-1.53.16-1.22.86l-.3.39-1.58-.31c-.05.42.1,1.22-.17,1.22h-1.29s0,9.63,0,9.63c2.65-.07.66.66,1.4,3.32l-1.37.07c-.18,1.37-1.31,2.48-2.55,2.04-.26-.09-.84-.12-1.11-.09-.17.02-.1.3.01.87.04-.02-.29.2-.43.29-2.6-.06-4.95.07-7.43-.14-1.98-.17-4.08-.14-6.02.15-.24.04-.75-.31-.76-.49l-.03-.62c0-.08.02-.07-.33.13l-1.39-.11c-.34-1.08-.98-1.78-2.09-2.18-.01-.61.04-1.43.13-2.13.37-2.8-.4-4.68-.13-7.7.58-.15,1.21-.4,1.18-.74l-.14-1.39c-.49-4.9.5-11.47.08-16.92l-.18-2.34c1.1-.16,2.09-.69,2.02-1.95.89-.19,1.97.16,3.08.15l29.35-.09,13.77-.13.1,1.22,7.04-.02c.23,0,.85-.22.81-.39l-.21-.8c3.42.01,6.8-.07,10.19.12,2.94.16,5.79.32,8.73.06l2.37-.21.09,1.26,9.73-.05-.13-.79c-.13-.83,2.17-.05,3.24-.17,1.25-.14,2.16-.27,3.3-.08,2.21.38,4.67-.52,4.67,0v1.05c.82.3,5.99-.45,6-.1l.03.62c.05,1.09,1.34-.36,1.2.32l-.23,1.09c-.05-.04.2.16.46.37.47-.34.73-.61.73-1.06v-18.03s-.13-1.49-.13-1.49c-.08-.95.46-1.9-.27-2.71l-.71.49.12,1.8c.02.25.04.64-.11.66l-.57.1c-.14.02-.51.2-.49.33l.13.71c.05.27.1.85.11,1.14,0,.2-.73.2-.9.31l-1.94,2.04-1.23,1.41-1.11.05c-.08.33-.1.8-.28.85l-.78.19.21,1.37c-.79-.2-1.55-.41-1.72-.07l-.41.88c-.08.18-.73.11-.94.09l-3.09-.31-.07,1.34-3.57-.24c-.96-.07-2.14-.06-3.03-.06-.1.43-.11.96-.32,1.1-.17.11-.72.17-.92.15l-3.64-.21c-2.23-.13-4.48-.13-6.72,0l-3.53.2c.08-2.58-2.7-.35-4.32-1.14.16-2.34-1.71-.05-3.1-1.03-.09-.2-.03-1.02-.23-.99l-.76.12c-.23.04-.86.08-.9-.15l-.18-1.11-1.55.18c-.38-.69-.86-1.58-1.43-2-.48-.36-2-.29-2.4.15-.62.76-1.33,1.49-2.19,1.9l.14,1.17c-1-.2-1.76-.32-2.24-.09,0,.42.11.95-.11.97-1.32.09-1.54-.46-1.63-.05l-.18.82c-.18.81-2.53-.4-2.69.14l-.3,1.02c-.36.35-3.03-.6-2.99,0l.06.92c-1,.16-2.2-.05-3.34-.07l-6.62-.09-.24,1.21h-6.95c.27-2.37-4.79-.54-6.11-.96,0-.54.1-1.17-.11-1.18-.17,0-.65-.02-.83,0l-2.78.29-.33-1.33-3.14.29c-.24.02-.92.1-.93-.11l-.05-1.07-1.86.27c.13-.32.19-1.14-.08-1.17-.59-.08-1.5.08-2.11.18l.1-1c.05-.49-.63-.17-1.67-1.51-.21-.27-.53-.85-.8-.81l-1.19.18-.15-1.21-1.33.26.21-1.86c-.72-.05-1.27-.05-1.21-.29l.28-1.1-1.27-.11.31-1.56-1.25-.38.23-3.1.05-19.88c0-.23-.11-.76-.29-.82l-.93-.27.06-2.81c.44-.11,1.18-.13,1.15-.38l-.14-1.14c-.03-.2-.06-.7.12-.73.13-.02.35,0,.61.02l.91.1c.19.02.28-.58.39-.76.98-.82,2.25-.2,3.47-.2h94.18c1.05,0,2.71-.54,3.38-.06.15.11.28.76.34.93.14.38,1.63-.57,1.75.08l.19,1c1.05-.5,1.1-1.94.65-2.89ZM679.05,28.28l.05-1.36,2.77.22.3-1.28c1.33,1.09,2.93-1.39,2.94-1.33l-.18-1.22,1.1-.37.03-3.81-1.78-1.41h-22.39c-.11.35-.17.79-.36.83l-.95.21.04,4.5c.01,1.26,2.3,1.3,1.94,3.03l1.34-.37.09,1.22,3.54-.28.04,1.41h11.47ZM718.97,26.12l3.77-.04.28-1.05c.15-.54,2.54.74,3.66-.19l1.25-1.04c.28-.23.05-1.19-.07-1.42l.85-.26c.19-.06.29-.59.29-.79v-3.62s-20.03,0-20.03,0l-.99,1.27c-.13.17-.16.77.02.83l.75.26c-.11.52-.31,1.58.07,1.87.72.57,1.33,1.13,1.93,1.79,1.1,1.2,3.72-.26,3.8.33l.12.92c.95.63,3.75-.52,3.94.05l.35,1.07ZM747.96,66.68h-1.44v10.56h1.44v-10.56ZM726.84,111.79c.39-.55.45-2.11.04-2.62l-1.11-1.38c-1.27-.23-2.64.14-3.97.14l-20.74-.08-9.53-.15c-.38,0-.94.58-.94.96v3.23c0,.75.71,1.62,1.25,1.98.82.54,1.63.38,2.75.05l.15,1.26h26.99c.08-.47.26-1.1.48-1.2,2.13.8,3.24-.24,4.63-2.18Z"/>
  <path d="M36.84-.04l.02,1.02,3.58-.24,2.34-.11.16,1.31,2.95-.35c.15.48.2,1.2.49,1.22,1.02.06,1.82-.46,1.73-.12l-.14.51c-.06.23-.17.76.03.78l.78.12,1.17,1.4c2.73,1.3,1.48,2.39,4.2,3.24l-.32,1.25,1.28.11-.3,1.52c.46.17,1.17.22,1.2.5s-.12.84-.26,1.38l1.49.49c-.12.7-.23,1.49-.21,1.77.51.06,1.18-.05,1.16.16l-.06.81-.18,2.19h1.08c.45.01-.4,2.33-.1,3.13.54,0,1.18-.1,1.18.11,0,.19-.01.61-.03.82l-.27,3.55,1.3.37-.18,2.83c-.16,2.53-.15,5.1,0,7.64.11,1.84.28,3.4-.15,5.4l1.27.18v4.91s-1.21.38-1.21.38l.08,6.2.19,4.58c-.64-.02-1.18-.12-1.2.09-.02.16-.03.66-.01.83l.3,2.82-1.33.15.37,2.97-1.34.15.36,2.68-1.32.47.37,1.77-1.49.09c.14.67.26,1.29.21,1.68-.04.29-.76.37-1.19.49l.28,1.54c-.6.16-1.25.34-1.2.68l.21,1.36c.04.24-.73.34-.9.51l-2.29,2.26.27,1.23-1.15.11c-.15.01-.15.7,0,.76l.57.25.61.26c.09.04-.1.43-.1.53l-.12,1.98c.55,0,1.2-.1,1.19.12l-.06.81-.2,2.08,1.14.32c.44.13-.59,2.57,0,2.59.37.14,1.09.2,1.05.44l-.15.9-.09.52c-.02.1.33.08.46.12l.65.22c.14.05.05.53.03.71l-.23,2.08,1.15.34c.19.06.06.75.04.96l-.2,1.91,1.45-.17-.31,3.27,1.31.13-.36,2.76,1.35.08-.29,1.93c-.04.25-.05.97.2,1.02l1.02.21-.3,1.5,1.1.38c.23.08.07.84.04,1.11l-.22,1.91,1.33.14-.37,2.84,1.48-.34.04,3.39-1.45.09c.18.71.35,1.57.12,1.81-.37.08-1.05-.03-1.06.18l-.02,1.05-2.47-.13c-3.54-.19-7.04-.04-10.57.03l-7.39.14c-1.69-1.21-.69-1.71-2.87-2.31l.28-1.47-1.1-.36c-.18-.06-.1-.69-.07-.91l.27-2.13-1.35-.15.37-2.47-1.31-.48.36-2.62-1.16-.33c-.19-.05-.08-.75-.05-.98l.26-1.86-1.34-.14.37-2.04-1.48-.1.31-3.73-1.36-.14.38-2.98-1.33-.13.34-1.53c-.51-.14-1.12-.2-1.2-.49-.26-.96.62-1.94,0-2.62-.26-.29-.94-.33-1.71-.32l.02,24.72c0,1.07.3,2.32.23,3.28l-1.43.3c-.34,1.53-1.52,2.07-2.92,2l-4.3-.22c-3.64-.19-7.19-.16-10.79.02l-3.21.16.28-1.1c.05-.18-.85-.06-1.02-.14-.32-.16-.09-.98.09-1.53l-1.26-.42.21-3.78c.13-2.31.14-4.65,0-6.95l-.21-3.33,1.29-.09c-.05-.54-.26-1.34-.26-1.87v-11.04c0-.54.21-1.34.26-1.87l-1.27-.09c-.09-1.21.25-2.31.25-3.61V8.65c0-1.29-.36-2.38-.23-3.59l1.2-.41-.29-1.99c1.33-.09,1.93-.73,2.03-2l3.3.22h16.33s3.61-.25,3.61-.25l-.25-.66h8.16ZM36.06,60.79c.14-1.11,0-2.48-.13-3.69-.17-1.68.1-3.27.1-4.96l.08-23.16c-.5-.1-1.05-.15-1.16-.35s.58-1.77,0-1.89l-.93-.19c.23-.44.29-1.3-.14-1.65-.34-.28-1.27-.13-1.7.01l-.55-1.21-6.06.16v41.77c.25.33,1.07.62,1.45.62l4.71-.03.23-1.1c1.05.03,2.19-.97,2.27-1.94.02-.19-.38-.78-.23-.87s.54-.29.68-.4l1.38-1.09Z"/>
  <path d="M382.92-.04c0,.26.01.77.24.87.18.08.71.09.92.06l1.78-.23.69,1.39.37.73c.45-.05.96-.09,1.18.08.48.35-.59,1.75.05,1.87.38.07,1.07.16,1.02.4l-.21,1.04v14.4c0,.84.38,1.81.1,2.52-.39.13-1.2.19-1.14.49l.23,1.31-4.7.12c-1.26.03-2.48.16-3.66.09l-.37-1.15-6.3.02-.37,1.18-1.15-.28-1.72,1.8c-.16.17-.73.39-.91.51-.47.32.34,1.11-.06,1.76-.1.17-.9.05-.96.24-.19.58-.18,1.9-.03,2.48,2.47.21-.09,2.04,1.16,3.28l.92-.07c.17-.01.21.62.13.8-1.07,2.33,2.04,3.02,1.99,3.35l-.14.89c-.03.21-.13.95.08.95h.9s0,1.23,0,1.23c0,.82,1.23,1.48,2.05,1.83l-.17,1.66,1.2.35c.24.52.52.84,1.14,1.19l-.25,1.44,1.25.49-.34,1.52,1.34.13c-.13.46-.44,1.07-.22,1.13l1.1.32-.27,1.47c.37.13.82.18.86.36l.2.85,1.03.03c.61.02-.19,1.69.21,1.71l.94.07c.34.02-.08,1.05-.07,1.3l1.08.3c.17.05-.15.67-.1.87.16.8,1.25,1.63,2.16,1.69l-.27,1.72c.33.08,1.24.16,1.19.45l-.21,1.44,1,.51c.38.45.65.68,1.37.97l-.23,1.67.97.19c.19.04.21.56.18.82l-.24,1.89c-.02.14.32.57.45.54l.81-.2-.3,3.09c-.02.24.16.94.38.89l.9-.19-.22,3.84-.1,3.57,1.29.07-.24,3.57c-.11,1.58-.11,3.22,0,4.79l.24,3.57-1.29.07.14,4.9.18,3.91-1.3.08.35,3.03-1.33.09.24,1.69c.04.26.19,1.02-.05,1.1l-1.1.37.3,1.54-1.27.12c.14.54.27.99.23,1.23s-.81.12-1.15.14l-.06,1.64c-2.64,1.07-1.83,2.58-4.03,3.02l.21,1.34-1.06-.22c-.19-.04-.09.71-.12,1.12l-1.27-.06c-.94-.05-1.62,1.26-1.73,2.09l-1.69-.27-.33,1.1c-.06.19-.76.07-.98.05l-2.8-.27-.22,1.3-3.69-.2-2.41-.11.28,1.29c-2.82.51-3.08-.37-6.97.03-1.14.12-2.33.28-3.3-.05l-.1-1.22c-2.59-.19-3.48.51-5.75.19-.1-.42-.16-1.18-.4-1.14l-1.11.18c-.34.05-1.29.17-1.46-.13l-.58-1-1.42.23-1.28-2.15-1.07.23c-.2.04-.1-.71-.12-1.1l-.92.02c-.11-1.07.14-2.37.14-3.5v-15.11c.01-1.56-.26-3.12-.16-4.63l1.25-.28c-.25-.83-.37-1.66.08-1.98l.95.17c.19.03.08-.68.07-1.12,2.81-.27,2.37.64,6.04-.03.23-.04.91-.11.92.1l.05,1.08,1.22-.29-.29,1.38c1.02-.27,2.83,2.31,3.13,3.03l1.88-.33.08,1.25h5.66c.06-.44.2-1.19.47-1.18.34.01,1.05.31,1.23.12l.82-.86c.38-.4,1.34-1.18,1.59-1.74l.04-6.43c0-.21-.11-.73-.29-.79l-.9-.28c-.24-.33.59-2.32.11-2.48l-1.13-.39.29-1.48-1.12-.33c-.22-.06.05-.68.19-1.13l-1.28-.12.29-1.53-1.35-.42c-.17-.99-1.3-1.51-1.93-1.94.05-.76.15-1.7-.57-2.3l-2.35-1.94.08-1.2c-.51-.39-.87-.96-1.05-1.41l-1.23.19.17-1.31-1.12-.4c-.17-.06.32-.88.21-1l-3.11-3.15-1.05-.26.35-1.98-1.47-.1c0-.55.07-1.02-.13-1.06l-.82-.18.26-1.46-1.25-.43.3-1.78c-.45-.07-1.27-.15-1.23-.45l.2-1.42-1.23-.51.38-2.67-1.35-.16.38-3.01-1.54-.05c.06-.37.26-1.08.26-1.43l-.09-18.81-.18-5.64,1.54-.03-.12-2.12-.22-2.87,1.34-.08-.29-2.18c-.04-.3,0-.89.23-.96l.89-.26-.16-1.44c-.03-.28.83-.36,1.19-.46l-.28-1.51,1.28-.51-.34-1.72,1.23-.12-.18-1.15,1.26.25c.18.04.14-.82.28-.93,2.74-2.28,1.75-2.55,3.7-3.04l-.21-1.33c.9.19,1.8.48,2.04.09.22-.35.37-1.12.64-1.05l1.25.34.27-1.27,2.07.17c.29.02,1,.04.92-.18l-.26-.71h21.36Z"/>
  <path d="M328.92-.04l.32.95c2.41-1.13,1.48,2.06,4.03,1.71l-.25,1.37c.21-.12,1.08-.19,1.13.08.06.33-.14,1.13-.14,1.46-.05,4.32-.13,8.51.07,12.78.07,1.53.15,3.14.1,4.56-.59.32-.95.71-1.26,1.3l-1.08-.21-.05,1.2h-2.82s-.08-1.21-.08-1.21l-11.35.02-2.18,2.18c-.16.16-.07.92-.27.92h-1.27s0,8,0,8c0,.23.35.91.31.78.44-.05.96-.14,1.02.08.25.85-.57,1.56.06,1.68.22.04.89.06.93.26s.05.68.03.92l-.19,1.86,1.13.34c.23.07-.13.89-.09,1.13.14.77,1.29,1.55,2.11,1.68l-.29,1.89c.33.11.82.17.86.36l.2.96,1.37-.29c-.25.89-.31,1.48.21,2.08.42.49.9.73,1.72.97l-.2,1.67,2.09,2.09c.24.24,1.1.44,1.03.76l-.27,1.26,1.09.22c.19.04.2.67.39.73.28.09,1.01.19.94.42l-.32,1.05,1.22.12c-.19.68-.19,1.3.23,1.77.46.51.87.71,1.73.96l-.24,1.72c.31.07,1.23.15,1.18.43l-.18,1.05,1.28.04-.14,1.57c.37.12,1.25.17,1.2.46l-.26,1.42,1.25.43-.3,1.81,1.09.07c.21.01.14.69.12.92l-.3,3.08,1.35.08-.31,3.57c-.02.23,0,.77,0,1.01.01.2.63.2.93.27.53,1.07.13,2.33.08,3.52-.22,6.04.22,9.66.19,15.5l-1.28.37.23,3.34c.05.8.06,1.68.06,2.4-2.53-.52-.22,1.92-1.13,3.23l-1.01.21s.57,1.58.02,1.69l-.94.19.22,1.52c-.48.13-.99.13-1.13.35s-.09.83-.05,1.12l.16,1.02-1.25-.23c-.19-.03-.18.75-.31.88l-1.89,1.84c-1.14,1.11-1.85,1.81-2.71,3.51l-1.2-.23-.11,1.2-1.54-.21-.28,1.08c-.11.42-1.6-.44-1.67-.04l-.14.87c-.47.73-2.83-.5-2.96.11l-.18.84c-1.89.67-4.64-.35-7.1,0,.14.57.34,1.03.16,1.2s-.82.28-1.1.25c-5.26-.68-4.73.15-9.38-.05l.25-1.02c.04-.17-.58-.38-.76-.39-3.45-.11-3.15.57-5.45,0l.18-1.03-1.95.23c-.29.03-.94.1-.99-.14l-.22-.99-1.49.22-.33-1.08c-.06-.21-.62.07-1.17.17l.1-1.21-.98-.06c-.5-.03.29-1.41.02-1.84-.1-.15-.9-.15-.96-.32-.32-.82,0-2.52.05-3.53.09-1.67.09-3.21-.02-4.82l-.17-2.44c.58,0,1.17.1,1.18-.12l.04-.86c.01-.27,0-.98-.24-1.03l-.98-.21.02-6.91c.51,0,1.19.11,1.18-.1l-.06-.81c-.05-.66-.13-1.52-.14-1.89.55-.12,1.17-.17,1.12-.4l-.22-1.07,1.38.23.14-1.23,2.78.13c1.15.05,2.37-.14,3.37-.01l-.19.79c-.03.12.18.32.3.28l.87-.23-.23,1.29c2.09.73,1.52,1.26,3.44,3.06l1.58-.3.08,1.25h6.88s.11-1.26.11-1.26l1.24.32c.22.06.49-.45.69-.65,1.91-1.9.02-2.78.75-3.37.55-.44,1.38.92,1.04-3.64-.52-.09-.97-.08-1.05-.27s-.12-.73-.09-.95l.3-2.14-1.31-.08.29-1.55c-.41-.08-1.16-.25-1.13-.53l.14-1.34-.9-.32c-.64-.23.25-1.62-.14-1.91-.15-.11-.58-.28-.68-.43-.19-.3-.26-.87-.52-.87h-1.07s.21-1.05.21-1.05c.07-.35-1.13-1.66-2.16-1.71l.22-1.22-1.08-.28c-.22-.06.23-.84.12-1.04-.28-.49-1.17-1.18-1.71-1.56l-.31-1.09-1.34.24c.12-.62.43-1.54.19-1.8-.62-.68-1.59-1.63-2.28-2.25-.16-.14-.64-.24-.75-.39s.24-.74.2-.93c-.16-.75-1.31-1.44-2.1-1.79l.23-1.25-1.53.3c.36-.89.46-1.59-.2-2.16-.5-.43-.9-.62-1.68-.89l.27-1.64-1.24-.44.26-1.77c-.31-.13-1.18-.2-1.17-.49s.05-.84.09-1.15l.14-1.13c.03-.24-.79-.27-1.1-.39-.47-.56.55-3.14.02-3.13h-1.33s.17-2.67.17-2.67l.11-3.05-1.26-.38.19-2.59c.35-4.86-.33-8.27-.18-13.13l1.25-.08-.11-3.33-.18-3.86,1.33.02c.22,0,.11-.7.09-.93l-.28-2.85,1.34-.08-.27-1.9c-.04-.26-.15-1.05.08-1.13l1.09-.38-.3-1.49,1.27-.38-.32-1.58,1.26-.11c-.12-.55-.23-.99-.23-1.24s.85-.12,1.21-.16l-.24-1.91,1.27.27c.19.04.14-.81.29-.95.49-.47,1.8-1.02,1.56-2.21l1.79.25.44-1.41,1.61.2c.26-.62.46-1.25.78-1.19l1.26.23.37-1.04c.07-.18.66-.11.91-.08l1.79.24c.17-.14.06-.79-.09-1h21.36Z"/>
  <path d="M568.92-.04l.02.55c0,.15,1.28.21,1.15.81l-.24,1.16,1.19.36c-.07,3.18-.39,4.54-.12,8.14.14,1.89.18,7.83.02,9.7-.26,2.95-.06,4.75.08,7.31-.52.11-.99.09-1.03.28l-.2,1.02-4.22-.24-3.3-.07c-.1.45-.12.96-.32,1.12s-.83.1-1.14.03c-1.95-.43-1.93.56-3.74,2.3-.55.53-1.11.52-.88,1.66l-1.32.25c.05.28.14,1.09.11,1.43-.02.29-.76.36-1.19.48l.31,1.58-1.32.08.3,2.13c.04.28.03,1.01-.22,1.06l-1,.21.08,2.08.24,3.52-1.26.25v29.5s.92.25.92.25c.18.05.26.62.25.82l-.25,4,1.31.46-.3,1.9c-.03.2.23.85.41.81l.84-.21-.28,1.83c.36.08.96.1,1.1.31.47.72-.43,1.94-.04,1.9,1.68-.18.75.98,3.39,2.74l1.13,1.43,1.22-.3c.23-.05.41.71.33.93l-.15.41c-.03.08.35.09.45.08l3.52-.31.22,1.26c.88,0,1.8.01,2.71-.06l2.44-.18c-.21,1.08-.23,1.48-.04,2.14l.98-.2c0,3.21.04,6.28-.13,9.46-.18,3.56-.16,7.06-.04,10.63.03.81.27,1.77.02,2.41l-.84-.07c-.12-.01-.28.53-.26.65l.3,2.32-1.52-.2c-.28-.04-.48.64-.64,1.16-4.1.3-6.71-.49-11.03-.12l-2.11.18-.47-1.29-1.96.35c-.19.03-.79-.25-.75-.43l.22-.87-2.19.26c-.2.02-.83.11-.89-.08l-.3-.95s-.27-.06-.35-.07c-.31.11-1.15.34-1.25.07l-.38-1.04-1.46.2c-.16-.58-.43-1.25-.76-1.21l-1.74.23.22-1.32c-.76-.09-1.1-.37-1.3-1.04l-1,.15c1.22-1.63-1.7-3.57-2.77-4.11l.21-1.81c-.59-.03-1.18.01-1.25-.22l-.27-.87c-.06-.18-.88-.08-.85-.27l.11-.72c.04-.26.22-.74.04-.82-.68-.31-1.15-.23-1.12-.36l.11-.52c.06-.29.3-1.12.03-1.22l-1.07-.4.16-1.52c-.26-.04-1.19-.14-1.14-.43l.21-1.44-1.24-.51.37-1.96-1.53-.1c.2-1.1.32-1.89.2-2.6-.4-.13-1.1-.14-1.1-.4s0-.74.03-1l.22-2.73-1.3-.3.38-2.71-1.31-.08.11-2.41c.07-1.44.86-4.83-1.04-4.62-.07-.94.19-2.21.2-3.23l.05-11.78c0-.21-.11-.75-.29-.8l-.91-.26c0-2.27-.06-4.72.1-7.02.11-1.64.25-3.16.03-4.81-.15-1.14-.63-3.7,1.07-3.53,0-1.97.04-4.09-.08-6.11l-.2-3.42c-.01-.23-.03-.91.19-.91h1.06c.17-2.43-.42-3.38-.24-5.95.43-.16,1.15-.21,1.17-.51.17-2.44-.38-2.2-.22-4.63.54,0,1.21.11,1.2-.1l-.07-.81-.18-2.26,1.3-.3-.38-2.45,1.5-.17-.16-1.85c-.02-.27-.21-1.04.02-1.12l1.1-.37-.3-1.5,1.27-.38-.32-1.58,1.3-.12c-.16-.51-.43-1.06-.26-1.23s.75-.13,1.2-.15l-.32-1.63,1.26-.05-.3-1.23,1.4.35c.08-1.08.69-2.03,2.04-2.02l-.3-1.49c2.38.95,1.44-.4,3.88-1.85,1.64-.98.97-2.02,3.38-2.77l-.31-1.3,1.9.31.15-1.33,3.3.38-.29-1.35,3.62.29c.23.02.81-.09.74-.26l-.28-.68h13.2Z"/>
  <path d="M187.07,114.04l.02,4.21c0,.24-.11.77-.28.83l-.94.31.24.94c.35,1.33-2.92.63-2.63.64-3.78-.06-7.43,0-11.15.08l-7.28.14-.07-1.22-1.35.27-.1-1.06c-.02-.2-.59-.18-.94-.26l.12-1.55.14-2.45-1.07-.02c-.21,0-.14-.68-.12-.93l.3-3.08-1.34-.08.38-2.75-1.32-.15.3-1.53-1.09-.38c-.24-.08-.12-.88-.08-1.14l.26-1.9-1.51-.11.34-3.97-1.33-.08.34-2.79-1.12-.08c-.21-.01-.14-.69-.11-.92l.3-3.08-1.34-.08.38-2.75-1.33-.15.24-2.14c.02-.19.04-.62.05-.79,0-.21-.63-.11-1.19-.11l.17-2.19.06-.59c.02-.16-.48-.1-.71-.11l-.61-.02c-.16,0-.12-.49-.1-.7l.29-3.32-1.33-.08.35-2.79-1.24-.08c-.01-1.39.05-2.54-.22-4.04-.26,1.1-.43,1.94-.46,2.89l-.09,3.07,1.26.08c.06,1.28-.24,2.5-.24,3.82v35.46c0,.97.29,1.95.22,2.87-1.16.09-1.87.61-1.97,1.91-.81.23-1.88-.14-2.87-.14l-17.78-.05.33-1.33c.07-.28-.73-.43-1.11-.56-.42-.97.08-2.27.08-3.43v-48.87c0-1.26-.32-2.39-.25-3.59l1.23-.08v-10s-1.26-.08-1.26-.08l.23-3.8c.16-2.64-.04-5.16-.06-7.82l-.12-16.33.92-.25c.18-.05.29-.59.29-.81v-2.59s-1.24-.37-1.24-.37l.2-3.06c.25-3.78.1-7.45.03-11.27-.02-1.17-.38-2.56-.08-3.57l.99-.29c.47-.13-.47-1.15.12-1.99.12-.17.57.06,1.09.19l.15-1.33c.57.04,1.52.24,2.06.21l3.92-.22c.68-.04,1,.39,1.44,1.14l.57-1.09c1.88-.22,5.21.38,6.6.21,1.09-.13,2.43-.28,3.36-.11.14.29.16,1.14.41,1.12.27-.03.79-.1,1.09-.14l.55-.09c.15-.02-.03.36-.05.58l-.09,1.16c-.02.29.77.4,1.05.63.31.25-.04,1.2-.1,1.61l1,.21c.19.04.19.55.16.8l-.2,2.2,1.08.03c.21,0,.1.64.07.9l-.24,2.15,1.1-.2c.22-.04.26.64.25.88l-.1,2.24,1.07.03c.52.01-.44,3.01-.08,3.71l1.06.4c.23.09.03.82.01,1.07l-.15,1.99,1.08.03c.21,0,.05.6.03.88l-.14,1.98,1.07.02c.21,0,.05.6.03.87l-.16,2.05,1.28.3-.38,2.76,1.52-.27-.29,3.03c.5.15.92.23,1.08.41.51.54-.54,2.3.09,2.55l.9.36c.5.2-.41,2.83-.09,3.76l1.05.03c.22,0,.14.67.11.95l-.26,2.77,1.02.23c.7.16-.42,3.08.05,3.81.97.15,1.37,2.34,1.73,1.31.33-.96.41-2.61.38-3.77l-1.49-.07.24-3.14-.06-32.92-.17-6.19,1.51.31-.27-1.23c1.07-.39,1.65-.98,2.11-2.04.58-.3,1.72.08,2.45.08h11.76c1.34-.02,2.81-.4,4.01-.07l-.12,1.05,1.02.04c.21,0,.06.55.02.84l-.13.93c-.03.2.71.09,1.17.09l-.06,3.14.1,3.08-1.23.11.09,53.05c0,2.86.34,5.5.08,8.31-.09,1.03-.18,2.24-.13,3.12.51.11.92.13,1.04.3.15.2.17.87.12,1.14-.27,1.42-.09,2.54-.08,3.89l.07,10.13-1.19.24v22.7c0,.65.32.95,1.19,1.06Z"/>
  <path d="M519,107.07c0,1.22.04,2.72-.08,3.99-.44,4.79.25,3.58.04,7.81-2.37.99-1.32,2.46-3.55,2.35l-4.56-.23c-2.49-.13-4.96-.11-7.43,0-.97.04-1.81.22-2.78.04-1.18-.22-2.48,0-3.67.15l-.09-1.08c-.02-.25-.78-.13-1.19-.17l.27-1.87-1.03-.04c-.91-.04.19-2.77-.17-4.07l-1.06-.02c-.22,0-.14-.69-.12-.93l.3-3.08-1.34-.08.38-2.75-1.32-.15.27-1.76-1.07-.39c-.24-.09-.12-.88-.09-1.14l.29-2.6-1.34-.09.36-4-1.52-.1.32-2.76-1.12-.09c-.21-.02-.14-.68-.11-.92l.3-3.09-1.33-.08.31-1.55-1.09-.37c-.58-.2.59-2.54-.07-2.8l-.88-.35c-.5-.2.37-3.14.12-4.01l-1.07-.02c-.21,0-.18-.7-.16-.91l.32-2.88-1.47-.04-.17-4.04c-.34.86-.58,1.64-.58,2.42v37.57s1.2.11,1.2.11v4.93s-1.15.39-1.15.39c.11.26.35,1.22.07,1.46-.37.31-1.08.75-1.34,1.07-.42.5-.93,1.23-1.63,1.23h-4.02s-.35-1.2-.35-1.2h-8.57s-.09,1.25-.09,1.25l-3.08-.22c-.45-.03-1.44.27-1.81.1l-.32-.85c-.08-.22-.55-.26-.99-.39l.11-1.46c.02-.28-.73-.36-1.29-.35l-.02-11.97,1.45-.1-.04-97.92c0-1.98-.39-4.02-.16-5.97.91-.54,1.61-1.24,2.3-2.3l3.86-.1.09,1.24h6.69s.41-1.28.41-1.28c2.32.5,4.55.36,6.87.01.23,1.07.8,2.01,2.12,2.18l-.26,1.87,1.06.39c.47.17-.71,2.88.24,2.75l.98-.13c.42-.06-.5,2.46-.07,3.06l1.01.3c.5.15-.5,1.97,0,2.74h.89c.17,0,.16.64.14.83l-.26,2.35,1.22.14-.25,3.74.89-.2c.24-.05.39.68.36.92l-.27,2.15,1.27.37-.3,2.44c.6.1,1.26.25,1.45.41-.19.69-.42,1.79.02,1.92l.82.23c.2.06.13.57.1.9l-.23,2.54,1.02.23c.24.06.18.73.15,1.03l-.2,2.21h1.08c.16.01.09.44.07.69l-.2,2.14c.56-.12.84-.21,1-.1s.26.66.24.89l-.32,3.32.9-.19c.23-.05.42.69.39.94l-.34,3.31,1.31.09.28,3.09c.01.13-.05.52.04.49l.6-.21-.1-17.43c-.02-2.65-.19-5.16-.05-7.8l.15-2.74-1.2-.52.18-2.78c.22-3.45.11-6.8,0-10.24-.03-.99-.36-2.31.02-3.09l.9-.14c.52-.08-.53-1.97.02-3.04.43.05.83.23.87.07l.26-1.03,1.51.22.26-1.21,2.99.16c3.69.2,7.31.24,11.02.01l3.3-.2c.05,1.28.79,1.94,1.99,2.01l-.26,1.22v90.5c0,.37.33,1.11.19,1.37s-.62.41-1.16.57l.06,2.75v1.7s-.09,6.09-.09,6.09l1.24.21Z"/>
  <path d="M311.38,251.01c-4.23.62-3.43-.1-7.07,0l-.28.91c-.06.18-.58.27-.77.27l-4.38.03c-.7,0-1.09-.4-1.25-1.25l-1.75.29-.21-.99c-.05-.24-.71-.21-1.06-.31-.17-1,.2-2.23.2-3.34l.02-43.28c-.64-.3-.97-.72-1.39-1.15-.37-.4-1.63-.05-2.25.04-.93.12-5.27-.47-7.04-.11-.72.97-.22,2.25-.18,3.28l.1,2.59-1.26.11.13,35.06.17,6.84-1.19.07.16.79c.15.73-1.74.06-1.76.14l-.29,1.15-3.73.05c-.39,0-.7-.69-.76-1.21h-8.39s-.24,1.2-.24,1.2h-4.91s-.42-1.2-.42-1.2l-1.64.22c-.38-.67-.68-.96-1.35-1.35l.23-1.65-1.25-.42.23-3.54c.28-4.18-.32-6.16-.2-10.28l1.23-.11v-30.88s-.81.21-.81.21c-.18.05-.45-.53-.43-.71l.22-1.92c.36-3.17-.4-6.73-.1-8.48.04-.23.83-.44,1.13-.49l-.11-37.44c0-3.18-.23-6.14-.07-9.28l.2-3.93-1.23-.21v-5.49c.01-.42.63-.71,1.24-.79l-.33-2.35c.8-.3,1.1-.55,1.56-1.21.36-.51,1.68.05,2.35.04l16.53-.02c1.01,0,2.23-.48,3.07-.01l-.17.7c-.03.12.21.35.34.31l.86-.28-.21,2.21c-.02.19-.03.64-.02.81,0,.22.64.11,1.16.1l.04,4.01-1.11.31c-.07.67,0,1.52.06,2.25.2,2.95-.02,5.78-.04,8.77l-.12,27.83,9.82.08.04-1.43.81.18c.23.05.45-.68.43-.93l-.23-3.59-.1-3.33,1.23-.09v-10.98c-.26.12-.91.24-1.02.01-.36-.71.02-2.09.02-2.92v-19.4s-.22-2.85-.22-2.85c1.27-.1,1.91-.72,2-2.01l2.84.21,14.87.02c1.11,0,2.45-.42,3.48-.12.81,1.97,2.34,1.5,2.29,3.24l-.19,7.88-.07,75.94h1.07c.22-.01.18.71.13.99-.56,3.54.27,6.03,0,9.94l-1.2.39v7.39s1.24.32,1.24.32l-.21,2.57c-.13,1.55-.11,3.19,0,4.77l.23,3.54-1.27.42.3,1.72c-.36.08-.91.07-.97.25l-.38,1.07-1.5-.29-.2,1c-.05.25-.72.15-1.02.16l-2.12.03-.39-1.06c-.09-.23-.89-.15-1.16-.11Z"/>
  <path d="M620.69,232.92l1.27-.18v3.1s1.26.12,1.26.12l-.35,1.78,1.31.18-.35,2.68,1.04.22c.25.05.21.75.18,1.02l-.28,2.15,1.34.15-.23,4-.12,3.05-1.3-.22c-.29-.05-.36.73-.48,1.17-1.09.25-2.5-.11-3.67-.12l-13.92-.02c-.84,0-1.92.56-2.57-.04l-.13-.83c-.08-.51-1.23.33-1.8-.08-.71-.52.21-1.72-.07-1.82l-.91-.33c-.42-.15-.26-1.05-.19-1.59l.14-.95c.03-.2-.8-.15-.98-.28-.7-.51.19-1.73-.02-2.82-.05-.25-.62-.29-1.01-.48-.51-.24.07-1.22.05-2.41,0-.25-.66-.29-1.07-.44-.51-.51.48-2.69.03-2.89-.24-.1-.6-.15-1.32-.27l.18-1.65c.03-.27.02-.74-.04-.93s-.68-.21-.94-.3c-.37-.13-.03-1.17.04-1.51l-1.06-.4c-.24-.09-.11-.88-.08-1.15l.27-2.86-.87.22c-.18.04-.47-.55-.44-.74l.27-1.7c.03-.22,0-.77-.2-.8l-1.01-.19.28-1.53-.99-.21c-.25-.05-.19-.76-.22-1.05l-.08-.75c-.02-.15-.49-.22-.57-.14-.22.4-.65.97-1.26,1.32v25.44c0,1.01.65,2.39,0,3.11l-1.03,1.07c-.43.44-1.64-.03-2.35-.04-3.94-.04-7.76-.04-11.62.08l-5.7.18-1.25-1.86c-.14-.21-.7-.35-1.09-.45v-113.55c0-.41-.29-1.25-.27-1.45l1.43-.26-.23-1.49s.11-.4.12-.44c.89-.09,1.62-.75,1.98-1.53l-.07-.42c.59.1.96.2,1.36.2h21.81s-.13-1.2-.13-1.2l2.11.17c1.55.12,3.19.12,4.75,0l2.33-.17-.03,1.23,3.02-.18,1.81-.12.43,1.23,1.25-.28c.28-.06.43.62.58,1.19l1.82-.2c.15.35.32,1.13.58,1.1l1.27-.12c.19-.02.05.79.24.82l1.08.19-.1,1.02c.81.62,1.87,1.35,2.71,2.13.48.44,1.11,1.37,1.59,1.73.17.13.94.05.92.25l-.1.93c-.03.27-.29,1.02-.06,1.09l1.14.33-.34,1.43,1.32.47-.29,1.51,1.48.46c-.17.97-.3,1.98-.25,2.65l.97.23c.66.16-.42,2.8.04,3.69l1,.29c.19.06.19.71.17.94l-.32,2.89c-.02.2.07.77.14.96s.53.17,1.05.23c.18,1.15-.14,2.54-.14,3.83l.06,18.34.18,6.7-1.31.47.26,3.76c.02.25.11.91-.09.93l-1.13.08.37,2.75-1.34.15.32,3.02c-.46.04-1.17.03-1.36.27s0,.93.03,1.3l.11,1.21c.03.3-.85.38-1.17.45l.22,2.01c-1,.03-1.95.91-2.1,1.59-.04.19.34.9.17.99l-.82.49c-1.08.64-1.64,1.53-1.11,2.79-.22.05-.94.05-1.23.04-.22.4-.35.92-1.14,1.13l-.03,3.51,1.09.39c.56.2-.58,1.96.19,2.81l1.16-.24-.31,1.89c.47.13,1.19.19,1.21.48.08,1.43-.59,2.37-.04,2.67.26.14,1.05.2,1.01.43l-.19,1.09c.02.09.08.43.08.4l.86.14c.2.03.2.58.18.8l-.25,2.15,1.3.4-.3,2.45c.53.13,1.25.39,1.21.79l-.3,2.57ZM598.98,192.25l1.14-.38v-33.21s-1.21-.14-1.21-.14c.15-.56.32-1.13.23-1.4s-.85-.34-1.13-.5c.03-.31.27-1.27.09-1.58-.29-.48-1.44-.24-1.98-.03l-.42-1.21h-5.41c-.32,0-.74.64-.74.99v40.27c0,.65.32,1.24.93,1.23l6.56-.03-.31-1.37c.46.11,1.06.25,1.33.1.17-.1.12-.77.31-.81l.79-.17-.19-1.77Z"/>
  <path d="M429.98,101.96h-6.27c-.38.02-1.23.28-1.63.21-.89-.16-2.03-.3-2.77-.14-.35.51-.6.84-1.27,1.12-.49,1.85.71,4.6-.11,5.87-.38.59-1.64-2.28-1.05,5.31.12,1.56.14,3.05.15,4.58l-1.19.37.21,1.55-.99.2c-.19.04-.17.52-.24,1.06-.73.01-1.73-.06-2.65-.15-3.37-.32-3.37.32-6.23.17l-.02-1.06c0-.21-.65-.15-.92-.15l-1.08.03c-.22,0-.11.63-.12,1.16-.75.02-1.79-.05-2.69-.17-.33-.04-1.08.15-1.39.15l-4.05.05-.08-1.29-1.88.3.31-2.13-1.51-.04v-5.01s1.46-.04,1.46-.04l-.09-4.78-.23-4.28,1.31-.07-.15-3.94-.18-3.9,1.29-.08-.15-3.94-.18-3.9,1.27-.08c-.02-1.51,0-2.99-.09-4.52l-.23-3.56,1.29-.07-.14-4.9-.18-3.91,1.27-.08-.1-4.04-.23-3.82,1.56-.03-.24-4.29-.09-2.86,1.26-.08c-.02-1.9-.05-3.73-.13-5.61l-.18-4.15,1.31-.07-.24-4.27-.1-2.62,1.3-.07-.23-3.56-.11-2.36,1.26-.08c-.02-1.9-.06-3.73-.13-5.61l-.17-4.39,1.27-.08-.09-3.58-.23-4.23,1.32-.22c.67-2.2-.63-3.69.16-5.98l.85-.17c.48-.1-.35-2.81-.12-3.85l1.29-.3-.37-2.7,1.11-.09c.26-.02.13-.75.16-1.19l1.6.29.2-.98c.05-.25.8-.28,1.07-.25,5.16.65,5.08-.19,10.02.02l.21.99c.05.24.71.2,1.01.13.93-.22,1.78-.04,2.72.01,1.79.09,3.59.07,5.24.06l-.21-.78c-.04-.13.46-.37.6-.37h2.79s3.76-.04,3.76-.04l.39,1.2,1.2-.28c.28-.06.51.61.74.86.13.14.72.21.74.41l.12,1.07,1.17.17c-.13.66-.32,1.88-.16,2.45.05.19.72.19.88.3.2.14.32.68.29.98l-.32,2.9c-.03.24.06.8.13.99s.52.17,1.09.24l-.15,2.64-.1,5.23,1.28.08-.23,3.8-.12,3.93,1.19.36c-.03,3.33-.32,6.04-.19,9.55l1.24.38-.2,2.61c-.1,1.3-.08,2.65-.08,4.07l1.44.27c.17,1.01-.76,6.35.08,7.03.11.09.74-.06.77.08.45,1.95-.44,4.4-.09,6.85l1.03.2c.25.05-.25,3.91-.1,5.53.02.2.72.18.86.32.65.63.14,1.94.13,2.78l-.07,9.95,1.24.22-.18,3.23-.1,6.71,1.23.33-.19,2.13c-.14,1.58-.08,3.74-.03,5.38,0,.2.72.2,1.04.17.51-.04.23.95.2,1.43-.09,1.6-.09,3.23-.07,4.66.36-.11.97-.18,1.04.02.16.49.01,1.63,0,2.22l-.11,4.72,1.27.07-.21,2.16c-.33,3.31.25,4.27.14,6.89-.73.1-1.2.27-1.13.53.12.47.29.99.18,1.2s-.61.39-.77.57l-.66.72c-.14.16-.68-.08-.9-.12l-.09,1.22c-2.62,0-5.12,0-7.75-.14-3.46-.19-6.87-.17-10.35-.03-.73.03-2.1.46-1.93-.76l.12-.88c.03-.19-.61-.13-1.09-.16-.36-3,.31-4.89.19-8.08l-1.27-.08.2-2.64c.13-1.71.08-3.45.09-5.23l-1.22-.37.27-1.81ZM428.96,79.68l.06-1.92-1.27-.07.21-3.56.09-7.4-1.25-.08.19-2.88c.16-2.36.15-4.77,0-7.13-.09-1.35-.15-2.49.08-3.87.04-.23.1-.93-.12-.93l-1.08-.02.17-3.16c.14-2.68.08-5.33.07-7.89l-1.24-.04c.05-.56.26-1.35.26-1.87l.05-7.91h-1.48c.02,1.41,0,2.69.09,4.07l.23,3.58-1.54.03.21,3.59c.13,2.17.07,4.28.09,6.44l-1.23.09.06,9.55.24,2.36-1.26.09.07,9.3.23,2.61-1.27.08.06,8.31c2,.11,3.59-.02,5.49-.11.78-.04,2.07.27,2.71.13.22-.67.46-.95,1.08-1.37Z"/>
  <path d="M419.29,232.06c-2.41-.03-4.35-.04-6.55.06-.66.03-1.37.18-2,0-.94-.27-1.47.07-2.12.66-.52.48-.84.89-.74,1.64l.32,2.33-1.29.39c.01,2,.06,3.88.13,5.84l.16,4.85-1.32.15.31,3.02-1.14-.02c-.26,0-.26.46-.29,1.19-.88.08-2.1-.15-3.14-.15h-14.11s-2.84.2-2.84.2c-.11-1.28-.7-1.91-2.03-2l.22-2.62c.08-.98.08-2.08,0-3.08l-.26-3.57,1.31-.07-.15-3.94-.18-3.9,1.27-.08-.1-4.04-.23-4.04,1.31-.07-.12-2.86-.21-3.96.96-.26c.79-.21-.2-6,.05-6.79.64-.05.96-.07,1.15-.13.79-.28-.13-9.52.05-10.81,2.43.46.48-6.11.98-7.93l1.19-.46c0-1.51-.04-3.22-.12-4.81l-.18-3.91,1.26-.08-.09-5.73-.19-3.21,1.26-.22-.12-2.1-.21-3.48.96-.26c.48-.13.26-3.24.21-3.89l-.22-2.9,1.51-.04-.09-5.98-.2-4.17,1.3-.21-.24-4.48-.09-3.06,1.26-.22-.18-2.99-.13-1.86,1.3-.09-.32-2.1c-.03-.22-.03-.88.15-.95l1.08-.35-.28-1.48c.84-.2,1.1-.5,1.35-1.33l1.69.26.27-1.19,2.71.15,4.29-.21.09,1.26,18.43-.03c1.29,0,2.62-.54,3.81-.03-.04.33-.24.77-.08.81l.9.27c.31.09.04.88-.14,1.49l1.29.28-.2,2.27c-.02.25-.09.63.06.65l.93.14c.54,1.66-.35,3.56-.09,5.82l1.24.4-.19,2.83-.13,3.66,1.2.37c0,3.21-.32,5.64-.2,9.16l1.25-.25c.33,1.33.14,2.55.04,3.88-.11,1.66-.08,3.27-.09,4.96l1.24.38-.19,2.34c-.08.99-.21,4.67.09,5.2.12.21.57.25,1.07.39l-.2,3.03-.09,2.53,1.23.4-.19,2.34-.09,5.71,1.28.08-.22,2.88c-.09,1.19-.08,2.56-.07,3.7,1.89-.12,1.09,2.73,1.03,3.94-.11,2.49-.08,4.88-.06,7.34l1.41-.05c0,3.66-.4,6.18-.23,9.94l1.19.19c.25.04-.2.95-.2,1.24l-.04,6.76.63-.2c.17-.06.63.31.61.51l-.21,2.11-.09,4.54,1.23.1c-.18,1.88-.27,3.77-.26,5.65,2.39-.06.59,2.06,1.06,5.76.1.82.17,1.82.13,2.42l-1.08.25c-.19.04.04.65.06.84l.09.99c.02.21-.7.1-1.14.16-.09.28.06,1.05.25,1.87l-17.57.05c-.82,0-1.76.27-2.51.19l-.25-1.23-.78.29c-.18.06-.65-.15-.6-.32l.25-.83-1.05-.07c-.21-.01-.11-.65-.06-.91.26-1.15-.01-2.23.05-3.38l.15-2.85-.84.19c-.23.05-.45-.67-.43-.95l.24-3.81c.09-1.48.05-2.99.03-4.36h-1.07c-.38,0,.53-1.87-.47-1.88ZM418.94,211.13c.29-1.22.31-2.42.05-3.26-.38-.06-.99-.02-1.02-.23-.02-.15-.06-.63-.05-.83l.2-3.58.09-6.46-1.47-.04.15-6.57c.07-3.17.11-6.26.12-9.45l-1.27-.08.23-3.8.09-5-1.26-.08.2-2.67c.18-2.4.08-5.35.04-7.69,0-.23-.6-.79-.77-.66-1.6,1.34.33,4.93-.53,5.01l-1.07.09.07,7.41.23,4.51-1.28.08c.02,1.98.04,3.89.13,5.85l.18,3.93-1.5.04.08,9.58.2,3.61c.01.25.04.92-.18.92h-1.04s-.03,8.46-.03,8.46c0,.39.55.95.93.95l8.47-.04Z"/>
  <path d="M227.77,109.09c-.76-2.79,1.75-5.23-1.65-7.12h-8.7s-2.5,2.42-2.5,2.42c-.19,4.3.34,7.26.24,11.41l-1.09.38c-.23.08-.14.9-.11,1.16l.29,3.5-1.02.22c-.24.05-.21.68-.31,1.11l-1.75-.29-.25,1.18-3.89.04-.09-1.22-10.52.09-4.55.16-.11-.97c-.02-.2-.56-.18-1.08-.24.07-3.19.39-4.46.16-8.15l-.24-3.81,1.3-.07-.14-4.66-.17-4.14,1.27-.08-.09-3.58-.24-4.51,1.3-.07-.11-3.08-.23-3.82,1.51-.04-.08-6.48-.23-4.51,1.28-.08-.09-4.29-.21-3.6c0-.17.04-.67.07-.83.04-.21.54-.11,1.19-.09l-.19-4.34-.1-2.62,1.25-.08c-.01-2.22-.04-4.37-.13-6.57l-.18-4.39,1.29-.08-.11-2.84-.23-4.04,1.29-.07c-.02-1.11-.02-2.2-.1-3.29l-.21-2.65,1.51-.03c.14-3.58-.31-5.63-.25-9.01l1.19-.46c0-1.3.02-2.76-.08-4.23s-.85-4.9,1.06-4.63l-.2-3.04c-.06-.88-.07-1.87-.05-2.62l1.05-.03c.53-.01-.39-3.32-.1-3.95l.99-.24c.38-.09.05-.66-.02-1.66-.01-.21.59-.11,1.15-.13l-.23-1.42,1.38.26.12-1.27,3.32.24h22.29c1.05,0,2.27-.33,3.16-.15l.03,1.03c.01.52,1.52-.45,2.3.15l-.18,1.15.84-.15c.21-.04.32.68.3.92l-.18,2.13,1.07.02c.62.01-1.2,6.37.77,5.89.62.62.14,1.9.13,2.73l-.07,3.99,1.13.31c.23.67-.68,10.33.26,10.1l1.04-.26-.15,2.49c-.15,2.51-.09,5.03-.1,7.52,2.39-.13.48,3.9,1,5.97l1.21.5-.21,3.46c-.06,1.01-.07,2.09-.08,3.04l1.26.39-.2,3.08-.11,3.78,1.29.08-.23,3.56c-.09,1.44-.07,2.85-.09,4.28l1.27.09c-.04.65-.24,1.45-.25,2.14l-.04,9.03c0,.18.22.82.4.78l1.07-.26-.19,3.86-.09,6.44,1.28.08-.23,3.8-.09,3.77,1.25.22-.2,2.76c-.08,1.11-.07,2.33-.05,3.33l1.05.02c.21,0,.14.67.12.95l-.28,3.71.98.28c.23.07.31.78.27,1.07-.68,4.31.26,4.36-.03,8.13l-1.03.03c-.56.01.49,2.42,0,2.93l-.91.07c-.19.01-.04.56.07,1.05l-3.15-.17h-14.11s-2.87.21-2.87.21l-.07-1.25-1.28.26c-.13-.76-.36-.94-.98-1.21-.27-.79.07-1.91.08-2.94l.04-7.76c-.03-.18-.69-.2-1.06-.17ZM225.74,81.08c.23-.49.47-1.09.47-1.39v-6.02s-1.27-.07-1.27-.07l.22-4.04.09-5.74-1.5-.04.18-4.66.12-10.39-1.27-.08.22-4.04.09-5.96-1.28-.08.26-3.59c.02-.3.36-5.12-.75-4.31-.94.69-.7,2.27-.58,4.06l.26,3.84-1.28.08c.01,2.62,0,5.17.12,7.76l.19,4.16-1.27.08c.01,2.06.06,4.05.13,6.09l.16,4.89-1.49.04c.01,2.57.03,5.02.12,7.55l.16,4.33-1.24.36v6.42c.01.37.87.76,1.2.76h7.95Z"/>
  <path d="M623.18,70.96l-2.14.05-.08,1.22c-3.87.06-2.74-.64-6.9-.03-.22.03-.84,0-1.04-.03-.25-.05-.27-.6-.38-1.14l-6.12-.06-2.22,2.23c-.15.15-.16.83-.36.84l-1.18.06v19.72s1.26-.01,1.26-.01c.21,0,.23.6.33.78l.76,1.36,1.68-.28.08,1.27,3.98-.13,3.82-.19.36,1.24,2.47.04.44-1.27,3.33.22c.75.05,1.77-.2,2.74-.25.03,1.22.82,1.73,1.94,2.14.08.47-.01,1.13-.16,1.93l1.25.12-.18,4.16c-.13,3.06-.18,6.12-.03,9.24l.18,3.93-1.21.23c.14.46.29,1.31.05,1.63-.74.41-1.44,1.06-1.96,1.65-.93,1.05-2.47.27-3.64.27l-18.67.04c-1.27,0-2.49.24-3.78.16l.03-1.13-2.65-.09-.28,1.27-3.68-.2c-1.93-.11-3.82-.1-5.78-.02-1.06.04-2.51.39-3.42.09-.5-.73-1.28-1.24-1.71-1.95l-.53-.87c-.15-.24-.88-.21-1.25-.24.09-.49.24-1.05.23-1.7l-.12-94.78-.1-17.15c0-.27.74-.57.97-.48.15.06.47.14.44.05l-.18-.53c-.12-.35-.13-1.27.18-1.5.69-.49,1.55-1.35,2.14-1.88,1.27-.83,2.96-.09,4.37-.09h34.02c1.18,0,2.36-.43,3.37-.14.05.46.04.97.24,1l1.01.2-.35,1.7,1.3.43-.19,3.54c-.16,2.89-.16,5.75,0,8.64l.19,3.53-1.21.4c.12.41.3,1.36.1,1.71-.79.47-1.68,1.35-2.16,2.16-.37.19-1.28.02-1.73-.11l-.23,1.19c-3.38.02-4.24-.49-7.98-.18-.98.08-2.1.17-2.87.13-.06-.54-.23-1.18-.5-1.18l-2.5.06-.22,1.04c-.07.33-1.05-.04-2.16-.11-.29-.02-.44.61-.67,1.05l-1.25.22.29,2.79c.02.19.01.65,0,.8-.02.2-.69.19-.92.29-.38.75-.32,1.86-.07,2.84.1.4-.14,1.21-.15,1.64l-.07,6.4,1.28.08-.13,1.88c-.06.83-.2,2.06-.13,2.74,1.99.42,1.8,2.32,3.32,2.31l13.96-.03c.92,0,2.08-.37,2.86-.16.02.45-.07,1.09.13,1.1l1.07.09c-.16,1.19-.31,2.73-.19,3.79l1.02.29c.48.14-.27,1.01.06,2.82.04.22.09,1.07-.12,1.07l-1,.02-.03,5.56,1.22.38-.03,2.96-1.22.51c.19.87.37,1.97.16,2.52-.09.23-1.14.11-1.1.36l.28,1.72Z"/>
  <path d="M369.94,202.28h-3.57c-.16,0-.67-.09-.66-.23l.06-.92c-.12-.11-.93-.31-1.31-.31l-8.46.03.04,1.26c0,.21-.73.16-.89.29l-2.23,2.03.07,14.85c0,1.46.34,2.88-.06,4.36-.06.22-.1.91.12.93l1.04.06-.2,1.3.77.19c.19.05.19.51.28.91l2.09-.21c.21-.02.63-.05.8-.06.21-.01.11.67.09,1.18l8.87.02.09-1.24,2.86.13,3.96-.11c.21.53.42,1.22.76,1.2l1.47-.11.05,1.37c.01.36.69.54,1.1.81.26.75-.12,1.9-.11,2.77l.03,11.91c0,1.03.32,2.31.05,3.17l-.98.29c-.23.07-.01.75.03,1l.13.75c-.02-.14-1.68.37-2.48,2.11-.99.49-2.57.03-3.76-.02-4.96-.17-7.24.26-11.98.23l-.1-1.23h-17.62s-.35,1.19-.35,1.19l-6.81-.02-.61-1.17-1.58.25-.28-.93c-.07-.23-.56-.26-1.06-.38l.35-1.7-1.25-.29c-.06-.47.22-1.22.22-1.86v-107.12c0-1.19-.56-2.18-.03-3.13l.68.11c.78.13-.29-2.14.14-3.07,1.13-.44,1.89-.79,1.9-2.18l2.01.3.24-1.16h2.59s3.47-.04,3.47-.04l.1,1.21h32.03c.43-.01,1.37-.46,1.6-.16l.95,1.26c.11.15.15.85.32.8l1.03-.25.06,15.8c0,.6.15,1.17,0,1.72l-1.03-.22c.35,3.16-2,1.93-2.26,4.34l-2.1-.18c-1.19-.1-2.47-.08-3.65-.06l.03.8c0,.15-.54.37-.72.37h-4.46s-.35-1.19-.35-1.19h-4.18s-.38,1.23-.38,1.23l-1.69-.24c-.88-.12-2.29,1.07-2.29,2.11v17.16s2.2,2.19,2.2,2.19c.15.15.87.07.89.26l.11,1.04c.33.32,1.47.29,1.84.18l-.23-.98c-.04-.18.58-.38.8-.38l5.39-.02.07,1.48,3.52-.09c.3,0,.21-.84.03-1.37.75,0,1.77.05,2.65.16l-.26,1.31,2.69-.34.31.83c.08.21.56.29.95.48.3.15.02.89-.17,1.55l1.33.13-.25,3.07c-.12,1.48-.01,2.96.08,4.44.18,2.85.1,5.61.13,8.6l-1.18.51.19,1.44c.04.29-.73.36-1.24.45l.33,1.58-3.15.04-.04,1.43Z"/>
  <path d="M113.83,69.18l.29,1.8-17.05.02c-.09.5-.14,1.2-.38,1.17l-1.08-.14c-.22-.03-.69.34-.64.56l.26,1.16-1.26.26c-.01,3.12-.08,6.21.1,9.34.16,2.69.17,5.3.08,8.02-.03,1-.49,2.21.03,3.15l1.4,1.48c.56.59,1.08,1.12,1.98.9,1.41-.36,2.71-.14,4.12-.08,3.35.14,6.67.16,10.02,0l3.15-.15.37,1.28,2-.36-.26,3.38c-.02.19.05.7.07.86.04.21.58.11,1.18.1l-.15,3.17c-.16,3.27-.2,6.51,0,9.78l.19,3.1-1.29.39.31,1.82-1.4-.24-.1,1.08c-.06.62-1.91-.64-2.46.15-.24.34-.53.68-.75.75-.34.11-.71-.37-.8-1.01l-37.17.02c-.98,0-1.95.31-2.87.23-.07-1.25-.76-1.91-1.97-1.99-.17-1.03.23-2.03.23-3.14l-.13-69.17-.11-36.77,1.25-.12-.12-2.12-.22-3.78,1.26-.38-.27-1.76,1-.2c.19-.04.18-.58.23-.99.92-.32,2.06.12,3.16.12h36.15c1.02,0,2.08-.34,2.89-.19-.04.53-.1.71.01.81l.61.48c.14.11.09.88.27.84l1.03-.26.14,9.99c.03,2.44.13,4.85.14,7.29l-1.5.1.34,2.94-1.02.22c-.24.05-.23.72-.31,1.1l-2.49-.31c-.11.49-.1,1.03-.33,1.15s-.91.14-1.21.08c-2.72-.47-5.57.26-8.81.03l-.39-1.23-3.54.07c-.12.45-.14,1.16-.39,1.15-1.9-.09-1.46-.41-2.37-.05-.3.12-.23.87-.07,1.37.07.24-.51.37-1.05.45-.26.83-.16,2,.05,3.07.13.64-.17,1.53-.17,2.2l-.04,12.67h1.08c.5,0-.39,1.1.06,1.8.12.18.6.27.81.23l.8-.13c.2-.03.09.72.1,1.16l2.86.04.08-1.07c.02-.21.67-.19.91-.16l1.21.12c.25.02.22.76.3,1.11,2.5,0,5.02-.01,7.5-.11l4.1-.17.25.95c.05.18.69.2.9.32.48.54-.11,1.05-.08,2.67,0,.25.65.29,1.13.42.09.88-.02,2.09-.1,3.13-.34,4.33.37,7.26.17,11.68l-1.17.4.2,1.43c.04.29-.72.34-1.24.49Z"/>
  <path d="M557.09,200.7c.02.18-.84.13-1.03.16-.24.03.03.63.17,1.17l-17.06.02c-.08.57-.13.93-.23,1.1-.24.41-1.15-.41-1.85.03-.18.12-.27.6-.23.82l.13.8c.03.21-.73.09-1.17.08l.07,12.87c0,1.58.44,3.35.04,4.91s.03,3.61,1.33,4.26c.13.07.88-.3.88-.16l.04,1.19,17.03-.04,2.85-.22c.1,1.27.72,1.91,2.01,2l-.19,2.6c-.41,5.46.31,11.56.11,16.74l-.96-.05c-.21-.01-.06.71-.04.91l.1.95c.02.2-.75.12-.85.29-.15.25-.21,1.12-.49,1.08l-1.47-.22-.1,1.17h-2.29s-.25-1.2-.25-1.2h-39.97c.25-.75.35-1.81-.05-1.78l-.98.07c-.47.03.45-1.55.03-1.41l-.7.23c-.85-.92-.17-2.19-.17-3.39l-.08-42.27-.17-7.32,1.25-.1-.15-26.44c-.02-3.08-.02-5.89,0-8.97l.09-23.54c0-1.02-.28-2.05-.17-3.02l1.33-.21c.69-2.46,1.28-.72,1.96-2.95,1.08-.22,2.45.06,3.64.1,3.16.09,6.22.1,9.35-.02,1.09-.04,2.13-.21,3.19-.08l.29,1.09,15.35.02.24-1.22,8.29.06-.08.98c-.04.54,1.62-.41,1.76.09.11.39.14.83.32.89l.92.31c.03.16-.21,1.01-.21,1.37l.03,13.36c0,1.43.21,2.83.17,4.18l-1.3.29.35,2.02-1.52-.22c-.31-.05-.53.78-.73,1.19-5.91.13-11.06-.51-16.95-.17l.18.91c.04.17-.36.22-.65.19l-1-.11c-.26-.03-.69.47-.65.73l.17.98c.03.2-.73.09-1.19.09v17.04s.83-.19.83-.19c.23-.05.38.67.38.91v.86c0,.21.57.11,1.17.14l-.28,1.42c3.23.01,6.51.08,9.78-.1,2.05-.12,4.02-.14,6.04-.15l.37,1.16,1.93-.19c.29.73.46.91.97,1.25.33.22.07,1.05-.04,1.67l1.02.07c.34.89,0,2.2-.02,3.29-.09,3.7-.25,7.31,0,11l.2,2.84-1.23.41.18,1.44Z"/>
  <path d="M640.69,250.04c-.02-.35.17-1.38.17-1.97l.06-11.21,1.57-.05.33-1.09c.07-.23.81,0,1.05.06l.5.1c.1.02.13-.3.18-.44l.24-.65c.07-.19.66-.11.89-.08l1.88.23.21-1.02c.13-.65,2.15.34,2.65-.01l.24-.95c.19-.75,2.53.52,2.93-.16.19-.31.43-1.05.72-1.02l2.44.32-.25-1.52,3.34.32.13-1.31,2.74.36.14-1.3,2.98.34.15-1.3,2.73.3.11-1.12c.05-.55,2.44.67,2.96-.12l.17-.84c.11-.55,1.98.57,2.73-.05l-.12-.89c-.02-.17.56-.31.75-.29l2.51.21.14-1.23,2.76-.12c-.65-.64-1.18-.66-1.88-.65l-4.23.04c-.22,0-.84.21-.79.38l.21.79h-2.34s-.1-1.2-.1-1.2h-20.5s-.33,1.22-.33,1.22c-2.44.17-4.45-.37-6.27-.07-.25.04-.77.04-.81-.16l-.2-1c-.39.13-1.41.44-1.54.07l-.33-.91c-.08-.21-.53,0-.97.12l.22-3.58c.26-4.21-.23-6.96-.17-11.49,0-.2.7-.28.75-.45l.33-1.06,1.71.21.37-1.01c.09-.24.9-.19,1.21-.14,2.2.33,4.6.31,6.8-.03l.39,1.12c.08.23.91.14,1.16.1,3.13-.47,3.24,0,6.28,0l57.14-.07c2.2,0,4.13-.07,6.35-.05l21.05.11c.43,0,1.29-.26,1.46-.23l.25.98c.06.24.72.23,1.09.3-.17,1.24-.35,2.45-.16,3.67.15.94.04,1.83.04,2.75s.12,1.82-.04,2.74c-.2,1.16-.07,2.29.2,3.55l-.42.49c-.41-.02-.82-.08-.83.07l-.03,1.11-1.58-.36-.13,1.36-2.41-.34c-.27-.04-.78.27-.82.52l-.11.57c-.12.62-2.3-.69-2.63.17-.66,1.73-.03.62-3.95.68-.11,0-.25.49-.25.6l.03.39c0,.13-.52.29-.66.27l-1.65-.26c-.14-.02-.62.05-.63.19l-.02.62c0,.1.28.52.19.53-1.99.24-1.44-.46-3.15-.08-.13.35-.15,1.14-.41,1.12l-1.16-.11-1.12-.1c-.29-.03-.34.76-.49,1.21l-2.94-.35-.21,1.26-3.48-.29c-.15-.01-.11.46-.05.63.09.22-.42.73-.66.69l-2.39-.33c-.1-.01-.31.4-.31.49v.62c0,.16-.49.15-.67.12l-2.16-.29-.06,1.55-2.35-.33c-.15-.02-.61.14-.63.28l-.16.95-2.57.02c-.08-.1-.09.06-.03.7l21.2.02.51-1.21h14.98s.38,1.08.38,1.08l1.49-.11c.78,2.19,2.69,1.56,2.28,3.59-.34,1.65-.14,3.19-.14,4.79s-.16,3.06.04,4.64c.12,1,.12,2.23.11,3.21l-.98.2c-.19.04-.18.54-.21.99-1.48.33-2.93-.15-4.61-.15h-97.09c-.81,0-1.7.35-2.22.18l-.03-1.02c0-.16-.35-.1-1.16-.13Z"/>
  <path d="M487.06,250.86l-.96.27c-.19.05-.17.53-.23,1-.88.23-2.06-.14-3.09-.14h-16.07c-.93,0-2.14.4-2.86.11l-.25-1c-.04-.17-.47.02-1.02.15l.28-2.99-1.21-.46v-8.73s1.23-.39,1.23-.39l-.18-3.08c-.31-5.2.04-10.22.05-15.49l.13-60.05-.85.18c-.81.17.05-2.13-.16-2.6-.26-.57-1.15-1.35-1.71-1.69l-11.93.04-2.59.21c-.1-1.28-.73-1.92-2.01-2l.19-1.7c.04-.35-.57-.65-1.11-.74-.23-4.93.47-8.37.16-13.35l-.22-3.59,1.2-.34c-.06-.37-.16-1.13-.15-1.49,0-.19.84-.09.9-.27l.37-1.02c.86-.13,2.04.2,3.04.2l32.95-.09,20.04-.12c1.2,0,.87.9,2.42,1.88.81.51.89,1.1.42,2.13l1.24.4c0,2.35.06,4.85-.11,7.24-.14,1.89-.18,3.73-.05,5.61l.19,2.99-1.24.25.29,1.72c-.38.09-.87.1-.93.27l-.33.93c-.33.43-2.75-.51-2.88-.06l-.31,1.12c-4.04.16-6.92-.32-10.85-.27l-.18.79c-.04.19-.53.2-.92.29l.28,1.71-1.21.28v80.59s1.21.42,1.21.42c.23,3.76-.63,4.29-.03,7.81.04.24.11.96-.08,1.02l-1.11.34.23,1.66Z"/>
  <path d="M233.14,251.24c-.88.03-2.06-.17-3.13-.17h-15.07c-.95,0-2.16.22-3.02.17-.14-.32-.2-.79-.39-.84l-.97-.24.29-1.26-1.23-.11c-.08-1.18.25-2.34.24-3.59l-.1-44.03-.11-37.3.85-.22c.12-.03.12-.44,0-.49s-.72-.16-.75-.28c-.46-1.59.38-3.28.12-5.4l-2.54-2.47c-3.06-.02-6.06-.03-9.1.09l-4.64.18-.09-1.29-1.95.26.33-1.14c.06-.22-.61-.29-.99-.36-.56-.82-.02-2.05-.02-3.06v-13.67s-.23-3.3-.23-3.3c1.28-.07,1.92-.75,2-1.98,1.02-.11,2.04.23,3.12.23l47.86.02.33-1.19h2.58c.15,0,.56.27.53.4l-.22.85,2.33-.31c.19-.03.86.04.87.2l.06.81c.26.09,1.05.14,1.03.38l-.12,1.13-.11,1.16c-.02.25.83.2,1.14.33.12.94-.08,2.21-.11,3.23-.12,3.46-.2,6.83,0,10.28l.16,2.74-1.2.26.22,1.56c-.48.04-1.22-.06-1.18.14l.27,1.32c-1.4,0-2.95-.04-4.46-.13-2.83-.17-5.63-.11-8.48-.12l-.12,1.26-1.24-.31c-.13.78-.4,1.02-1.1,1.27l.33,1.51-1.27.29v78.48s1.21.42,1.21.42c.18,4.23-.67,6.51,0,10.83l-1.28.48c.27.69.48,1.76.04,1.86-.19.04-.61.06-.76.07s-.07.35.05,1.04Z"/>
  <path d="M279.13,122.09c-3.85-.49-3.67.12-7.23.04l-.6-1.2-.6,1.18c-1.51-.32-3.05-.17-4.68-.07-1.99.13-4.2.08-6.15.06-.21-.38-.42-1.22-.74-1.18l-1.47.21.24-1.79-1.22-.41c-.18-1.27.21-2.46.21-3.83V7.69c0-1.23-.43-2.53-.18-3.53l.99-.41c.21-.09.01-.69-.01-.95l-.07-.76c-.01-.15.49-.18.71-.24.26-.07.48-.67.62-1.09.83-.16,2.02.16,3.08.16l17.15.02c.3,0,.79-.17.92-.21.17-.05-.1.57-.1.75l-.04,1.04c0,.21.7.1,1.12.1.28,1.13-.15,2.35-.15,3.65v51.27c0,1.21.49,2.34.06,3.46l-1.04.3v14.73s1.24.1,1.24.1l-.25,2.88v38.06c0,1.07.3,2.08.23,3.13-1.2-.05-1.8.72-2.04,1.92Z"/>
  <path d="M744.96,198.92h-101.54c-.45,0-1.43.45-1.61.07-.07-.15-.06-.59-.06-.75,0-.2-.51-.22-1.06-.29l.07-3.59.06-3.38.11-4.08-1.24.29.04-2.41.96.13c.64.09-.39-2.14.12-3.1.07-.14.61-.02.77-.04.2-.02.23-.58.28-.99,1.1-.37,2.32.13,3.65.13h94.71c1.59,0,3.28-.54,4.6-.09l.39,1.04c.08.21.88-.27,1.13-.24.9.09.47,1.33.46,1.98-.09,3.99-.33,7.87.05,11.78l.21,2.18-.41.46-.72-.06c-.1,0-.15.31-.15.43v.66c0,.15-.38-.04-.83-.13Z"/>
  <path class="st0" d="M748.32,155.84v98.4"/>
  <path class="st0" d="M748.32,118.04v24.72"/>
  <path class="st0" d="M748.32,28.88v23.76"/>
  <path class="st0" d="M748.32,66.44v11.64"/>
  <path class="st0" d="M748.32,80.72v14.76"/>
  <path class="st0" d="M748.08.32c.08,1,.16,2,.24,3"/>
  <path class="st0" d="M485.88,14c.12.83-.54,1.03-1.08,1.32"/>
  <path class="st0" d="M650.28,115.52c-.29-.54-.49-1.2-1.32-1.08"/>
  <path class="st0" d="M232.8,249.08c.51.32,1.2.48,1.08,1.32"/>
  <path class="st0" d="M643.32,197.84c-.32.51-.48,1.2-1.32,1.08"/>
  <path class="st0" d="M238.92,4.16c-.07.62-.37,1.08-.96,1.32"/>
  <path class="st0" d="M453.96,96.08c.12.76-.5.98-.96,1.32"/>
  <path class="st0" d="M692.04,40.28l1.08.72"/>
  <path class="st0" d="M642,116.12c.36.32.72.64,1.08.96"/>
  <path class="st0" d="M665.4,67.28c.28.28.56.56.84.84"/>
  <path class="st0" d="M250.8,132.86c-.32.14-.64.28-.96.42"/>
  <path class="st0" d="M348.48,14.24c-.32-.14-.64-.28-.96-.42"/>
  <path class="st0" d="M663.66,110.48c.14.32.28.64.42.96"/>
  <path class="st0" d="M654.78,232.64c.14.32.28.64.42.96"/>
  <path class="st0" d="M444.48,133.82c.32.14.64.28.96.42"/>
  <path class="st0" d="M620.64,230.78c-.32.14-.64.28-.96.42"/>
  <path class="st0" d="M484.8,11.9c-.32.14-.64.28-.96.42"/>
  <path class="st0" d="M552.72,82.94c-.32.14-.64.28-.96.42"/>
  <path class="st0" d="M258.48,2.78c.32.14.64.28.96.42"/>
  <path class="st0" d="M368.64,32.78c-.32.14-.64.28-.96.42"/>
  <path class="st0" d="M723.9,25.76c.14.32.28.64.42.96"/>
  <path class="st0" d="M482.64,5.9c-.32.14-.64.28-.96.42"/>
  <path class="st0" d="M159.84,34.94c-.32.14-.64.28-.96.42"/>
  <path class="st0" d="M299.58,4.64c.18.32.36.64.54.96"/>
  <path class="st0" d="M149.76,4.7c-.32.18-.64.36-.96.54"/>
  <path class="st0" d="M313.44,93.74c.32.18.64.36.96.54"/>
  <path class="st0" d="M385.68,61.58c-.32.18-.64.36-.96.54"/>
  <path class="st0" d="M618.72,140.54c-.32.18-.64.36-.96.54"/>
  <path class="st0" d="M330.72,61.58c-.32.18-.64.36-.96.54"/>
  <path class="st0" d="M371.76,39.5c-.32.18-.64.36-.96.54"/>
  <path class="st0" d="M72.48,2.78c.32.18.64.36.96.54"/>
  <path class="st0" d="M672.78,226.64c.18.32.36.64.54.96"/>
  <path class="st0" d="M322.8,50.54c-.32.18-.64.36-.96.54"/>
  <path class="st0" d="M558.72,133.82c-.32.18-.64.36-.96.54"/>
  <path class="st0" d="M746.64,207.74c-.32.18-.64.36-.96.54"/>
  <path class="st0" d="M388.8,66.62c-.32.18-.64.36-.96.54"/>
  <path class="st0" d="M376.8,47.66c-.32.18-.64.36-.96.54"/>
  <path class="st0" d="M663.84,79.58c-.28.18-.56.36-.84.54"/>
  <path class="st0" d="M57.84,102.86c-.28.18-.56.36-.84.54"/>
  <path class="st0" d="M643.5,236.48c.18.28.36.56.54.84"/>
  <path class="st0" d="M53.76,91.58c-.28.18-.56.36-.84.54"/>
  <path class="st0" d="M333.84,66.62c-.28.18-.56.36-.84.54"/>
  <path class="st0" d="M660.78,230.48c.18.28.36.56.54.84"/>
  <path class="st0" d="M331.68,63.5c-.28.18-.56.36-.84.54"/>
  <path class="st0" d="M663.66,229.52c.18.28.36.56.54.84"/>
  <path class="st0" d="M666.78,228.56c.18.28.36.56.54.84"/>
  <path class="st0" d="M442.8,219.74c-.28.18-.56.36-.84.54"/>
  <path class="st0" d="M388.8,5.66c-.28.18-.56.36-.84.54"/>
  <path class="st0" d="M669.66,227.6c.18.28.36.56.54.84"/>
  <path class="st0" d="M567.36,135.74c.28.18.56.36.84.54"/>
  <path class="st0" d="M623.76,49.82c-.28.18-.56.36-.84.54"/>
  <path class="st0" d="M282.72,132.86c-.28.18-.56.36-.84.54"/>
  <path class="st0" d="M58.8,19.82c-.28.18-.56.36-.84.54"/>
  <path class="st0" d="M316.8,41.66c-.28.18-.56.36-.84.54"/>
  <path class="st0" d="M155.76,22.94c-.28.18-.56.36-.84.54"/>
  <path class="st0" d="M531.36,23.9c.28.18.56.36.84.54"/>
  <path class="st0" d="M156.72,25.82c-.28.18-.56.36-.84.54"/>
  <path class="st0" d="M492.72,36.86c-.28.18-.56.36-.84.54"/>
  <path class="st0" d="M375.96,150.32c-.32-.44-.64-.88-.96-1.32"/>
  <path class="st0" d="M659.58,111.5l.54.54"/>
</svg>