<?xml version="1.0" encoding="UTF-8"?>
<svg id="Ebene_1" xmlns="http://www.w3.org/2000/svg" xmlns:rdf="http://www.w3.org/1999/02/22-rdf-syntax-ns#" xmlns:dc="http://purl.org/dc/elements/1.1/" xmlns:cc="http://creativecommons.org/ns#" version="1.1" viewBox="0 0 280.06 280.06">
  <!-- Generator: Adobe Illustrator 30.1.0, SVG Export Plug-In . SVG Version: 2.1.1 Build 136)  -->
  <defs>
    <style>
      .st0 {
        fill: #ff1400;
      }
    </style>
  </defs>
  <path class="st0" d="M-.43,94.15h280.11V.64H-.43v93.5ZM12.96,110.28h-3.66v5.73h3.66c2.35,0,3.86-.74,3.86-2.92,0-2.03-1.47-2.81-3.86-2.81M17.45,128.83l-.81-5.14c-.45-2.86-1.19-3.26-4.23-3.26h-3.09v8.4H-.42v-23.08h16.6c6.34,0,10.29,2.03,10.29,6.77,0,3.35-2.42,4.92-5.33,5.3,3.23.28,4.48,1.82,4.78,3.75l.99,5.23c.24,1.14.35,1.96.41,2.01h-9.87,0ZM44.4,110.26c-3.22,0-5.61,2.18-5.61,7.05s2.07,7.03,5.57,7.03,5.59-2.11,5.59-7.03-2.32-7.05-5.55-7.05M44.4,129.45c-11.66,0-15.61-4.99-15.61-12.15,0-9.22,7.26-12.15,15.61-12.15,11.41,0,15.61,5.07,15.61,12.15,0,9.02-7.37,12.15-15.61,12.15M75.55,129.45c-11.89,0-13.94-3.65-13.94-7.87h9.94c.22,2.33,1.26,3.59,4,3.59,2.03,0,4.01-.42,4.01-2.38,0-1.74-2.91-2.29-4.15-2.61l-6.32-1.61c-3.72-.95-7.12-1.91-7.12-6.01,0-4.48,4.88-7.41,13.65-7.41,9.73,0,13,2.58,13.43,7.41h-9.64c-.21-2.39-1.54-3.13-3.83-3.13-2.07,0-3.49.67-3.49,2.08,0,1.55,1.46,1.87,3.79,2.42,0,0,4.09.91,6.2,1.45,3.9,1.01,7.69,2,7.69,6.53s-3.58,7.54-14.22,7.54M106.9,111.61l-3.86,8.34h7.57l-3.72-8.34ZM114.6,128.83l-1.74-3.83h-12l-1.82,3.83h-9.63l11.9-23.08h12.23l11.87,23.08h-10.81ZM-.39,163.54v-23.1h9.82v17.77h10.89v5.33H-.39ZM35.87,164.15c-7.73,0-13.94-1.66-13.94-10.21v-13.49h9.51v12.67c0,4.4,1.34,5.86,4.42,5.86,2.86,0,4.54-1.46,4.54-5.86v-12.67h9.37v13.49c0,8.16-6.35,10.21-13.91,10.21M73.95,163.54l-5.39-8.02-5.61,8.02h-11.9l10.22-11.86-9.66-11.24h12.53l5,7.55,5.02-7.55h11.97l-9.81,11.24,10.36,11.86h-12.74,0ZM88.33,163.54v-23.1h22.36v4.79h-12.69v4.32h11.86v4.74h-11.86v4.43h12.81v4.82h-22.48ZM144.73,163.54v-18.24l-6.23,18.24h-9.64l-6.21-18.24v18.24h-8.32v-23.1h14.87l4.89,15.7,4.9-15.7h14.85v23.1h-9.12,0ZM170.66,153.73h-2.88v5.67h2.88c3.4,0,4.61-1.03,4.61-2.94s-1.21-2.73-4.61-2.73M170.66,144.59h-2.85v5.08h2.85c2.85,0,3.79-.84,3.79-2.52,0-1.58-.71-2.56-3.79-2.56M175.27,163.54h-17.15v-23.1h15.91c7.08,0,10.07,2.11,10.07,6.01,0,3.55-2.39,4.6-5.47,5.34,3.08.35,6.46,1.55,6.46,5.37,0,5.37-5.4,6.37-9.82,6.37M201.64,164.15c-7.7,0-13.91-1.66-13.91-10.21v-13.49h9.49v12.67c0,4.4,1.36,5.86,4.42,5.86,2.89,0,4.56-1.46,4.56-5.86v-12.67h9.37v13.49c0,8.16-6.34,10.21-13.94,10.21M232.98,144.98h-3.66v5.72h3.66c2.34,0,3.86-.73,3.86-2.91,0-2.05-1.47-2.81-3.86-2.81M237.46,163.54l-.82-5.17c-.44-2.85-1.18-3.25-4.22-3.25h-3.09v8.42h-9.73v-23.1h16.57c6.36,0,10.3,2.03,10.3,6.77,0,3.35-2.42,4.93-5.3,5.3,3.23.29,4.48,1.82,4.76,3.74l.99,5.26c.24,1.15.35,1.94.41,2.02h-9.87,0ZM264.11,164.15c-11.73,0-15.34-5-15.34-12.13,0-8.09,5.45-12.2,16.32-12.2,8.47,0,14.34,1.99,14.78,7.64h-10.01c-.45-2.19-2.46-2.78-4.78-2.78-4.21,0-6.29,2.76-6.29,7.33s1.85,7.27,6.72,7.27c1.94,0,3.48-.31,4.54-.72v-3.67h-5.67v-4.74h15.49v12.26c-1.76.47-10.03,1.73-15.77,1.73M218.86,197.19v-12.27h-15.37v4.74h5.65v3.66c-1.05.4-2.62.72-4.52.72-4.82,0-6.67-2.82-6.67-7.28s2.09-7.33,6.26-7.33c2.28,0,4.27.59,4.74,2.8h9.91c-.45-5.68-6.27-7.68-14.65-7.68-10.8,0-16.17,4.13-16.17,12.21,0,7.14,3.53,12.15,15.17,12.15,5.69,0,13.88-1.27,15.65-1.72ZM185.51,198.28v-23.11h-8.21v16.41l-8.22-16.41h-14.13v23.11h8.22v-16.44l8.19,16.44h14.15ZM151.75,188.68v-13.51h-9.3v12.68c0,4.42-1.66,5.83-4.49,5.83-3.02,0-4.38-1.41-4.38-5.83v-12.68h-9.43v13.51c0,8.54,6.14,10.22,13.81,10.22s13.8-2.07,13.8-10.22ZM121.34,180.5v-5.33h-25.11v5.33h7.68v17.78h9.74v-17.78h7.69ZM92.93,179.98v-4.81h-21.72v23.11h9.73v-8.69h11.22v-4.74h-11.22v-4.87h12ZM66.96,198.28v-23.11h-9.73v23.11h9.73ZM53.96,180.5v-5.33h-25.11v5.33h7.67v17.78h9.75v-17.78h7.69ZM26.94,191.33c0-4.5-3.74-5.52-7.66-6.52-2.05-.55-6.14-1.46-6.14-1.46-2.27-.54-3.7-.86-3.7-2.4,0-1.42,1.41-2.13,3.45-2.13,2.26,0,3.62.76,3.8,3.15h9.57c-.42-4.85-3.68-7.43-13.33-7.43-8.69,0-13.54,2.94-13.54,7.43,0,4.12,3.35,5.07,7.06,6.01l6.26,1.63c1.23.29,4.1.86,4.1,2.61,0,1.94-1.95,2.35-3.99,2.35-2.72,0-3.81-1.23-3.95-3.55H-.99c0,4.21,2.03,7.87,13.81,7.87,10.55,0,14.11-3.15,14.11-7.57Z"/>
</svg>