<?xml version="1.0" encoding="UTF-8"?>
<svg id="Ebene_1" xmlns="http://www.w3.org/2000/svg" version="1.1" viewBox="0 0 293.82 53.56">
  <!-- Generator: Adobe Illustrator 30.1.0, SVG Export Plug-In . SVG Version: 2.1.1 Build 136)  -->
  <defs>
    <style>
      .st0 {
        fill: #737373;
      }
    </style>
  </defs>
  <g>
    <path class="st0" d="M10.75,21c-.86,0-2.32-.17-2.32,1.16,0,.69.52.94,1.12,1.2l10.3,4.68c2.66,1.2,4.03,2.88,4.03,5.84,0,4.16-2.83,6.14-6.78,6.14h-6.35c-2.15,0-3.61-.09-5.15-1.29-.77-.6-1.89-1.37-1.89-2.4,0-1.16.99-2.06,2.15-2.06.64,0,1.12.21,1.59.73.73.82,2.02.9,3.31.9h5.58c1.46,0,3.43.13,3.43-2.28,0-.99-1.2-1.63-2.15-2.06l-9.7-4.42c-2.27-1.03-3.61-2.36-3.61-5.02,0-3.26,2.58-5.24,5.67-5.24h7.04c2.27,0,3.22.13,4.76,1.42.77.64,1.63,1.16,1.63,2.32s-.99,2.06-2.1,2.06c-.77,0-1.24-.3-1.76-.86-.69-.73-1.42-.82-2.53-.82h-6.27Z"/>
    <path class="st0" d="M41.1,35.89h3.09c1.37,0,2.83.3,2.83,2.06s-1.63,2.06-2.83,2.06h-10.47c-1.2,0-2.83-.26-2.83-2.06s1.46-2.06,2.83-2.06h3.26v-14.89h-3.26c-1.2,0-2.83-.26-2.83-2.06s1.46-2.06,2.83-2.06h4.33c2.36,0,3.05.43,3.05,2.88v16.14ZM34.87,8.55c0-1.46.82-1.93,1.93-1.93h2.36c1.12,0,1.93.47,1.93,1.93v1.97c0,1.46-.82,1.93-1.93,1.93h-2.36c-1.12,0-1.93-.47-1.93-1.93v-1.97Z"/>
    <path class="st0" d="M66.25,35.89h3.09c1.37,0,2.83.3,2.83,2.06s-1.63,2.06-2.83,2.06h-10.47c-1.2,0-2.83-.26-2.83-2.06s1.46-2.06,2.83-2.06h3.26V12.5h-3.26c-1.2,0-2.83-.26-2.83-2.06s1.46-2.06,2.83-2.06h4.33c2.36,0,3.05.43,3.05,2.88v24.64Z"/>
    <path class="st0" d="M86.73,40.01c-1.72,0-2.4,0-3.69-1.12l-1.76-1.54c-1.63-1.46-2.1-2.4-2.1-4.64v-7.94c0-2.19.3-3.48,2.02-4.94l1.46-1.24c1.93-1.67,2.88-1.72,4.55-1.72h3.78c2.02,0,2.96.21,4.55,1.5l1.67,1.33c1.89,1.5,2.15,3.09,2.15,5.37v3.31c0,2.36-.39,3.05-2.83,3.05h-13.22v1.37c0,.39.3.9.6,1.2l1.03,1.12c.56.6,1.37.77,2.75.77h8.84c1.37,0,2.83.3,2.83,2.06s-1.63,2.06-2.83,2.06h-9.79ZM83.3,27.31h11.93v-2.49c0-.77.04-1.42-.52-1.93l-1.59-1.37c-.52-.47-1.33-.51-1.97-.51h-3.48c-.77,0-1.42,0-2.1.47l-1.42,1.03c-.51.39-.86.69-.86,1.89v2.92Z"/>
    <path class="st0" d="M108.45,25.2v11.98c0,1.42-.3,2.83-2.06,2.83s-2.06-1.42-2.06-2.83v-17.25c0-1.5.17-3.05,2.06-3.05s2.06,1.54,2.06,3v.56l3.35-2.19c1.07-.69,2.23-1.37,3.56-1.37h3.05c1.59,0,2.58.43,3.82,1.5,1.85,1.59,1.76,3.35,1.85,5.58l.43,12.96c.04,1.46-.17,3.09-2.02,3.09-1.67,0-2.02-1.42-2.06-2.79l-.43-12.71c-.09-2.53-.3-3.52-2.79-3.52h-1.37c-.43,0-.86.13-1.29.39l-6.1,3.82Z"/>
    <path class="st0" d="M137.77,32.24c0,2.32-.09,3.65,2.75,3.65h2.1c1.67,0,2.45-.13,2.88-1.8.26-.99,1.03-1.67,2.06-1.67,1.16,0,2.1.9,2.1,2.06s-.73,2.62-1.42,3.43c-1.5,1.8-3.48,2.1-5.67,2.1h-2.1c-2.06,0-3.86-.47-5.32-2.06-1.59-1.76-1.5-3.52-1.5-5.75v-11.2h-1.33c-1.2,0-2.83-.26-2.83-2.06s1.46-2.06,2.83-2.06h1.33v-4.21c0-1.42.3-2.83,2.06-2.83s2.06,1.42,2.06,2.83v4.21h6.91c1.37,0,2.83.3,2.83,2.06s-1.63,2.06-2.83,2.06h-6.91v11.25Z"/>
  </g>
  <g>
    <path class="st0" d="M163.01,23.75c0-1.93.56-3.65,1.42-4.33l3-2.36c.86-.69,1.5-.99,2.58-.99h3.99c1.12,0,2.45.82,4.04,2.06l1.03.82v-.47c0-1.29.69-2.4,2.1-2.4,1.8,0,2.02,1.5,2.02,2.88v20.13c0,3.73-.3,4.51-2.02,5.97l-1.37,1.16c-1.8,1.5-2.83,1.76-5.15,1.76h-6.83c-1.2,0-2.83-.26-2.83-2.06s1.46-2.06,2.83-2.06h7.55c.86,0,1.42-.39,2.06-.94l1.03-.94c.34-.34.6-.94.6-1.72v-5.67l-.86.86c-.94.94-2.23,2.02-3.39,2.02h-4.85c-.86,0-1.85-.13-3.09-1.25l-2.58-2.32c-1.2-1.12-1.29-2.19-1.29-3.86v-6.27ZM167.13,29.41c0,.86.04,1.76.51,2.15l1.72,1.37c.3.26.69.39,1.2.39h3c.51,0,1.12-.43,1.89-1.07l3.18-2.62c.3-.26.43-.82.43-1.37v-3c0-.56-.13-1.12-.43-1.37l-3.18-2.62c-.77-.64-1.37-1.07-1.89-1.07h-3c-.51,0-.9.13-1.2.39l-1.72,1.37c-.47.39-.51,1.29-.51,2.15v5.32Z"/>
    <path class="st0" d="M188.16,19.11c0-1.5.17-3.05,2.06-3.05,1.63,0,2.06,1.37,2.06,2.75v1.67l3.22-2.66c1.16-.94,2.36-1.76,3.65-1.76h3.31c1.59,0,2.92.52,4.03,1.63,1.37,1.37,1.85,2.79,1.85,4.68,0,1.42-.26,2.88-2.02,2.88-1.5,0-2.1-1.2-2.1-2.53,0-.69,0-1.2-.43-1.8-.51-.73-1.5-.73-2.49-.73h-1.2c-.77,0-1.33.39-2.06.99l-5.75,4.76v10.43c0,1.42-.3,2.83-2.06,2.83s-2.06-1.42-2.06-2.83v-17.25Z"/>
    <path class="st0" d="M220.87,39.2c-1.72,0-2.4,0-3.69-1.12l-1.76-1.54c-1.63-1.46-2.1-2.4-2.1-4.64v-7.94c0-2.19.3-3.48,2.02-4.94l1.46-1.25c1.93-1.67,2.88-1.72,4.55-1.72h3.78c2.02,0,2.96.21,4.55,1.5l1.67,1.33c1.89,1.5,2.15,3.09,2.15,5.37v3.31c0,2.36-.39,3.05-2.83,3.05h-13.22v1.37c0,.39.3.9.6,1.2l1.03,1.12c.56.6,1.37.77,2.75.77h8.84c1.37,0,2.83.3,2.83,2.06s-1.63,2.06-2.83,2.06h-9.79ZM217.44,26.49h11.93v-2.49c0-.77.04-1.42-.52-1.93l-1.59-1.37c-.51-.47-1.33-.51-1.97-.51h-3.48c-.77,0-1.42,0-2.1.47l-1.42,1.03c-.51.39-.86.69-.86,1.89v2.92Z"/>
    <path class="st0" d="M246.03,39.2c-1.72,0-2.4,0-3.69-1.12l-1.76-1.54c-1.63-1.46-2.1-2.4-2.1-4.64v-7.94c0-2.19.3-3.48,2.02-4.94l1.46-1.25c1.93-1.67,2.88-1.72,4.55-1.72h3.78c2.02,0,2.96.21,4.55,1.5l1.67,1.33c1.89,1.5,2.15,3.09,2.15,5.37v3.31c0,2.36-.39,3.05-2.83,3.05h-13.22v1.37c0,.39.3.9.6,1.2l1.03,1.12c.56.6,1.37.77,2.75.77h8.84c1.37,0,2.83.3,2.83,2.06s-1.63,2.06-2.83,2.06h-9.79ZM242.6,26.49h11.93v-2.49c0-.77.04-1.42-.51-1.93l-1.59-1.37c-.52-.47-1.33-.51-1.97-.51h-3.48c-.77,0-1.42,0-2.1.47l-1.42,1.03c-.51.39-.86.69-.86,1.89v2.92Z"/>
    <path class="st0" d="M267.75,24.39v11.98c0,1.42-.3,2.83-2.06,2.83s-2.06-1.42-2.06-2.83v-17.25c0-1.5.17-3.05,2.06-3.05s2.06,1.55,2.06,3v.56l3.35-2.19c1.07-.69,2.23-1.37,3.56-1.37h3.05c1.59,0,2.58.43,3.82,1.5,1.85,1.59,1.76,3.35,1.85,5.58l.43,12.96c.04,1.46-.17,3.09-2.02,3.09-1.67,0-2.02-1.42-2.06-2.79l-.43-12.71c-.09-2.53-.3-3.52-2.79-3.52h-1.37c-.43,0-.86.13-1.29.39l-6.1,3.82Z"/>
  </g>
</svg>