<?xml version="1.0" encoding="UTF-8"?>
<svg id="Ebene_1" xmlns="http://www.w3.org/2000/svg" version="1.1" viewBox="0 0 192 23.04">
  <!-- Generator: Adobe Illustrator 30.1.0, SVG Export Plug-In . SVG Version: 2.1.1 Build 136)  -->
  <defs>
    <style>
      .st0 {
        fill: #fff;
      }
    </style>
  </defs>
  <path class="st0" d="M74.21,16.3c.2-.41,1.26-.86,1.78-.85l7.25.14c3.35,2.51,2.02,4.62,4.01,5.98l5.16.05-.3-3.34c-.11-1.2-1.55-2.11-2.09-3.09l-.7-1.27-2.27-3.9c-.52-.9-1.05-1.53-1.73-2.35-.73-.88-1.06-2.3-1.65-3.29-.95-1.6-1.37-3.31-1.65-3.36l-1.03-.17,1.05-.25c-1.41-.47-2.79-.28-3.57.42l1.57.57c-.8.12-1.88-.12-2.18.23s-.82.99-1.05,1.31l-1.4,2.01c-.54.76-.9,1.47-.97,2.44l1.06-.08-2.96,1.01c-.44.15-.42,1.6-.01,1.82.07-.05-.27.2-.38.28-.09.07-.11-.16-.16-.29l-.28-.69c-1.37,1.37-1.89,3.23-2.59,5.09l-1.28,3.39c-.07.2-.24.78-.06.8l.66.06c-.21.92-.32,1.72-.26,2.83l6.29-.17c.23-.49.25-1.15.19-1.65l-.44-3.66ZM57.51,17.45c1.93-2.72-1.86-4.23-.88-4.88.16-.11.69-.33.9-.32l4.11.2c.25-.02.8-.62,1.01-.5.18.1.5.55.7.58,1.86.34,4.89-1.12,6.04-2.23.89-.86,1.56-1.94,2.27-2.96l-.31-2.34c-.25-1.83-2.25-2.66-3.82-3.03-.78-.19-1.08-.21-1.77.2-.41.24-.97-.45-1.21-.97-2.37-.57-5.25-.47-7.73-.13l-4.01.54c-.32.03-.29.08.17.55l-1.12-.1-1.25,1.03c-.12,3.82.3,7.66.54,11.47.09,1.51-.66,3.11-.35,4.65l.46,2.27c.22.23.91.53,1.26.53l5.04.03c.31,0,.91-.2,1.07-.43s.3-.86.27-1.15l-.21-1.71c-.03-.27-.04-.93-.27-1.01l-.9-.29ZM128.26,19.05l-.87.45c-.11.06-.02.5.11.49l2.97-.24,3.84-2.39c1.32-.82,3.14-2.68,3.62-4.17l-1.14-.28,1.44-.23-.26-.68c.37-.56.38-1.48.08-2.07,1.2-.41-.11-2.83-.55-3.44l-.94-1.33c-.35-.49-2.71-2.88-3.59-2.12.06-1.4-1.93-.84-1.97-1.08l-.06-.43c-2.82-.8-7.11-.65-10.01.02-.03.23.01.62-.12.62-.11,0-.56-.12-.65-.08-1.25.62-2.7,2.46-3.47,3.73l-1.22,2.01c-1.06,1.75-1.03,3.72-.19,3.83-.1-.01-.57.19-.56.29l.07,1.47c.02.45.13,1.22.38,1.51s.88.42,1.57.61l-.56.58c-.1.72,1.02,1.57,1.63,1.57.14,0,.03.48,0,.65.36.57,1.45,1.59,2.11,1.64,2.21-.82-.29,1.45,4.42-.71.57.35,1.13,1.26,1.37,1.8.1-.29.27-.71.47-.79.26-.1.72-.2.73-.38l.04-.9,1.28.03ZM96.73,9.98c.36-.35,1.17-.48,1.62-.41.33.05.35.9.58,1.19.9,1.12,2.11,1.84,3.29,2.71.48.35,1.31,1.34,1.93.95s.61-1.68.83-2.23c.34-.86.6-1.63.88-2.71.15-.57,1.4-.61,1.89-.16l-.09,1.61c-.02.27-.04.77.13.84l.51.21c-.27.12-.98.62-.93.93.3,1.76,1.28,5.82,1.8,7.57.1.35,1.03.35,1.23.23l-.06.54,3.31.02-.22-.91,1.66-.24c.05-.98-.69-1.71-1.32-2l.1-3.9c.02-.96-.24-1.92-.39-2.85l-.4-2.41c-.18-1.08-.3-4.17-.76-4.13l-1.14.09,1.75-1.46-.62-1c-.17-.27,1.55-.94.82-1.22-.11-.04-.6-.17-.73-.17l-4.58.11c-.27,0-.92.59-.76.56l1.12.24-1.22.23c-.21.04-.28.36-.44.68-.59,1.4-2.24,3.22-1.45,4.65l-.89-.05c-.35-.02-.22.99-1.06,1.37-1.92.87-4.65-5.31-6.2-6.52l-2.24.07.34-.59c.05-.08-.2-.34-.25-.33l-1.67,1.22c-.33-.11-.97-.34-.94-.11l.11.94c-.25,1.67.44,5.29.51,6.57.04.83.19,5.03.67,5.21l.91.34-1.04.28.54,5.49,1.68-.96v.49c0,.14.62.11.76.06l1.55-.58c.46.31.8.54,1.09.63.25.08.58-.58.51-.83l-1.39-5.12c-.46-1.69-1.01-3.39-1.31-5.18ZM8.95,21.31c3.96.78,8.03.71,11.96-.14.98-.21,2.01-.97,2.88-1.38,1.1-.52,1.62-1.5,1.62-2.68v-3.1c0-1.53-.75-2.49-2-3.28-1.49-.94-3.06-1.67-4.79-2.14l-6.88-1.88c-.62-.17-1.74-.97-1.78-1.55-.14-1.93,4.16-2.09,5.84-1.39,2.01.85.27,3.12,1.63,3.21l5.07.34c.56-.62.73-1.71.52-2.46-.62-2.14-6.3-3.01-8.44-3.22-1.11-.11-2.01-.05-3.15-.04l-2.96.03c-.14,0-.4.6-.54.55s-.59-.34-.72-.27l-2.27,1.13c-1.14.57-1.82-1.1-3.63,1.27.39,1.49,1.54,2.4,2.95,2.89l7.99,2.75c1.77.61,3.43,1.13,4.76,2.4,1.25,1.2,1.33,2.86.1,4.14-.95.98-2.19,1.7-3.69,1.63-2.08-.1-4.08-.75-5.75-1.96-.76-.55-1.51-.86-2.37-1.12l.59-.27c-.68-1.29-.31-2.69.41-3.95-1.89-.54-3.66-.45-5.53.19l-.07,3.98c-.02,1.03.73,2.01,1.48,2.44.52,1.5,5.32,3.59,6.79,3.88ZM145.44,20.52l1.91.46c.07-.17.1-.65.22-.58,1.47.85,3.67.6,6.02.57.78-.01,1.43-.56,1.44-1.1.01-.5-.26-1.33-.89-1.33h-7.39c-.23,0-.97-.41-.85-.6l.51-.82c.88-1.42.5-3.18.01-4.42,1.53-1.3.1-1.68.56-5.57.09-.74-.11-2.19-.43-2.91l-1.04-2.32c-1.19-.79-6.37-.46-5.67.36l.47.54c.17.2.75.61.58.77l-.66.62-.38-.74c-.29,2.15-.45,4.82.57,6.59l.43.74c.09.15-.55.57-.54.76l.12,2.54c.04.8.21,1.59.57,2.21-.31.2-.54.83-.52,1.54l.06,2.9c.65.53,2.42.44,3.04-.23l.82.53c.2.13.81-.54,1.04-.49ZM170.31,21.14c.44,0,1.01-.2,1.21-.26.28.13,1.05.38,1.36.27s.36-.58.83-1.32l.29,1.24c.29.19,1.39,0,1.56-.42s.14-1.28-.08-1.61c-.73-1.07-2.24.5-2.94-.26l-1.92-.03-8.36-.12c.78-.68,1.5-3.41.87-4.21.14-.19.52-.58.45-.76l-.25-.61c.25-.94.3-1.99.09-3.01-.33-1.57.35-3.98-.11-3.98h-.69c.79-.76.65-3.53.11-4.34-2.23-.11-4.2-.08-6.4.16-.49,2.97-.03,3.62.08,5.87.01.27.63.57.97.76.32.19-.18.99-.55,1.34l.05,1.47,1.01-.04c-.3.42-.69.69-.61.92l.31.91-.81.35c-.14.06.02.54.04.75l.27,2.36c.02.15.2.47.23.61s-.26.5-.24.65c.08.57.09,1.63-.11,2.22-.08.24.18,1.08.41.96l.92-.47c.45-.23-.65-.83-.48-1.59.04-.18.7-.24.85-.14l1.11.7c-.46.63-.82,1.08-1.32,1.62h11.86ZM45.74,2.67h-4.94s.58,3.71.58,3.71c.68,4.32,1.92,7.88-.91,12.11-1.57,1.13-3.82.89-5.45-.32-.91-.68-1.16-2.52-1.45-3.61l-.87-.54c.62-.64.85-1.6.43-2.44.06-.14.45-.64.51-.85l.72-2.58c.09-.31.33-.69.25-.86l-.31-.61c.81-.81,1.28-1.81,1.73-2.83.16-.37.58-.83.46-1.29l-4-.24c-.18.17-.49.75-.63.63l-.57-.49c-.13-.12-.45-.24-.62-.25s-.55.41-.61.6l-1.26,3.89c-.26.8-1.46,6.08-.5,6.81l.54-.31c.13-.07.53.46.4.52l-.85.42.43,3.16c.02.17.22.69.39.68l.92-.05c-.37.42-.72.85-.7,1.22.17,3.46,11.31,2.93,13.95,2.7,3.42-.29,3.41-2.7,3.36-2.62,1.06-1.6,1.15-3.9,1.5-5.67.5-2.55.7-4.59-.33-7.21-.25-.63-.36-1.9-.9-2.41-.19-.18-.23-.92-.42-1.07-.16-.13-.57-.21-.83-.21ZM182.51,8.85l1.76-.03c.38.16,3.54-1.88,3.3-2.47l-.36-.91c-.07-.18.61-.33.74-.2l.43.44c.1.11.48.11.62.05s.26-.36.15-.45l-.5-.46c1.41.12,2.62-.32,2.84-1.82l-4.3-.48c-1.48-.17-3.18.22-3.78,1.71-.02.22.12.78-.08.86-.32.12-2.88.63-2.34,1.76.05.11.67.27.8.29.12.02,0,.27-.07.41-.8-.1-1.34-.07-2.05.19l-.82-1.62c-.53-1.06-1.72-2.47-2.88-2.83-.16-.05-.67.22-.72.07s-.16-.52-.23-.68c-.3-.69-1.34.16-1.81.12-2.24-.2-3.13.01-5.52.82-.04,1.12,1.07,1.04,1.79,1.23.15.36.45.96.78,1.15l3.99,2.27,3.51,1.97c.05.71.19,1.5.39,2.01-.11.25-.51,1.02-.51,1.42l.02,4.28c0,.41.56.99.66,1.33.08.29-.17.92,0,1.16.16.21.75.63.96.48.13-.09.59-.48.72-.39.74.55,2.76,1.18,3.43-.01-.01-.22-.25-.7-.05-.8l.92-.44-.39-5.88c-.04-.56-.22-1.38-.35-1.8-.33-.21-.8-.54-.68-.72l.48-.71-.86-1.32Z"/>
  <path d="M8.95,21.31c-1.47-.29-6.27-2.38-6.79-3.88-.75-.43-1.5-1.41-1.48-2.44l.07-3.98c1.87-.65,3.65-.74,5.53-.19-.72,1.27-1.08,2.66-.41,3.95l-.59.27c.86.26,1.61.57,2.37,1.12,1.67,1.21,3.67,1.87,5.75,1.96,1.5.07,2.74-.65,3.69-1.63,1.24-1.28,1.15-2.94-.1-4.14-1.33-1.28-3-1.79-4.76-2.4l-7.99-2.75c-1.41-.49-2.56-1.4-2.95-2.89,1.81-2.37,2.49-.7,3.63-1.27l2.27-1.13c.13-.07.58.22.72.27s.4-.54.54-.55l2.96-.03c1.14-.01,2.04-.07,3.15.04,2.14.21,7.82,1.08,8.44,3.22.22.75.04,1.83-.52,2.46l-5.07-.34c-1.36-.09.38-2.36-1.63-3.21-1.68-.71-5.98-.54-5.84,1.39.04.58,1.16,1.38,1.78,1.55l6.88,1.88c1.73.47,3.3,1.2,4.79,2.14,1.25.79,2,1.74,2,3.28v3.1c0,1.18-.52,2.15-1.62,2.68-.87.41-1.9,1.17-2.88,1.38-3.93.85-8,.92-11.96.14Z"/>
  <path d="M96.73,9.98c.3,1.79.85,3.49,1.31,5.18l1.39,5.12c.07.26-.26.92-.51.83-.29-.09-.63-.32-1.09-.63l-1.55.58c-.14.05-.77.08-.77-.06v-.49s-1.67.96-1.67.96l-.54-5.49,1.04-.28-.91-.34c-.49-.18-.63-4.39-.67-5.21-.06-1.28-.76-4.9-.51-6.57l-.11-.94c-.03-.24.61,0,.94.11l1.67-1.22c.05-.02.3.24.25.33l-.34.59,2.24-.07c1.55,1.21,4.28,7.39,6.2,6.52.84-.38.71-1.39,1.06-1.37l.89.05c-.79-1.43.86-3.25,1.45-4.65.17-.32.24-.64.44-.68l1.22-.23-1.12-.24c-.16.03.49-.55.76-.56l4.58-.11c.13,0,.61.12.73.17.73.27-.99.95-.82,1.22l.62,1-1.75,1.46,1.14-.09c.46-.04.58,3.05.76,4.13l.4,2.41c.15.93.42,1.88.39,2.85l-.1,3.9c.63.3,1.37,1.02,1.32,2l-1.66.24.22.91-3.31-.02.06-.54c-.2.12-1.12.11-1.23-.23-.52-1.75-1.5-5.81-1.8-7.57-.05-.31.66-.81.93-.93l-.51-.21c-.18-.07-.15-.57-.13-.84l.09-1.61c-.5-.45-1.75-.41-1.89.16-.28,1.08-.54,1.85-.88,2.71-.22.55-.18,1.83-.83,2.23s-1.45-.6-1.93-.95c-1.18-.87-2.38-1.58-3.29-2.71-.23-.29-.25-1.14-.58-1.19-.45-.07-1.27.06-1.62.41Z"/>
  <path d="M57.51,17.45l.9.29c.23.07.23.74.27,1.01l.21,1.71c.03.29-.11.92-.27,1.15s-.76.43-1.07.43l-5.04-.03c-.35,0-1.05-.3-1.26-.53l-.46-2.27c-.31-1.53.44-3.14.35-4.65-.24-3.81-.65-7.65-.54-11.47l1.25-1.03,1.12.1c-.46-.46-.49-.51-.17-.55l4.01-.54c2.49-.34,5.36-.43,7.73.13.24.52.8,1.22,1.21.97.68-.41.98-.38,1.77-.2,1.57.37,3.57,1.2,3.82,3.03l.31,2.34c-.72,1.02-1.38,2.1-2.27,2.96-1.15,1.11-4.18,2.56-6.04,2.23-.2-.04-.52-.48-.7-.58-.21-.12-.76.48-1.01.5l-4.11-.2c-.21,0-.74.22-.9.32-.99.64,2.81,2.16.88,4.88ZM63.27,7.62c.05-2.61-2.24-2.73-5.04-3.18-.55-.09-1.88.3-1.95.82l-.28,2.06c-.14,1.02.13,2.04,1.38,2.36,1.39.36,4.83-.6,5.89-2.07Z"/>
  <path d="M45.74,2.67c.26,0,.67.08.83.21.2.16.23.89.42,1.07.53.52.65,1.78.9,2.41,1.03,2.61.84,4.66.33,7.21-.35,1.77-.43,4.07-1.5,5.67.05-.08.06,2.33-3.36,2.62-2.64.23-13.78.75-13.95-2.7-.02-.37.33-.8.7-1.22l-.92.05c-.17,0-.37-.51-.39-.68l-.43-3.16.85-.42c.13-.06-.27-.6-.4-.52l-.54.31c-.96-.73.24-6.01.5-6.81l1.26-3.89c.06-.19.44-.6.61-.6s.49.13.62.25l.57.49c.14.12.45-.46.63-.63l4,.24c.12.46-.3.92-.46,1.29-.45,1.02-.92,2.02-1.73,2.83l.31.61c.09.17-.16.55-.25.86l-.72,2.58c-.06.21-.45.71-.51.85.42.83.19,1.8-.43,2.44l.87.54c.29,1.09.53,2.93,1.45,3.61,1.63,1.21,3.89,1.45,5.45.32,2.83-4.23,1.59-7.79.91-12.11l-.58-3.7h4.94Z"/>
  <path d="M182.51,8.85l.86,1.32-.48.71c-.12.18.35.51.68.72.13.43.31,1.25.35,1.8l.39,5.88-.92.44c-.2.09.04.57.05.8-.67,1.19-2.69.56-3.43.01-.13-.1-.59.3-.72.39-.22.15-.8-.27-.96-.48-.18-.24.07-.87,0-1.16-.1-.35-.65-.93-.66-1.33l-.02-4.28c0-.39.4-1.16.51-1.42-.19-.51-.33-1.31-.39-2.01l-3.51-1.97-3.99-2.27c-.34-.19-.63-.79-.78-1.15-.73-.19-1.84-.11-1.79-1.23,2.39-.81,3.28-1.02,5.52-.82.48.04,1.51-.81,1.81-.12.07.16.18.53.23.68s.56-.12.72-.07c1.17.36,2.35,1.77,2.88,2.83l.82,1.62c.71-.25,1.26-.29,2.05-.19.07-.15.19-.4.07-.41-.13-.02-.75-.18-.8-.29-.54-1.13,2.02-1.64,2.34-1.76.19-.07.05-.64.08-.86.6-1.49,2.3-1.88,3.78-1.71l4.3.48c-.23,1.5-1.43,1.94-2.84,1.82l.5.46c.1.09-.02.39-.15.45s-.51.06-.62-.05l-.43-.44c-.13-.14-.82.01-.74.2l.36.91c.23.59-2.93,2.63-3.3,2.47l-1.76.03Z"/>
  <path d="M170.31,21.14h-11.86c.5-.53.86-.98,1.32-1.61l-1.11-.7c-.15-.09-.81-.04-.85.14-.17.76.93,1.36.48,1.59l-.92.47c-.23.12-.5-.72-.41-.96.2-.59.19-1.65.11-2.22-.02-.15.26-.51.24-.65s-.21-.46-.23-.61l-.27-2.36c-.02-.2-.18-.69-.04-.75l.81-.35-.31-.91c-.08-.23.31-.5.61-.92l-1.01.04-.05-1.47c.37-.34.87-1.15.55-1.34-.33-.2-.95-.5-.97-.76-.11-2.25-.56-2.9-.08-5.87,2.2-.24,4.17-.27,6.4-.16.54.81.68,3.58-.11,4.34h.69c.46,0-.21,2.41.11,3.98.21,1.02.16,2.07-.09,3.01l.25.61c.07.17-.31.57-.45.76.63.81-.09,3.54-.87,4.21l8.36.12,1.92.03c.7.75,2.21-.81,2.94.26.23.34.26,1.19.08,1.61s-1.28.6-1.56.42l-.29-1.24c-.47.74-.52,1.21-.83,1.32s-1.08-.14-1.36-.27c-.21.07-.77.26-1.21.26Z"/>
  <path d="M145.44,20.52c-.23-.05-.84.62-1.04.49l-.82-.53c-.62.67-2.39.76-3.04.23l-.06-2.9c-.01-.7.21-1.34.52-1.54-.36-.62-.53-1.4-.57-2.21l-.12-2.54c0-.19.63-.61.54-.76l-.43-.74c-1.02-1.77-.87-4.43-.57-6.59l.38.74.66-.62c.16-.16-.41-.57-.58-.77l-.47-.54c-.7-.81,4.48-1.15,5.67-.36l1.04,2.32c.32.72.52,2.17.43,2.91-.45,3.89.97,4.27-.56,5.57.49,1.24.87,3-.01,4.42l-.51.82c-.12.19.62.61.85.61h7.39c.63,0,.9.82.89,1.32-.01.54-.66,1.09-1.44,1.1-2.35.04-4.54.29-6.02-.57-.12-.07-.15.41-.22.58l-1.91-.46Z"/>
  <path class="st0" d="M63.27,7.62c-1.06,1.47-4.5,2.44-5.89,2.07-1.25-.33-1.51-1.35-1.38-2.36l.28-2.06c.07-.52,1.41-.91,1.95-.82,2.8.45,5.09.56,5.04,3.18Z"/>
  <path class="st0" d="M83.29,12.7l-4.84.52c-1.29.14-2.29.14-3.7-.18.26-.9.48-1.47.83-2.24l.85-1.9c.44-.67,2.45-.9,3.08-.29l3.01,2.91c.23.23.52.78.77,1.18Z"/>
  <g>
    <path d="M74.21,16.3l.44,3.66c.06.5.04,1.17-.19,1.65l-6.29.17c-.06-1.11.05-1.91.26-2.83l-.66-.06c-.18-.02-.01-.6.06-.8l1.28-3.39c.7-1.86,1.22-3.72,2.59-5.09l.28.69c.05.13.07.36.16.29.11-.08.45-.33.38-.28-.4-.22-.42-1.67.01-1.82l2.96-1.01-1.06.08c.06-.96.43-1.67.97-2.44l1.4-2.01c.22-.32.74-.95,1.05-1.31s1.37-.12,2.18-.23l-1.57-.57c.78-.7,2.15-.89,3.57-.42l-1.05.25,1.03.17c.28.05.7,1.76,1.65,3.36.59.99.92,2.42,1.65,3.29.68.82,1.21,1.46,1.73,2.35l2.27,3.9.7,1.27c.54.98,1.99,1.89,2.09,3.09l.3,3.34-5.16-.05c-2-1.36-.67-3.47-4.01-5.98l-7.25-.14c-.52-.01-1.58.44-1.78.85ZM78.22,6.84c-.45-.46-1.28-.44-1.79-.02l-1.1-.23c.36.47.8.91,1.05,1.02l1.84-.77ZM83.29,12.7c-.25-.4-.54-.96-.77-1.18l-3.01-2.91c-.63-.61-2.65-.38-3.08.29l-.85,1.9c-.35.78-.56,1.34-.83,2.24,1.41.32,2.42.32,3.7.18l4.84-.52Z"/>
    <path class="st0" d="M78.22,6.84l-1.84.77c-.25-.11-.69-.55-1.05-1.02l1.1.23c.51-.42,1.34-.44,1.79.02Z"/>
  </g>
  <path class="st0" d="M133.21,10.42c.24,2.67-4.11,4.99-6.22,5.43-.57.12-1.3.47-1.76.53-4.62.66-5.41-3.24-7.54-2.65l.29-.29c.06-.06.27-.23.19-.26l-.79-.25.78-.28c-.89-2.73,2.22-7.11,4.95-7.53,2.53-.4,5.13.18,7.32,1.49.45.27.82.42,1.25.46l-.05.43c-.01.12.39,0,.53,0l.38-.02c.06,0,.1.11.05.14l-.44.32c.34.66,1,1.73,1.07,2.48Z"/>
  <g>
    <path d="M128.26,19.05l-1.28-.03-.04.9c0,.19-.47.28-.73.38-.21.08-.37.5-.47.79-.24-.54-.8-1.45-1.37-1.8-4.71,2.16-2.21-.11-4.42.71-.66-.05-1.76-1.07-2.11-1.64.03-.16.14-.65,0-.65-.61,0-1.73-.85-1.63-1.57l.56-.58c-.68-.19-1.32-.33-1.57-.61s-.36-1.07-.38-1.51l-.07-1.47c0-.1.46-.3.56-.29-.84-.11-.87-2.08.19-3.83l1.22-2.01c.77-1.26,2.22-3.11,3.47-3.73.09-.05.54.07.65.08.14,0,.1-.38.12-.62,2.89-.67,7.19-.82,10.01-.02l.06.43c.04.24,2.03-.33,1.97,1.08.88-.77,3.24,1.63,3.59,2.12l.94,1.33c.43.61,1.74,3.03.55,3.44.3.6.29,1.52-.08,2.07l.26.68-1.44.23,1.14.28c-.47,1.5-2.29,3.35-3.62,4.17l-3.84,2.39-2.97.24c-.13.01-.23-.43-.11-.49l.87-.45ZM133.21,10.42c-.07-.75-.73-1.82-1.07-2.48l.44-.32s0-.14-.05-.14l-.38.02c-.14,0-.54.12-.53,0l.05-.43c-.43-.04-.8-.19-1.25-.46-2.19-1.32-4.78-1.89-7.32-1.49-2.73.43-5.84,4.8-4.95,7.53l-.78.28.79.25c.09.03-.13.2-.19.26l-.29.29c2.13-.59,2.91,3.31,7.54,2.65.46-.06,1.19-.41,1.76-.53,2.11-.45,6.45-2.77,6.22-5.43ZM134.93,11.05l-.37-.56c-.1-.16-.91.01-.9.2l.08,1.36,1.19-1Z"/>
    <path class="st0" d="M134.93,11.05l-1.19,1-.08-1.36c-.01-.19.8-.36.9-.2l.37.56Z"/>
  </g>
</svg>