<svg viewBox="0 0 264 67" xmlns="http://www.w3.org/2000/svg" xmlns:xlink="http://www.w3.org/1999/xlink">
                    <title>Topographie des Terrors</title>
                    <g stroke="none" stroke-width="1" fill="none" fill-rule="evenodd">
                        <g transform="translate(0.010718, 0.250000)" fill="currentColor">
                            <g transform="translate(75.919282, 46.926000)">
                                <path d="M122.161629,12.3010502 C122.161629,8.94172728 119.252262,7.8548875 115.721237,7.28676671 L114.030323,7.01505676 C112.339409,6.74334682 111.568551,6.27402964 111.568551,5.33539528 C111.568551,4.19915369 113.060534,3.55693019 114.080056,3.55693019 C115.945034,3.55693019 117.660814,4.37206002 118.829534,5.78001156 L122.186495,3.38402386 C120.197185,1.1856434 117.312685,0 114.378452,0 C110.598762,0 107.142336,1.75376419 107.142336,6.00231969 C107.142336,8.59591462 108.932715,10.3249779 112.215077,10.8436969 L115.895301,11.4365186 C117.213219,11.6588267 117.884612,12.103443 117.884612,12.9926755 C117.884612,14.5241316 115.746103,15.0181497 114.577383,15.0181497 C112.463741,15.0181497 110.996625,14.2030198 109.454909,12.8197692 L106.073081,14.9934488 C108.48512,17.6117446 111.046357,18.5750799 114.055189,18.5750799 C117.362418,18.5750799 122.161629,17.5870437 122.161629,12.3010502 Z M97.9863727,0.494018082 C101.964993,0.494018082 104.401899,2.32188498 104.401899,6.27402964 C104.401899,8.54651281 102.959649,10.3743797 100.746541,11.0166032 L100.746541,11.0166032 L104.799761,18.0810618 L99.8513512,18.0810618 L96.3700581,11.7576303 L93.5601572,11.7576303 L93.5601572,18.0810618 L89.1339417,18.0810618 L89.1339417,0.494018082 L97.9863727,0.494018082 Z M97.6133771,3.75453742 L93.5601572,3.75453742 L93.5601572,8.49711101 L97.6133771,8.49711101 C99.0307607,8.4724101 99.9756831,7.75608388 99.9756831,6.12582421 C99.9756831,4.49556454 99.0307607,3.77923833 97.6133771,3.75453742 L97.6133771,3.75453742 Z M77.195512,0 C82.8401801,0 86.1474085,4.34735912 86.1474085,9.28753994 C86.1474085,14.2277208 82.8401801,18.5750799 77.195512,18.5750799 C71.5508439,18.5750799 68.2436155,14.2277208 68.2436155,9.28753994 C68.2436155,4.34735912 71.5508439,0 77.195512,0 Z M77.195512,3.70513561 C74.6094086,3.70513561 72.669831,5.33539528 72.669831,9.28753994 C72.669831,11.856434 73.7142189,14.8699443 77.195512,14.8699443 C80.4778741,14.8699443 81.721193,12.0046394 81.721193,9.28753994 C81.721193,6.52103868 80.4778741,3.70513561 77.195512,3.70513561 Z M59.9133784,0.494018082 C63.8919991,0.494018082 66.3289043,2.32188498 66.3289043,6.27402964 C66.3289043,8.54651281 64.8866543,10.3743797 62.6735465,11.0166032 L62.6735465,11.0166032 L66.7267663,18.0810618 L61.7783569,18.0810618 L58.2970638,11.7576303 L55.4871629,11.7576303 L55.4871629,18.0810618 L51.0609474,18.0810618 L51.0609474,0.494018082 L59.9133784,0.494018082 Z M59.5403827,3.75453742 L55.4871629,3.75453742 L55.4871629,8.49711101 L59.5403827,8.49711101 C60.9577664,8.4724101 61.9026888,7.75608388 61.9026888,6.12582421 C61.9026888,4.49556454 60.9577664,3.77923833 59.5403827,3.75453742 L59.5403827,3.75453742 Z M41.3081913,0.494018082 C45.286812,0.494018082 47.7237172,2.32188498 47.7237172,6.27402964 C47.7237172,8.54651281 46.2814672,10.3743797 44.0683594,11.0166032 L44.0683594,11.0166032 L48.1215792,18.0810618 L43.1731698,18.0810618 L39.6918767,11.7576303 L36.8819758,11.7576303 L36.8819758,18.0810618 L32.4557603,18.0810618 L32.4557603,0.494018082 L41.3081913,0.494018082 Z M40.9351956,3.75453742 L36.8819758,3.75453742 L36.8819758,8.49711101 L40.9351956,8.49711101 C42.3525793,8.4724101 43.2975017,7.75608388 43.2975017,6.12582421 C43.2975017,4.49556454 42.3525793,3.77923833 40.9351956,3.75453742 L40.9351956,3.75453742 Z"></path>
                                <polygon points="29.141 18.081 29.141 14.672 19.791 14.672 19.791 10.523 27.823 10.523 27.823 7.114 19.791 7.114 19.791 3.903 28.395 3.903 28.395 0.494 15.365 0.494 15.365 18.081"></polygon>
                                <polygon points="9.051 18.081 9.051 3.903 13.677 3.903 13.677 0.494 0 0.494 0 3.903 4.625 3.903 4.625 18.081"></polygon>
                            </g>
                            <g transform="translate(78.525282, 23.462000)">
                                <path d="M51.130501,12.3010502 C51.130501,8.94172728 48.2158427,7.8548875 44.6783942,7.28676671 L42.9844047,7.01505676 C41.2904153,6.74334682 40.5181554,6.27402964 40.5181554,5.33539528 C40.5181554,4.19915369 42.012852,3.55693019 43.034228,3.55693019 C44.9025987,3.55693019 46.6214997,4.37206002 47.7923454,5.78001156 L51.1554126,3.38402386 C49.1624839,1.1856434 46.2727372,0 43.3331673,0 C39.5466026,0 36.0838889,1.75376419 36.0838889,6.00231969 C36.0838889,8.59591462 37.8775248,10.3249779 41.1658572,10.8436969 L44.8527754,11.4365186 C46.1730908,11.6588267 46.8457042,12.103443 46.8457042,12.9926755 C46.8457042,14.5241316 44.7033058,15.0181497 43.5324601,15.0181497 C41.4149733,15.0181497 39.9451884,14.2030198 38.4006686,12.8197692 L35.0126897,14.9934488 C37.4291158,17.6117446 39.9950116,18.5750799 43.0093163,18.5750799 C46.3225604,18.5750799 51.130501,17.5870437 51.130501,12.3010502 Z"></path>
                                <polygon points="33.363 18.081 33.363 14.672 23.996 14.672 23.996 10.523 32.042 10.523 32.042 7.114 23.996 7.114 23.996 3.903 32.615 3.903 32.615 0.494 19.562 0.494 19.562 18.081"></polygon>
                                <path d="M6.87560422,0.494018082 C12.2814235,0.494018082 15.9185185,3.0382112 15.9185185,9.28753994 C15.9185185,15.5368687 12.2814235,18.0810618 6.87560422,18.0810618 L6.87560422,18.0810618 L0,18.0810618 L0,0.494018082 L6.87560422,0.494018082 Z M6.95033905,4.19915369 L4.43426649,4.19915369 L4.43426649,14.3759262 L6.97525065,14.3759262 C10.2884947,14.3759262 11.484252,12.1281439 11.484252,9.28753994 C11.484252,6.44693597 10.2884947,4.19915369 6.95033905,4.19915369 L6.95033905,4.19915369 Z"></path>
                            </g>
                            <g transform="translate(75.919282, 0.000000)">
                                <polygon points="186.375 18.081 186.375 14.672 177.034 14.672 177.034 10.523 185.058 10.523 185.058 7.114 177.034 7.114 177.034 3.903 185.63 3.903 185.63 0.494 172.613 0.494 172.613 18.081"></polygon>
                                <polygon points="168.207 18.081 168.207 0.494 163.785 0.494 163.785 18.081"></polygon>
                                <polygon points="148.7 18.081 148.7 10.671 155.283 10.671 155.283 18.081 159.705 18.081 159.705 0.494 155.283 0.494 155.283 6.817 148.7 6.817 148.7 0.494 144.278 0.494 144.278 18.081"></polygon>
                                <path d="M135.884175,0.494018082 C140.653885,0.494018082 142.417684,2.96410849 142.417684,6.44693597 C142.417684,8.79352185 141.101045,12.3998539 135.039539,12.3998539 L135.039539,12.3998539 L131.586467,12.3998539 L131.586467,18.0810618 L127.114864,18.0810618 L127.114864,0.494018082 L135.884175,0.494018082 Z M135.464738,3.75453742 L131.862613,3.75453742 L131.862613,9.13933451 L135.588949,9.13933451 C137.601171,9.13933451 138.321596,7.8301866 138.321596,6.47163687 C138.321596,4.71787268 137.47696,3.75453742 135.464738,3.75453742 L135.464738,3.75453742 Z M118.969491,0.494018082 L125.652053,18.0810618 L120.907185,18.0810618 L120.012865,15.3145605 L113.479355,15.3145605 L112.585035,18.0810618 L107.865009,18.0810618 L114.398518,0.494018082 L118.969491,0.494018082 Z M116.758531,4.79197539 L116.708847,4.79197539 L114.522729,12.0540412 L118.944648,12.0540412 L116.758531,4.79197539 Z M100.412337,0.494018082 C104.387095,0.494018082 106.821635,2.32188498 106.821635,6.27402964 C106.821635,8.54651281 105.380785,10.3743797 103.169825,11.0166032 L103.169825,11.0166032 L107.219111,18.0810618 L102.275505,18.0810618 L98.7975911,11.7576303 L95.9904179,11.7576303 L95.9904179,18.0810618 L91.5684991,18.0810618 L91.5684991,0.494018082 L100.412337,0.494018082 Z M100.039703,3.75453742 L95.9904179,3.75453742 L95.9904179,8.49711101 L100.039703,8.49711101 C101.455711,8.4724101 102.399716,7.75608388 102.399716,6.12582421 C102.399716,4.49556454 101.455711,3.77923833 100.039703,3.75453742 L100.039703,3.75453742 Z M79.6661843,18.5750799 C81.8274592,18.5750799 83.665785,17.8093518 84.8085281,16.5002039 L84.8085281,18.0810618 L88.2367573,18.0810618 L88.2367573,8.27480287 L80.5853472,8.27480287 L80.5853472,11.6835276 L84.5104212,11.6835276 C84.3116833,13.9313099 82.2000928,14.8699443 80.5853472,14.8699443 C77.579436,14.8699443 76.0392171,12.6962647 76.0392171,9.28753994 C76.0392171,5.4341989 77.8775429,3.70513561 80.5853472,3.70513561 C82.4485152,3.70513561 83.8893652,4.49556454 84.7588436,6.00231969 L88.4354952,4.39676093 C86.6965384,1.53145605 83.765154,0 80.2872403,0 C74.5238404,0 71.6172983,4.00154646 71.6172983,9.36164265 C71.6172983,14.7217388 74.3251025,18.5750799 79.6661843,18.5750799 Z M60.7860814,0 C66.42527,0 69.729288,4.34735912 69.729288,9.28753994 C69.729288,14.2277208 66.42527,18.5750799 60.7860814,18.5750799 C55.1468927,18.5750799 51.8428747,14.2277208 51.8428747,9.28753994 C51.8428747,4.34735912 55.1468927,0 60.7860814,0 Z M60.7860814,3.70513561 C58.2024883,3.70513561 56.2647936,5.33539528 56.2647936,9.28753994 C56.2647936,11.856434 57.3081677,14.8699443 60.7860814,14.8699443 C64.0652571,14.8699443 65.3073692,12.0046394 65.3073692,9.28753994 C65.3073692,6.52103868 64.0652571,3.70513561 60.7860814,3.70513561 Z M43.2416964,0.494018082 C48.0114066,0.494018082 49.7752057,2.96410849 49.7752057,6.44693597 C49.7752057,8.79352185 48.4585669,12.3998539 42.3970602,12.3998539 L42.3970602,12.3998539 L38.9439888,12.3998539 L38.9439888,18.0810618 L34.4723855,18.0810618 L34.4723855,0.494018082 L43.2416964,0.494018082 Z M42.4964292,3.75453742 L38.8943043,3.75453742 L38.8943043,9.13933451 L42.6206404,9.13933451 C44.6328619,9.13933451 45.3532869,7.8301866 45.3532869,6.47163687 C45.3532869,4.71787268 44.5086507,3.75453742 42.4964292,3.75453742 L42.4964292,3.75453742 Z M23.1968897,0 C28.8360784,0 32.1400964,4.34735912 32.1400964,9.28753994 C32.1400964,14.2277208 28.8360784,18.5750799 23.1968897,18.5750799 C17.5577011,18.5750799 14.2536831,14.2277208 14.2536831,9.28753994 C14.2536831,4.34735912 17.5577011,0 23.1968897,0 Z M23.1968897,3.70513561 C20.6132967,3.70513561 18.6756019,5.33539528 18.6756019,9.28753994 C18.6756019,11.856434 19.718976,14.8699443 23.1968897,14.8699443 C26.4760655,14.8699443 27.7181775,12.0046394 27.7181775,9.28753994 C27.7181775,6.52103868 26.4760655,3.70513561 23.1968897,3.70513561 Z"></path>
                                <polygon points="9.043 18.081 9.043 3.903 13.663 3.903 13.663 0.494 0 0.494 0 3.903 4.621 3.903 4.621 18.081"></polygon>
                            </g>
                            <path d="M64.8403001,0.3250799 L64.8403001,65.1749201 L7.10542736e-15,65.1749201 L7.10542736e-15,0.3250799 L64.8403001,0.3250799 Z M58.323687,6.8426518 L6.5166131,6.8426518 L6.5166131,58.6573482 L58.323687,58.6573482 L58.323687,6.8426518 Z M41.0546624,24.1142173 L41.0546624,41.7116613 L23.4598071,41.7116613 L23.4598071,24.1142173 L41.0546624,24.1142173 Z"></path>
                        </g>
                    </g>
                </svg>