<?xml version="1.0" encoding="UTF-8"?>
<svg id="Ebene_1" xmlns="http://www.w3.org/2000/svg" version="1.1" viewBox="0 0 2267.72 2267.72">
  <!-- Generator: Adobe Illustrator 30.1.0, SVG Export Plug-In . SVG Version: 2.1.1 Build 136)  -->
  <defs>
    <style>
      .st0 {
        fill: #595959;
      }
    </style>
  </defs>
  <path d="M606.87,1338.69c13.6,5.78,25.52,12.06,36.5,20.88,20.44,16.42,32.76,39.5,34.71,65.75,4.14,56.05-21.47,94.77-71.61,118.07-19.61,9.03-40.21,12.53-61.93,14.09l-177.17.14v-403.16s180.16.1,180.16.1c15.65,1.49,30.2,3.21,45.01,7.84,46.43,14.58,72.59,48.84,69.1,98.29-2.02,34.33-24.92,62.35-54.77,77.98ZM584.93,1248.55c-3.52-10.61-12.55-18.09-22.96-21.84-7.35-2.93-14.55-3.33-22.54-4.74l-95.63-.09v89.26s89.53-.25,89.53-.25c12.46-1.05,24.15-2.13,35.04-7.9,19.64-9.66,22.86-35.45,16.56-54.44ZM571.75,1384.78c-8.16-3.7-16.47-4.76-25.57-6.19l-102.38-.09v110.22s100.87-.12,100.87-.12c10.39-1.45,19.79-2.83,29.05-7.19,16.4-6.87,26.48-21.81,27.93-39.53,2.11-25.75-4.58-46.66-29.91-57.09Z"/>
  <g>
    <path d="M1565.08,1332.58c-23.19-2.83-42.19,2.82-57.42,19.96-13.66,15.39-19.37,34.83-20.16,55.68l-.24,149.37-72.68.02v-286.21s72.68-.08,72.68-.08l.16,45.42c7.4-10.62,14.91-19.94,24.64-28.14,15.87-13.45,34.62-21.6,55.37-24.05,2.94-1.29,6.14-.14,9.02-.78,7.13-1.58,24.99.47,32.65,1.96,24.37,4.73,45.59,18.13,59.41,38.83,10.04,15.05,14.47,32.03,15.86,50.34l.11,202.67h-73.47s-.04-175.68-.04-175.68c-1.3-6.51-1.78-12.17-3.98-18.07-7.07-18.96-21.57-28.76-41.91-31.24Z"/>
    <rect x="1185.96" y="1154.47" width="73.46" height="403.15"/>
    <g>
      <path d="M924.05,1446.48l57.63,33.01c-14.44,31.9-39.08,59.53-70.95,73.48-41.61,18.22-97.26,17.68-137.18-4.98-45.43-25.79-72.26-67.89-76.03-120.2-.71-9.92-.47-19.6.01-29.41.35-7.05,1.62-13.4,2.95-20.37,4.96-25.96,17.12-49.74,35.07-68.98,27.72-29.72,65.42-46.86,106-47.57,4.79-1.35,9.37-.39,14.22-.19,19.8.85,38.94,4.7,57.06,13.47,27.66,13.39,49.67,35.87,62.93,63.53,8.01,17.34,13.3,35.06,13.47,54.09l.36,40.12-218.34-.03c3.31,35.33,28.58,62.56,64.26,66.32,23.24,2.45,44.67-2.26,62.77-17.36,1.87-1.56,3.03-3.49,5.47-4.34.94-2.56,3.04-3.89,4.67-5.84,6.23-7.45,11.07-15.5,15.65-24.76ZM871.12,1323.79c-4.59-1.21-8.9-2.47-13.74-2.71-6.81-.33-13.69-.7-20.54.04-30.45,3.29-55.17,25.87-65.09,54.4h146.63c-5.76-25.39-21.68-45-47.26-51.73Z"/>
      <path d="M1092.17,1554.68c-.12,2.37-1.29,2.95-2.96,2.95h-71.21s.12-181,.12-181c3.61-34.29,15.15-65.15,40.69-88.43,17.01-14.97,37.33-24.57,60.06-24.74l43.06-.31v73.26s-26.6.44-26.6.44c-25.14.41-42.73,26.9-42.78,47.28l-.39,170.55Z"/>
    </g>
    <g>
      <rect x="1300.65" y="1271.36" width="72.72" height="286.25"/>
      <rect x="1300.65" y="1154.47" width="72.72" height="95.17"/>
    </g>
  </g>
  <g>
    <path d="M1916.86,818.01v286l-72.65.31-.49-35.29c-17.2,27.32-46.6,40.75-77.04,43.07-28,2.13-55.91-1.62-80.82-15.21-29.49-16.1-51.58-42.14-62.52-73.85-8.05-23.32-10.69-50.69-8.95-75.08,2.52-35.54,13.48-66.15,37.89-92.46,10.27-11.07,23.91-22.16,37.43-29.3,24.54-12.98,47.05-16.53,74.66-14.59,15.94,1.12,31.1,4.64,45.53,11.34,9.31,4.33,17.75,9.23,24.53,16.79l9.63,10.74.18-32.46,72.64-.02ZM1822.62,1019.77c16.42-18.13,22.22-41.77,20.48-65.84-2.86-39.62-30.35-71.08-70.49-74.21-26.01-2.03-48.81,5.74-66.3,25.42-16.91,19.03-21.42,42.84-19.26,67.77,3.23,37.4,30.57,67.46,68.95,71.08,25.49,2.4,49.19-4.97,66.62-24.22Z"/>
    <g>
      <path d="M682.2,701.86l-.08,267.75c-2.23,20.28-5.9,39.56-14.67,57.66-14.52,32.62-42.98,57.72-75.44,71.49-18.8,7.97-38.12,11.81-58.44,13.54l-33.31.03c-36.66-2.83-73.32-15.36-100.46-40.46l-6.27-5.8c-1.9-1.76-3.58-3.86-5.38-5.87-9.21-10.25-16.42-21.37-22.06-34.24-8.31-18.97-13.74-39.7-13.74-60.33-.46-87.93-.59-175.92-.39-263.98,25.47-.39,50.83-.32,76.1.21l1.5.72.06,249.34c2.52,31.01,11,59.11,39.32,76.43,25.19,15.4,64.26,16.14,90.6,3.18,30.6-15.06,40.2-42.15,44.64-73.88l.06-254.14c-.14-1.66.63-2.09,2.24-2.39h.75c25,.25,49.99.5,74.96.75Z"/>
      <path class="st0" d="M428.07,701.11v.75h-75.74s.03,263.77.03,263.77c-.41.08-.55-.16-.75-.96v-263.56h76.47Z"/>
      <path class="st0" d="M682.2,701.11v.75h-74.11c-.61,0-.94-.47-.85-.75h74.96Z"/>
    </g>
    <g>
      <path d="M1350.97,879.23l-7.58-.56c-20.33-1.5-38.87,7.76-51.21,23.83-9.89,12.88-14.96,27.5-16.92,44.03l-.12,157.69-73.45.05v-286.24s73.44-.03,73.44-.03l.12,44.57c4.46-5.75,7.98-11.49,13.14-16.28,2.72-4.21,6.44-6.87,10.23-10.19,24.93-21.86,54.54-28,87.12-25.13,33.98,2.99,62.96,22.05,77.12,53.25,5.07,11.16,7.07,22.58,8.65,35.1l.07,204.9-72.72.06-.12-168.13c-1.28-15.61-3.5-30.48-14.5-42.17-8.69-9.24-20.63-13.82-33.28-14.75Z"/>
      <g>
        <path d="M1053.95,1100.1c-22.53,11.65-47.82,13.94-72.28,11.99-58.04-4.64-103.99-45.3-118.19-101.36-8.3-32.77-7.94-75.68,3.63-107.52,8.83-24.28,21.18-41.52,40.35-58.61,21.18-18.89,47.05-30.85,75.51-33.01,24.04-1.83,52.7,1.62,74.15,12.96,12.07,6.72,22.58,14.52,30.47,26.01l.21-32.58,72.68.08v286.14s-72.69.09-72.69.09l-.11-35.37c-8.5,13.09-19.56,23.54-33.72,31.18ZM1069.05,1016.62c15.37-18.25,19.84-42.41,17.57-65.59-1.74-17.8-8.24-34.16-20.32-47.02-7.35-7.82-14.9-13.85-24.81-18.09-12.82-5.48-26.45-7.3-40.38-6.2-19.68,1.56-37.19,9.95-50.38,24.68-16.56,18.5-22.13,42.49-20.07,66.88,1.53,18.12,8.01,34.68,20.06,48.12,13.01,14.52,30.12,23.02,49.69,24.58,27.85,2.21,50.5-5.82,68.64-27.36Z"/>
        <path d="M786.01,934.22l-.43,170.03-74.23-.02.5-174.8c.06-21.13,6.03-40.82,14.56-59.58,5.48-10.6,11.58-19.87,19.73-28.39,18.01-19.61,42.47-31.21,69.07-31.41l40.18-.3-.05,73.38-24.42.34c-15.04.21-28.3,7.75-35.99,21.17-4.93,8.61-8.89,18.54-8.92,29.59Z"/>
      </g>
    </g>
    <g>
      <path d="M1514.3,701.11c23.75.25,47.49.5,71.22.75,0,30.99.06,62.3.89,94.37l-73.56.07-.05-95.19h1.5Z"/>
      <path class="st0" d="M1585.52,701.11v.75h-70.37c-.6,0-.94-.47-.85-.75h71.22Z"/>
      <rect x="1512.8" y="818.01" width="73.46" height="286.25"/>
    </g>
  </g>
</svg>