<?xml version="1.0" encoding="utf-8"?>
<!-- Generator: Adobe Illustrator 22.1.0, SVG Export Plug-In . SVG Version: 6.00 Build 0)  -->
<svg version="1.1" id="Ebene_1" xmlns="http://www.w3.org/2000/svg" xmlns:xlink="http://www.w3.org/1999/xlink" x="0px" y="0px"
	 viewBox="0 0 225 35" style="enable-background:new 0 0 225 35;" xml:space="preserve">
<style type="text/css">
	.st0{fill:#FFFFFF;}
</style>
<title>logo-small</title>
<path class="st0" d="M15.2,1.3v21.9c0,4.8-0.4,6.6-1.9,8.5c-1.4,1.7-3.5,2.6-5.7,2.6c-2.2,0-4.2-0.9-5.6-2.6c-1.6-1.9-2-3.7-2-8.5
	V1.3h4.9v21.3c0,3.2,0.1,4.6,0.3,5.3c0.3,1.1,1.3,1.8,2.4,1.8c1.3,0,2.3-1,2.5-2.2c0.2-1.6,0.3-3.2,0.2-4.8V1.3H15.2z"/>
<path class="st0" d="M28.1,15.6c1.8,0,2.5-0.3,3-1.4c0.5-1.1,0.7-2.3,0.6-3.6c0-1.2-0.2-2.4-0.6-3.6c-0.5-1.1-1.2-1.4-3-1.4h-1.6
	v9.8L28.1,15.6z M26.6,33.7h-4.9V1.3h6.8c5.6,0,8.1,2.9,8.1,9.4c0,4.2-0.9,6.4-3.3,8.2l3.7,14.9H32l-3.1-13.6h-2.3V33.7z"/>
<path class="st0" d="M49.7,29.2c2.7,0,3.9-1.4,3.9-4.7c0-2.1-0.5-3.7-1.6-4.5c-0.8-0.6-1.9-0.9-2.9-0.7h-1.2v10L49.7,29.2z
	 M48.9,14.7c3,0,4.2-1.4,4.2-4.8c0-2.8-1.1-4.1-3.3-4.1h-1.8v8.9H48.9z M43,1.3h6.8c5.3,0,8.1,2.8,8.1,8.4c0,3.4-1,5.5-3.4,7.3
	c2.8,1.4,4,3.8,4,8.1c0,3.3-0.8,5.6-2.4,7.1c-1.3,1.2-2.7,1.6-5.8,1.6H43V1.3z"/>
<path class="st0" d="M70.8,9.1L69,22h3.8L70.8,9.1z M68.3,26.6l-1.1,7.1h-4.8l5.3-32.4H74l5.6,32.4h-5l-1.1-7.1L68.3,26.6z"/>
<polygon class="st0" points="96.5,33.7 89.5,13.7 89.5,33.7 84.9,33.7 84.9,1.3 89.8,1.3 96.5,20.5 96.5,1.3 101,1.3 101,33.7 "/>
<polygon class="st0" points="127.6,33.7 120.6,13.7 120.6,33.7 116.1,33.7 116.1,1.3 121,1.3 127.6,20.5 127.6,1.3 132.1,1.3 
	132.1,33.7 "/>
<path class="st0" d="M146.1,9.1L144.2,22h3.8L146.1,9.1z M143.6,26.6l-1.1,7.1h-4.8l5.3-32.4h6.3l5.6,32.4h-5l-1.1-7.1H143.6z"/>
<polygon class="st0" points="166.2,33.7 161.3,33.7 161.3,5.8 156.2,5.8 156.2,1.3 171.4,1.3 171.4,5.8 166.2,5.8 "/>
<rect x="175.8" y="1.3" class="st0" width="4.9" height="32.4"/>
<path class="st0" d="M192.2,22.6c0,3.2,0.1,4.6,0.3,5.3c0.3,1.1,1.3,1.8,2.4,1.8c1.3,0,2.4-1,2.5-2.2c0.2-1.6,0.3-3.2,0.2-4.8V12.4
	c0-3.3-0.1-4.6-0.3-5.3c-0.3-1-1.3-1.8-2.4-1.8c-1.3,0-2.4,0.9-2.6,2.2c-0.2,1.6-0.2,3.2-0.2,4.8L192.2,22.6L192.2,22.6z
	 M202.5,23.2c0,4.8-0.4,6.6-1.9,8.5c-2.7,3.1-7.5,3.5-10.6,0.7c-0.3-0.2-0.5-0.5-0.7-0.7c-1.6-1.9-1.9-3.7-1.9-8.5V11.8
	c0-4.8,0.4-6.6,1.9-8.4c2.7-3.1,7.5-3.5,10.6-0.7c0.3,0.2,0.5,0.5,0.7,0.7c1.6,1.9,1.9,3.6,1.9,8.4L202.5,23.2L202.5,23.2z"/>
<polygon class="st0" points="220.5,33.7 213.4,13.7 213.4,33.7 208.9,33.7 208.9,1.3 213.8,1.3 220.5,20.5 220.5,1.3 225,1.3 
	225,33.7 "/>
</svg>
