<svg xmlns="http://www.w3.org/2000/svg" viewBox="0 0 131.42 69.84"><defs><style>.cls-1{fill:#232855;}</style></defs><title>Zeichenfläche 222</title><g id="Ebene_1" data-name="Ebene 1"><path class="cls-1" d="M11.54.65c.27,0,.39.17.39.38V2.52c0,.26-.12.41-.36.41H6c-1.8,0-2.68.62-2.68,1.85v.38c0,1.06.38,1.63,1.6,2.14L9.82,9.24c2.23.89,3,2.11,3,4.49v.74A3.64,3.64,0,0,1,10.92,18a10.38,10.38,0,0,1-4.68.81,40.28,40.28,0,0,1-5.9-.43A.4.4,0,0,1,0,18V16.54c0-.27.12-.39.38-.39h6.7c1.78,0,2.66-.6,2.66-1.8V14c0-1.16-.43-1.76-1.77-2.31l-5.19-2C.89,8.91.24,7.54.24,5.14V4.58C.24,1,2.9.24,6.72.24A32.85,32.85,0,0,1,11.54.65Z"/><path class="cls-1" d="M18,1.78c.26-.08.41,0,.41.33V5.47h2.37c.27,0,.39.12.39.36V7.34c0,.27-.12.39-.39.39H18.44v7.32c0,1.06.31,1.27,1.48,1.27H21c.26,0,.41.12.41.34v1.58a.39.39,0,0,1-.36.43,9.14,9.14,0,0,1-1.71.17,7.48,7.48,0,0,1-2.13-.19c-1.06-.29-1.59-1-1.68-2.74V7.73H14.14c-.26,0-.38-.12-.38-.39V5.83c0-.24.12-.36.38-.36h1.37V2.71a.37.37,0,0,1,.33-.38Z"/><path class="cls-1" d="M26.63,1.66c0,1.1-.57,1.65-1.73,1.65a1.55,1.55,0,0,1-1.75-1.65A1.55,1.55,0,0,1,24.9,0C26.06,0,26.63.55,26.63,1.66ZM26,5.45a.32.32,0,0,1,.36.36V18.36a.32.32,0,0,1-.36.36H23.8a.32.32,0,0,1-.36-.36V5.81a.32.32,0,0,1,.36-.36Z"/><path class="cls-1" d="M36.6.46A.39.39,0,0,1,37,.89V2.4c0,.24-.12.36-.38.36H35c-1.28,0-1.71.17-1.71,1.13V5.47h3c.27,0,.36.12.31.39l-.28,1.56a.4.4,0,0,1-.41.33H33.29V18.36a.32.32,0,0,1-.36.36H30.75a.32.32,0,0,1-.36-.36V7.75H28.76c-.27,0-.39-.12-.39-.36V5.83c0-.24.12-.36.39-.36h1.63V3.31A2.59,2.59,0,0,1,31.68.7,5.47,5.47,0,0,1,34.25.24,13.8,13.8,0,0,1,36.6.46Z"/><path class="cls-1" d="M42.34,1.78c.26-.08.41,0,.41.33V5.47h2.37c.27,0,.39.12.39.36V7.34c0,.27-.12.39-.39.39H42.75v7.32c0,1.06.31,1.27,1.48,1.27h1.06c.26,0,.41.12.41.34v1.58a.39.39,0,0,1-.36.43,9.14,9.14,0,0,1-1.71.17,7.48,7.48,0,0,1-2.13-.19c-1.06-.29-1.59-1-1.68-2.74V7.73H38.45c-.26,0-.38-.12-.38-.39V5.83c0-.24.12-.36.38-.36h1.37V2.71a.37.37,0,0,1,.33-.38Z"/><path class="cls-1" d="M58.64,5.45a.32.32,0,0,1,.36.36V18.05c0,.31-.12.34-.36.38a28.11,28.11,0,0,1-5.35.41c-2.4,0-3.53-.14-4.49-1s-1.2-2.16-1.2-4.73V5.81c0-.24.15-.36.41-.36h2.16c.22,0,.34.12.34.36V12.6c0,1.83.07,2.69.57,3.19s1,.53,2.24.53h2.76V5.81a.32.32,0,0,1,.36-.36Z"/><path class="cls-1" d="M72.05,6.31c1,.79,1.2,2.14,1.2,4.71v7.34c0,.24-.12.36-.38.36H70.71a.32.32,0,0,1-.36-.36V11.54c0-1.82-.08-2.68-.58-3.16A1.46,1.46,0,0,0,69,7.92a9.37,9.37,0,0,0-1.41-.07H64.78V18.36a.32.32,0,0,1-.36.36H62.21c-.22,0-.34-.12-.34-.36V6.1c0-.32.12-.34.34-.39a28.49,28.49,0,0,1,5.38-.38C70,5.33,71.11,5.47,72.05,6.31Z"/><path class="cls-1" d="M86.75,5.76a.43.43,0,0,1,.45.48V18a8.06,8.06,0,0,1-.62,3.8c-.65,1.36-2.23,1.89-5.09,1.89a27.8,27.8,0,0,1-3.94-.26.37.37,0,0,1-.33-.39V21.58a.32.32,0,0,1,.36-.36h3.74a3.76,3.76,0,0,0,2.38-.53,2.43,2.43,0,0,0,.6-1.94v-.12a19.82,19.82,0,0,1-3.07.21c-2.21,0-3.68-.45-4.42-1.39s-1.1-2.76-1.1-5.47.38-4.42,1.15-5.31,2.37-1.34,4.77-1.34A26.68,26.68,0,0,1,86.75,5.76ZM84.3,7.85H81.54c-1.27,0-2.07.26-2.4.82a7.36,7.36,0,0,0-.51,3.4,7.09,7.09,0,0,0,.53,3.44c.36.52,1.2.79,2.52.79a18.4,18.4,0,0,0,2.62-.15Z"/><path class="cls-1" d="M11.71,26.94c1,.79,1.52,2.4,1.52,4.78a7,7,0,0,1-1,4.17,3.1,3.1,0,0,1-1.4,1,12.8,12.8,0,0,1-4.77.58h-3v6.38c0,.29-.08.36-.36.36H.36c-.29,0-.36-.07-.36-.36V26.27c0-.27.07-.31.36-.34,1.7-.12,3.62-.19,5.74-.19C8.83,25.74,10.71,26.15,11.71,26.94ZM3.1,28.43V35H5.81c1.89,0,2.66,0,3.41-.5s.89-1.2.89-2.71-.29-2.33-.85-2.74a6.41,6.41,0,0,0-3.45-.62Z"/><path class="cls-1" d="M18,25.86a.32.32,0,0,1,.36.36V43.86a.32.32,0,0,1-.36.36H15.85a.32.32,0,0,1-.36-.36V26.22a.32.32,0,0,1,.36-.36Z"/><path class="cls-1" d="M31.52,34.76v8.36a.67.67,0,0,1-.48.69,20.4,20.4,0,0,1-5.4.53,7.36,7.36,0,0,1-3.91-.77c-.77-.52-1.16-1.6-1.16-3.24,0-2.9,1.42-3.81,4.57-3.81h3.48V35.27c0-1.35-.8-1.92-2.72-1.92H22c-.29,0-.36-.07-.36-.36V31.52c0-.28.07-.31.33-.38a21.07,21.07,0,0,1,4-.31C30,30.83,31.52,32.08,31.52,34.76Zm-2.9,3.85H25.3c-1.32,0-1.84.43-1.84,1.6,0,1.35.6,1.71,2.42,1.71a11.6,11.6,0,0,0,2.74-.27Z"/><path class="cls-1" d="M44.5,31.81c1,.79,1.2,2.14,1.2,4.71v7.34c0,.24-.12.36-.39.36H43.15a.32.32,0,0,1-.36-.36V37c0-1.82-.07-2.68-.57-3.16a1.49,1.49,0,0,0-.82-.46A9.55,9.55,0,0,0,40,33.35H37.23V43.86a.32.32,0,0,1-.36.36H34.66c-.22,0-.34-.12-.34-.36V31.6c0-.32.12-.34.34-.39A28.44,28.44,0,0,1,40,30.83C42.43,30.83,43.56,31,44.5,31.81Z"/><path class="cls-1" d="M58.36,32.15c.88,1,1.12,2.47,1.15,5.18v.72c0,.48-.17.65-.82.65H51.08a4,4,0,0,0,.63,2.52,3.32,3.32,0,0,0,2.35.6h4.1a.32.32,0,0,1,.36.36v1.49a.39.39,0,0,1-.33.41,30.46,30.46,0,0,1-4.3.26c-2.33,0-3.86-.43-4.61-1.32s-1.13-2.71-1.13-5.42.37-4.54,1.11-5.43,2.3-1.34,4.63-1.34S57.49,31.12,58.36,32.15ZM51.66,34a4.49,4.49,0,0,0-.58,2.59h5.5A4.46,4.46,0,0,0,56,34a2.61,2.61,0,0,0-2.14-.67A2.76,2.76,0,0,0,51.66,34Z"/><path class="cls-1" d="M65.33,27.28c.26-.08.41,0,.41.33V31h2.37c.27,0,.39.12.39.36v1.51c0,.27-.12.39-.39.39H65.74v7.32c0,1.06.31,1.27,1.48,1.27h1.06c.26,0,.41.12.41.34v1.58a.39.39,0,0,1-.36.43,9.14,9.14,0,0,1-1.71.17,7.48,7.48,0,0,1-2.13-.19c-1.06-.29-1.59-1-1.68-2.74V33.23H61.44c-.27,0-.38-.12-.38-.39V31.33c0-.24.11-.36.38-.36h1.37V28.21a.37.37,0,0,1,.33-.38Z"/><path class="cls-1" d="M81.26,34.76v8.36a.67.67,0,0,1-.48.69,20.51,20.51,0,0,1-5.4.53,7.34,7.34,0,0,1-3.91-.77c-.77-.52-1.16-1.6-1.16-3.24,0-2.9,1.42-3.81,4.56-3.81h3.48V35.27c0-1.35-.79-1.92-2.71-1.92H71.71c-.29,0-.36-.07-.36-.36V31.52c0-.28.07-.31.33-.38a21.07,21.07,0,0,1,4-.31C79.75,30.83,81.26,32.08,81.26,34.76Zm-2.91,3.85H75c-1.32,0-1.85.43-1.85,1.6,0,1.35.6,1.71,2.43,1.71a11.45,11.45,0,0,0,2.73-.27Z"/><path class="cls-1" d="M91,31.09c.27.08.39.22.39.43V33c0,.26-.15.38-.41.36H88.83c-1.47,0-1.88.24-1.88,1.29v9.22a.32.32,0,0,1-.36.36H84.41a.32.32,0,0,1-.36-.36v-10a2.59,2.59,0,0,1,1.39-2.62,6,6,0,0,1,2.66-.45A11.75,11.75,0,0,1,91,31.09Z"/><path class="cls-1" d="M96.58,27.16c0,1.1-.58,1.65-1.73,1.65a1.66,1.66,0,1,1,0-3.31C96,25.5,96.58,26.05,96.58,27.16ZM95.93,31a.32.32,0,0,1,.36.36V43.86a.32.32,0,0,1-.36.36H93.74a.32.32,0,0,1-.36-.36V31.31a.32.32,0,0,1,.36-.36Z"/><path class="cls-1" d="M110.09,31a.32.32,0,0,1,.36.36V43.55c0,.31-.12.34-.36.38a28.11,28.11,0,0,1-5.35.41c-2.4,0-3.53-.14-4.49-1s-1.2-2.16-1.2-4.73V31.31c0-.24.14-.36.41-.36h2.16c.21,0,.33.12.33.36V38.1c0,1.83.07,2.69.58,3.19s1,.53,2.23.53h2.76V31.31a.32.32,0,0,1,.36-.36Z"/><path class="cls-1" d="M130.24,31.76c.89.77,1.18,2.09,1.18,4.37l0,7.73c0,.24-.12.36-.34.36h-2.18c-.22,0-.34-.12-.34-.36V37a8.87,8.87,0,0,0-.26-2.54c-.31-1.06-.82-1.17-2.38-1.17a15.07,15.07,0,0,0-2.4.19,9.91,9.91,0,0,1,.36,3l0,7.34c0,.24-.09.36-.31.36h-2.21a.32.32,0,0,1-.36-.36V36.57c0-1.57-.09-2.36-.57-2.77s-.89-.45-2.07-.45h-2V43.86a.32.32,0,0,1-.36.36h-2.18q-.33,0-.36-.36V31.6c0-.22.12-.34.36-.39a20.84,20.84,0,0,1,4.27-.38,9.88,9.88,0,0,1,4.13.72,11.88,11.88,0,0,1,4-.75C128.22,30.8,129.35,31,130.24,31.76Z"/><path class="cls-1" d="M11.69,52.37c1,.74,1.54,2.06,1.54,4,0,2.5-.68,3.77-2.38,4.13v.07c2.09.29,2.83,1.8,2.83,4.32,0,1.9-.5,3.22-1.49,3.94a8.43,8.43,0,0,1-4.75,1c-2.81,0-5.16-.07-7.08-.21-.29,0-.36-.08-.36-.34V51.77c0-.27.07-.31.36-.34,1.7-.12,3.86-.19,6.43-.19A8.33,8.33,0,0,1,11.69,52.37ZM3.1,53.93v5.45H5.81a8.38,8.38,0,0,0,3.43-.46c.6-.31.89-1,.89-2.21,0-2.18-1-2.78-3.63-2.78Zm0,7.78v5.44H7.34c2.33,0,3.24-.57,3.24-2.59,0-2.21-1-2.85-3.19-2.85Z"/><path class="cls-1" d="M26.09,57.65c.89,1,1.13,2.47,1.15,5.18v.72c0,.48-.17.65-.81.65H18.82a4,4,0,0,0,.62,2.52,3.34,3.34,0,0,0,2.35.6H25.9a.32.32,0,0,1,.36.36v1.49a.39.39,0,0,1-.34.41,30.31,30.31,0,0,1-4.29.26c-2.33,0-3.87-.43-4.61-1.32s-1.13-2.71-1.13-5.42.36-4.54,1.1-5.43,2.31-1.34,4.64-1.34S25.23,56.62,26.09,57.65Zm-6.7,1.87a4.43,4.43,0,0,0-.57,2.59h5.49a4.46,4.46,0,0,0-.55-2.59,2.58,2.58,0,0,0-2.13-.67A2.78,2.78,0,0,0,19.39,59.52Z"/><path class="cls-1" d="M36.5,56.59c.27.08.39.22.39.43v1.47c0,.26-.15.38-.41.36H34.3c-1.47,0-1.88.24-1.88,1.29v9.22a.32.32,0,0,1-.36.36H29.88a.32.32,0,0,1-.36-.36v-10a2.59,2.59,0,0,1,1.39-2.62,6.08,6.08,0,0,1,2.67-.45A11.71,11.71,0,0,1,36.5,56.59Z"/><path class="cls-1" d="M41.4,51.36a.32.32,0,0,1,.36.36V69.36a.32.32,0,0,1-.36.36H39.22a.32.32,0,0,1-.36-.36V51.72a.32.32,0,0,1,.36-.36Z"/><path class="cls-1" d="M47.82,52.66c0,1.1-.58,1.65-1.73,1.65a1.66,1.66,0,1,1,0-3.31C47.24,51,47.82,51.55,47.82,52.66Zm-.65,3.79a.32.32,0,0,1,.36.36V69.36a.32.32,0,0,1-.36.36H45a.32.32,0,0,1-.36-.36V56.81a.32.32,0,0,1,.36-.36Z"/><path class="cls-1" d="M60.56,57.31c1,.79,1.2,2.14,1.2,4.71v7.34c0,.24-.12.36-.38.36H59.22a.32.32,0,0,1-.36-.36V62.54c0-1.82-.07-2.68-.58-3.16a1.44,1.44,0,0,0-.81-.46,9.62,9.62,0,0,0-1.42-.07H53.29V69.36a.32.32,0,0,1-.36.36H50.72c-.21,0-.33-.12-.33-.36V57.1c0-.32.12-.34.33-.39a28.49,28.49,0,0,1,5.38-.38C58.5,56.33,59.63,56.47,60.56,57.31Z"/></g></svg>