<svg width="409px" height="75px" viewBox="0 0 409 75" version="1.1" xmlns="http://www.w3.org/2000/svg" xmlns:xlink="http://www.w3.org/1999/xlink">
        <!-- Generator: Sketch 45.2 (43514) - http://www.bohemiancoding.com/sketch -->
        <title>Page 1</title>
        <desc>Created with Sketch.</desc>
        <defs>
            <polygon id="path-1" points="0.6113 67 46.7143 67 46.7143 0.1774 0.6113 0.1774 0.6113 67"></polygon>
            <polygon id="path-3" points="0 75 408.378 75 408.378 0.874 0 0.874"></polygon>
        </defs>
        <g id="Symbols" stroke="none" stroke-width="1" fill="none" fill-rule="evenodd">
            <g id="Header_Start_04" transform="translate(-54.000000, -38.000000)">
                <g id="Page-1" transform="translate(54.000000, 37.000000)">
                    <polygon id="Fill-1" fill="#EA4D3E" points="52.4601 9.4917 3.7721 9.4917 3.7721 24.1887 27.6561 24.1887 0.0001 73.7977 1.3831 73.7977 52.7361 73.7977 52.7361 59.0977 26.0951 59.0977 53.8461 9.4867"></polygon>
                    <g id="Group-119" transform="translate(0.000000, 0.126000)">
                        <g id="Group-4" transform="translate(154.000000, 8.000000)">
                            <mask id="mask-2" fill="white">
                                <use xlink:href="#path-1"></use>
                            </mask>
                            <g id="Clip-3"></g>
                            <path d="M24.2413,67.0004 C21.3753,67.0004 18.5603,66.5894 15.8793,65.7774 C12.9063,64.8814 10.4193,63.7454 8.2733,62.3044 C7.8963,62.0494 6.8013,61.2524 6.7733,61.2324 C5.7133,60.4714 4.7343,59.6624 3.8613,58.8294 C2.5553,57.5884 1.6763,56.7064 1.1683,56.1354 L0.6113,55.5074 L10.9283,45.2604 L11.1313,45.4594 C11.1313,45.4594 11.9533,46.2624 12.1653,46.4794 L12.3443,46.6664 C12.7573,47.0974 13.1133,47.4684 13.8893,48.0944 C14.7963,48.8264 15.8473,49.5364 17.0133,50.2054 C18.1803,50.8764 19.4233,51.4534 20.7093,51.9204 C22.8143,52.6874 24.8583,52.7924 27.1433,52.2564 C28.0833,52.0344 28.9493,51.6854 29.7193,51.2184 C30.4553,50.7714 31.0663,50.1734 31.5363,49.4394 C32.0173,48.6924 32.2003,47.9894 32.1903,46.9354 C32.1853,46.4764 32.0263,45.8504 31.8423,45.5664 C31.4823,45.0194 30.9513,44.4494 30.3033,43.9234 C29.5243,43.2904 28.4253,42.6024 27.0333,41.8764 C25.6193,41.1414 23.7193,40.1894 21.5603,39.3494 C18.9163,38.3434 16.7723,37.3974 14.6113,36.2874 C12.3483,35.1254 10.1903,33.6254 8.5373,32.0624 C6.7493,30.3764 5.5063,28.6864 4.6283,26.7444 C3.6993,24.6964 3.2273,22.3064 3.2273,19.6394 C3.2273,16.9234 3.7423,14.3394 4.7573,11.9614 C5.7703,9.5844 7.2343,7.4924 9.1113,5.7434 C10.9703,4.0054 13.2463,2.6274 15.8703,1.6434 C18.4793,0.6704 21.3873,0.1774 24.5153,0.1774 C26.2073,0.1774 28.0373,0.3994 29.9523,0.8374 C31.8413,1.2714 33.7033,1.8354 35.4883,2.5114 C37.2913,3.1984 39.0033,3.9984 40.5773,4.8944 C42.1693,5.7974 43.5213,6.7364 44.5973,7.6854 L45.2153,8.2304 L36.3603,19.3504 L35.6973,18.8964 C34.5753,18.1304 33.4033,17.4074 32.2113,16.7504 C31.2413,16.2364 30.0853,15.7334 28.7773,15.2574 C27.6063,14.8314 26.3243,14.6044 24.9683,14.5804 C22.0433,14.5204 20.7623,15.0364 19.4983,15.9274 C18.3033,16.7654 17.7223,17.9494 17.7223,19.5484 C17.7223,20.2164 17.9203,20.8084 18.3283,21.3574 C18.7803,21.9714 19.4103,22.5444 20.2033,23.0634 C21.0393,23.6114 22.0193,24.1244 23.1193,24.5864 C23.3903,24.7014 23.6733,24.8224 23.9603,24.9464 C24.8853,25.3474 25.8423,25.7614 26.7833,26.0744 C31.0503,27.7084 33.8233,28.9534 36.0673,30.2394 C38.6193,31.7014 40.7103,33.2884 42.2843,34.9554 C43.8823,36.6484 45.0353,38.5024 45.7103,40.4634 C46.3763,42.3974 46.7143,44.5314 46.7143,46.8074 C46.7143,49.5954 46.1363,52.2634 44.9943,54.7364 C43.8543,57.2034 42.2673,59.3684 40.2753,61.1694 C38.2853,62.9694 35.8923,64.4054 33.1643,65.4404 C30.4363,66.4754 27.4353,67.0004 24.2413,67.0004" id="Fill-2" fill="#EA4D3E" mask="url(#mask-2)"></path>
                        </g>
                        <path d="M88.0577,58.9447 C78.4717,58.9447 70.7017,51.1737 70.7017,41.5887 C70.7017,32.0027 78.4717,24.2317 88.0577,24.2317 C97.6437,24.2317 105.4137,32.0027 105.4137,41.5887 C105.4137,51.1737 97.6437,58.9447 88.0577,58.9447 M88.0577,8.3837 C69.7527,8.3837 54.9137,23.2227 54.9137,41.5277 C54.9137,59.8327 69.7527,74.6717 88.0577,74.6717 C106.3627,74.6717 121.2017,59.8327 121.2017,41.5277 C121.2017,23.2227 106.3627,8.3837 88.0577,8.3837" id="Fill-5" fill="#EA4D3E"></path>
                        <polygon id="Fill-7" fill="#EA4D3E" points="158.4532 9.3608 143.7542 0.8748 143.7542 17.8468"></polygon>
                        <polygon id="Fill-9" fill="#EA4D3E" points="129.1144 9.3949 129.0544 9.3609 129.0544 73.7459 143.7544 73.7459 143.7544 17.8469"></polygon>
                        <polygon id="Fill-11" fill="#131413" points="226.0001 20.0912 218.2971 20.0912 218.2971 18.6682 223.2611 11.5522 218.4321 11.5522 218.4321 9.7392 225.8661 9.7392 225.8661 11.1552 220.9091 18.2792 226.0001 18.2792"></polygon>
                        <path d="M230.7589,13.5639 C230.2999,13.5639 229.9419,13.7089 229.6829,13.9989 C229.4229,14.2899 229.2739,14.7009 229.2359,15.2339 L232.2669,15.2339 C232.2569,14.7009 232.1179,14.2899 231.8489,13.9989 C231.5789,13.7089 231.2159,13.5639 230.7589,13.5639 M231.0629,20.2329 C229.7879,20.2329 228.7919,19.8809 228.0749,19.1779 C227.3579,18.4749 226.9989,17.4789 226.9989,16.1899 C226.9989,14.8639 227.3299,13.8379 227.9929,13.1139 C228.6559,12.3889 229.5729,12.0269 230.7429,12.0269 C231.8629,12.0269 232.7339,12.3449 233.3569,12.9829 C233.9799,13.6209 234.2909,14.5009 234.2909,15.6239 L234.2909,16.6709 L229.1869,16.6709 C229.2099,17.2859 229.3919,17.7639 229.7319,18.1089 C230.0719,18.4539 230.5479,18.6259 231.1609,18.6259 C231.6379,18.6259 232.0889,18.5759 232.5149,18.4769 C232.9389,18.3779 233.3819,18.2199 233.8449,18.0019 L233.8449,19.6729 C233.4679,19.8629 233.0639,20.0019 232.6339,20.0949 C232.2039,20.1869 231.6809,20.2329 231.0629,20.2329" id="Fill-13" fill="#131413"></path>
                        <path d="M243.3536,20.0912 L241.1946,20.0912 L241.1946,15.4682 C241.1946,14.8972 241.0926,14.4682 240.8896,14.1832 C240.6866,13.8972 240.3636,13.7542 239.9196,13.7542 C239.3156,13.7542 238.8786,13.9562 238.6106,14.3602 C238.3406,14.7632 238.2066,15.4332 238.2066,16.3662 L238.2066,20.0912 L236.0466,20.0912 L236.0466,12.1752 L237.6966,12.1752 L237.9876,13.1882 L238.1076,13.1882 C238.3476,12.8062 238.6796,12.5172 239.1026,12.3202 C239.5246,12.1252 240.0046,12.0272 240.5426,12.0272 C241.4626,12.0272 242.1616,12.2762 242.6386,12.7742 C243.1156,13.2722 243.3536,13.9902 243.3536,14.9302 L243.3536,20.0912 Z" id="Fill-15" fill="#131413"></path>
                        <path d="M248.9113,18.5121 C249.2893,18.5121 249.7423,18.4301 250.2703,18.2651 L250.2703,19.8711 C249.7333,20.1131 249.0713,20.2331 248.2883,20.2331 C247.4253,20.2331 246.7963,20.0141 246.4013,19.5771 C246.0073,19.1411 245.8093,18.4871 245.8093,17.6131 L245.8093,13.7971 L244.7763,13.7971 L244.7763,12.8841 L245.9663,12.1611 L246.5893,10.4911 L247.9703,10.4911 L247.9703,12.1751 L250.1863,12.1751 L250.1863,13.7971 L247.9703,13.7971 L247.9703,17.6131 C247.9703,17.9201 248.0563,18.1471 248.2273,18.2921 C248.4003,18.4391 248.6283,18.5121 248.9113,18.5121" id="Fill-17" fill="#131413"></path>
                        <path d="M256.2882,12.0268 C256.5812,12.0268 256.8242,12.0478 257.0182,12.0908 L256.8542,14.1158 C256.6812,14.0688 256.4682,14.0448 256.2182,14.0448 C255.5282,14.0448 254.9912,14.2218 254.6062,14.5758 C254.2222,14.9298 254.0302,15.4248 254.0302,16.0628 L254.0302,20.0908 L251.8702,20.0908 L251.8702,12.1748 L253.5072,12.1748 L253.8252,13.5068 L253.9312,13.5068 C254.1772,13.0628 254.5082,12.7058 254.9262,12.4338 C255.3432,12.1628 255.7982,12.0268 256.2882,12.0268" id="Fill-19" fill="#131413"></path>
                        <path d="M264.0626,20.0912 L263.7726,19.0782 L263.6596,19.0782 C263.4276,19.4462 263.0996,19.7312 262.6746,19.9322 C262.2506,20.1322 261.7666,20.2332 261.2236,20.2332 C260.2936,20.2332 259.5926,19.9842 259.1206,19.4862 C258.6486,18.9872 258.4136,18.2722 258.4136,17.3372 L258.4136,12.1752 L260.5726,12.1752 L260.5726,16.7992 C260.5726,17.3702 260.6726,17.7982 260.8756,18.0842 C261.0796,18.3692 261.4036,18.5122 261.8466,18.5122 C262.4506,18.5122 262.8876,18.3112 263.1566,17.9062 C263.4246,17.5032 263.5596,16.8342 263.5596,15.9002 L263.5596,12.1752 L265.7196,12.1752 L265.7196,20.0912 L264.0626,20.0912 Z" id="Fill-21" fill="#131413"></path>
                        <path d="M274.7823,20.0912 L272.6223,20.0912 L272.6223,15.4682 C272.6223,14.8972 272.5263,14.4682 272.3353,14.1832 C272.1453,13.8972 271.8433,13.7542 271.4323,13.7542 C270.8803,13.7542 270.4793,13.9572 270.2293,14.3632 C269.9793,14.7692 269.8543,15.4372 269.8543,16.3662 L269.8543,20.0912 L267.6943,20.0912 L267.6943,12.1752 L269.3453,12.1752 L269.6343,13.1882 L269.7553,13.1882 C269.9683,12.8242 270.2743,12.5402 270.6753,12.3352 C271.0773,12.1292 271.5363,12.0272 272.0553,12.0272 C273.2413,12.0272 274.0443,12.4142 274.4643,13.1882 L274.6553,13.1882 C274.8663,12.8202 275.1783,12.5342 275.5933,12.3312 C276.0053,12.1282 276.4713,12.0272 276.9913,12.0272 C277.8873,12.0272 278.5653,12.2572 279.0263,12.7172 C279.4873,13.1772 279.7163,13.9152 279.7163,14.9302 L279.7163,20.0912 L277.5503,20.0912 L277.5503,15.4682 C277.5503,14.8972 277.4543,14.4682 277.2623,14.1832 C277.0733,13.8972 276.7703,13.7542 276.3603,13.7542 C275.8333,13.7542 275.4363,13.9442 275.1753,14.3202 C274.9133,14.6982 274.7823,15.2982 274.7823,16.1192 L274.7823,20.0912 Z" id="Fill-23" fill="#131413"></path>
                        <path d="M290.0753,13.7973 L288.2063,13.7973 L288.2063,20.0913 L286.0463,20.0913 L286.0463,13.7973 L284.8563,13.7973 L284.8563,12.7563 L286.0463,12.1753 L286.0463,11.5953 C286.0463,10.6933 286.2683,10.0353 286.7123,9.6193 C287.1553,9.2043 287.8663,8.9963 288.8433,8.9963 C289.5893,8.9963 290.2533,9.1083 290.8333,9.3293 L290.2803,10.9153 C289.8463,10.7783 289.4443,10.7103 289.0773,10.7103 C288.7703,10.7103 288.5483,10.8013 288.4113,10.9833 C288.2743,11.1643 288.2063,11.3973 288.2063,11.6803 L288.2063,12.1753 L290.0753,12.1753 L290.0753,13.7973 Z" id="Fill-25" fill="#131413"></path>
                        <path d="M295.3429,10.144 C295.3429,9.813 295.4389,9.572 295.6299,9.418 C295.8219,9.265 296.0579,9.188 296.3409,9.188 C296.6479,9.188 296.8919,9.273 297.0729,9.443 C297.2549,9.613 297.3469,9.846 297.3469,10.144 C297.3469,10.432 297.2549,10.661 297.0699,10.831 C296.8859,11 296.6439,11.085 296.3409,11.085 C296.0579,11.085 295.8219,11.008 295.6299,10.855 C295.4389,10.702 295.3429,10.464 295.3429,10.144 L295.3429,10.144 Z M292.4889,10.144 C292.4889,9.837 292.5769,9.601 292.7549,9.436 C292.9329,9.271 293.1709,9.188 293.4739,9.188 C293.7839,9.188 294.0289,9.275 294.2059,9.45 C294.3839,9.624 294.4719,9.856 294.4719,10.144 C294.4719,10.427 294.3819,10.655 294.2019,10.827 C294.0229,10.999 293.7809,11.085 293.4739,11.085 C293.1709,11.085 292.9329,11.002 292.7549,10.837 C292.5769,10.672 292.4889,10.441 292.4889,10.144 L292.4889,10.144 Z M296.9209,20.091 L296.6319,19.079 L296.5189,19.079 C296.2859,19.447 295.9579,19.731 295.5339,19.932 C295.1089,20.132 294.6259,20.233 294.0829,20.233 C293.1539,20.233 292.4519,19.984 291.9799,19.486 C291.5069,18.988 291.2709,18.272 291.2709,17.337 L291.2709,12.175 L293.4309,12.175 L293.4309,16.799 C293.4309,17.371 293.5319,17.798 293.7359,18.084 C293.9389,18.37 294.2609,18.512 294.7059,18.512 C295.3099,18.512 295.7449,18.311 296.0149,17.907 C296.2839,17.503 296.4189,16.834 296.4189,15.9 L296.4189,12.175 L298.5769,12.175 L298.5769,20.091 L296.9209,20.091 Z" id="Fill-27" fill="#131413"></path>
                        <path d="M304.6827,12.0268 C304.9757,12.0268 305.2177,12.0478 305.4117,12.0908 L305.2487,14.1158 C305.0737,14.0688 304.8627,14.0448 304.6127,14.0448 C303.9227,14.0448 303.3857,14.2218 303.0007,14.5758 C302.6167,14.9298 302.4227,15.4248 302.4227,16.0628 L302.4227,20.0908 L300.2647,20.0908 L300.2647,12.1748 L301.8997,12.1748 L302.2177,13.5068 L302.3257,13.5068 C302.5697,13.0628 302.9017,12.7058 303.3197,12.4338 C303.7377,12.1628 304.1907,12.0268 304.6827,12.0268" id="Fill-29" fill="#131413"></path>
                        <path d="M312.6261,14.9018 C312.6261,16.0578 312.8451,16.9288 313.2841,17.5138 C313.7241,18.0988 314.3801,18.3918 315.2531,18.3918 C317.0031,18.3918 317.8781,17.2288 317.8781,14.9018 C317.8781,12.5698 317.0091,11.4038 315.2671,11.4038 C314.3941,11.4038 313.7351,11.6978 313.2901,12.2858 C312.8471,12.8738 312.6261,13.7458 312.6261,14.9018 M320.1811,14.9018 C320.1811,16.6148 319.7551,17.9318 318.9051,18.8518 C318.0561,19.7728 316.8391,20.2328 315.2531,20.2328 C313.6671,20.2328 312.4481,19.7728 311.5991,18.8518 C310.7491,17.9318 310.3251,16.6098 310.3251,14.8868 C310.3251,13.1648 310.7511,11.8488 311.6031,10.9398 C312.4541,10.0318 313.6751,9.5778 315.2671,9.5778 C316.8561,9.5778 318.0731,10.0358 318.9171,10.9508 C319.7591,11.8668 320.1811,13.1828 320.1811,14.9018" id="Fill-31" fill="#131413"></path>
                        <path d="M327.3878,17.7406 C327.3878,18.5526 327.1048,19.1716 326.5418,19.5946 C325.9778,20.0206 325.1338,20.2326 324.0108,20.2326 C323.4348,20.2326 322.9428,20.1936 322.5378,20.1156 C322.1318,20.0386 321.7508,19.9236 321.3978,19.7726 L321.3978,17.9886 C321.7978,18.1776 322.2508,18.3356 322.7528,18.4626 C323.2568,18.5906 323.6988,18.6536 324.0808,18.6536 C324.8648,18.6536 325.2568,18.4276 325.2568,17.9736 C325.2568,17.8036 325.2038,17.6666 325.1008,17.5596 C324.9968,17.4536 324.8178,17.3336 324.5618,17.1986 C324.3078,17.0646 323.9678,16.9076 323.5418,16.7276 C322.9348,16.4726 322.4878,16.2376 322.2008,16.0196 C321.9148,15.8036 321.7078,15.5536 321.5768,15.2726 C321.4488,14.9926 321.3838,14.6466 321.3838,14.2356 C321.3838,13.5326 321.6558,12.9886 322.2008,12.6036 C322.7468,12.2196 323.5188,12.0266 324.5208,12.0266 C325.4738,12.0266 326.4018,12.2346 327.3018,12.6496 L326.6518,14.2076 C326.2548,14.0376 325.8838,13.8986 325.5398,13.7906 C325.1948,13.6806 324.8428,13.6276 324.4838,13.6276 C323.8468,13.6276 323.5288,13.7996 323.5288,14.1436 C323.5288,14.3376 323.6318,14.5056 323.8368,14.6466 C324.0418,14.7886 324.4918,14.9986 325.1848,15.2766 C325.8038,15.5266 326.2568,15.7606 326.5438,15.9776 C326.8328,16.1946 327.0458,16.4446 327.1828,16.7276 C327.3198,17.0116 327.3878,17.3486 327.3878,17.7406" id="Fill-33" fill="#131413"></path>
                        <path d="M332.4073,18.5121 C332.7843,18.5121 333.2373,18.4301 333.7663,18.2651 L333.7663,19.8711 C333.2273,20.1131 332.5673,20.2331 331.7843,20.2331 C330.9193,20.2331 330.2903,20.0141 329.8973,19.5771 C329.5033,19.1411 329.3053,18.4871 329.3053,17.6131 L329.3053,13.7971 L328.2723,13.7971 L328.2723,12.8841 L329.4623,12.1611 L330.0853,10.4911 L331.4643,10.4911 L331.4643,12.1751 L333.6803,12.1751 L333.6803,13.7971 L331.4643,13.7971 L331.4643,17.6131 C331.4643,17.9201 331.5523,18.1471 331.7233,18.2921 C331.8953,18.4391 332.1243,18.5121 332.4073,18.5121" id="Fill-35" fill="#131413"></path>
                        <path d="M338.6437,13.5639 C338.1867,13.5639 337.8277,13.7089 337.5677,13.9989 C337.3077,14.2899 337.1597,14.7009 337.1227,15.2339 L340.1517,15.2339 C340.1417,14.7009 340.0027,14.2899 339.7337,13.9989 C339.4657,13.7089 339.1027,13.5639 338.6437,13.5639 M338.9487,20.2329 C337.6747,20.2329 336.6787,19.8809 335.9597,19.1779 C335.2437,18.4749 334.8837,17.4789 334.8837,16.1899 C334.8837,14.8639 335.2157,13.8379 335.8797,13.1139 C336.5417,12.3889 337.4597,12.0269 338.6297,12.0269 C339.7487,12.0269 340.6207,12.3449 341.2437,12.9829 C341.8667,13.6209 342.1767,14.5009 342.1767,15.6239 L342.1767,16.6709 L337.0717,16.6709 C337.0947,17.2859 337.2787,17.7639 337.6187,18.1089 C337.9577,18.4539 338.4347,18.6259 339.0477,18.6259 C339.5247,18.6259 339.9757,18.5759 340.3997,18.4769 C340.8257,18.3779 341.2687,18.2199 341.7317,18.0019 L341.7317,19.6729 C341.3527,19.8629 340.9507,20.0019 340.5207,20.0949 C340.0907,20.1869 339.5677,20.2329 338.9487,20.2329" id="Fill-37" fill="#131413"></path>
                        <path d="M349.5402,20.0912 L349.2512,19.0782 L349.1382,19.0782 C348.9052,19.4462 348.5772,19.7312 348.1532,19.9322 C347.7282,20.1322 347.2452,20.2332 346.7022,20.2332 C345.7722,20.2332 345.0712,19.9842 344.5992,19.4862 C344.1262,18.9872 343.8902,18.2722 343.8902,17.3372 L343.8902,12.1752 L346.0502,12.1752 L346.0502,16.7992 C346.0502,17.3702 346.1512,17.7982 346.3542,18.0842 C346.5582,18.3692 346.8802,18.5122 347.3252,18.5122 C347.9292,18.5122 348.3642,18.3112 348.6342,17.9062 C348.9032,17.5032 349.0382,16.8342 349.0382,15.9002 L349.0382,12.1752 L351.1962,12.1752 L351.1962,20.0912 L349.5402,20.0912 Z" id="Fill-39" fill="#131413"></path>
                        <path d="M357.5909,12.0268 C357.8839,12.0268 358.1259,12.0478 358.3199,12.0908 L358.1569,14.1158 C357.9819,14.0688 357.7709,14.0448 357.5209,14.0448 C356.8309,14.0448 356.2939,14.2218 355.9089,14.5758 C355.5249,14.9298 355.3309,15.4248 355.3309,16.0628 L355.3309,20.0908 L353.1729,20.0908 L353.1729,12.1748 L354.8079,12.1748 L355.1259,13.5068 L355.2339,13.5068 C355.4779,13.0628 355.8099,12.7058 356.2279,12.4338 C356.6459,12.1628 357.0989,12.0268 357.5909,12.0268" id="Fill-41" fill="#131413"></path>
                        <path d="M361.3351,16.1196 C361.3351,16.9026 361.4641,17.4956 361.7221,17.8956 C361.9781,18.2976 362.3971,18.4986 362.9781,18.4986 C363.5541,18.4986 363.9681,18.2996 364.2201,17.8996 C364.4741,17.5016 364.5991,16.9076 364.5991,16.1196 C364.5991,15.3356 364.4721,14.7486 364.2161,14.3566 C363.9621,13.9646 363.5441,13.7686 362.9641,13.7686 C362.3881,13.7686 361.9721,13.9636 361.7181,14.3526 C361.4621,14.7426 361.3351,15.3316 361.3351,16.1196 M366.8081,16.1196 C366.8081,17.4076 366.4681,18.4156 365.7881,19.1416 C365.1081,19.8696 364.1631,20.2326 362.9501,20.2326 C362.1901,20.2326 361.5191,20.0666 360.9391,19.7336 C360.3581,19.4006 359.9111,18.9236 359.6011,18.3006 C359.2881,17.6776 359.1341,16.9496 359.1341,16.1196 C359.1341,14.8256 359.4721,13.8206 360.1461,13.1026 C360.8211,12.3866 361.7691,12.0266 362.9911,12.0266 C363.7511,12.0266 364.4231,12.1916 365.0031,12.5226 C365.5831,12.8526 366.0281,13.3276 366.3411,13.9456 C366.6511,14.5636 366.8081,15.2886 366.8081,16.1196" id="Fill-43" fill="#131413"></path>
                        <path d="M372.3019,13.7543 C371.7689,13.7543 371.3799,13.9183 371.1339,14.2463 C370.8879,14.5743 370.7609,15.1163 370.7509,15.8713 L370.7509,16.1053 C370.7509,16.9543 370.8779,17.5643 371.1299,17.9323 C371.3839,18.3003 371.7819,18.4833 372.3309,18.4833 C373.2979,18.4833 373.7819,17.6863 373.7819,16.0913 C373.7819,15.3123 373.6629,14.7283 373.4249,14.3383 C373.1869,13.9493 372.8119,13.7543 372.3019,13.7543 M372.9409,20.2333 C372.0089,20.2333 371.2809,19.8953 370.7509,19.2203 L370.6379,19.2203 C370.7139,19.8813 370.7509,20.2633 370.7509,20.3673 L370.7509,23.5743 L368.5929,23.5743 L368.5929,12.1753 L370.3489,12.1753 L370.6539,13.2023 L370.7509,13.2023 C371.2569,12.4183 372.0049,12.0263 372.9969,12.0263 C373.9309,12.0263 374.6629,12.3883 375.1909,13.1103 C375.7199,13.8323 375.9839,14.8353 375.9839,16.1193 C375.9839,16.9643 375.8609,17.6983 375.6129,18.3213 C375.3649,18.9443 375.0109,19.4183 374.5539,19.7443 C374.0969,20.0693 373.5579,20.2333 372.9409,20.2333" id="Fill-45" fill="#131413"></path>
                        <path d="M382.1573,16.4233 L381.3233,16.4523 C380.6943,16.4713 380.2273,16.5843 379.9213,16.7923 C379.6143,16.9993 379.4603,17.3163 379.4603,17.7403 C379.4603,18.3493 379.8093,18.6533 380.5093,18.6533 C381.0093,18.6533 381.4093,18.5103 381.7083,18.2223 C382.0093,17.9343 382.1573,17.5523 382.1573,17.0753 L382.1573,16.4233 Z M382.7963,20.0913 L382.3783,19.0153 L382.3213,19.0153 C381.9583,19.4733 381.5833,19.7903 381.1983,19.9673 C380.8133,20.1443 380.3113,20.2333 379.6943,20.2333 C378.9343,20.2333 378.3353,20.0163 377.8993,19.5813 C377.4623,19.1473 377.2453,18.5283 377.2453,17.7263 C377.2453,16.8863 377.5383,16.2673 378.1263,15.8673 C378.7143,15.4693 379.5983,15.2483 380.7843,15.2063 L382.1573,15.1633 L382.1573,14.8173 C382.1573,14.0143 381.7473,13.6123 380.9273,13.6123 C380.2943,13.6123 379.5503,13.8043 378.6963,14.1873 L377.9813,12.7283 C378.8913,12.2513 379.9013,12.0133 381.0113,12.0133 C382.0733,12.0133 382.8873,12.2443 383.4543,12.7063 C384.0203,13.1693 384.3033,13.8723 384.3033,14.8173 L384.3033,20.0913 L382.7963,20.0913 Z" id="Fill-47" fill="#131413"></path>
                        <mask id="mask-4" fill="white">
                            <use xlink:href="#path-3"></use>
                        </mask>
                        <g id="Clip-50"></g>
                        <polygon id="Fill-49" fill="#131413" mask="url(#mask-4)" points="386.405 17.09 390.208 17.09 390.208 15.32 386.405 15.32"></polygon>
                        <path d="M224.6906,37.0912 L224.4006,36.0782 L224.2876,36.0782 C224.0556,36.4462 223.7276,36.7312 223.3026,36.9322 C222.8786,37.1322 222.3936,37.2332 221.8516,37.2332 C220.9206,37.2332 220.2206,36.9842 219.7496,36.4862 C219.2766,35.9872 219.0406,35.2722 219.0406,34.3372 L219.0406,29.1752 L221.2006,29.1752 L221.2006,33.7992 C221.2006,34.3702 221.3016,34.7982 221.5046,35.0842 C221.7086,35.3692 222.0306,35.5122 222.4746,35.5122 C223.0796,35.5122 223.5146,35.3112 223.7846,34.9062 C224.0536,34.5032 224.1876,33.8342 224.1876,32.9002 L224.1876,29.1752 L226.3466,29.1752 L226.3466,37.0912 L224.6906,37.0912 Z" id="Fill-51" fill="#131413" mask="url(#mask-4)"></path>
                        <path d="M235.7892,37.0912 L233.6302,37.0912 L233.6302,32.4682 C233.6302,31.8972 233.5282,31.4682 233.3252,31.1832 C233.1222,30.8972 232.7992,30.7542 232.3552,30.7542 C231.7512,30.7542 231.3142,30.9562 231.0462,31.3602 C230.7762,31.7632 230.6422,32.4332 230.6422,33.3662 L230.6422,37.0912 L228.4822,37.0912 L228.4822,29.1752 L230.1322,29.1752 L230.4232,30.1882 L230.5432,30.1882 C230.7832,29.8062 231.1152,29.5172 231.5382,29.3202 C231.9602,29.1252 232.4402,29.0272 232.9782,29.0272 C233.8982,29.0272 234.5972,29.2762 235.0742,29.7742 C235.5512,30.2722 235.7892,30.9902 235.7892,31.9302 L235.7892,37.0912 Z" id="Fill-52" fill="#131413" mask="url(#mask-4)"></path>
                        <path d="M241.1456,35.5121 C241.6986,35.5121 242.1026,35.3521 242.3596,35.0311 C242.6166,34.7101 242.7566,34.1641 242.7806,33.3961 L242.7806,33.1611 C242.7806,32.3121 242.6496,31.7031 242.3876,31.3351 C242.1256,30.9671 241.7006,30.7831 241.1106,30.7831 C240.6276,30.7831 240.2546,30.9871 239.9876,31.3951 C239.7216,31.8031 239.5866,32.3971 239.5866,33.1761 C239.5866,33.9541 239.7216,34.5381 239.9916,34.9281 C240.2606,35.3181 240.6456,35.5121 241.1456,35.5121 M240.3876,37.2331 C239.4586,37.2331 238.7276,36.8711 238.1966,36.1501 C237.6656,35.4271 237.3996,34.4271 237.3996,33.1481 C237.3996,31.8501 237.6696,30.8381 238.2096,30.1141 C238.7506,29.3891 239.4956,29.0271 240.4446,29.0271 C241.4406,29.0271 242.2006,29.4141 242.7236,30.1881 L242.7946,30.1881 C242.6866,29.5981 242.6316,29.0721 242.6316,28.6091 L242.6316,26.0741 L244.7976,26.0741 L244.7976,37.0911 L243.1416,37.0911 L242.7236,36.0651 L242.6316,36.0651 C242.1416,36.8431 241.3936,37.2331 240.3876,37.2331" id="Fill-53" fill="#131413" mask="url(#mask-4)"></path>
                        <path d="M250.564,37.091 L252.722,37.091 L252.722,29.175 L250.564,29.175 L250.564,37.091 Z M250.472,27.129 C250.472,26.426 250.862,26.075 251.646,26.075 C252.43,26.075 252.821,26.426 252.821,27.129 C252.821,27.464 252.724,27.725 252.528,27.912 C252.332,28.098 252.038,28.192 251.646,28.192 C250.862,28.192 250.472,27.837 250.472,27.129 L250.472,27.129 Z" id="Fill-54" fill="#131413" mask="url(#mask-4)"></path>
                        <path d="M261.8741,37.0912 L259.7161,37.0912 L259.7161,32.4682 C259.7161,31.8972 259.6141,31.4682 259.4111,31.1832 C259.2081,30.8972 258.8841,30.7542 258.4401,30.7542 C257.8371,30.7542 257.3991,30.9562 257.1311,31.3602 C256.8621,31.7632 256.7281,32.4332 256.7281,33.3662 L256.7281,37.0912 L254.5671,37.0912 L254.5671,29.1752 L256.2181,29.1752 L256.5081,30.1882 L256.6281,30.1882 C256.8681,29.8062 257.2001,29.5172 257.6231,29.3202 C258.0461,29.1252 258.5261,29.0272 259.0631,29.0272 C259.9831,29.0272 260.6831,29.2762 261.1591,29.7742 C261.6361,30.2722 261.8741,30.9902 261.8741,31.9302 L261.8741,37.0912 Z" id="Fill-55" fill="#131413" mask="url(#mask-4)"></path>
                        <path d="M267.3019,35.5121 C267.6789,35.5121 268.1319,35.4301 268.6609,35.2651 L268.6609,36.8711 C268.1229,37.1131 267.4619,37.2331 266.6789,37.2331 C265.8149,37.2331 265.1859,37.0141 264.7919,36.5771 C264.3979,36.1411 264.1999,35.4871 264.1999,34.6131 L264.1999,30.7971 L263.1669,30.7971 L263.1669,29.8841 L264.3569,29.1611 L264.9799,27.4911 L266.3609,27.4911 L266.3609,29.1751 L268.5759,29.1751 L268.5759,30.7971 L266.3609,30.7971 L266.3609,34.6131 C266.3609,34.9201 266.4469,35.1471 266.6179,35.2921 C266.7899,35.4391 267.0189,35.5121 267.3019,35.5121" id="Fill-56" fill="#131413" mask="url(#mask-4)"></path>
                        <path d="M273.4093,30.5639 C272.9503,30.5639 272.5933,30.7089 272.3333,30.9989 C272.0733,31.2899 271.9253,31.7009 271.8863,32.2339 L274.9173,32.2339 C274.9073,31.7009 274.7683,31.2899 274.4993,30.9989 C274.2293,30.7089 273.8663,30.5639 273.4093,30.5639 M273.7123,37.2329 C272.4383,37.2329 271.4423,36.8809 270.7253,36.1779 C270.0073,35.4749 269.6493,34.4789 269.6493,33.1899 C269.6493,31.8639 269.9813,30.8379 270.6433,30.1139 C271.3073,29.3889 272.2233,29.0269 273.3933,29.0269 C274.5133,29.0269 275.3843,29.3449 276.0073,29.9829 C276.6303,30.6209 276.9403,31.5009 276.9403,32.6239 L276.9403,33.6709 L271.8373,33.6709 C271.8603,34.2859 272.0423,34.7639 272.3823,35.1089 C272.7223,35.4539 273.1983,35.6259 273.8113,35.6259 C274.2883,35.6259 274.7393,35.5759 275.1653,35.4769 C275.5893,35.3779 276.0323,35.2199 276.4953,35.0019 L276.4953,36.6729 C276.1183,36.8629 275.7143,37.0019 275.2843,37.0949 C274.8543,37.1869 274.3313,37.2329 273.7123,37.2329" id="Fill-57" fill="#131413" mask="url(#mask-4)"></path>
                        <path d="M282.9855,29.0268 C283.2785,29.0268 283.5225,29.0478 283.7155,29.0908 L283.5515,31.1158 C283.3785,31.0688 283.1655,31.0448 282.9155,31.0448 C282.2255,31.0448 281.6885,31.2218 281.3035,31.5758 C280.9195,31.9298 280.7275,32.4248 280.7275,33.0628 L280.7275,37.0908 L278.5675,37.0908 L278.5675,29.1748 L280.2045,29.1748 L280.5225,30.5068 L280.6285,30.5068 C280.8745,30.0628 281.2065,29.7058 281.6225,29.4338 C282.0405,29.1628 282.4955,29.0268 282.9855,29.0268" id="Fill-58" fill="#131413" mask="url(#mask-4)"></path>
                        <path d="M292.3273,37.0912 L290.1693,37.0912 L290.1693,32.4682 C290.1693,31.8972 290.0673,31.4682 289.8643,31.1832 C289.6613,30.8972 289.3373,30.7542 288.8933,30.7542 C288.2903,30.7542 287.8523,30.9562 287.5833,31.3602 C287.3153,31.7632 287.1813,32.4332 287.1813,33.3662 L287.1813,37.0912 L285.0203,37.0912 L285.0203,29.1752 L286.6713,29.1752 L286.9603,30.1882 L287.0813,30.1882 C287.3213,29.8062 287.6533,29.5172 288.0753,29.3202 C288.4993,29.1252 288.9793,29.0272 289.5163,29.0272 C290.4363,29.0272 291.1363,29.2762 291.6123,29.7742 C292.0893,30.2722 292.3273,30.9902 292.3273,31.9302 L292.3273,37.0912 Z" id="Fill-59" fill="#131413" mask="url(#mask-4)"></path>
                        <path d="M298.8097,33.4233 L297.9757,33.4523 C297.3467,33.4713 296.8797,33.5843 296.5737,33.7923 C296.2667,33.9993 296.1127,34.3163 296.1127,34.7403 C296.1127,35.3493 296.4617,35.6533 297.1617,35.6533 C297.6617,35.6533 298.0617,35.5103 298.3607,35.2223 C298.6617,34.9343 298.8097,34.5523 298.8097,34.0753 L298.8097,33.4233 Z M299.4487,37.0913 L299.0307,36.0153 L298.9737,36.0153 C298.6107,36.4733 298.2357,36.7903 297.8507,36.9673 C297.4657,37.1443 296.9637,37.2333 296.3467,37.2333 C295.5867,37.2333 294.9877,37.0163 294.5517,36.5813 C294.1147,36.1473 293.8977,35.5283 293.8977,34.7263 C293.8977,33.8863 294.1907,33.2673 294.7787,32.8673 C295.3667,32.4693 296.2507,32.2483 297.4367,32.2063 L298.8097,32.1633 L298.8097,31.8173 C298.8097,31.0143 298.3997,30.6123 297.5797,30.6123 C296.9467,30.6123 296.2027,30.8043 295.3487,31.1873 L294.6337,29.7283 C295.5437,29.2513 296.5537,29.0133 297.6637,29.0133 C298.7257,29.0133 299.5397,29.2443 300.1067,29.7063 C300.6727,30.1693 300.9557,30.8723 300.9557,31.8173 L300.9557,37.0913 L299.4487,37.0913 Z" id="Fill-60" fill="#131413" mask="url(#mask-4)"></path>
                        <path d="M306.382,35.5121 C306.759,35.5121 307.212,35.4301 307.741,35.2651 L307.741,36.8711 C307.204,37.1131 306.542,37.2331 305.759,37.2331 C304.896,37.2331 304.267,37.0141 303.872,36.5771 C303.478,36.1411 303.28,35.4871 303.28,34.6131 L303.28,30.7971 L302.247,30.7971 L302.247,29.8841 L303.437,29.1611 L304.06,27.4911 L305.441,27.4911 L305.441,29.1751 L307.657,29.1751 L307.657,30.7971 L305.441,30.7971 L305.441,34.6131 C305.441,34.9201 305.527,35.1471 305.698,35.2921 C305.872,35.4391 306.099,35.5121 306.382,35.5121" id="Fill-61" fill="#131413" mask="url(#mask-4)"></path>
                        <path d="M309.21,37.091 L311.37,37.091 L311.37,29.175 L309.21,29.175 L309.21,37.091 Z M309.118,27.129 C309.118,26.426 309.511,26.075 310.294,26.075 C311.077,26.075 311.47,26.426 311.47,27.129 C311.47,27.464 311.37,27.725 311.175,27.912 C310.98,28.098 310.685,28.192 310.294,28.192 C309.511,28.192 309.118,27.837 309.118,27.129 L309.118,27.129 Z" id="Fill-62" fill="#131413" mask="url(#mask-4)"></path>
                        <path d="M315.2257,33.1196 C315.2257,33.9026 315.3547,34.4956 315.6127,34.8956 C315.8687,35.2976 316.2877,35.4986 316.8687,35.4986 C317.4447,35.4986 317.8587,35.2996 318.1107,34.8996 C318.3647,34.5016 318.4897,33.9076 318.4897,33.1196 C318.4897,32.3356 318.3627,31.7486 318.1067,31.3566 C317.8527,30.9646 317.4347,30.7686 316.8547,30.7686 C316.2787,30.7686 315.8627,30.9636 315.6087,31.3526 C315.3527,31.7426 315.2257,32.3316 315.2257,33.1196 M320.6987,33.1196 C320.6987,34.4076 320.3587,35.4156 319.6787,36.1416 C318.9987,36.8696 318.0537,37.2326 316.8407,37.2326 C316.0807,37.2326 315.4097,37.0666 314.8297,36.7336 C314.2487,36.4006 313.8017,35.9236 313.4917,35.3006 C313.1787,34.6776 313.0247,33.9496 313.0247,33.1196 C313.0247,31.8256 313.3627,30.8206 314.0367,30.1026 C314.7117,29.3866 315.6597,29.0266 316.8817,29.0266 C317.6417,29.0266 318.3137,29.1916 318.8937,29.5226 C319.4737,29.8526 319.9187,30.3276 320.2317,30.9456 C320.5417,31.5636 320.6987,32.2886 320.6987,33.1196" id="Fill-63" fill="#131413" mask="url(#mask-4)"></path>
                        <path d="M329.3683,37.0912 L327.2103,37.0912 L327.2103,32.4682 C327.2103,31.8972 327.1083,31.4682 326.9053,31.1832 C326.7023,30.8972 326.3783,30.7542 325.9343,30.7542 C325.3313,30.7542 324.8933,30.9562 324.6243,31.3602 C324.3563,31.7632 324.2223,32.4332 324.2223,33.3662 L324.2223,37.0912 L322.0613,37.0912 L322.0613,29.1752 L323.7123,29.1752 L324.0013,30.1882 L324.1223,30.1882 C324.3623,29.8062 324.6943,29.5172 325.1163,29.3202 C325.5403,29.1252 326.0203,29.0272 326.5573,29.0272 C327.4773,29.0272 328.1773,29.2762 328.6533,29.7742 C329.1303,30.2722 329.3683,30.9902 329.3683,31.9302 L329.3683,37.0912 Z" id="Fill-64" fill="#131413" mask="url(#mask-4)"></path>
                        <path d="M335.8527,33.4233 L335.0167,33.4523 C334.3897,33.4713 333.9207,33.5843 333.6147,33.7923 C333.3077,33.9993 333.1557,34.3163 333.1557,34.7403 C333.1557,35.3493 333.5027,35.6533 334.2027,35.6533 C334.7027,35.6533 335.1027,35.5103 335.4037,35.2223 C335.7027,34.9343 335.8527,34.5523 335.8527,34.0753 L335.8527,33.4233 Z M336.4897,37.0913 L336.0717,36.0153 L336.0147,36.0153 C335.6517,36.4733 335.2787,36.7903 334.8937,36.9673 C334.5087,37.1443 334.0067,37.2333 333.3877,37.2333 C332.6277,37.2333 332.0307,37.0163 331.5927,36.5813 C331.1577,36.1473 330.9387,35.5283 330.9387,34.7263 C330.9387,33.8863 331.2317,33.2673 331.8197,32.8673 C332.4077,32.4693 333.2937,32.2483 334.4777,32.2063 L335.8527,32.1633 L335.8527,31.8173 C335.8527,31.0143 335.4407,30.6123 334.6207,30.6123 C333.9877,30.6123 333.2457,30.8043 332.3897,31.1873 L331.6747,29.7283 C332.5847,29.2513 333.5967,29.0133 334.7047,29.0133 C335.7667,29.0133 336.5817,29.2443 337.1477,29.7063 C337.7137,30.1693 337.9977,30.8723 337.9977,31.8173 L337.9977,37.0913 L336.4897,37.0913 Z" id="Fill-65" fill="#131413" mask="url(#mask-4)"></path>
                        <polygon id="Fill-66" fill="#131413" mask="url(#mask-4)" points="339.8 37.091 341.958 37.091 341.958 26.074 339.8 26.074"></polygon>
                        <path d="M347.3722,30.5639 C346.9132,30.5639 346.5562,30.7089 346.2962,30.9989 C346.0362,31.2899 345.8882,31.7009 345.8492,32.2339 L348.8802,32.2339 C348.8702,31.7009 348.7312,31.2899 348.4622,30.9989 C348.1922,30.7089 347.8292,30.5639 347.3722,30.5639 M347.6752,37.2329 C346.4012,37.2329 345.4052,36.8809 344.6882,36.1779 C343.9702,35.4749 343.6122,34.4789 343.6122,33.1899 C343.6122,31.8639 343.9442,30.8379 344.6062,30.1139 C345.2702,29.3889 346.1862,29.0269 347.3562,29.0269 C348.4762,29.0269 349.3472,29.3449 349.9702,29.9829 C350.5932,30.6209 350.9032,31.5009 350.9032,32.6239 L350.9032,33.6709 L345.8002,33.6709 C345.8232,34.2859 346.0052,34.7639 346.3452,35.1089 C346.6852,35.4539 347.1612,35.6259 347.7742,35.6259 C348.2512,35.6259 348.7022,35.5759 349.1282,35.4769 C349.5522,35.3779 349.9952,35.2199 350.4582,35.0019 L350.4582,36.6729 C350.0812,36.8629 349.6772,37.0019 349.2472,37.0949 C348.8172,37.1869 348.2942,37.2329 347.6752,37.2329" id="Fill-67" fill="#131413" mask="url(#mask-4)"></path>
                        <path d="M362.4464,34.2162 C362.4464,35.1522 362.1104,35.8882 361.4384,36.4252 C360.7644,36.9642 359.8294,37.2332 358.6304,37.2332 C357.5264,37.2332 356.5504,37.0252 355.7004,36.6102 L355.7004,34.5702 C356.3974,34.8822 356.9894,35.1022 357.4734,35.2292 C357.9564,35.3572 358.3994,35.4202 358.8004,35.4202 C359.2824,35.4202 359.6514,35.3282 359.9094,35.1442 C360.1654,34.9602 360.2944,34.6862 360.2944,34.3222 C360.2944,34.1192 360.2374,33.9402 360.1244,33.7812 C360.0104,33.6232 359.8444,33.4712 359.6264,33.3242 C359.4054,33.1782 358.9584,32.9452 358.2844,32.6232 C357.6514,32.3262 357.1764,32.0402 356.8604,31.7672 C356.5444,31.4932 356.2924,31.1742 356.1024,30.8112 C355.9134,30.4472 355.8194,30.0232 355.8194,29.5362 C355.8194,28.6212 356.1304,27.9022 356.7514,27.3772 C357.3724,26.8532 358.2294,26.5912 359.3254,26.5912 C359.8624,26.5912 360.3764,26.6552 360.8644,26.7822 C361.3524,26.9092 361.8644,27.0892 362.3974,27.3202 L361.6884,29.0272 C361.1374,28.8002 360.6804,28.6422 360.3194,28.5522 C359.9584,28.4632 359.6024,28.4182 359.2534,28.4182 C358.8394,28.4182 358.5184,28.5152 358.2984,28.7082 C358.0754,28.9022 357.9664,29.1542 357.9664,29.4662 C357.9664,29.6592 358.0094,29.8282 358.0984,29.9722 C358.1884,30.1162 358.3314,30.2552 358.5284,30.3902 C358.7234,30.5252 359.1864,30.7662 359.9194,31.1152 C360.8854,31.5782 361.5504,32.0422 361.9094,32.5072 C362.2664,32.9722 362.4464,33.5412 362.4464,34.2162" id="Fill-68" fill="#131413" mask="url(#mask-4)"></path>
                        <path d="M367.3566,35.5121 C367.7336,35.5121 368.1866,35.4301 368.7156,35.2651 L368.7156,36.8711 C368.1786,37.1131 367.5166,37.2331 366.7336,37.2331 C365.8706,37.2331 365.2416,37.0141 364.8466,36.5771 C364.4526,36.1411 364.2546,35.4871 364.2546,34.6131 L364.2546,30.7971 L363.2216,30.7971 L363.2216,29.8841 L364.4116,29.1611 L365.0346,27.4911 L366.4156,27.4911 L366.4156,29.1751 L368.6316,29.1751 L368.6316,30.7971 L366.4156,30.7971 L366.4156,34.6131 C366.4156,34.9201 366.5016,35.1471 366.6726,35.2921 C366.8466,35.4391 367.0736,35.5121 367.3566,35.5121" id="Fill-69" fill="#131413" mask="url(#mask-4)"></path>
                        <path d="M375.7941,37.0912 L375.5031,36.0782 L375.3901,36.0782 C375.1591,36.4462 374.8311,36.7312 374.4051,36.9322 C373.9821,37.1322 373.4971,37.2332 372.9541,37.2332 C372.0241,37.2332 371.3231,36.9842 370.8531,36.4862 C370.3801,35.9872 370.1441,35.2722 370.1441,34.3372 L370.1441,29.1752 L372.3041,29.1752 L372.3041,33.7992 C372.3041,34.3702 372.4051,34.7982 372.6081,35.0842 C372.8101,35.3692 373.1341,35.5122 373.5771,35.5122 C374.1811,35.5122 374.6181,35.3112 374.8881,34.9062 C375.1571,34.5032 375.2901,33.8342 375.2901,32.9002 L375.2901,29.1752 L377.4501,29.1752 L377.4501,37.0912 L375.7941,37.0912 Z" id="Fill-70" fill="#131413" mask="url(#mask-4)"></path>
                        <path d="M382.8488,35.5121 C383.4018,35.5121 383.8058,35.3521 384.0638,35.0311 C384.3198,34.7101 384.4598,34.1641 384.4838,33.3961 L384.4838,33.1611 C384.4838,32.3121 384.3528,31.7031 384.0908,31.3351 C383.8288,30.9671 383.4038,30.7831 382.8138,30.7831 C382.3308,30.7831 381.9578,30.9871 381.6908,31.3951 C381.4248,31.8031 381.2898,32.3971 381.2898,33.1761 C381.2898,33.9541 381.4248,34.5381 381.6948,34.9281 C381.9638,35.3181 382.3488,35.5121 382.8488,35.5121 M382.0908,37.2331 C381.1618,37.2331 380.4308,36.8711 379.8998,36.1501 C379.3688,35.4271 379.1028,34.4271 379.1028,33.1481 C379.1028,31.8501 379.3738,30.8381 379.9128,30.1141 C380.4538,29.3891 381.1988,29.0271 382.1478,29.0271 C383.1438,29.0271 383.9038,29.4141 384.4268,30.1881 L384.4988,30.1881 C384.3898,29.5981 384.3348,29.0721 384.3348,28.6091 L384.3348,26.0741 L386.5008,26.0741 L386.5008,37.0911 L384.8448,37.0911 L384.4268,36.0651 L384.3348,36.0651 C383.8448,36.8431 383.0968,37.2331 382.0908,37.2331" id="Fill-71" fill="#131413" mask="url(#mask-4)"></path>
                        <path d="M388.63,37.091 L390.79,37.091 L390.79,29.175 L388.63,29.175 L388.63,37.091 Z M388.538,27.129 C388.538,26.426 388.931,26.075 389.714,26.075 C390.497,26.075 390.89,26.426 390.89,27.129 C390.89,27.464 390.79,27.725 390.595,27.912 C390.4,28.098 390.105,28.192 389.714,28.192 C388.931,28.192 388.538,27.837 388.538,27.129 L388.538,27.129 Z" id="Fill-72" fill="#131413" mask="url(#mask-4)"></path>
                        <path d="M396.2023,30.5639 C395.7453,30.5639 395.3863,30.7089 395.1263,30.9989 C394.8663,31.2899 394.7183,31.7009 394.6813,32.2339 L397.7103,32.2339 C397.7003,31.7009 397.5613,31.2899 397.2923,30.9989 C397.0243,30.7089 396.6613,30.5639 396.2023,30.5639 M396.5073,37.2329 C395.2333,37.2329 394.2373,36.8809 393.5183,36.1779 C392.8023,35.4749 392.4423,34.4789 392.4423,33.1899 C392.4423,31.8639 392.7743,30.8379 393.4383,30.1139 C394.1003,29.3889 395.0183,29.0269 396.1883,29.0269 C397.3073,29.0269 398.1793,29.3449 398.8023,29.9829 C399.4253,30.6209 399.7353,31.5009 399.7353,32.6239 L399.7353,33.6709 L394.6303,33.6709 C394.6533,34.2859 394.8373,34.7639 395.1773,35.1089 C395.5163,35.4539 395.9933,35.6259 396.6063,35.6259 C397.0833,35.6259 397.5343,35.5759 397.9583,35.4769 C398.3843,35.3779 398.8273,35.2199 399.2903,35.0019 L399.2903,36.6729 C398.9113,36.8629 398.5093,37.0019 398.0793,37.0949 C397.6493,37.1869 397.1263,37.2329 396.5073,37.2329" id="Fill-73" fill="#131413" mask="url(#mask-4)"></path>
                        <path d="M408.3781,37.0912 L406.2181,37.0912 L406.2181,32.4682 C406.2181,31.8972 406.1161,31.4682 405.9131,31.1832 C405.7101,30.8972 405.3881,30.7542 404.9441,30.7542 C404.3391,30.7542 403.9031,30.9562 403.6341,31.3602 C403.3641,31.7632 403.2301,32.4332 403.2301,33.3662 L403.2301,37.0912 L401.0711,37.0912 L401.0711,29.1752 L402.7201,29.1752 L403.0111,30.1882 L403.1321,30.1882 C403.3721,29.8062 403.7041,29.5172 404.1261,29.3202 C404.5481,29.1252 405.0281,29.0272 405.5671,29.0272 C406.4871,29.0272 407.1871,29.2762 407.6631,29.7742 C408.1401,30.2722 408.3781,30.9902 408.3781,31.9302 L408.3781,37.0912 Z" id="Fill-74" fill="#131413" mask="url(#mask-4)"></path>
                        <path d="M224.5909,46.7387 C223.7649,46.7387 223.0359,46.9717 222.4029,47.4387 C221.7709,47.9067 221.2749,48.5737 220.9129,49.4397 C220.5519,50.3057 220.3719,51.2417 220.3719,52.2467 C220.3719,53.1297 220.5959,53.8247 221.0439,54.3317 C221.4929,54.8397 222.1129,55.0927 222.9059,55.0927 C223.5859,55.0927 224.3509,54.9517 225.1999,54.6687 L225.1999,55.8017 C224.4309,56.0897 223.5909,56.2327 222.6799,56.2327 C221.5239,56.2327 220.6189,55.8807 219.9679,55.1747 C219.3169,54.4687 218.9909,53.5027 218.9909,52.2747 C218.9909,51.0617 219.2369,49.9257 219.7279,48.8657 C220.2179,47.8057 220.8859,46.9957 221.7319,46.4337 C222.5749,45.8727 223.5289,45.5917 224.5909,45.5917 C225.5639,45.5917 226.4029,45.7847 227.1119,46.1727 L226.5949,47.2487 C225.9389,46.9087 225.2709,46.7387 224.5909,46.7387" id="Fill-75" fill="#131413" mask="url(#mask-4)"></path>
                        <path d="M231.4347,49.2309 C230.9487,49.2309 230.4907,49.4589 230.0617,49.9139 C229.6317,50.3699 229.3197,50.9629 229.1257,51.6949 L229.2327,51.6949 C230.2607,51.6949 231.0597,51.5579 231.6257,51.2839 C232.1927,51.0099 232.4757,50.6109 232.4757,50.0869 C232.4757,49.8369 232.3897,49.6319 232.2197,49.4709 C232.0497,49.3109 231.7887,49.2309 231.4347,49.2309 M230.4367,56.2329 C229.5577,56.2329 228.8697,55.9739 228.3687,55.4579 C227.8687,54.9409 227.6187,54.2239 227.6187,53.3089 C227.6187,52.4209 227.7917,51.5739 228.1387,50.7669 C228.4857,49.9599 228.9547,49.3269 229.5437,48.8659 C230.1337,48.4059 230.7887,48.1749 231.5047,48.1749 C232.2417,48.1749 232.7957,48.3349 233.1687,48.6539 C233.5417,48.9719 233.7277,49.4179 233.7277,49.9879 C233.7277,50.8469 233.3307,51.5189 232.5387,52.0019 C231.7457,52.4869 230.6277,52.7279 229.1827,52.7279 L228.9427,52.7279 L228.9137,53.2659 C228.9137,53.8609 229.0567,54.3289 229.3427,54.6679 C229.6277,55.0079 230.0677,55.1779 230.6637,55.1779 C231.0267,55.1779 231.3737,55.1269 231.7067,55.0219 C232.0397,54.9179 232.3977,54.7719 232.7807,54.5839 L232.7807,55.6729 C232.3117,55.8909 231.9037,56.0389 231.5547,56.1159 C231.2057,56.1939 230.8327,56.2329 230.4367,56.2329" id="Fill-76" fill="#131413" mask="url(#mask-4)"></path>
                        <path d="M241.0323,56.0912 L239.7573,56.0912 L240.7843,51.2202 C240.8843,50.7532 240.9323,50.4202 240.9323,50.2222 C240.9323,49.9242 240.8503,49.6872 240.6843,49.5102 C240.5203,49.3332 240.2583,49.2442 239.8993,49.2442 C239.4933,49.2442 239.0983,49.3842 238.7143,49.6622 C238.3293,49.9412 237.9873,50.3432 237.6903,50.8692 C237.3933,51.3962 237.1693,52.0202 237.0173,52.7422 L236.3093,56.0912 L235.0283,56.0912 L236.6843,48.3182 L237.7253,48.3182 L237.5693,49.7542 L237.6403,49.7542 C237.9573,49.3492 238.2413,49.0442 238.4933,48.8412 C238.7463,48.6382 239.0203,48.4772 239.3153,48.3562 C239.6103,48.2362 239.9233,48.1752 240.2533,48.1752 C240.8623,48.1752 241.3403,48.3422 241.6863,48.6752 C242.0343,49.0072 242.2083,49.4782 242.2083,50.0872 C242.2083,50.4552 242.1553,50.8802 242.0523,51.3622 L241.0323,56.0912 Z" id="Fill-77" fill="#131413" mask="url(#mask-4)"></path>
                        <path d="M246.3605,55.1918 C246.6525,55.1918 246.9955,55.1288 247.3865,55.0018 L247.3865,55.9778 C247.2555,56.0448 247.0645,56.1028 246.8165,56.1548 C246.5695,56.2068 246.3525,56.2328 246.1695,56.2328 C245.5645,56.2328 245.1045,56.0908 244.7885,55.8078 C244.4715,55.5248 244.3135,55.1018 244.3135,54.5408 C244.3135,54.2388 244.3565,53.8938 244.4415,53.5068 L245.3265,49.2878 L244.1225,49.2878 L244.2355,48.7138 L245.5465,48.1618 L246.4445,46.5468 L247.1955,46.5468 L246.8055,48.3178 L248.7595,48.3178 L248.5615,49.2878 L246.6145,49.2878 L245.7155,53.5288 C245.6315,53.9108 245.5885,54.1988 245.5885,54.3918 C245.5885,54.6188 245.6475,54.8088 245.7645,54.9628 C245.8835,55.1158 246.0815,55.1918 246.3605,55.1918" id="Fill-78" fill="#131413" mask="url(#mask-4)"></path>
                        <path d="M254.1447,48.1752 C254.4757,48.1752 254.7557,48.2082 254.9877,48.2752 L254.7107,49.4212 C254.4467,49.3642 254.1987,49.3372 253.9677,49.3372 C253.5427,49.3372 253.1437,49.4752 252.7707,49.7512 C252.3977,50.0272 252.0737,50.4132 251.7977,50.9082 C251.5217,51.4042 251.3217,51.9462 251.1997,52.5362 L250.4487,56.0912 L249.1667,56.0912 L250.8247,48.3182 L251.8647,48.3182 L251.7087,49.7542 L251.7807,49.7542 C252.1237,49.3012 252.4077,48.9782 252.6297,48.7842 C252.8507,48.5912 253.0847,48.4412 253.3307,48.3352 C253.5757,48.2292 253.8467,48.1752 254.1447,48.1752" id="Fill-79" fill="#131413" mask="url(#mask-4)"></path>
                        <path d="M259.2765,49.2309 C258.7905,49.2309 258.3325,49.4589 257.9035,49.9139 C257.4735,50.3699 257.1615,50.9629 256.9675,51.6949 L257.0745,51.6949 C258.1025,51.6949 258.9015,51.5579 259.4675,51.2839 C260.0345,51.0099 260.3175,50.6109 260.3175,50.0869 C260.3175,49.8369 260.2315,49.6319 260.0615,49.4709 C259.8915,49.3109 259.6305,49.2309 259.2765,49.2309 M258.2785,56.2329 C257.3995,56.2329 256.7115,55.9739 256.2105,55.4579 C255.7105,54.9409 255.4605,54.2239 255.4605,53.3089 C255.4605,52.4209 255.6335,51.5739 255.9805,50.7669 C256.3275,49.9599 256.7965,49.3269 257.3855,48.8659 C257.9755,48.4059 258.6305,48.1749 259.3465,48.1749 C260.0835,48.1749 260.6375,48.3349 261.0105,48.6539 C261.3835,48.9719 261.5695,49.4179 261.5695,49.9879 C261.5695,50.8469 261.1725,51.5189 260.3805,52.0019 C259.5875,52.4869 258.4695,52.7279 257.0245,52.7279 L256.7845,52.7279 L256.7555,53.2659 C256.7555,53.8609 256.8985,54.3289 257.1845,54.6679 C257.4695,55.0079 257.9095,55.1779 258.5055,55.1779 C258.8685,55.1779 259.2155,55.1269 259.5485,55.0219 C259.8815,54.9179 260.2395,54.7719 260.6225,54.5839 L260.6225,55.6729 C260.1535,55.8909 259.7455,56.0389 259.3965,56.1159 C259.0475,56.1939 258.6745,56.2329 258.2785,56.2329" id="Fill-80" fill="#131413" mask="url(#mask-4)"></path>
                        <path d="M265.713,59.5746 C265.382,59.5746 265.073,59.5246 264.786,59.4266 L264.786,58.3496 C265.078,58.4586 265.347,58.5126 265.593,58.5126 C265.923,58.5126 266.19,58.3806 266.393,58.1166 C266.596,57.8516 266.756,57.4336 266.874,56.8626 L268.468,49.2876 L267.114,49.2876 L267.222,48.7566 L268.665,48.2746 L268.828,47.5816 C269.046,46.6276 269.351,45.9586 269.745,45.5736 C270.14,45.1886 270.714,44.9966 271.47,44.9966 C271.927,44.9966 272.38,45.0896 272.829,45.2726 L272.495,46.2426 C272.146,46.1106 271.823,46.0446 271.526,46.0446 C271.11,46.0446 270.798,46.1626 270.591,46.3986 C270.384,46.6346 270.22,47.0286 270.103,47.5816 L269.933,48.3176 L271.597,48.3176 L271.413,49.2876 L269.741,49.2876 L268.12,57.0046 C267.931,57.8966 267.64,58.5486 267.245,58.9586 C266.852,59.3696 266.341,59.5746 265.713,59.5746" id="Fill-81" fill="#131413" mask="url(#mask-4)"></path>
                        <path d="M277.3644,51.0717 C277.3644,50.5287 277.2214,50.0927 276.9384,49.7647 C276.6554,49.4367 276.2704,49.2727 275.7844,49.2727 C275.2844,49.2727 274.8334,49.4477 274.4324,49.7977 C274.0324,50.1457 273.7214,50.6297 273.5054,51.2447 C273.2884,51.8607 273.1784,52.5347 273.1784,53.2657 C273.1784,53.8707 273.3254,54.3357 273.6144,54.6617 C273.9054,54.9867 274.3194,55.1497 274.8584,55.1497 C275.3294,55.1497 275.7574,54.9807 276.1414,54.6427 C276.5264,54.3057 276.8274,53.8277 277.0424,53.2097 C277.2574,52.5917 277.3644,51.8787 277.3644,51.0717 M278.6734,51.2197 C278.6734,52.1167 278.5034,52.9587 278.1634,53.7447 C277.8234,54.5297 277.3624,55.1357 276.7764,55.5637 C276.1904,55.9907 275.5284,56.2047 274.7864,56.2047 C273.8804,56.2047 273.1714,55.9347 272.6554,55.3977 C272.1414,54.8587 271.8844,54.1327 271.8844,53.2167 C271.8844,52.3097 272.0574,51.4607 272.4074,50.6677 C272.7574,49.8747 273.2234,49.2677 273.8054,48.8477 C274.3894,48.4277 275.0444,48.2177 275.7704,48.2177 C276.6734,48.2177 277.3824,48.4857 277.8974,49.0217 C278.4154,49.5567 278.6734,50.2907 278.6734,51.2197" id="Fill-82" fill="#131413" mask="url(#mask-4)"></path>
                        <path d="M284.9073,48.1752 C285.2373,48.1752 285.5183,48.2082 285.7513,48.2752 L285.4733,49.4212 C285.2103,49.3642 284.9623,49.3372 284.7313,49.3372 C284.3053,49.3372 283.9073,49.4752 283.5343,49.7512 C283.1613,50.0272 282.8373,50.4132 282.5613,50.9082 C282.2843,51.4042 282.0853,51.9462 281.9623,52.5362 L281.2123,56.0912 L279.9303,56.0912 L281.5873,48.3182 L282.6283,48.3182 L282.4713,49.7542 L282.5423,49.7542 C282.8873,49.3012 283.1713,48.9782 283.3913,48.7842 C283.6143,48.5912 283.8483,48.4412 284.0933,48.3352 C284.3393,48.2292 284.6103,48.1752 284.9073,48.1752" id="Fill-83" fill="#131413" mask="url(#mask-4)"></path>
                        <polygon id="Fill-84" fill="#131413" mask="url(#mask-4)" points="295.5421 56.0912 290.2961 56.0912 292.4831 45.7392 297.7371 45.7392 297.4891 46.8872 293.5321 46.8872 292.8451 50.1152 296.5481 50.1152 296.3291 51.2482 292.6181 51.2482 291.8191 54.9452 295.7901 54.9452"></polygon>
                        <path d="M300.8429,55.1781 C301.2859,55.1781 301.7319,54.9651 302.1769,54.5401 C302.6219,54.1161 302.9799,53.5631 303.2489,52.8801 C303.5189,52.1991 303.6539,51.5031 303.6539,50.7951 C303.6539,50.3321 303.5249,49.9581 303.2709,49.6731 C303.0149,49.3871 302.6789,49.2441 302.2589,49.2441 C301.7819,49.2441 301.3389,49.4441 300.9309,49.8431 C300.5229,50.2411 300.2019,50.7791 299.9719,51.4531 C299.7389,52.1281 299.6239,52.8491 299.6239,53.6131 C299.6239,54.1371 299.7299,54.5291 299.9429,54.7881 C300.1559,55.0481 300.4539,55.1781 300.8429,55.1781 M300.4169,56.2331 C299.7709,56.2331 299.2589,56.0011 298.8799,55.5381 C298.5029,55.0761 298.3139,54.4251 298.3139,53.5851 C298.3139,52.6171 298.4819,51.7141 298.8139,50.8761 C299.1459,50.0381 299.6049,49.3791 300.1909,48.8981 C300.7769,48.4161 301.4229,48.1751 302.1299,48.1751 C302.5699,48.1751 302.9559,48.2911 303.2879,48.5231 C303.6199,48.7541 303.8859,49.0861 304.0849,49.5211 L304.1629,49.5211 L304.6219,48.3181 L305.5929,48.3181 L303.9429,56.0911 L302.9309,56.0911 L303.1139,54.6541 L303.0579,54.6541 C302.2409,55.7061 301.3609,56.2331 300.4169,56.2331" id="Fill-85" fill="#131413" mask="url(#mask-4)"></path>
                        <path d="M311.5792,53.8471 C311.5792,54.5971 311.3152,55.1831 310.7902,55.6031 C310.2632,56.0231 309.5202,56.2331 308.5632,56.2331 C307.7142,56.2331 306.9892,56.0701 306.3902,55.7441 L306.3902,54.5691 C306.6962,54.7581 307.0382,54.9091 307.4132,55.0221 C307.7882,55.1351 308.1572,55.1921 308.5202,55.1921 C309.0972,55.1921 309.5342,55.0791 309.8312,54.8561 C310.1282,54.6311 310.2762,54.3371 310.2762,53.9741 C310.2762,53.7141 310.1942,53.4921 310.0322,53.3051 C309.8702,53.1181 309.5162,52.8721 308.9742,52.5661 C308.3642,52.2261 307.9342,51.8871 307.6832,51.5491 C307.4292,51.2121 307.3042,50.8221 307.3042,50.3771 C307.3042,49.7171 307.5442,49.1851 308.0242,48.7811 C308.5072,48.3771 309.1452,48.1751 309.9442,48.1751 C310.7472,48.1751 311.5302,48.3551 312.2942,48.7141 L311.8842,49.7261 C311.6342,49.6081 311.3522,49.4981 311.0422,49.3971 C310.7292,49.2951 310.3642,49.2441 309.9442,49.2441 C309.5282,49.2441 309.1962,49.3431 308.9482,49.5381 C308.7022,49.7351 308.5772,49.9911 308.5772,50.3071 C308.5772,50.5671 308.6632,50.7871 308.8352,50.9691 C309.0092,51.1511 309.3492,51.3831 309.8582,51.6661 C310.3922,51.9831 310.7592,52.2391 310.9602,52.4341 C311.1612,52.6301 311.3132,52.8411 311.4212,53.0681 C311.5262,53.2941 311.5792,53.5541 311.5792,53.8471" id="Fill-86" fill="#131413" mask="url(#mask-4)"></path>
                        <path d="M315.923,55.1918 C316.216,55.1918 316.558,55.1288 316.95,55.0018 L316.95,55.9778 C316.818,56.0448 316.628,56.1028 316.38,56.1548 C316.132,56.2068 315.915,56.2328 315.732,56.2328 C315.128,56.2328 314.667,56.0908 314.351,55.8078 C314.034,55.5248 313.876,55.1018 313.876,54.5408 C313.876,54.2388 313.919,53.8938 314.005,53.5068 L314.89,49.2878 L313.685,49.2878 L313.798,48.7138 L315.109,48.1618 L316.007,46.5468 L316.759,46.5468 L316.368,48.3178 L318.323,48.3178 L318.124,49.2878 L316.177,49.2878 L315.278,53.5288 C315.194,53.9108 315.152,54.1988 315.152,54.3918 C315.152,54.6188 315.21,54.8088 315.327,54.9628 C315.446,55.1158 315.644,55.1918 315.923,55.1918" id="Fill-87" fill="#131413" mask="url(#mask-4)"></path>
                        <polygon id="Fill-88" fill="#131413" mask="url(#mask-4)" points="327.8195 56.0912 322.5735 56.0912 324.7605 45.7392 330.0145 45.7392 329.7665 46.8872 325.8075 46.8872 325.1225 50.1152 328.8255 50.1152 328.6045 51.2482 324.8955 51.2482 324.0945 54.9452 328.0675 54.9452"></polygon>
                        <path d="M331.8722,48.3178 L333.1612,48.3178 L332.1122,53.2028 C332.0282,53.6278 331.9852,53.9528 331.9852,54.1788 C331.9852,54.8448 332.3232,55.1778 332.9992,55.1778 C333.4092,55.1778 333.8062,55.0388 334.1902,54.7598 C334.5752,54.4818 334.9192,54.0768 335.2222,53.5468 C335.5222,53.0148 335.7492,52.3878 335.9012,51.6668 L336.6082,48.3178 L337.8702,48.3178 L336.2202,56.0908 L335.1712,56.0908 L335.3352,54.6538 L335.2652,54.6538 C334.8392,55.2118 334.4112,55.6138 333.9812,55.8608 C333.5522,56.1088 333.1042,56.2328 332.6382,56.2328 C332.0322,56.2328 331.5582,56.0638 331.2142,55.7268 C330.8702,55.3888 330.6962,54.9158 330.6962,54.3068 C330.6962,54.0048 330.7492,53.5888 330.8522,53.0608 L331.8722,48.3178 Z" id="Fill-89" fill="#131413" mask="url(#mask-4)"></path>
                        <path d="M344.1398,48.1752 C344.4698,48.1752 344.7508,48.2082 344.9818,48.2752 L344.7058,49.4212 C344.4408,49.3642 344.1948,49.3372 343.9618,49.3372 C343.5378,49.3372 343.1378,49.4752 342.7668,49.7512 C342.3938,50.0272 342.0678,50.4132 341.7918,50.9082 C341.5168,51.4042 341.3178,51.9462 341.1948,52.5362 L340.4448,56.0912 L339.1608,56.0912 L340.8198,48.3182 L341.8608,48.3182 L341.7038,49.7542 L341.7748,49.7542 C342.1188,49.3012 342.4018,48.9782 342.6238,48.7842 C342.8468,48.5912 343.0788,48.4412 343.3258,48.3352 C343.5718,48.2292 343.8428,48.1752 344.1398,48.1752" id="Fill-90" fill="#131413" mask="url(#mask-4)"></path>
                        <path d="M350.9347,51.0717 C350.9347,50.5287 350.7937,50.0927 350.5107,49.7647 C350.2277,49.4367 349.8427,49.2727 349.3567,49.2727 C348.8567,49.2727 348.4057,49.4477 348.0027,49.7977 C347.6027,50.1457 347.2937,50.6297 347.0777,51.2447 C346.8587,51.8607 346.7507,52.5347 346.7507,53.2657 C346.7507,53.8707 346.8957,54.3357 347.1867,54.6617 C347.4757,54.9867 347.8897,55.1497 348.4287,55.1497 C348.9017,55.1497 349.3297,54.9807 349.7137,54.6427 C350.0987,54.3057 350.3977,53.8277 350.6127,53.2097 C350.8277,52.5917 350.9347,51.8787 350.9347,51.0717 M352.2457,51.2197 C352.2457,52.1167 352.0757,52.9587 351.7357,53.7447 C351.3957,54.5297 350.9327,55.1357 350.3467,55.5637 C349.7627,55.9907 349.0987,56.2047 348.3587,56.2047 C347.4527,56.2047 346.7417,55.9347 346.2277,55.3977 C345.7117,54.8587 345.4547,54.1327 345.4547,53.2167 C345.4547,52.3097 345.6297,51.4607 345.9797,50.6677 C346.3297,49.8747 346.7937,49.2677 347.3777,48.8477 C347.9597,48.4277 348.6147,48.2177 349.3427,48.2177 C350.2437,48.2177 350.9527,48.4857 351.4697,49.0217 C351.9877,49.5567 352.2457,50.2907 352.2457,51.2197" id="Fill-91" fill="#131413" mask="url(#mask-4)"></path>
                        <path d="M358.2452,49.2446 C357.8062,49.2446 357.3622,49.4596 356.9112,49.8896 C356.4602,50.3186 356.0992,50.8736 355.8272,51.5536 C355.5562,52.2326 355.4212,52.9196 355.4212,53.6126 C355.4212,54.1036 355.5462,54.4876 355.8002,54.7646 C356.0522,55.0396 356.4192,55.1786 356.8992,55.1786 C357.3622,55.1786 357.7922,54.9846 358.1882,54.5976 C358.5852,54.2106 358.8992,53.6736 359.1302,52.9866 C359.3622,52.3006 359.4772,51.5766 359.4772,50.8166 C359.4772,49.7686 359.0672,49.2446 358.2452,49.2446 M358.6772,48.1896 C359.3472,48.1896 359.8662,48.4266 360.2312,48.8976 C360.5972,49.3696 360.7802,50.0186 360.7802,50.8456 C360.7802,51.8496 360.6142,52.7696 360.2802,53.6026 C359.9482,54.4356 359.4972,55.0826 358.9292,55.5426 C358.3602,56.0026 357.7162,56.2326 356.9992,56.2326 C356.0932,56.2326 355.4312,55.7896 355.0112,54.9016 L354.9382,54.9016 C354.8642,55.5486 354.8002,55.9876 354.7472,56.2186 L354.0402,59.5746 L352.7802,59.5746 L355.1592,48.3176 L356.2002,48.3176 L356.0302,49.7686 L356.0872,49.7686 C356.5342,49.2116 356.9702,48.8086 357.3912,48.5616 C357.8152,48.3136 358.2432,48.1896 358.6772,48.1896" id="Fill-92" fill="#131413" mask="url(#mask-4)"></path>
                        <path d="M366.1788,49.2309 C365.6928,49.2309 365.2358,49.4589 364.8058,49.9139 C364.3758,50.3699 364.0638,50.9629 363.8698,51.6949 L363.9778,51.6949 C365.0048,51.6949 365.8038,51.5579 366.3698,51.2839 C366.9368,51.0099 367.2198,50.6109 367.2198,50.0869 C367.2198,49.8369 367.1338,49.6319 366.9638,49.4709 C366.7938,49.3109 366.5328,49.2309 366.1788,49.2309 M365.1808,56.2329 C364.3018,56.2329 363.6128,55.9739 363.1128,55.4579 C362.6128,54.9409 362.3628,54.2239 362.3628,53.3089 C362.3628,52.4209 362.5358,51.5739 362.8818,50.7669 C363.2298,49.9599 363.6988,49.3269 364.2878,48.8659 C364.8778,48.4059 365.5328,48.1749 366.2488,48.1749 C366.9858,48.1749 367.5398,48.3349 367.9128,48.6539 C368.2858,48.9719 368.4718,49.4179 368.4718,49.9879 C368.4718,50.8469 368.0748,51.5189 367.2828,52.0019 C366.4898,52.4869 365.3718,52.7279 363.9268,52.7279 L363.6868,52.7279 L363.6578,53.2659 C363.6578,53.8609 363.7998,54.3289 364.0868,54.6679 C364.3718,55.0079 364.8118,55.1779 365.4078,55.1779 C365.7708,55.1779 366.1178,55.1269 366.4498,55.0219 C366.7838,54.9179 367.1418,54.7719 367.5248,54.5839 L367.5248,55.6729 C367.0558,55.8909 366.6478,56.0389 366.2998,56.1159 C365.9498,56.1939 365.5768,56.2329 365.1808,56.2329" id="Fill-93" fill="#131413" mask="url(#mask-4)"></path>
                        <path d="M372.5909,55.1781 C373.0339,55.1781 373.4799,54.9651 373.9249,54.5401 C374.3699,54.1161 374.7279,53.5631 374.9969,52.8801 C375.2669,52.1991 375.4019,51.5031 375.4019,50.7951 C375.4019,50.3321 375.2729,49.9581 375.0189,49.6731 C374.7629,49.3871 374.4269,49.2441 374.0069,49.2441 C373.5299,49.2441 373.0869,49.4441 372.6789,49.8431 C372.2709,50.2411 371.9499,50.7791 371.7199,51.4531 C371.4869,52.1281 371.3719,52.8491 371.3719,53.6131 C371.3719,54.1371 371.4779,54.5291 371.6909,54.7881 C371.9039,55.0481 372.2019,55.1781 372.5909,55.1781 M372.1649,56.2331 C371.5189,56.2331 371.0069,56.0011 370.6279,55.5381 C370.2509,55.0761 370.0619,54.4251 370.0619,53.5851 C370.0619,52.6171 370.2299,51.7141 370.5619,50.8761 C370.8939,50.0381 371.3529,49.3791 371.9389,48.8981 C372.5249,48.4161 373.1709,48.1751 373.8779,48.1751 C374.3179,48.1751 374.7039,48.2911 375.0359,48.5231 C375.3679,48.7541 375.6339,49.0861 375.8329,49.5211 L375.9109,49.5211 L376.3699,48.3181 L377.3409,48.3181 L375.6909,56.0911 L374.6789,56.0911 L374.8619,54.6541 L374.8059,54.6541 C373.9889,55.7061 373.1089,56.2331 372.1649,56.2331" id="Fill-94" fill="#131413" mask="url(#mask-4)"></path>
                        <path d="M384.4738,56.0912 L383.2008,56.0912 L384.2278,51.2202 C384.3258,50.7532 384.3758,50.4202 384.3758,50.2222 C384.3758,49.9242 384.2918,49.6872 384.1278,49.5102 C383.9618,49.3332 383.7008,49.2442 383.3408,49.2442 C382.9368,49.2442 382.5398,49.3842 382.1558,49.6622 C381.7708,49.9412 381.4308,50.3432 381.1318,50.8692 C380.8348,51.3962 380.6108,52.0202 380.4598,52.7422 L379.7528,56.0912 L378.4698,56.0912 L380.1278,48.3182 L381.1688,48.3182 L381.0128,49.7542 L381.0828,49.7542 C381.3998,49.3492 381.6848,49.0442 381.9368,48.8412 C382.1888,48.6382 382.4618,48.4772 382.7568,48.3562 C383.0518,48.2362 383.3648,48.1752 383.6968,48.1752 C384.3038,48.1752 384.7828,48.3422 385.1298,48.6752 C385.4758,49.0072 385.6498,49.4782 385.6498,50.0872 C385.6498,50.4552 385.5988,50.8802 385.4938,51.3622 L384.4738,56.0912 Z" id="Fill-95" fill="#131413" mask="url(#mask-4)"></path>
                        <path d="M221.172,72.1781 C221.615,72.1781 222.06,71.9651 222.507,71.5401 C222.952,71.1161 223.31,70.5631 223.579,69.8801 C223.848,69.1991 223.983,68.5031 223.983,67.7951 C223.983,67.3321 223.855,66.9581 223.601,66.6731 C223.345,66.3871 223.008,66.2441 222.588,66.2441 C222.11,66.2441 221.669,66.4441 221.261,66.8431 C220.853,67.2411 220.532,67.7791 220.301,68.4531 C220.069,69.1281 219.954,69.8491 219.954,70.6131 C219.954,71.1371 220.06,71.5291 220.273,71.7881 C220.485,72.0481 220.784,72.1781 221.172,72.1781 M220.747,73.2331 C220.101,73.2331 219.588,73.0011 219.21,72.5381 C218.833,72.0761 218.644,71.4251 218.644,70.5851 C218.644,69.6171 218.811,68.7141 219.144,67.8761 C219.476,67.0381 219.935,66.3791 220.521,65.8981 C221.106,65.4161 221.752,65.1751 222.46,65.1751 C222.9,65.1751 223.285,65.2911 223.618,65.5231 C223.95,65.7541 224.216,66.0861 224.414,66.5211 L224.492,66.5211 L224.952,65.3181 L225.923,65.3181 L224.273,73.0911 L223.261,73.0911 L223.444,71.6541 L223.388,71.6541 C222.571,72.7061 221.691,73.2331 220.747,73.2331" id="Fill-96" fill="#131413" mask="url(#mask-4)"></path>
                        <path d="M233.0558,73.0912 L231.7808,73.0912 L232.8078,68.2202 C232.9078,67.7532 232.9558,67.4202 232.9558,67.2222 C232.9558,66.9242 232.8738,66.6872 232.7078,66.5102 C232.5438,66.3332 232.2818,66.2442 231.9228,66.2442 C231.5168,66.2442 231.1218,66.3842 230.7378,66.6622 C230.3528,66.9412 230.0108,67.3432 229.7138,67.8692 C229.4168,68.3962 229.1928,69.0202 229.0408,69.7422 L228.3328,73.0912 L227.0518,73.0912 L228.7078,65.3182 L229.7488,65.3182 L229.5928,66.7542 L229.6638,66.7542 C229.9808,66.3492 230.2648,66.0442 230.5168,65.8412 C230.7698,65.6382 231.0438,65.4772 231.3388,65.3562 C231.6338,65.2362 231.9468,65.1752 232.2768,65.1752 C232.8858,65.1752 233.3638,65.3422 233.7098,65.6752 C234.0578,66.0072 234.2318,66.4782 234.2318,67.0872 C234.2318,67.4552 234.1788,67.8802 234.0758,68.3622 L233.0558,73.0912 Z" id="Fill-97" fill="#131413" mask="url(#mask-4)"></path>
                        <path d="M238.4542,72.1781 C238.8932,72.1781 239.3402,71.9571 239.7932,71.5161 C240.2462,71.0741 240.6042,70.5201 240.8692,69.8521 C241.1342,69.1841 241.2662,68.5051 241.2662,67.8171 C241.2662,67.3071 241.1432,66.9171 240.8972,66.6481 C240.6512,66.3791 240.2912,66.2441 239.8132,66.2441 C239.3472,66.2441 238.9152,66.4421 238.5182,66.8361 C238.1222,67.2301 237.8082,67.7671 237.5732,68.4471 C237.3402,69.1261 237.2242,69.8491 237.2242,70.6131 C237.2242,71.6571 237.6342,72.1781 238.4542,72.1781 M238.0172,73.2331 C237.3642,73.2331 236.8502,73.0041 236.4752,72.5461 C236.1002,72.0881 235.9132,71.4351 235.9132,70.5851 C235.9132,69.5981 236.0782,68.6851 236.4092,67.8451 C236.7392,67.0041 237.1962,66.3521 237.7782,65.8871 C238.3622,65.4221 239.0122,65.1901 239.7292,65.1901 C240.6262,65.1901 241.2772,65.6331 241.6832,66.5211 L241.7612,66.5211 C241.8652,65.7141 241.9722,65.0761 242.0792,64.6091 L242.6102,62.0741 L243.8782,62.0741 L241.5422,73.0911 L240.4932,73.0911 L240.6572,71.6541 L240.6002,71.6541 C240.1472,72.2151 239.7162,72.6191 239.3042,72.8651 C238.8932,73.1101 238.4642,73.2331 238.0172,73.2331" id="Fill-98" fill="#131413" mask="url(#mask-4)"></path>
                        <polygon id="Fill-99" fill="#131413" mask="url(#mask-4)" points="251.6456 73.0912 248.0206 73.0912 248.1686 72.3832 249.4016 72.0932 251.1646 63.7382 250.0666 63.4622 250.2086 62.7392 253.8336 62.7392 253.6916 63.4622 252.4456 63.7382 250.6746 72.0932 251.7936 72.3832"></polygon>
                        <path d="M259.8829,73.0912 L258.6089,73.0912 L259.6359,68.2202 C259.7349,67.7532 259.7839,67.4202 259.7839,67.2222 C259.7839,66.9242 259.7009,66.6872 259.5359,66.5102 C259.3709,66.3332 259.1089,66.2442 258.7499,66.2442 C258.3449,66.2442 257.9489,66.3842 257.5649,66.6622 C257.1799,66.9412 256.8389,67.3432 256.5409,67.8692 C256.2439,68.3962 256.0199,69.0202 255.8679,69.7422 L255.1609,73.0912 L253.8789,73.0912 L255.5359,65.3182 L256.5769,65.3182 L256.4209,66.7542 L256.4909,66.7542 C256.8079,66.3492 257.0929,66.0442 257.3449,65.8412 C257.5969,65.6382 257.8709,65.4772 258.1659,65.3562 C258.4609,65.2362 258.7749,65.1752 259.1049,65.1752 C259.7129,65.1752 260.1909,65.3422 260.5379,65.6752 C260.8849,66.0072 261.0589,66.4782 261.0589,67.0872 C261.0589,67.4552 261.0069,67.8802 260.9029,68.3622 L259.8829,73.0912 Z" id="Fill-100" fill="#131413" mask="url(#mask-4)"></path>
                        <path d="M265.212,72.1918 C265.504,72.1918 265.847,72.1288 266.238,72.0018 L266.238,72.9778 C266.107,73.0448 265.916,73.1028 265.668,73.1548 C265.421,73.2068 265.204,73.2328 265.021,73.2328 C264.416,73.2328 263.956,73.0908 263.64,72.8078 C263.323,72.5248 263.165,72.1018 263.165,71.5408 C263.165,71.2388 263.208,70.8938 263.293,70.5068 L264.178,66.2878 L262.974,66.2878 L263.087,65.7138 L264.398,65.1618 L265.296,63.5468 L266.047,63.5468 L265.657,65.3178 L267.611,65.3178 L267.413,66.2878 L265.466,66.2878 L264.567,70.5288 C264.483,70.9108 264.44,71.1988 264.44,71.3918 C264.44,71.6188 264.499,71.8088 264.616,71.9628 C264.735,72.1158 264.933,72.1918 265.212,72.1918" id="Fill-101" fill="#131413" mask="url(#mask-4)"></path>
                        <path d="M272.1241,66.2309 C271.6381,66.2309 271.1811,66.4589 270.7511,66.9139 C270.3211,67.3699 270.0111,67.9629 269.8171,68.6949 L269.9231,68.6949 C270.9521,68.6949 271.7491,68.5579 272.3151,68.2839 C272.8821,68.0099 273.1651,67.6109 273.1651,67.0869 C273.1651,66.8369 273.0811,66.6319 272.9111,66.4709 C272.7411,66.3109 272.4791,66.2309 272.1241,66.2309 M271.1261,73.2329 C270.2491,73.2329 269.5601,72.9739 269.0601,72.4579 C268.5601,71.9409 268.3101,71.2239 268.3101,70.3089 C268.3101,69.4209 268.4821,68.5739 268.8291,67.7669 C269.1771,66.9599 269.6441,66.3269 270.2331,65.8659 C270.8251,65.4059 271.4781,65.1749 272.1961,65.1749 C272.9331,65.1749 273.4871,65.3349 273.8581,65.6539 C274.2311,65.9719 274.4191,66.4179 274.4191,66.9879 C274.4191,67.8469 274.0221,68.5189 273.2291,69.0019 C272.4361,69.4869 271.3171,69.7279 269.8741,69.7279 L269.6321,69.7279 L269.6041,70.2659 C269.6041,70.8609 269.7471,71.3289 270.0321,71.6679 C270.3171,72.0079 270.7591,72.1779 271.3531,72.1779 C271.7161,72.1779 272.0651,72.1269 272.3971,72.0219 C272.7291,71.9179 273.0871,71.7719 273.4701,71.5839 L273.4701,72.6729 C273.0031,72.8909 272.5951,73.0389 272.2451,73.1159 C271.8951,73.1939 271.5221,73.2329 271.1261,73.2329" id="Fill-102" fill="#131413" mask="url(#mask-4)"></path>
                        <path d="M280.6964,65.1752 C281.0264,65.1752 281.3074,65.2082 281.5384,65.2752 L281.2624,66.4212 C280.9974,66.3642 280.7514,66.3372 280.5184,66.3372 C280.0944,66.3372 279.6944,66.4752 279.3234,66.7512 C278.9504,67.0272 278.6244,67.4132 278.3484,67.9082 C278.0734,68.4042 277.8744,68.9462 277.7514,69.5362 L277.0014,73.0912 L275.7174,73.0912 L277.3764,65.3182 L278.4174,65.3182 L278.2604,66.7542 L278.3314,66.7542 C278.6754,66.3012 278.9584,65.9782 279.1804,65.7842 C279.4034,65.5912 279.6354,65.4412 279.8824,65.3352 C280.1284,65.2292 280.3994,65.1752 280.6964,65.1752" id="Fill-103" fill="#131413" mask="url(#mask-4)"></path>
                        <path d="M287.9562,73.0912 L286.6832,73.0912 L287.7102,68.2202 C287.8082,67.7532 287.8582,67.4202 287.8582,67.2222 C287.8582,66.9242 287.7742,66.6872 287.6102,66.5102 C287.4442,66.3332 287.1832,66.2442 286.8232,66.2442 C286.4192,66.2442 286.0222,66.3842 285.6382,66.6622 C285.2532,66.9412 284.9132,67.3432 284.6142,67.8692 C284.3172,68.3962 284.0932,69.0202 283.9422,69.7422 L283.2352,73.0912 L281.9522,73.0912 L283.6102,65.3182 L284.6512,65.3182 L284.4952,66.7542 L284.5652,66.7542 C284.8822,66.3492 285.1672,66.0442 285.4192,65.8412 C285.6712,65.6382 285.9442,65.4772 286.2392,65.3562 C286.5342,65.2362 286.8472,65.1752 287.1792,65.1752 C287.7862,65.1752 288.2652,65.3422 288.6122,65.6752 C288.9582,66.0072 289.1322,66.4782 289.1322,67.0872 C289.1322,67.4552 289.0812,67.8802 288.9762,68.3622 L287.9562,73.0912 Z" id="Fill-104" fill="#131413" mask="url(#mask-4)"></path>
                        <path d="M293.632,72.1781 C294.075,72.1781 294.521,71.9651 294.966,71.5401 C295.411,71.1161 295.769,70.5631 296.038,69.8801 C296.308,69.1991 296.443,68.5031 296.443,67.7951 C296.443,67.3321 296.314,66.9581 296.06,66.6731 C295.804,66.3871 295.468,66.2441 295.048,66.2441 C294.571,66.2441 294.128,66.4441 293.72,66.8431 C293.312,67.2411 292.991,67.7791 292.761,68.4531 C292.528,69.1281 292.413,69.8491 292.413,70.6131 C292.413,71.1371 292.519,71.5291 292.732,71.7881 C292.945,72.0481 293.243,72.1781 293.632,72.1781 M293.206,73.2331 C292.56,73.2331 292.048,73.0011 291.669,72.5381 C291.292,72.0761 291.103,71.4251 291.103,70.5851 C291.103,69.6171 291.271,68.7141 291.603,67.8761 C291.935,67.0381 292.394,66.3791 292.98,65.8981 C293.566,65.4161 294.212,65.1751 294.919,65.1751 C295.359,65.1751 295.745,65.2911 296.077,65.5231 C296.409,65.7541 296.675,66.0861 296.874,66.5211 L296.952,66.5211 L297.411,65.3181 L298.382,65.3181 L296.732,73.0911 L295.72,73.0911 L295.903,71.6541 L295.847,71.6541 C295.03,72.7061 294.15,73.2331 293.206,73.2331" id="Fill-105" fill="#131413" mask="url(#mask-4)"></path>
                        <path d="M301.9835,72.1918 C302.2765,72.1918 302.6185,72.1288 303.0105,72.0018 L303.0105,72.9778 C302.8785,73.0448 302.6885,73.1028 302.4405,73.1548 C302.1925,73.2068 301.9755,73.2328 301.7925,73.2328 C301.1885,73.2328 300.7275,73.0908 300.4115,72.8078 C300.0945,72.5248 299.9365,72.1018 299.9365,71.5408 C299.9365,71.2388 299.9795,70.8938 300.0655,70.5068 L300.9505,66.2878 L299.7455,66.2878 L299.8585,65.7138 L301.1695,65.1618 L302.0675,63.5468 L302.8195,63.5468 L302.4285,65.3178 L304.3835,65.3178 L304.1845,66.2878 L302.2375,66.2878 L301.3385,70.5288 C301.2545,70.9108 301.2125,71.1988 301.2125,71.3918 C301.2125,71.6188 301.2705,71.8088 301.3875,71.9628 C301.5065,72.1158 301.7045,72.1918 301.9835,72.1918" id="Fill-106" fill="#131413" mask="url(#mask-4)"></path>
                        <path d="M306.7804,63.349 C306.7804,63.079 306.8584,62.858 307.0164,62.683 C307.1754,62.509 307.3824,62.421 307.6374,62.421 C308.0814,62.421 308.3014,62.639 308.3014,63.073 C308.3014,63.356 308.2194,63.586 308.0554,63.763 C307.8894,63.94 307.6964,64.029 307.4734,64.029 C307.2704,64.029 307.1044,63.97 306.9754,63.852 C306.8444,63.734 306.7804,63.566 306.7804,63.349 L306.7804,63.349 Z M306.0734,73.091 L304.7904,73.091 L306.4484,65.318 L307.7214,65.318 L306.0734,73.091 Z" id="Fill-107" fill="#131413" mask="url(#mask-4)"></path>
                        <path d="M314.7628,68.0717 C314.7628,67.5287 314.6218,67.0927 314.3388,66.7647 C314.0558,66.4367 313.6708,66.2727 313.1848,66.2727 C312.6848,66.2727 312.2338,66.4477 311.8308,66.7977 C311.4308,67.1457 311.1218,67.6297 310.9058,68.2447 C310.6868,68.8607 310.5788,69.5347 310.5788,70.2657 C310.5788,70.8707 310.7238,71.3357 311.0148,71.6617 C311.3038,71.9867 311.7178,72.1497 312.2568,72.1497 C312.7298,72.1497 313.1578,71.9807 313.5418,71.6427 C313.9268,71.3057 314.2258,70.8277 314.4408,70.2097 C314.6558,69.5917 314.7628,68.8787 314.7628,68.0717 M316.0738,68.2197 C316.0738,69.1167 315.9038,69.9587 315.5638,70.7447 C315.2238,71.5297 314.7608,72.1357 314.1748,72.5637 C313.5908,72.9907 312.9268,73.2047 312.1868,73.2047 C311.2808,73.2047 310.5698,72.9347 310.0558,72.3977 C309.5398,71.8587 309.2828,71.1327 309.2828,70.2167 C309.2828,69.3097 309.4578,68.4607 309.8078,67.6677 C310.1578,66.8747 310.6218,66.2677 311.2058,65.8477 C311.7878,65.4277 312.4428,65.2177 313.1708,65.2177 C314.0718,65.2177 314.7808,65.4857 315.2978,66.0217 C315.8158,66.5567 316.0738,67.2907 316.0738,68.2197" id="Fill-108" fill="#131413" mask="url(#mask-4)"></path>
                        <path d="M323.3331,73.0912 L322.0601,73.0912 L323.0871,68.2202 C323.1851,67.7532 323.2351,67.4202 323.2351,67.2222 C323.2351,66.9242 323.1511,66.6872 322.9871,66.5102 C322.8211,66.3332 322.5601,66.2442 322.2001,66.2442 C321.7961,66.2442 321.3991,66.3842 321.0151,66.6622 C320.6301,66.9412 320.2901,67.3432 319.9911,67.8692 C319.6941,68.3962 319.4701,69.0202 319.3191,69.7422 L318.6121,73.0912 L317.3291,73.0912 L318.9871,65.3182 L320.0281,65.3182 L319.8721,66.7542 L319.9421,66.7542 C320.2591,66.3492 320.5441,66.0442 320.7961,65.8412 C321.0481,65.6382 321.3211,65.4772 321.6161,65.3562 C321.9111,65.2362 322.2241,65.1752 322.5561,65.1752 C323.1631,65.1752 323.6421,65.3422 323.9891,65.6752 C324.3351,66.0072 324.5091,66.4782 324.5091,67.0872 C324.5091,67.4552 324.4581,67.8802 324.3531,68.3622 L323.3331,73.0912 Z" id="Fill-109" fill="#131413" mask="url(#mask-4)"></path>
                        <path d="M329.0089,72.1781 C329.4519,72.1781 329.8979,71.9651 330.3429,71.5401 C330.7899,71.1161 331.1479,70.5631 331.4169,69.8801 C331.6849,69.1991 331.8199,68.5031 331.8199,67.7951 C331.8199,67.3321 331.6929,66.9581 331.4389,66.6731 C331.1829,66.3871 330.8449,66.2441 330.4249,66.2441 C329.9479,66.2441 329.5049,66.4441 329.0969,66.8431 C328.6889,67.2411 328.3699,67.7791 328.1379,68.4531 C327.9069,69.1281 327.7919,69.8491 327.7919,70.6131 C327.7919,71.1371 327.8979,71.5291 328.1109,71.7881 C328.3229,72.0481 328.6219,72.1781 329.0089,72.1781 M328.5849,73.2331 C327.9389,73.2331 327.4249,73.0011 327.0479,72.5381 C326.6709,72.0761 326.4819,71.4251 326.4819,70.5851 C326.4819,69.6171 326.6479,68.7141 326.9819,67.8761 C327.3139,67.0381 327.7729,66.3791 328.3589,65.8981 C328.9429,65.4161 329.5889,65.1751 330.2979,65.1751 C330.7379,65.1751 331.1219,65.2911 331.4559,65.5231 C331.7879,65.7541 332.0539,66.0861 332.2509,66.5211 L332.3289,66.5211 L332.7899,65.3181 L333.7609,65.3181 L332.1109,73.0911 L331.0989,73.0911 L331.2819,71.6541 L331.2259,71.6541 C330.4089,72.7061 329.5289,73.2331 328.5849,73.2331" id="Fill-110" fill="#131413" mask="url(#mask-4)"></path>
                        <polygon id="Fill-111" fill="#131413" mask="url(#mask-4)" points="336.1573 73.0912 334.8763 73.0912 337.2253 62.0742 338.5013 62.0742"></polygon>
                        <path d="M348.8175,70.0893 C348.8175,71.0753 348.4875,71.8463 347.8275,72.4013 C347.1655,72.9553 346.2315,73.2333 345.0225,73.2333 C344.0595,73.2333 343.2565,73.0793 342.6165,72.7733 L342.6165,71.4983 C343.4035,71.9033 344.2105,72.1073 345.0365,72.1073 C345.7725,72.1073 346.3605,71.9373 346.7995,71.5973 C347.2395,71.2573 347.4585,70.7873 347.4585,70.1893 C347.4585,69.8293 347.3405,69.5133 347.1085,69.2393 C346.8745,68.9663 346.4195,68.6353 345.7455,68.2483 C345.0285,67.8283 344.5345,67.4153 344.2645,67.0093 C343.9955,66.6043 343.8625,66.1313 343.8625,65.5933 C343.8625,65.0033 344.0055,64.4813 344.2945,64.0253 C344.5815,63.5693 344.9895,63.2173 345.5145,62.9663 C346.0425,62.7163 346.6265,62.5913 347.2665,62.5913 C348.2065,62.5913 349.0735,62.7943 349.8665,63.2003 L349.3705,64.3053 C349.0675,64.1353 348.7275,63.9983 348.3505,63.8943 C347.9735,63.7903 347.6125,63.7383 347.2665,63.7383 C346.6575,63.7383 346.1695,63.8983 345.7975,64.2163 C345.4265,64.5343 345.2415,64.9653 345.2415,65.5083 C345.2415,65.8763 345.3355,66.1813 345.5185,66.4213 C345.7025,66.6623 346.1005,66.9623 346.7135,67.3203 C347.3895,67.7323 347.8465,68.0563 348.0885,68.2943 C348.3295,68.5323 348.5105,68.7963 348.6335,69.0833 C348.7565,69.3713 348.8175,69.7063 348.8175,70.0893" id="Fill-112" fill="#131413" mask="url(#mask-4)"></path>
                        <path d="M352.9991,72.1918 C353.2921,72.1918 353.6341,72.1288 354.0261,72.0018 L354.0261,72.9778 C353.8941,73.0448 353.7041,73.1028 353.4561,73.1548 C353.2081,73.2068 352.9911,73.2328 352.8081,73.2328 C352.2041,73.2328 351.7431,73.0908 351.4271,72.8078 C351.1101,72.5248 350.9521,72.1018 350.9521,71.5408 C350.9521,71.2388 350.9951,70.8938 351.0811,70.5068 L351.9661,66.2878 L350.7611,66.2878 L350.8741,65.7138 L352.1851,65.1618 L353.0831,63.5468 L353.8351,63.5468 L353.4441,65.3178 L355.3991,65.3178 L355.2001,66.2878 L353.2531,66.2878 L352.3541,70.5288 C352.2701,70.9108 352.2281,71.1988 352.2281,71.3918 C352.2281,71.6188 352.2861,71.8088 352.4031,71.9628 C352.5221,72.1158 352.7201,72.1918 352.9991,72.1918" id="Fill-113" fill="#131413" mask="url(#mask-4)"></path>
                        <path d="M357.3781,65.3178 L358.6671,65.3178 L357.6181,70.2028 C357.5341,70.6278 357.4911,70.9528 357.4911,71.1788 C357.4911,71.8448 357.8291,72.1778 358.5051,72.1778 C358.9151,72.1778 359.3121,72.0388 359.6961,71.7598 C360.0811,71.4818 360.4251,71.0768 360.7281,70.5468 C361.0281,70.0148 361.2551,69.3878 361.4071,68.6668 L362.1141,65.3178 L363.3761,65.3178 L361.7261,73.0908 L360.6771,73.0908 L360.8411,71.6538 L360.7711,71.6538 C360.3451,72.2118 359.9171,72.6138 359.4871,72.8608 C359.0581,73.1088 358.6101,73.2328 358.1441,73.2328 C357.5381,73.2328 357.0641,73.0638 356.7201,72.7268 C356.3761,72.3888 356.2021,71.9158 356.2021,71.3068 C356.2021,71.0048 356.2551,70.5888 356.3581,70.0608 L357.3781,65.3178 Z" id="Fill-114" fill="#131413" mask="url(#mask-4)"></path>
                        <path d="M367.2081,72.1781 C367.6471,72.1781 368.0951,71.9571 368.5481,71.5161 C369.0011,71.0741 369.3581,70.5201 369.6241,69.8521 C369.8881,69.1841 370.0211,68.5051 370.0211,67.8171 C370.0211,67.3071 369.8971,66.9171 369.6511,66.6481 C369.4051,66.3791 369.0441,66.2441 368.5671,66.2441 C368.1011,66.2441 367.6691,66.4421 367.2721,66.8361 C366.8761,67.2301 366.5621,67.7671 366.3271,68.4471 C366.0931,69.1261 365.9781,69.8491 365.9781,70.6131 C365.9781,71.6571 366.3881,72.1781 367.2081,72.1781 M366.7711,73.2331 C366.1181,73.2331 365.6041,73.0041 365.2291,72.5461 C364.8541,72.0881 364.6671,71.4351 364.6671,70.5851 C364.6671,69.5981 364.8331,68.6851 365.1631,67.8451 C365.4931,67.0041 365.9501,66.3521 366.5321,65.8871 C367.1161,65.4221 367.7671,65.1901 368.4831,65.1901 C369.3801,65.1901 370.0321,65.6331 370.4371,66.5211 L370.5151,66.5211 C370.6181,65.7141 370.7261,65.0761 370.8331,64.6091 L371.3641,62.0741 L372.6321,62.0741 L370.2961,73.0911 L369.2471,73.0911 L369.4111,71.6541 L369.3541,71.6541 C368.9011,72.2151 368.4701,72.6191 368.0581,72.8651 C367.6471,73.1101 367.2181,73.2331 366.7711,73.2331" id="Fill-115" fill="#131413" mask="url(#mask-4)"></path>
                        <path d="M375.2257,63.349 C375.2257,63.079 375.3057,62.858 375.4637,62.683 C375.6217,62.509 375.8297,62.421 376.0827,62.421 C376.5267,62.421 376.7487,62.639 376.7487,63.073 C376.7487,63.356 376.6667,63.586 376.5007,63.763 C376.3347,63.94 376.1417,64.029 375.9207,64.029 C375.7177,64.029 375.5517,63.97 375.4207,63.852 C375.2917,63.734 375.2257,63.566 375.2257,63.349 L375.2257,63.349 Z M374.5187,73.091 L373.2377,73.091 L374.8937,65.318 L376.1687,65.318 L374.5187,73.091 Z" id="Fill-116" fill="#131413" mask="url(#mask-4)"></path>
                        <path d="M381.546,66.2309 C381.06,66.2309 380.603,66.4589 380.173,66.9139 C379.743,67.3699 379.431,67.9629 379.237,68.6949 L379.345,68.6949 C380.372,68.6949 381.171,68.5579 381.737,68.2839 C382.304,68.0099 382.587,67.6109 382.587,67.0869 C382.587,66.8369 382.501,66.6319 382.331,66.4709 C382.161,66.3109 381.9,66.2309 381.546,66.2309 M380.548,73.2329 C379.669,73.2329 378.98,72.9739 378.48,72.4579 C377.98,71.9409 377.73,71.2239 377.73,70.3089 C377.73,69.4209 377.903,68.5739 378.249,67.7669 C378.597,66.9599 379.066,66.3269 379.655,65.8659 C380.245,65.4059 380.9,65.1749 381.616,65.1749 C382.353,65.1749 382.907,65.3349 383.28,65.6539 C383.653,65.9719 383.839,66.4179 383.839,66.9879 C383.839,67.8469 383.442,68.5189 382.65,69.0019 C381.857,69.4869 380.739,69.7279 379.294,69.7279 L379.054,69.7279 L379.025,70.2659 C379.025,70.8609 379.167,71.3289 379.454,71.6679 C379.739,72.0079 380.179,72.1779 380.775,72.1779 C381.138,72.1779 381.485,72.1269 381.817,72.0219 C382.151,71.9179 382.509,71.7719 382.892,71.5839 L382.892,72.6729 C382.423,72.8909 382.015,73.0389 381.667,73.1159 C381.317,73.1939 380.944,73.2329 380.548,73.2329" id="Fill-117" fill="#131413" mask="url(#mask-4)"></path>
                        <path d="M389.9972,70.8471 C389.9972,71.5971 389.7332,72.1831 389.2062,72.6031 C388.6812,73.0231 387.9382,73.2331 386.9792,73.2331 C386.1302,73.2331 385.4052,73.0701 384.8062,72.7441 L384.8062,71.5691 C385.1142,71.7581 385.4542,71.9091 385.8292,72.0221 C386.2042,72.1351 386.5752,72.1921 386.9382,72.1921 C387.5132,72.1921 387.9502,72.0791 388.2472,71.8561 C388.5442,71.6311 388.6942,71.3371 388.6942,70.9741 C388.6942,70.7141 388.6122,70.4921 388.4502,70.3051 C388.2862,70.1181 387.9342,69.8721 387.3922,69.5661 C386.7822,69.2261 386.3512,68.8871 386.0992,68.5491 C385.8472,68.2121 385.7202,67.8221 385.7202,67.3771 C385.7202,66.7171 385.9602,66.1851 386.4422,65.7811 C386.9232,65.3771 387.5632,65.1751 388.3602,65.1751 C389.1632,65.1751 389.9462,65.3551 390.7122,65.7141 L390.3002,66.7261 C390.0502,66.6081 389.7702,66.4981 389.4582,66.3971 C389.1472,66.2951 388.7802,66.2441 388.3602,66.2441 C387.9462,66.2441 387.6142,66.3431 387.3662,66.5381 C387.1182,66.7351 386.9952,66.9911 386.9952,67.3071 C386.9952,67.5671 387.0812,67.7871 387.2532,67.9691 C387.4252,68.1511 387.7672,68.3831 388.2762,68.6661 C388.8102,68.9831 389.1772,69.2391 389.3762,69.4341 C389.5772,69.6301 389.7312,69.8411 389.8372,70.0681 C389.9422,70.2941 389.9972,70.5541 389.9972,70.8471" id="Fill-118" fill="#131413" mask="url(#mask-4)"></path>
                    </g>
                </g>
            </g>
        </g>
    </svg>