<?xml version="1.0" encoding="UTF-8"?>
<svg id="Ebene_1" xmlns="http://www.w3.org/2000/svg" xmlns:xlink="http://www.w3.org/1999/xlink" version="1.1" viewBox="0 0 204.5 75">
  <!-- Generator: Adobe Illustrator 30.1.0, SVG Export Plug-In . SVG Version: 2.1.1 Build 136)  -->
  <defs>
    <style>
      .st0 {
        mask: url(#mask);
      }

      .st1 {
        fill: #fff;
      }

      .st1, .st2 {
        fill-rule: evenodd;
      }

      .st2 {
        fill: #ea4d3e;
      }
    </style>
    <mask id="mask" x="154.61" y="7.3" width="46.1" height="66.82" maskUnits="userSpaceOnUse">
      <g id="mask-2">
        <polygon id="path-1" class="st1" points="154.61 74.13 200.71 74.13 200.71 7.3 154.61 7.3 154.61 74.13"/>
      </g>
    </mask>
  </defs>
  <g id="Symbols">
    <g id="Header_Start_04">
      <g id="Page-1">
        <polygon id="Fill-1" class="st2" points="52.46 8.49 3.77 8.49 3.77 23.19 27.66 23.19 0 72.8 1.38 72.8 52.74 72.8 52.74 58.1 26.1 58.1 53.85 8.49 52.46 8.49"/>
        <g id="Group-119">
          <g id="Group-4">
            <g class="st0">
              <path id="Fill-2" class="st2" d="M178.24,74.13c-2.87,0-5.68-.41-8.36-1.22-2.97-.9-5.46-2.03-7.61-3.47-.38-.26-1.47-1.05-1.5-1.07-1.06-.76-2.04-1.57-2.91-2.4-1.31-1.24-2.18-2.12-2.69-2.69l-.56-.63,10.32-10.25.2.2s.82.8,1.03,1.02l.18.19c.41.43.77.8,1.55,1.43.91.73,1.96,1.44,3.12,2.11,1.17.67,2.41,1.25,3.7,1.72,2.11.77,4.15.87,6.43.34.94-.22,1.81-.57,2.58-1.04.74-.45,1.35-1.04,1.82-1.78.48-.75.66-1.45.65-2.5,0-.46-.16-1.08-.35-1.37-.36-.55-.89-1.12-1.54-1.64-.78-.63-1.88-1.32-3.27-2.05-1.41-.74-3.31-1.69-5.47-2.53-2.64-1.01-4.79-1.95-6.95-3.06-2.26-1.16-4.42-2.66-6.07-4.22-1.79-1.69-3.03-3.38-3.91-5.32-.93-2.05-1.4-4.44-1.4-7.1s.52-5.3,1.53-7.68c1.01-2.38,2.48-4.47,4.35-6.22,1.86-1.74,4.13-3.12,6.76-4.1,2.61-.97,5.52-1.47,8.65-1.47,1.69,0,3.52.22,5.44.66,1.89.43,3.75,1,5.54,1.67,1.8.69,3.51,1.49,5.09,2.38,1.59.9,2.94,1.84,4.02,2.79l.62.55-8.86,11.12-.66-.45c-1.12-.77-2.29-1.49-3.49-2.15-.97-.51-2.13-1.02-3.43-1.49-1.17-.43-2.45-.65-3.81-.68-2.92-.06-4.21.46-5.47,1.35-1.19.84-1.78,2.02-1.78,3.62,0,.67.2,1.26.61,1.81.45.61,1.08,1.19,1.88,1.71.84.55,1.82,1.06,2.92,1.52.27.12.55.24.84.36.92.4,1.88.82,2.82,1.13,4.27,1.63,7.04,2.88,9.28,4.17,2.55,1.46,4.64,3.05,6.22,4.72,1.6,1.69,2.75,3.55,3.43,5.51.67,1.93,1,4.07,1,6.34,0,2.79-.58,5.46-1.72,7.93-1.14,2.47-2.73,4.63-4.72,6.43-1.99,1.8-4.38,3.24-7.11,4.27-2.73,1.04-5.73,1.56-8.92,1.56"/>
            </g>
          </g>
          <path id="Fill-5" class="st2" d="M88.06,58.07c-9.59,0-17.36-7.77-17.36-17.36s7.77-17.36,17.36-17.36,17.36,7.77,17.36,17.36-7.77,17.36-17.36,17.36M88.06,7.51c-18.31,0-33.14,14.84-33.14,33.14s14.84,33.14,33.14,33.14,33.14-14.84,33.14-33.14S106.36,7.51,88.06,7.51"/>
          <polygon id="Fill-7" class="st2" points="158.45 8.49 143.75 0 143.75 16.97 158.45 8.49"/>
          <polygon id="Fill-9" class="st2" points="129.11 8.52 129.05 8.49 129.05 72.87 143.75 72.87 143.75 16.97 129.11 8.52"/>
        </g>
      </g>
    </g>
  </g>
</svg>