<?xml version="1.0" encoding="UTF-8"?>
<svg id="Ebene_1" xmlns="http://www.w3.org/2000/svg" version="1.1" viewBox="0 0 92 87.87">
  <!-- Generator: Adobe Illustrator 30.1.0, SVG Export Plug-In . SVG Version: 2.1.1 Build 136)  -->
  <polygon points="87.82 57.97 87.82 46.03 45.76 46.03 45.76 87.79 59.96 87.79 59.96 74.19 87.82 74.19 87.82 62.23 59.96 62.23 59.96 57.97 87.82 57.97"/>
  <polygon points="0 41.78 42.03 41.78 42.03 29.82 19.37 29.82 42.03 11.96 42.03 0 0 0 0 11.96 22.66 11.96 0 29.82 0 41.78"/>
  <polygon points="0 87.81 42.03 87.81 42.03 75.85 19.37 75.85 42.03 57.99 42.03 46.03 0 46.03 0 57.99 22.66 57.99 0 75.85 0 87.81"/>
</svg>