<?xml version="1.0" encoding="utf-8"?>
<!-- Generator: Adobe Illustrator 17.0.0, SVG Export Plug-In . SVG Version: 6.00 Build 0)  -->
<!DOCTYPE svg PUBLIC "-//W3C//DTD SVG 1.1//EN" "http://www.w3.org/Graphics/SVG/1.1/DTD/svg11.dtd">
<svg version="1.1" id="Ebene_1" xmlns="http://www.w3.org/2000/svg" xmlns:xlink="http://www.w3.org/1999/xlink" x="0px" y="0px"
	 width="136.06px" height="87.87px" viewBox="0 0 136.06 87.87" enable-background="new 0 0 136.06 87.87" xml:space="preserve">
<path d="M89.623,40.258h-1.29c-0.34,0-0.49-0.1-0.49-0.35c0-0.23,0.16-0.36,0.4-0.36h0.97c1.12,0,1.9-0.6,1.9-1.7v-2.05
	c0-0.13-0.1-0.23-0.23-0.23h-0.5c-0.14,0-0.24,0.1-0.24,0.23v0.65c-0.3-0.22-0.67-0.32-1.02-0.32h-0.25c-1.13,0-1.91,0.66-1.91,1.72
	c0,0.53,0.2,0.92,0.64,1.22c-0.47,0.11-0.68,0.43-0.68,0.82c0,0.34,0.15,0.62,0.46,0.76c-0.44,0.22-0.68,0.62-0.68,1.15
	c0,0.84,0.62,1.53,1.76,1.53h1.16c1.12,0,1.75-0.68,1.75-1.53C91.373,40.948,90.743,40.258,89.623,40.258z M88.903,36.968h0.27
	c0.6,0,0.94,0.37,0.94,0.88c-0.01,0.52-0.36,0.87-0.94,0.87h-0.27c-0.59,0-0.94-0.35-0.94-0.87
	C87.963,37.338,88.313,36.968,88.903,36.968z M89.423,42.498h-0.79c-0.68,0-0.92-0.27-0.92-0.7c0-0.44,0.24-0.72,0.92-0.72h0.79
	c0.69,0,0.94,0.28,0.94,0.72C90.363,42.228,90.113,42.498,89.423,42.498z"/>
<path d="M83.833,36.128c-0.7,0-1.11,0.29-1.37,0.68v-0.34c0-0.13-0.11-0.24-0.24-0.24h-0.61c-0.13,0-0.23,0.11-0.23,0.24v4.53
	c0,0.13,0.1,0.23,0.23,0.23h0.61c0.13,0,0.24-0.1,0.24-0.23v-2.71c0-0.8,0.44-1.24,1.06-1.24s1.06,0.44,1.06,1.24v2.71
	c0,0.13,0.1,0.23,0.23,0.23h0.61c0.13,0,0.24-0.1,0.24-0.23v-2.59C85.663,37.048,85.063,36.128,83.833,36.128z"/>
<path d="M59.033,36.228h-0.13c-0.65,0-1.08,0.34-1.33,0.75v-0.51c0-0.13-0.1-0.24-0.23-0.24h-0.56c-0.13,0-0.23,0.11-0.23,0.24v4.53
	c0,0.13,0.1,0.23,0.23,0.23h0.6c0.13,0,0.24-0.1,0.24-0.23v-2.26c0-0.94,0.43-1.44,1.27-1.44h0.14c0.13,0,0.24-0.1,0.24-0.23v-0.6
	C59.273,36.338,59.163,36.228,59.033,36.228z"/>
<path d="M97.573,34.228h-2.53c-0.13,0-0.23,0.11-0.23,0.24v6.53c0,0.13,0.1,0.23,0.23,0.23h0.61c0.13,0,0.24-0.1,0.24-0.23v-2.2
	h1.68c1.26,0,2.16-0.85,2.16-2.21v-0.24C99.733,34.978,98.833,34.228,97.573,34.228z M98.653,36.588c0,0.82-0.53,1.2-1.15,1.2h-1.61
	v-2.55h1.61c0.62,0,1.15,0.34,1.15,1.17V36.588z"/>
<path d="M50.403,34.228h-3.9c-0.13,0-0.23,0.11-0.23,0.24v6.53c0,0.13,0.1,0.23,0.23,0.23h0.61c0.13,0,0.24-0.1,0.24-0.23v-2.56
	h2.41c0.13,0,0.24-0.1,0.24-0.23v-0.54c0-0.13-0.11-0.24-0.24-0.24h-2.41v-2.19h3.05c0.13,0,0.24-0.1,0.24-0.23v-0.54
	C50.643,34.338,50.533,34.228,50.403,34.228z"/>
<path d="M61.013,37.548c0-0.42,0.38-0.55,0.81-0.55c0.68,0,0.85,0.34,0.95,0.62c0.04,0.1,0.07,0.15,0.18,0.15h0.63
	c0.09,0,0.17-0.06,0.17-0.17c0-0.05-0.01-0.1-0.02-0.13c-0.15-0.59-0.63-1.34-1.87-1.34c-0.99,0-1.89,0.43-1.89,1.47
	c0,2.03,2.84,1.19,2.84,2.23c0,0.46-0.35,0.64-0.92,0.64c-0.72,0-0.94-0.41-1.02-0.67c-0.03-0.1-0.07-0.16-0.18-0.16h-0.62
	c-0.1,0-0.17,0.07-0.18,0.16c-0.01,0.05,0,0.11,0.01,0.14c0.12,0.68,0.75,1.39,1.98,1.39c1.04,0,1.96-0.39,1.96-1.52
	C63.843,37.808,61.013,38.638,61.013,37.548z"/>
<path d="M53.193,36.128c-1.2,0-2.15,0.88-2.15,2.28v0.65c0,1.4,0.95,2.27,2.15,2.27c1.21,0,2.16-0.87,2.16-2.27v-0.65
	C55.353,37.008,54.403,36.128,53.193,36.128z M54.273,39.177c0,0.8-0.45,1.24-1.08,1.24c-0.61,0-1.07-0.44-1.07-1.24v-0.89
	c0-0.8,0.46-1.24,1.07-1.24c0.63,0,1.08,0.44,1.08,1.24V39.177z"/>
<path d="M72.663,36.128c-0.71,0-1.12,0.29-1.38,0.67v-2.33c0-0.13-0.11-0.24-0.24-0.24h-0.61c-0.13,0-0.23,0.11-0.23,0.24v6.53
	c0,0.13,0.1,0.23,0.23,0.23h0.61c0.13,0,0.24-0.1,0.24-0.23v-2.71c0-0.8,0.44-1.24,1.06-1.24c0.62,0,1.06,0.44,1.06,1.24v2.71
	c0,0.13,0.1,0.23,0.23,0.23h0.61c0.13,0,0.24-0.1,0.24-0.23v-2.59C74.483,37.048,73.893,36.128,72.663,36.128z"/>
<path d="M79.723,36.228h-0.61c-0.13,0-0.23,0.11-0.23,0.24v2.71c0,0.8-0.4,1.24-1.02,1.24c-0.61,0-0.98-0.44-0.98-1.24v-2.71
	c0-0.13-0.11-0.24-0.24-0.24h-0.61c-0.13,0-0.23,0.11-0.23,0.24v2.59c0,1.4,0.57,2.27,1.75,2.27c0.72,0,1.08-0.28,1.33-0.64v0.31
	c0,0.13,0.1,0.23,0.23,0.23h0.61c0.13,0,0.24-0.1,0.24-0.23v-4.53C79.963,36.338,79.853,36.228,79.723,36.228z"/>
<path d="M66.943,37.048c0.59,0,0.91,0.36,1.04,0.88c0.01,0.07,0.07,0.15,0.17,0.15h0.69c0.09,0,0.15-0.07,0.15-0.16
	c0-0.04,0-0.08-0.02-0.13c-0.21-0.92-0.94-1.66-2.03-1.66c-1.19,0-2.13,0.88-2.13,2.28v0.65c0,1.4,0.94,2.27,2.13,2.27
	c1.25,0,1.91-0.92,2.03-1.61c0.01-0.05,0.02-0.12,0.02-0.16c0-0.09-0.07-0.16-0.17-0.16h-0.69c-0.08,0-0.14,0.04-0.16,0.14
	c-0.13,0.59-0.48,0.88-1.03,0.88c-0.62,0-1.08-0.44-1.08-1.24v-0.89C65.863,37.487,66.323,37.048,66.943,37.048z"/>
<path d="M121.613,36.128c-1.42,0-1.72,0.81-1.83,1.34c-0.02,0.05-0.02,0.1-0.02,0.13c0,0.1,0.08,0.17,0.18,0.17h0.63
	c0.12,0,0.17-0.07,0.19-0.15c0.07-0.3,0.21-0.57,0.85-0.57c0.74,0,0.98,0.4,0.98,1v0.26h-1.04c-0.69,0-2.01,0.11-2.01,1.51
	c0,1.11,0.78,1.51,1.62,1.51h0.16c0.53,0,1.06-0.23,1.27-0.66v0.33c0,0.13,0.1,0.23,0.23,0.23h0.53c0.13,0,0.24-0.1,0.24-0.23v-2.92
	C123.593,37.128,123.303,36.128,121.613,36.128z M122.593,39.338c0,0.55-0.13,1.14-1.06,1.14h-0.16c-0.41,0-0.82-0.15-0.82-0.66
	c0-0.58,0.4-0.72,1.04-0.72h1V39.338z"/>
<path d="M130.363,36.128c-0.69,0-1.21,0.29-1.55,0.81c-0.32-0.57-0.86-0.81-1.47-0.81c-0.68,0-1.06,0.31-1.3,0.67v-0.33
	c0-0.13-0.11-0.24-0.24-0.24h-0.61c-0.13,0-0.23,0.11-0.23,0.24v4.53c0,0.13,0.1,0.23,0.23,0.23h0.61c0.13,0,0.24-0.1,0.24-0.23
	v-2.55c0-0.81,0.16-1.4,1.01-1.4c0.78,0,0.95,0.49,0.95,1.4v2.55c0,0.13,0.1,0.23,0.23,0.23h0.62c0.12,0,0.23-0.1,0.23-0.23v-2.55
	c0-0.86,0.2-1.4,1.01-1.4s0.95,0.54,0.95,1.4v2.55c0,0.13,0.1,0.23,0.23,0.23h0.61c0.13,0,0.24-0.1,0.24-0.23v-2.45
	C132.123,37.108,131.833,36.128,130.363,36.128z"/>
<path d="M108.163,36.228h-1.01v-1.06c0-0.13-0.1-0.24-0.23-0.24h-0.59c-0.13,0-0.23,0.11-0.23,0.24v0.44c0,0.51-0.2,0.62-0.69,0.62
	c-0.13,0-0.23,0.11-0.23,0.24v0.48c0,0.13,0.1,0.23,0.23,0.23h0.68v2.45c0,1.03,0.35,1.6,1.55,1.6h0.52c0.13,0,0.24-0.1,0.24-0.23
	v-0.51c0-0.13-0.11-0.23-0.24-0.23h-0.34c-0.6,0-0.67-0.21-0.67-0.78v-2.3h1.01c0.13,0,0.24-0.1,0.24-0.23v-0.48
	C108.403,36.338,108.293,36.228,108.163,36.228z"/>
<path d="M110.283,37.548c0-0.42,0.38-0.55,0.81-0.55c0.68,0,0.85,0.34,0.95,0.62c0.04,0.1,0.07,0.15,0.18,0.15h0.63
	c0.09,0,0.17-0.06,0.17-0.17c0-0.05-0.01-0.1-0.02-0.13c-0.15-0.59-0.63-1.34-1.87-1.34c-0.99,0-1.89,0.43-1.89,1.47
	c0,2.03,2.84,1.19,2.84,2.23c0,0.46-0.35,0.64-0.92,0.64c-0.72,0-0.94-0.41-1.02-0.67c-0.03-0.1-0.07-0.16-0.18-0.16h-0.62
	c-0.1,0-0.17,0.07-0.18,0.16c-0.01,0.05,0,0.11,0.01,0.14c0.12,0.68,0.75,1.39,1.98,1.39c1.04,0,1.96-0.39,1.96-1.52
	C113.113,37.808,110.283,38.638,110.283,37.548z"/>
<path d="M118.153,34.228h-0.6c-0.14,0-0.24,0.11-0.24,0.24v2.32c-0.28-0.39-0.7-0.66-1.39-0.66c-1.13,0-1.84,0.79-1.84,2.28v0.61
	c0,1.51,0.74,2.31,1.84,2.31c0.65,0,1.09-0.22,1.39-0.65v0.32c0,0.13,0.1,0.23,0.24,0.23h0.6c0.13,0,0.24-0.1,0.24-0.23v-6.53
	C118.393,34.338,118.283,34.228,118.153,34.228z M117.313,39.177c0,0.71-0.37,1.24-1.08,1.24c-0.71,0-1.07-0.53-1.07-1.24v-0.89
	c0-0.7,0.36-1.24,1.07-1.24c0.71,0,1.08,0.53,1.08,1.21V39.177z"/>
<path d="M102.533,36.128c-1.2,0-2.15,0.88-2.15,2.28v0.65c0,1.4,0.95,2.27,2.15,2.27c1.21,0,2.16-0.87,2.16-2.27v-0.65
	C104.693,37.008,103.743,36.128,102.533,36.128z M103.613,39.177c0,0.8-0.45,1.24-1.08,1.24c-0.61,0-1.07-0.44-1.07-1.24v-0.89
	c0-0.8,0.46-1.24,1.07-1.24c0.63,0,1.08,0.44,1.08,1.24V39.177z"/>
<path d="M89.743,25.578c-0.13,0-0.23,0.11-0.23,0.24v4.53c0,0.13,0.1,0.23,0.23,0.23h0.61c0.13,0,0.24-0.1,0.24-0.23v-4.53
	c0-0.13-0.11-0.24-0.24-0.24H89.743z"/>
<path d="M60.113,28.978c0,1.03,0.35,1.6,1.55,1.6h0.52c0.13,0,0.24-0.1,0.24-0.23v-0.51c0-0.13-0.11-0.23-0.24-0.23h-0.34
	c-0.6,0-0.67-0.21-0.67-0.78v-2.3h1.01c0.13,0,0.24-0.1,0.24-0.23v-0.48c0-0.13-0.11-0.24-0.24-0.24h-1.01v-1.06
	c0-0.13-0.1-0.24-0.23-0.24h-0.59c-0.13,0-0.23,0.11-0.23,0.24v0.44c0,0.51-0.2,0.62-0.69,0.62c-0.13,0-0.23,0.11-0.23,0.24v0.48
	c0,0.13,0.1,0.23,0.23,0.23h0.68V28.978z"/>
<path d="M79.053,26.528c0.13,0,0.24-0.1,0.24-0.23v-0.48c0-0.13-0.11-0.24-0.24-0.24h-1.01v-1.06c0-0.13-0.1-0.24-0.23-0.24h-0.59
	c-0.13,0-0.23,0.11-0.23,0.24v0.44c0,0.51-0.2,0.62-0.69,0.62c-0.13,0-0.23,0.11-0.23,0.24v0.48c0,0.13,0.1,0.23,0.23,0.23h0.68
	v2.45c0,1.03,0.35,1.6,1.55,1.6h0.52c0.13,0,0.24-0.1,0.24-0.23v-0.51c0-0.13-0.11-0.23-0.24-0.23h-0.34c-0.6,0-0.67-0.21-0.67-0.78
	v-2.3H79.053z"/>
<path d="M90.043,23.518c-0.38,0-0.64,0.27-0.64,0.66c0,0.38,0.26,0.65,0.64,0.65c0.39,0,0.66-0.27,0.66-0.65
	C90.703,23.788,90.433,23.518,90.043,23.518z"/>
<path d="M50.563,23.578h-4.37c-0.13,0-0.24,0.11-0.24,0.24v0.54c0,0.13,0.11,0.23,0.24,0.23h3.31l-3.4,4.89
	c-0.11,0.15-0.15,0.24-0.15,0.41v0.46c0,0.13,0.11,0.23,0.24,0.23h4.37c0.13,0,0.24-0.1,0.24-0.23v-0.53c0-0.13-0.11-0.24-0.24-0.24
	h-3.26l3.29-4.75c0.11-0.15,0.21-0.29,0.21-0.51v-0.5C50.803,23.688,50.693,23.578,50.563,23.578z"/>
<path d="M57.643,23.518c-0.38,0-0.64,0.27-0.64,0.66c0,0.38,0.26,0.65,0.64,0.65c0.39,0,0.66-0.27,0.66-0.65
	C58.303,23.788,58.033,23.518,57.643,23.518z"/>
<path d="M57.343,25.578c-0.13,0-0.23,0.11-0.23,0.24v4.53c0,0.13,0.1,0.23,0.23,0.23h0.61c0.13,0,0.24-0.1,0.24-0.23v-4.53
	c0-0.13-0.11-0.24-0.24-0.24H57.343z"/>
<path d="M65.773,26.398c0.62,0,1.06,0.44,1.06,1.24v2.71c0,0.13,0.1,0.23,0.23,0.23h0.61c0.13,0,0.24-0.1,0.24-0.23v-2.59
	c0-1.36-0.59-2.28-1.82-2.28c-0.71,0-1.12,0.29-1.38,0.67v-2.33c0-0.13-0.11-0.24-0.24-0.24h-0.61c-0.13,0-0.23,0.11-0.23,0.24v6.53
	c0,0.13,0.1,0.23,0.23,0.23h0.61c0.13,0,0.24-0.1,0.24-0.23v-2.71C64.713,26.838,65.153,26.398,65.773,26.398z"/>
<path d="M53.743,25.478c-1.2,0-2.16,0.88-2.16,2.28v0.65c0,1.4,0.96,2.27,2.17,2.27c0.74,0,1.61-0.36,1.97-1.33
	c0.02-0.05,0.05-0.11,0.05-0.16c0-0.1-0.07-0.17-0.16-0.17h-0.65c-0.14,0-0.2,0.1-0.23,0.14c-0.27,0.53-0.64,0.61-0.98,0.61
	c-0.62,0-1.09-0.48-1.09-1.19v-0.14h2.97c0.13,0,0.23-0.11,0.23-0.24v-0.46C55.863,26.398,54.923,25.478,53.743,25.478z
	 M54.823,27.677h-2.16v-0.11c0-0.73,0.46-1.17,1.08-1.17s1.08,0.43,1.08,1.16V27.677z"/>
<path d="M87.953,26.648h0.14c0.13,0,0.24-0.1,0.24-0.23v-0.6c0-0.13-0.11-0.24-0.24-0.24h-0.13c-0.65,0-1.08,0.34-1.33,0.75v-0.51
	c0-0.13-0.1-0.24-0.23-0.24h-0.56c-0.13,0-0.23,0.11-0.23,0.24v4.53c0,0.13,0.1,0.23,0.23,0.23h0.6c0.13,0,0.24-0.1,0.24-0.23v-2.26
	C86.683,27.148,87.113,26.648,87.953,26.648z"/>
<path d="M100.903,28.908c0-0.09-0.07-0.16-0.17-0.16h-0.69c-0.08,0-0.14,0.04-0.16,0.14c-0.13,0.59-0.48,0.88-1.03,0.88
	c-0.62,0-1.08-0.44-1.08-1.24v-0.89c0-0.8,0.46-1.24,1.08-1.24c0.59,0,0.91,0.36,1.04,0.88c0.01,0.07,0.07,0.15,0.17,0.15h0.69
	c0.09,0,0.15-0.07,0.15-0.16c0-0.04,0-0.08-0.02-0.13c-0.21-0.92-0.94-1.66-2.03-1.66c-1.19,0-2.13,0.88-2.13,2.28v0.65
	c0,1.4,0.94,2.27,2.13,2.27c1.25,0,1.91-0.92,2.03-1.61C100.893,29.018,100.903,28.948,100.903,28.908z"/>
<path d="M111.593,28.438c0.13,0,0.23-0.11,0.23-0.24v-0.46c0-1.34-0.94-2.26-2.12-2.26c-1.2,0-2.16,0.88-2.16,2.28v0.65
	c0,1.4,0.96,2.27,2.17,2.27c0.74,0,1.61-0.36,1.97-1.33c0.02-0.05,0.05-0.11,0.05-0.16c0-0.1-0.07-0.17-0.16-0.17h-0.65
	c-0.14,0-0.2,0.1-0.23,0.14c-0.27,0.53-0.64,0.61-0.98,0.61c-0.62,0-1.09-0.48-1.09-1.19v-0.14H111.593z M108.623,27.568
	c0-0.73,0.46-1.17,1.08-1.17s1.08,0.43,1.08,1.16v0.12h-2.16V27.568z"/>
<path d="M84.413,28.408v-0.65c0-1.4-0.95-2.28-2.16-2.28c-1.2,0-2.15,0.88-2.15,2.28v0.65c0,1.4,0.95,2.27,2.15,2.27
	C83.463,30.677,84.413,29.808,84.413,28.408z M81.183,28.528v-0.89c0-0.8,0.46-1.24,1.07-1.24c0.63,0,1.08,0.44,1.08,1.24v0.89
	c0,0.8-0.45,1.24-1.08,1.24C81.643,29.768,81.183,29.328,81.183,28.528z"/>
<path d="M105.313,30.348c0,0.13,0.1,0.23,0.23,0.23h0.61c0.13,0,0.24-0.1,0.24-0.23v-2.59c0-1.36-0.59-2.28-1.82-2.28
	c-0.71,0-1.12,0.29-1.38,0.67v-2.33c0-0.13-0.11-0.24-0.24-0.24h-0.61c-0.13,0-0.23,0.11-0.23,0.24v6.53c0,0.13,0.1,0.23,0.23,0.23
	h0.61c0.13,0,0.24-0.1,0.24-0.23v-2.71c0-0.8,0.44-1.24,1.06-1.24s1.06,0.44,1.06,1.24V30.348z"/>
<path d="M95.753,29.158c0-2-2.83-1.17-2.83-2.26c0-0.42,0.38-0.55,0.81-0.55c0.68,0,0.85,0.34,0.95,0.62
	c0.04,0.1,0.07,0.15,0.18,0.15h0.63c0.09,0,0.17-0.06,0.17-0.17c0-0.05-0.01-0.1-0.02-0.13c-0.15-0.59-0.63-1.34-1.87-1.34
	c-0.99,0-1.89,0.43-1.89,1.47c0,2.03,2.84,1.19,2.84,2.23c0,0.46-0.35,0.64-0.92,0.64c-0.72,0-0.94-0.41-1.02-0.67
	c-0.03-0.1-0.07-0.16-0.18-0.16h-0.62c-0.1,0-0.17,0.07-0.18,0.16c-0.01,0.05,0,0.11,0.01,0.14c0.12,0.68,0.75,1.39,1.98,1.39
	C94.833,30.677,95.753,30.288,95.753,29.158z"/>
<path d="M70.413,30.348v-4.53c0-0.13-0.11-0.24-0.24-0.24h-0.61c-0.13,0-0.23,0.11-0.23,0.24v4.53c0,0.13,0.1,0.23,0.23,0.23h0.61
	C70.303,30.578,70.413,30.478,70.413,30.348z"/>
<path d="M69.863,24.828c0.39,0,0.66-0.27,0.66-0.65c0-0.39-0.27-0.66-0.66-0.66c-0.38,0-0.64,0.27-0.64,0.66
	C69.223,24.558,69.483,24.828,69.863,24.828z"/>
<path d="M72.743,26.898c0-0.42,0.38-0.55,0.81-0.55c0.68,0,0.85,0.34,0.95,0.62c0.04,0.1,0.07,0.15,0.18,0.15h0.63
	c0.09,0,0.17-0.06,0.17-0.17c0-0.05-0.01-0.1-0.02-0.13c-0.15-0.59-0.63-1.34-1.87-1.34c-0.99,0-1.89,0.43-1.89,1.47
	c0,2.03,2.84,1.19,2.84,2.23c0,0.46-0.35,0.64-0.92,0.64c-0.72,0-0.94-0.41-1.02-0.67c-0.03-0.1-0.07-0.16-0.18-0.16h-0.62
	c-0.1,0-0.17,0.07-0.18,0.16c-0.01,0.05,0,0.11,0.01,0.14c0.12,0.68,0.75,1.39,1.98,1.39c1.04,0,1.96-0.39,1.96-1.52
	C75.573,27.158,72.743,27.987,72.743,26.898z"/>
<path d="M70.863,14.728c-0.13,0-0.23,0.11-0.23,0.24v4.53c0,0.13,0.1,0.23,0.23,0.23h0.61c0.13,0,0.24-0.1,0.24-0.23v-4.53
	c0-0.13-0.11-0.24-0.24-0.24H70.863z"/>
<path d="M71.163,12.668c-0.38,0-0.64,0.27-0.64,0.66c0,0.38,0.26,0.65,0.64,0.65c0.39,0,0.66-0.27,0.66-0.65
	C71.823,12.938,71.553,12.668,71.163,12.668z"/>
<path d="M80.593,17.008v-0.57c0-0.13-0.1-0.23-0.23-0.23h-2.37c-0.13,0-0.23,0.1-0.23,0.23v0.57c0,0.13,0.1,0.23,0.23,0.23h2.37
	C80.493,17.237,80.593,17.138,80.593,17.008z"/>
<path d="M86.973,16.908v0.65c0,1.4,0.96,2.27,2.17,2.27c0.74,0,1.61-0.36,1.97-1.33c0.02-0.05,0.05-0.11,0.05-0.16
	c0-0.1-0.07-0.17-0.16-0.17h-0.65c-0.14,0-0.2,0.1-0.23,0.14c-0.27,0.53-0.64,0.61-0.98,0.61c-0.62,0-1.09-0.48-1.09-1.19v-0.14
	h2.97c0.13,0,0.23-0.11,0.23-0.24v-0.46c0-1.34-0.94-2.26-2.12-2.26C87.933,14.628,86.973,15.508,86.973,16.908z M88.053,16.718
	c0-0.73,0.46-1.17,1.08-1.17s1.08,0.43,1.08,1.16v0.12h-2.16V16.718z"/>
<path d="M133.442,14.728h-0.13c-0.65,0-1.08,0.34-1.33,0.75v-0.51c0-0.13-0.1-0.24-0.23-0.24h-0.56c-0.13,0-0.23,0.11-0.23,0.24
	v4.53c0,0.13,0.1,0.23,0.23,0.23h0.6c0.13,0,0.24-0.1,0.24-0.23v-2.26c0-0.94,0.43-1.44,1.27-1.44h0.14c0.13,0,0.24-0.1,0.24-0.23
	v-0.6C133.682,14.838,133.572,14.728,133.442,14.728z"/>
<path d="M99.192,13.427h-0.59c-0.13,0-0.23,0.11-0.23,0.24v0.44c0,0.51-0.2,0.62-0.69,0.62c-0.13,0-0.23,0.11-0.23,0.24v0.48
	c0,0.13,0.1,0.23,0.23,0.23h0.68v2.45c0,1.03,0.35,1.6,1.55,1.6h0.52c0.13,0,0.24-0.1,0.24-0.23v-0.51c0-0.13-0.11-0.23-0.24-0.23
	h-0.34c-0.6,0-0.67-0.21-0.67-0.78v-2.3h1.01c0.13,0,0.24-0.1,0.24-0.23v-0.48c0-0.13-0.11-0.24-0.24-0.24h-1.01v-1.06
	C99.422,13.538,99.322,13.427,99.192,13.427z"/>
<path d="M72.853,19.088v0.41c0,0.13,0.11,0.23,0.24,0.23h3.3c0.13,0,0.23-0.1,0.23-0.23v-0.46c0-0.13-0.1-0.24-0.23-0.24h-2.31
	l2.39-2.96c0.12-0.14,0.15-0.24,0.15-0.39v-0.48c0-0.13-0.1-0.24-0.23-0.24h-3.3c-0.13,0-0.24,0.11-0.24,0.24v0.47
	c0,0.13,0.11,0.23,0.24,0.23h2.27l-2.33,2.98C72.913,18.788,72.853,18.858,72.853,19.088z"/>
<path d="M86.193,13.468v-0.5c0-0.13-0.11-0.24-0.24-0.24h-4.37c-0.13,0-0.24,0.11-0.24,0.24v0.54c0,0.13,0.11,0.23,0.24,0.23h3.31
	l-3.4,4.89c-0.11,0.15-0.15,0.24-0.15,0.41v0.46c0,0.13,0.11,0.23,0.24,0.23h4.37c0.13,0,0.24-0.1,0.24-0.23v-0.53
	c0-0.13-0.11-0.24-0.24-0.24h-3.26l3.29-4.75C86.093,13.828,86.193,13.688,86.193,13.468z"/>
<path d="M93.303,14.728h-0.61c-0.13,0-0.23,0.11-0.23,0.24v4.53c0,0.13,0.1,0.23,0.23,0.23h0.61c0.13,0,0.24-0.1,0.24-0.23v-2.71
	c0-0.8,0.44-1.24,1.06-1.24s1.06,0.44,1.06,1.24v2.71c0,0.13,0.1,0.23,0.23,0.23h0.61c0.13,0,0.24-0.1,0.24-0.23v-2.59
	c0-1.36-0.6-2.28-1.83-2.28c-0.7,0-1.11,0.29-1.37,0.68v-0.34C93.543,14.838,93.433,14.728,93.303,14.728z"/>
<path d="M60.253,12.728h-0.61c-0.13,0-0.23,0.11-0.23,0.24v6.53c0,0.13,0.1,0.23,0.23,0.23h0.61c0.13,0,0.24-0.1,0.24-0.23v-0.32
	c0.3,0.43,0.75,0.65,1.39,0.65c1.1,0,1.84-0.8,1.84-2.31v-0.61c0-1.49-0.71-2.28-1.84-2.28c-0.68,0-1.11,0.27-1.39,0.66v-2.32
	C60.493,12.838,60.383,12.728,60.253,12.728z M61.573,15.548c0.72,0,1.07,0.54,1.07,1.24v0.89c0,0.71-0.36,1.24-1.07,1.24
	s-1.08-0.53-1.08-1.24v-0.92C60.493,16.078,60.873,15.548,61.573,15.548z"/>
<path d="M106.442,14.728h-0.61c-0.13,0-0.23,0.11-0.23,0.24v2.59c0,1.4,0.57,2.27,1.75,2.27c0.72,0,1.08-0.28,1.33-0.64v0.31
	c0,0.13,0.1,0.23,0.23,0.23h0.61c0.13,0,0.24-0.1,0.24-0.23v-4.53c0-0.13-0.11-0.24-0.24-0.24h-0.61c-0.13,0-0.23,0.11-0.23,0.24
	v2.71c0,0.8-0.4,1.24-1.02,1.24c-0.61,0-0.98-0.44-0.98-1.24v-2.71C106.682,14.838,106.572,14.728,106.442,14.728z"/>
<path d="M127.162,13.408c0-0.35-0.24-0.59-0.59-0.59c-0.35,0-0.59,0.24-0.59,0.59c0,0.35,0.24,0.59,0.59,0.59
	C126.922,13.998,127.162,13.758,127.162,13.408z"/>
<path d="M67.383,14.628c-0.7,0-1.11,0.29-1.37,0.68v-0.34c0-0.13-0.11-0.24-0.24-0.24h-0.61c-0.13,0-0.23,0.11-0.23,0.24v4.53
	c0,0.13,0.1,0.23,0.23,0.23h0.61c0.13,0,0.24-0.1,0.24-0.23v-2.71c0-0.8,0.44-1.24,1.06-1.24s1.06,0.44,1.06,1.24v2.71
	c0,0.13,0.1,0.23,0.23,0.23h0.61c0.13,0,0.24-0.1,0.24-0.23v-2.59C69.213,15.548,68.613,14.628,67.383,14.628z"/>
<path d="M125.382,14.968v2.59c0,1.4,0.57,2.27,1.75,2.27c0.72,0,1.08-0.28,1.33-0.64v0.31c0,0.13,0.1,0.23,0.23,0.23h0.61
	c0.13,0,0.24-0.1,0.24-0.23v-4.53c0-0.13-0.11-0.24-0.24-0.24h-0.61c-0.13,0-0.23,0.11-0.23,0.24v2.71c0,0.8-0.4,1.24-1.02,1.24
	c-0.61,0-0.98-0.44-0.98-1.24v-2.71c0-0.13-0.11-0.24-0.24-0.24h-0.61C125.482,14.728,125.382,14.838,125.382,14.968z"/>
<path d="M124.282,12.728h-0.32c-1.24,0-1.75,0.48-1.75,1.79v0.21h-0.68c-0.13,0-0.23,0.11-0.23,0.24v0.48c0,0.13,0.1,0.23,0.23,0.23
	h0.68v3.82c0,0.13,0.11,0.23,0.24,0.23h0.6c0.14,0,0.24-0.1,0.24-0.23v-3.82h0.99c0.13,0,0.24-0.1,0.24-0.23v-0.48
	c0-0.13-0.11-0.24-0.24-0.24h-0.99v-0.21c0-0.67,0.11-0.82,0.67-0.82h0.32c0.13,0,0.24-0.1,0.24-0.23v-0.5
	C124.522,12.838,124.412,12.728,124.282,12.728z"/>
<path d="M114.222,19.498c0,0.13,0.1,0.23,0.23,0.23h0.62c0.12,0,0.23-0.1,0.23-0.23v-2.55c0-0.86,0.2-1.4,1.01-1.4
	s0.95,0.54,0.95,1.4v2.55c0,0.13,0.1,0.23,0.23,0.23h0.61c0.13,0,0.24-0.1,0.24-0.23v-2.45c0-1.44-0.29-2.42-1.76-2.42
	c-0.69,0-1.21,0.29-1.55,0.81c-0.32-0.57-0.86-0.81-1.47-0.81c-0.68,0-1.06,0.31-1.3,0.67v-0.33c0-0.13-0.11-0.24-0.24-0.24h-0.61
	c-0.13,0-0.23,0.11-0.23,0.24v4.53c0,0.13,0.1,0.23,0.23,0.23h0.61c0.13,0,0.24-0.1,0.24-0.23v-2.55c0-0.81,0.16-1.4,1.01-1.4
	c0.78,0,0.95,0.49,0.95,1.4V19.498z"/>
<path d="M57.013,19.728h0.61c0.13,0,0.24-0.1,0.24-0.23v-4.53c0-0.13-0.11-0.24-0.24-0.24h-0.61c-0.13,0-0.23,0.11-0.23,0.24v4.53
	C56.783,19.628,56.883,19.728,57.013,19.728z"/>
<path d="M129.062,13.408c0-0.35-0.24-0.59-0.59-0.59s-0.59,0.24-0.59,0.59c0,0.35,0.24,0.59,0.59,0.59
	S129.062,13.758,129.062,13.408z"/>
<path d="M102.592,14.728h-0.56c-0.13,0-0.23,0.11-0.23,0.24v4.53c0,0.13,0.1,0.23,0.23,0.23h0.6c0.13,0,0.24-0.1,0.24-0.23v-2.26
	c0-0.94,0.43-1.44,1.27-1.44h0.14c0.13,0,0.24-0.1,0.24-0.23v-0.6c0-0.13-0.11-0.24-0.24-0.24h-0.13c-0.65,0-1.08,0.34-1.33,0.75
	v-0.51C102.822,14.838,102.722,14.728,102.592,14.728z"/>
<path d="M57.313,13.978c0.39,0,0.66-0.27,0.66-0.65c0-0.39-0.27-0.66-0.66-0.66c-0.38,0-0.64,0.27-0.64,0.66
	C56.673,13.708,56.933,13.978,57.313,13.978z"/>
<path d="M55.303,17.588c0.13,0,0.23-0.11,0.23-0.24v-0.46c0-1.34-0.94-2.26-2.12-2.26c-1.2,0-2.16,0.88-2.16,2.28v0.65
	c0,1.4,0.96,2.27,2.17,2.27c0.74,0,1.61-0.36,1.97-1.33c0.02-0.05,0.05-0.11,0.05-0.16c0-0.1-0.07-0.17-0.16-0.17h-0.65
	c-0.14,0-0.2,0.1-0.23,0.14c-0.27,0.53-0.64,0.61-0.98,0.61c-0.62,0-1.09-0.48-1.09-1.19v-0.14H55.303z M52.333,16.718
	c0-0.73,0.46-1.17,1.08-1.17c0.62,0,1.08,0.43,1.08,1.16v0.12h-2.16V16.718z"/>
<path d="M47.113,12.728h-0.61c-0.13,0-0.23,0.11-0.23,0.24v6.53c0,0.13,0.1,0.23,0.23,0.23h3.94c0.13,0,0.24-0.1,0.24-0.23v-0.54
	c0-0.13-0.11-0.23-0.24-0.23h-3.09v-5.76C47.353,12.838,47.243,12.728,47.113,12.728z"/>
<polygon points="87.817,57.969 87.817,46.027 45.761,46.027 45.761,87.786 59.958,87.786 59.958,74.19 87.817,74.19 87.817,62.229 
	59.958,62.229 59.958,57.969 "/>
<polygon points="0,41.778 42.033,41.778 42.033,29.815 19.374,29.815 42.033,11.96 42.033,0 0,0 0,11.961 22.663,11.961 
	0.001,29.815 "/>
<polygon points="0,87.808 42.033,87.808 42.033,75.845 19.374,75.845 42.033,57.989 42.033,46.029 0,46.029 0,57.99 22.663,57.99 
	0.001,75.845 "/>
</svg>
